M48
;DRILL file {KiCad 4.0.7+dfsg1-1~bpo9+1} date Fri Jan  5 13:38:15 2018
;FORMAT={-:-/ absolute / metric / decimal}
FMAT,2
METRIC,TZ
T1C0.400
T2C0.800
T3C1.000
%
G90
G05
M71
T1
X124.527Y-98.965
X143.691Y-93.822
X144.685Y-99.501
X145.2Y-96.565
X146.724Y-112.857
X150.189Y-106.598
X152.302Y-86.65
X156.864Y-112.181
X157.25Y-85.75
X158.063Y-113.4
X160.079Y-96.596
X167.092Y-102.156
T2
X127.22Y-102.38
X127.22Y-117.62
X129.76Y-102.38
X129.76Y-117.62
X132.3Y-102.38
X132.3Y-117.62
X134.84Y-102.38
X134.84Y-117.62
X137.38Y-102.38
X137.38Y-117.62
X139.92Y-102.38
X139.92Y-117.62
X142.46Y-102.38
X142.46Y-117.62
X145.Y-102.38
X145.Y-117.62
X147.54Y-102.38
X147.54Y-117.62
X150.08Y-102.38
X150.08Y-117.62
X152.62Y-102.38
X152.62Y-117.62
X155.16Y-102.38
X155.16Y-117.62
X157.7Y-102.38
X157.7Y-117.62
X160.24Y-102.38
X160.24Y-117.62
X162.78Y-102.38
X162.78Y-117.62
T3
X126.14Y-126.08
X127.Y-93.46
X127.Y-96.
X128.68Y-126.08
X129.54Y-93.46
X129.54Y-96.
X132.08Y-93.46
X132.08Y-96.
X133.76Y-126.08
X134.62Y-93.46
X134.62Y-96.
X147.46Y-74.58
X150.Y-74.58
X166.78Y-75.28
X166.78Y-77.82
X166.78Y-80.36
X166.78Y-82.9
X166.78Y-126.08
X169.32Y-103.22
X169.32Y-108.3
X169.32Y-113.38
X169.32Y-118.46
T0
M30
