G04 #@! TF.FileFunction,Copper,L1,Top,Signal*
%FSLAX46Y46*%
G04 Gerber Fmt 4.6, Leading zero omitted, Abs format (unit mm)*
G04 Created by KiCad (PCBNEW 4.0.7+dfsg1-1~bpo9+1) date Fri Jan  5 13:38:06 2018*
%MOMM*%
%LPD*%
G01*
G04 APERTURE LIST*
%ADD10C,0.100000*%
%ADD11C,0.150000*%
%ADD12C,0.300000*%
%ADD13C,0.400000*%
%ADD14C,1.574800*%
%ADD15R,2.032000X1.524000*%
%ADD16R,1.524000X2.032000*%
%ADD17R,1.700000X1.700000*%
%ADD18O,1.700000X1.700000*%
%ADD19C,1.700000*%
%ADD20R,2.000000X3.800000*%
%ADD21R,2.000000X1.500000*%
%ADD22R,0.500000X0.900000*%
%ADD23R,0.900000X0.500000*%
%ADD24C,0.600000*%
%ADD25C,0.250000*%
%ADD26C,1.200000*%
%ADD27C,0.200000*%
G04 APERTURE END LIST*
D10*
D11*
X177002200Y-166007200D02*
X177002200Y-198007200D01*
X285002200Y-198007200D01*
X285002200Y-166007200D01*
X177002200Y-166007200D01*
D10*
D11*
X10000000Y-10000000D02*
X10000000Y-200007200D01*
X287002200Y-200007200D01*
X287002200Y-10000000D01*
X10000000Y-10000000D01*
D10*
D11*
X12000000Y-12000000D02*
X12000000Y-198007200D01*
X285002200Y-198007200D01*
X285002200Y-12000000D01*
X12000000Y-12000000D01*
D10*
D11*
X60000000Y-12000000D02*
X60000000Y-10000000D01*
D10*
D11*
X110000000Y-12000000D02*
X110000000Y-10000000D01*
D10*
D11*
X160000000Y-12000000D02*
X160000000Y-10000000D01*
D10*
D11*
X210000000Y-12000000D02*
X210000000Y-10000000D01*
D10*
D11*
X260000000Y-12000000D02*
X260000000Y-10000000D01*
D10*
D11*
X35990476Y-11588095D02*
X35247619Y-11588095D01*
X35619048Y-11588095D02*
X35619048Y-10288095D01*
X35495238Y-10473810D01*
X35371429Y-10597619D01*
X35247619Y-10659524D01*
D10*
D11*
X85247619Y-10411905D02*
X85309524Y-10350000D01*
X85433333Y-10288095D01*
X85742857Y-10288095D01*
X85866667Y-10350000D01*
X85928571Y-10411905D01*
X85990476Y-10535714D01*
X85990476Y-10659524D01*
X85928571Y-10845238D01*
X85185714Y-11588095D01*
X85990476Y-11588095D01*
D10*
D11*
X135185714Y-10288095D02*
X135990476Y-10288095D01*
X135557143Y-10783333D01*
X135742857Y-10783333D01*
X135866667Y-10845238D01*
X135928571Y-10907143D01*
X135990476Y-11030952D01*
X135990476Y-11340476D01*
X135928571Y-11464286D01*
X135866667Y-11526190D01*
X135742857Y-11588095D01*
X135371429Y-11588095D01*
X135247619Y-11526190D01*
X135185714Y-11464286D01*
D10*
D11*
X185866667Y-10721429D02*
X185866667Y-11588095D01*
X185557143Y-10226190D02*
X185247619Y-11154762D01*
X186052381Y-11154762D01*
D10*
D11*
X235928571Y-10288095D02*
X235309524Y-10288095D01*
X235247619Y-10907143D01*
X235309524Y-10845238D01*
X235433333Y-10783333D01*
X235742857Y-10783333D01*
X235866667Y-10845238D01*
X235928571Y-10907143D01*
X235990476Y-11030952D01*
X235990476Y-11340476D01*
X235928571Y-11464286D01*
X235866667Y-11526190D01*
X235742857Y-11588095D01*
X235433333Y-11588095D01*
X235309524Y-11526190D01*
X235247619Y-11464286D01*
D10*
D11*
X285866667Y-10288095D02*
X285619048Y-10288095D01*
X285495238Y-10350000D01*
X285433333Y-10411905D01*
X285309524Y-10597619D01*
X285247619Y-10845238D01*
X285247619Y-11340476D01*
X285309524Y-11464286D01*
X285371429Y-11526190D01*
X285495238Y-11588095D01*
X285742857Y-11588095D01*
X285866667Y-11526190D01*
X285928571Y-11464286D01*
X285990476Y-11340476D01*
X285990476Y-11030952D01*
X285928571Y-10907143D01*
X285866667Y-10845238D01*
X285742857Y-10783333D01*
X285495238Y-10783333D01*
X285371429Y-10845238D01*
X285309524Y-10907143D01*
X285247619Y-11030952D01*
D10*
D11*
X60000000Y-198007200D02*
X60000000Y-200007200D01*
D10*
D11*
X110000000Y-198007200D02*
X110000000Y-200007200D01*
D10*
D11*
X160000000Y-198007200D02*
X160000000Y-200007200D01*
D10*
D11*
X210000000Y-198007200D02*
X210000000Y-200007200D01*
D10*
D11*
X260000000Y-198007200D02*
X260000000Y-200007200D01*
D10*
D11*
X35990476Y-199595295D02*
X35247619Y-199595295D01*
X35619048Y-199595295D02*
X35619048Y-198295295D01*
X35495238Y-198481010D01*
X35371429Y-198604819D01*
X35247619Y-198666724D01*
D10*
D11*
X85247619Y-198419105D02*
X85309524Y-198357200D01*
X85433333Y-198295295D01*
X85742857Y-198295295D01*
X85866667Y-198357200D01*
X85928571Y-198419105D01*
X85990476Y-198542914D01*
X85990476Y-198666724D01*
X85928571Y-198852438D01*
X85185714Y-199595295D01*
X85990476Y-199595295D01*
D10*
D11*
X135185714Y-198295295D02*
X135990476Y-198295295D01*
X135557143Y-198790533D01*
X135742857Y-198790533D01*
X135866667Y-198852438D01*
X135928571Y-198914343D01*
X135990476Y-199038152D01*
X135990476Y-199347676D01*
X135928571Y-199471486D01*
X135866667Y-199533390D01*
X135742857Y-199595295D01*
X135371429Y-199595295D01*
X135247619Y-199533390D01*
X135185714Y-199471486D01*
D10*
D11*
X185866667Y-198728629D02*
X185866667Y-199595295D01*
X185557143Y-198233390D02*
X185247619Y-199161962D01*
X186052381Y-199161962D01*
D10*
D11*
X235928571Y-198295295D02*
X235309524Y-198295295D01*
X235247619Y-198914343D01*
X235309524Y-198852438D01*
X235433333Y-198790533D01*
X235742857Y-198790533D01*
X235866667Y-198852438D01*
X235928571Y-198914343D01*
X235990476Y-199038152D01*
X235990476Y-199347676D01*
X235928571Y-199471486D01*
X235866667Y-199533390D01*
X235742857Y-199595295D01*
X235433333Y-199595295D01*
X235309524Y-199533390D01*
X235247619Y-199471486D01*
D10*
D11*
X285866667Y-198295295D02*
X285619048Y-198295295D01*
X285495238Y-198357200D01*
X285433333Y-198419105D01*
X285309524Y-198604819D01*
X285247619Y-198852438D01*
X285247619Y-199347676D01*
X285309524Y-199471486D01*
X285371429Y-199533390D01*
X285495238Y-199595295D01*
X285742857Y-199595295D01*
X285866667Y-199533390D01*
X285928571Y-199471486D01*
X285990476Y-199347676D01*
X285990476Y-199038152D01*
X285928571Y-198914343D01*
X285866667Y-198852438D01*
X285742857Y-198790533D01*
X285495238Y-198790533D01*
X285371429Y-198852438D01*
X285309524Y-198914343D01*
X285247619Y-199038152D01*
D10*
D11*
X10000000Y-60000000D02*
X12000000Y-60000000D01*
D10*
D11*
X10000000Y-110000000D02*
X12000000Y-110000000D01*
D10*
D11*
X10000000Y-160000000D02*
X12000000Y-160000000D01*
D10*
D11*
X10690476Y-35216667D02*
X11309524Y-35216667D01*
X10566667Y-35588095D02*
X11000000Y-34288095D01*
X11433333Y-35588095D01*
D10*
D11*
X11092857Y-84907143D02*
X11278571Y-84969048D01*
X11340476Y-85030952D01*
X11402381Y-85154762D01*
X11402381Y-85340476D01*
X11340476Y-85464286D01*
X11278571Y-85526190D01*
X11154762Y-85588095D01*
X10659524Y-85588095D01*
X10659524Y-84288095D01*
X11092857Y-84288095D01*
X11216667Y-84350000D01*
X11278571Y-84411905D01*
X11340476Y-84535714D01*
X11340476Y-84659524D01*
X11278571Y-84783333D01*
X11216667Y-84845238D01*
X11092857Y-84907143D01*
X10659524Y-84907143D01*
D10*
D11*
X11402381Y-135464286D02*
X11340476Y-135526190D01*
X11154762Y-135588095D01*
X11030952Y-135588095D01*
X10845238Y-135526190D01*
X10721429Y-135402381D01*
X10659524Y-135278571D01*
X10597619Y-135030952D01*
X10597619Y-134845238D01*
X10659524Y-134597619D01*
X10721429Y-134473810D01*
X10845238Y-134350000D01*
X11030952Y-134288095D01*
X11154762Y-134288095D01*
X11340476Y-134350000D01*
X11402381Y-134411905D01*
D10*
D11*
X10659524Y-185588095D02*
X10659524Y-184288095D01*
X10969048Y-184288095D01*
X11154762Y-184350000D01*
X11278571Y-184473810D01*
X11340476Y-184597619D01*
X11402381Y-184845238D01*
X11402381Y-185030952D01*
X11340476Y-185278571D01*
X11278571Y-185402381D01*
X11154762Y-185526190D01*
X10969048Y-185588095D01*
X10659524Y-185588095D01*
D10*
D11*
X287002200Y-60000000D02*
X285002200Y-60000000D01*
D10*
D11*
X287002200Y-110000000D02*
X285002200Y-110000000D01*
D10*
D11*
X287002200Y-160000000D02*
X285002200Y-160000000D01*
D10*
D11*
X285692676Y-35216667D02*
X286311724Y-35216667D01*
X285568867Y-35588095D02*
X286002200Y-34288095D01*
X286435533Y-35588095D01*
D10*
D11*
X286095057Y-84907143D02*
X286280771Y-84969048D01*
X286342676Y-85030952D01*
X286404581Y-85154762D01*
X286404581Y-85340476D01*
X286342676Y-85464286D01*
X286280771Y-85526190D01*
X286156962Y-85588095D01*
X285661724Y-85588095D01*
X285661724Y-84288095D01*
X286095057Y-84288095D01*
X286218867Y-84350000D01*
X286280771Y-84411905D01*
X286342676Y-84535714D01*
X286342676Y-84659524D01*
X286280771Y-84783333D01*
X286218867Y-84845238D01*
X286095057Y-84907143D01*
X285661724Y-84907143D01*
D10*
D11*
X286404581Y-135464286D02*
X286342676Y-135526190D01*
X286156962Y-135588095D01*
X286033152Y-135588095D01*
X285847438Y-135526190D01*
X285723629Y-135402381D01*
X285661724Y-135278571D01*
X285599819Y-135030952D01*
X285599819Y-134845238D01*
X285661724Y-134597619D01*
X285723629Y-134473810D01*
X285847438Y-134350000D01*
X286033152Y-134288095D01*
X286156962Y-134288095D01*
X286342676Y-134350000D01*
X286404581Y-134411905D01*
D10*
D11*
X285661724Y-185588095D02*
X285661724Y-184288095D01*
X285971248Y-184288095D01*
X286156962Y-184350000D01*
X286280771Y-184473810D01*
X286342676Y-184597619D01*
X286404581Y-184845238D01*
X286404581Y-185030952D01*
X286342676Y-185278571D01*
X286280771Y-185402381D01*
X286156962Y-185526190D01*
X285971248Y-185588095D01*
X285661724Y-185588095D01*
D10*
D11*
X200359343Y-193785771D02*
X200359343Y-192285771D01*
X200716486Y-192285771D01*
X200930771Y-192357200D01*
X201073629Y-192500057D01*
X201145057Y-192642914D01*
X201216486Y-192928629D01*
X201216486Y-193142914D01*
X201145057Y-193428629D01*
X201073629Y-193571486D01*
X200930771Y-193714343D01*
X200716486Y-193785771D01*
X200359343Y-193785771D01*
X202502200Y-193785771D02*
X202502200Y-193000057D01*
X202430771Y-192857200D01*
X202287914Y-192785771D01*
X202002200Y-192785771D01*
X201859343Y-192857200D01*
X202502200Y-193714343D02*
X202359343Y-193785771D01*
X202002200Y-193785771D01*
X201859343Y-193714343D01*
X201787914Y-193571486D01*
X201787914Y-193428629D01*
X201859343Y-193285771D01*
X202002200Y-193214343D01*
X202359343Y-193214343D01*
X202502200Y-193142914D01*
X203002200Y-192785771D02*
X203573629Y-192785771D01*
X203216486Y-192285771D02*
X203216486Y-193571486D01*
X203287914Y-193714343D01*
X203430772Y-193785771D01*
X203573629Y-193785771D01*
X204645057Y-193714343D02*
X204502200Y-193785771D01*
X204216486Y-193785771D01*
X204073629Y-193714343D01*
X204002200Y-193571486D01*
X204002200Y-193000057D01*
X204073629Y-192857200D01*
X204216486Y-192785771D01*
X204502200Y-192785771D01*
X204645057Y-192857200D01*
X204716486Y-193000057D01*
X204716486Y-193142914D01*
X204002200Y-193285771D01*
X205359343Y-193642914D02*
X205430771Y-193714343D01*
X205359343Y-193785771D01*
X205287914Y-193714343D01*
X205359343Y-193642914D01*
X205359343Y-193785771D01*
X205359343Y-192857200D02*
X205430771Y-192928629D01*
X205359343Y-193000057D01*
X205287914Y-192928629D01*
X205359343Y-192857200D01*
X205359343Y-193000057D01*
D10*
D11*
X177002200Y-194507200D02*
X285002200Y-194507200D01*
D10*
D11*
X178359343Y-196585771D02*
X178359343Y-195085771D01*
X179216486Y-196585771D02*
X178573629Y-195728629D01*
X179216486Y-195085771D02*
X178359343Y-195942914D01*
X179859343Y-196585771D02*
X179859343Y-195585771D01*
X179859343Y-195085771D02*
X179787914Y-195157200D01*
X179859343Y-195228629D01*
X179930771Y-195157200D01*
X179859343Y-195085771D01*
X179859343Y-195228629D01*
X181430772Y-196442914D02*
X181359343Y-196514343D01*
X181145057Y-196585771D01*
X181002200Y-196585771D01*
X180787915Y-196514343D01*
X180645057Y-196371486D01*
X180573629Y-196228629D01*
X180502200Y-195942914D01*
X180502200Y-195728629D01*
X180573629Y-195442914D01*
X180645057Y-195300057D01*
X180787915Y-195157200D01*
X181002200Y-195085771D01*
X181145057Y-195085771D01*
X181359343Y-195157200D01*
X181430772Y-195228629D01*
X182716486Y-196585771D02*
X182716486Y-195800057D01*
X182645057Y-195657200D01*
X182502200Y-195585771D01*
X182216486Y-195585771D01*
X182073629Y-195657200D01*
X182716486Y-196514343D02*
X182573629Y-196585771D01*
X182216486Y-196585771D01*
X182073629Y-196514343D01*
X182002200Y-196371486D01*
X182002200Y-196228629D01*
X182073629Y-196085771D01*
X182216486Y-196014343D01*
X182573629Y-196014343D01*
X182716486Y-195942914D01*
X184073629Y-196585771D02*
X184073629Y-195085771D01*
X184073629Y-196514343D02*
X183930772Y-196585771D01*
X183645058Y-196585771D01*
X183502200Y-196514343D01*
X183430772Y-196442914D01*
X183359343Y-196300057D01*
X183359343Y-195871486D01*
X183430772Y-195728629D01*
X183502200Y-195657200D01*
X183645058Y-195585771D01*
X183930772Y-195585771D01*
X184073629Y-195657200D01*
X185930772Y-195800057D02*
X186430772Y-195800057D01*
X186645058Y-196585771D02*
X185930772Y-196585771D01*
X185930772Y-195085771D01*
X186645058Y-195085771D01*
X187287915Y-196442914D02*
X187359343Y-196514343D01*
X187287915Y-196585771D01*
X187216486Y-196514343D01*
X187287915Y-196442914D01*
X187287915Y-196585771D01*
X188002201Y-196585771D02*
X188002201Y-195085771D01*
X188359344Y-195085771D01*
X188573629Y-195157200D01*
X188716487Y-195300057D01*
X188787915Y-195442914D01*
X188859344Y-195728629D01*
X188859344Y-195942914D01*
X188787915Y-196228629D01*
X188716487Y-196371486D01*
X188573629Y-196514343D01*
X188359344Y-196585771D01*
X188002201Y-196585771D01*
X189502201Y-196442914D02*
X189573629Y-196514343D01*
X189502201Y-196585771D01*
X189430772Y-196514343D01*
X189502201Y-196442914D01*
X189502201Y-196585771D01*
X190145058Y-196157200D02*
X190859344Y-196157200D01*
X190002201Y-196585771D02*
X190502201Y-195085771D01*
X191002201Y-196585771D01*
X191502201Y-196442914D02*
X191573629Y-196514343D01*
X191502201Y-196585771D01*
X191430772Y-196514343D01*
X191502201Y-196442914D01*
X191502201Y-196585771D01*
X194502201Y-196585771D02*
X194502201Y-195085771D01*
X194645058Y-196014343D02*
X195073629Y-196585771D01*
X195073629Y-195585771D02*
X194502201Y-196157200D01*
X195716487Y-196585771D02*
X195716487Y-195585771D01*
X195716487Y-195085771D02*
X195645058Y-195157200D01*
X195716487Y-195228629D01*
X195787915Y-195157200D01*
X195716487Y-195085771D01*
X195716487Y-195228629D01*
X197073630Y-196514343D02*
X196930773Y-196585771D01*
X196645059Y-196585771D01*
X196502201Y-196514343D01*
X196430773Y-196442914D01*
X196359344Y-196300057D01*
X196359344Y-195871486D01*
X196430773Y-195728629D01*
X196502201Y-195657200D01*
X196645059Y-195585771D01*
X196930773Y-195585771D01*
X197073630Y-195657200D01*
X198359344Y-196585771D02*
X198359344Y-195800057D01*
X198287915Y-195657200D01*
X198145058Y-195585771D01*
X197859344Y-195585771D01*
X197716487Y-195657200D01*
X198359344Y-196514343D02*
X198216487Y-196585771D01*
X197859344Y-196585771D01*
X197716487Y-196514343D01*
X197645058Y-196371486D01*
X197645058Y-196228629D01*
X197716487Y-196085771D01*
X197859344Y-196014343D01*
X198216487Y-196014343D01*
X198359344Y-195942914D01*
X199716487Y-196585771D02*
X199716487Y-195085771D01*
X199716487Y-196514343D02*
X199573630Y-196585771D01*
X199287916Y-196585771D01*
X199145058Y-196514343D01*
X199073630Y-196442914D01*
X199002201Y-196300057D01*
X199002201Y-195871486D01*
X199073630Y-195728629D01*
X199145058Y-195657200D01*
X199287916Y-195585771D01*
X199573630Y-195585771D01*
X199716487Y-195657200D01*
X202216487Y-195585771D02*
X202216487Y-196585771D01*
X201859344Y-195014343D02*
X201502201Y-196085771D01*
X202430773Y-196085771D01*
X203002201Y-196442914D02*
X203073629Y-196514343D01*
X203002201Y-196585771D01*
X202930772Y-196514343D01*
X203002201Y-196442914D01*
X203002201Y-196585771D01*
X204002201Y-195085771D02*
X204145058Y-195085771D01*
X204287915Y-195157200D01*
X204359344Y-195228629D01*
X204430773Y-195371486D01*
X204502201Y-195657200D01*
X204502201Y-196014343D01*
X204430773Y-196300057D01*
X204359344Y-196442914D01*
X204287915Y-196514343D01*
X204145058Y-196585771D01*
X204002201Y-196585771D01*
X203859344Y-196514343D01*
X203787915Y-196442914D01*
X203716487Y-196300057D01*
X203645058Y-196014343D01*
X203645058Y-195657200D01*
X203716487Y-195371486D01*
X203787915Y-195228629D01*
X203859344Y-195157200D01*
X204002201Y-195085771D01*
X205145058Y-196442914D02*
X205216486Y-196514343D01*
X205145058Y-196585771D01*
X205073629Y-196514343D01*
X205145058Y-196442914D01*
X205145058Y-196585771D01*
X205716487Y-195085771D02*
X206716487Y-195085771D01*
X206073630Y-196585771D01*
X207287915Y-196014343D02*
X208430772Y-196014343D01*
X207859343Y-196585771D02*
X207859343Y-195442914D01*
X209787915Y-196585771D02*
X209787915Y-195085771D01*
X209787915Y-196514343D02*
X209645058Y-196585771D01*
X209359344Y-196585771D01*
X209216486Y-196514343D01*
X209145058Y-196442914D01*
X209073629Y-196300057D01*
X209073629Y-195871486D01*
X209145058Y-195728629D01*
X209216486Y-195657200D01*
X209359344Y-195585771D01*
X209645058Y-195585771D01*
X209787915Y-195657200D01*
X210287915Y-195585771D02*
X210859344Y-195585771D01*
X210502201Y-196585771D02*
X210502201Y-195300057D01*
X210573629Y-195157200D01*
X210716487Y-195085771D01*
X210859344Y-195085771D01*
X211287915Y-196514343D02*
X211430772Y-196585771D01*
X211716487Y-196585771D01*
X211859344Y-196514343D01*
X211930772Y-196371486D01*
X211930772Y-196300057D01*
X211859344Y-196157200D01*
X211716487Y-196085771D01*
X211502201Y-196085771D01*
X211359344Y-196014343D01*
X211287915Y-195871486D01*
X211287915Y-195800057D01*
X211359344Y-195657200D01*
X211502201Y-195585771D01*
X211716487Y-195585771D01*
X211859344Y-195657200D01*
X213216487Y-195585771D02*
X213216487Y-196800057D01*
X213145058Y-196942914D01*
X213073630Y-197014343D01*
X212930773Y-197085771D01*
X212716487Y-197085771D01*
X212573630Y-197014343D01*
X213216487Y-196514343D02*
X213073630Y-196585771D01*
X212787916Y-196585771D01*
X212645058Y-196514343D01*
X212573630Y-196442914D01*
X212502201Y-196300057D01*
X212502201Y-195871486D01*
X212573630Y-195728629D01*
X212645058Y-195657200D01*
X212787916Y-195585771D01*
X213073630Y-195585771D01*
X213216487Y-195657200D01*
X214716487Y-196585771D02*
X213859344Y-196585771D01*
X214287916Y-196585771D02*
X214287916Y-195085771D01*
X214145059Y-195300057D01*
X214002201Y-195442914D01*
X213859344Y-195514343D01*
X215359344Y-196014343D02*
X216502201Y-196014343D01*
X218002201Y-196585771D02*
X217145058Y-196585771D01*
X217573630Y-196585771D02*
X217573630Y-195085771D01*
X217430773Y-195300057D01*
X217287915Y-195442914D01*
X217145058Y-195514343D01*
X218645058Y-196585771D02*
X218645058Y-195085771D01*
X218645058Y-195657200D02*
X218787915Y-195585771D01*
X219073629Y-195585771D01*
X219216486Y-195657200D01*
X219287915Y-195728629D01*
X219359344Y-195871486D01*
X219359344Y-196300057D01*
X219287915Y-196442914D01*
X219216486Y-196514343D01*
X219073629Y-196585771D01*
X218787915Y-196585771D01*
X218645058Y-196514343D01*
X220002201Y-195585771D02*
X220002201Y-197085771D01*
X220002201Y-195657200D02*
X220145058Y-195585771D01*
X220430772Y-195585771D01*
X220573629Y-195657200D01*
X220645058Y-195728629D01*
X220716487Y-195871486D01*
X220716487Y-196300057D01*
X220645058Y-196442914D01*
X220573629Y-196514343D01*
X220430772Y-196585771D01*
X220145058Y-196585771D01*
X220002201Y-196514343D01*
X221573630Y-196585771D02*
X221430772Y-196514343D01*
X221359344Y-196442914D01*
X221287915Y-196300057D01*
X221287915Y-195871486D01*
X221359344Y-195728629D01*
X221430772Y-195657200D01*
X221573630Y-195585771D01*
X221787915Y-195585771D01*
X221930772Y-195657200D01*
X222002201Y-195728629D01*
X222073630Y-195871486D01*
X222073630Y-196300057D01*
X222002201Y-196442914D01*
X221930772Y-196514343D01*
X221787915Y-196585771D01*
X221573630Y-196585771D01*
X222787915Y-196585771D02*
X223073630Y-196585771D01*
X223216487Y-196514343D01*
X223287915Y-196442914D01*
X223430773Y-196228629D01*
X223502201Y-195942914D01*
X223502201Y-195371486D01*
X223430773Y-195228629D01*
X223359344Y-195157200D01*
X223216487Y-195085771D01*
X222930773Y-195085771D01*
X222787915Y-195157200D01*
X222716487Y-195228629D01*
X222645058Y-195371486D01*
X222645058Y-195728629D01*
X222716487Y-195871486D01*
X222787915Y-195942914D01*
X222930773Y-196014343D01*
X223216487Y-196014343D01*
X223359344Y-195942914D01*
X223430773Y-195871486D01*
X223502201Y-195728629D01*
X224145058Y-196014343D02*
X225287915Y-196014343D01*
X224716486Y-196585771D02*
X224716486Y-195442914D01*
X226787915Y-196585771D02*
X225930772Y-196585771D01*
X226359344Y-196585771D02*
X226359344Y-195085771D01*
X226216487Y-195300057D01*
X226073629Y-195442914D01*
X225930772Y-195514343D01*
X218287915Y-194827200D02*
X227073629Y-194827200D01*
D10*
D11*
X177002200Y-191507200D02*
X285002200Y-191507200D01*
D10*
D12*
X264216486Y-193785771D02*
X263716486Y-193071486D01*
X263359343Y-193785771D02*
X263359343Y-192285771D01*
X263930771Y-192285771D01*
X264073629Y-192357200D01*
X264145057Y-192428629D01*
X264216486Y-192571486D01*
X264216486Y-192785771D01*
X264145057Y-192928629D01*
X264073629Y-193000057D01*
X263930771Y-193071486D01*
X263359343Y-193071486D01*
X265430771Y-193714343D02*
X265287914Y-193785771D01*
X265002200Y-193785771D01*
X264859343Y-193714343D01*
X264787914Y-193571486D01*
X264787914Y-193000057D01*
X264859343Y-192857200D01*
X265002200Y-192785771D01*
X265287914Y-192785771D01*
X265430771Y-192857200D01*
X265502200Y-193000057D01*
X265502200Y-193142914D01*
X264787914Y-193285771D01*
X266002200Y-192785771D02*
X266359343Y-193785771D01*
X266716485Y-192785771D01*
X267287914Y-193642914D02*
X267359342Y-193714343D01*
X267287914Y-193785771D01*
X267216485Y-193714343D01*
X267287914Y-193642914D01*
X267287914Y-193785771D01*
X267287914Y-192857200D02*
X267359342Y-192928629D01*
X267287914Y-193000057D01*
X267216485Y-192928629D01*
X267287914Y-192857200D01*
X267287914Y-193000057D01*
D10*
D11*
X178287914Y-193714343D02*
X178502200Y-193785771D01*
X178859343Y-193785771D01*
X179002200Y-193714343D01*
X179073629Y-193642914D01*
X179145057Y-193500057D01*
X179145057Y-193357200D01*
X179073629Y-193214343D01*
X179002200Y-193142914D01*
X178859343Y-193071486D01*
X178573629Y-193000057D01*
X178430771Y-192928629D01*
X178359343Y-192857200D01*
X178287914Y-192714343D01*
X178287914Y-192571486D01*
X178359343Y-192428629D01*
X178430771Y-192357200D01*
X178573629Y-192285771D01*
X178930771Y-192285771D01*
X179145057Y-192357200D01*
X179787914Y-193785771D02*
X179787914Y-192785771D01*
X179787914Y-192285771D02*
X179716485Y-192357200D01*
X179787914Y-192428629D01*
X179859342Y-192357200D01*
X179787914Y-192285771D01*
X179787914Y-192428629D01*
X180359343Y-192785771D02*
X181145057Y-192785771D01*
X180359343Y-193785771D01*
X181145057Y-193785771D01*
X182287914Y-193714343D02*
X182145057Y-193785771D01*
X181859343Y-193785771D01*
X181716486Y-193714343D01*
X181645057Y-193571486D01*
X181645057Y-193000057D01*
X181716486Y-192857200D01*
X181859343Y-192785771D01*
X182145057Y-192785771D01*
X182287914Y-192857200D01*
X182359343Y-193000057D01*
X182359343Y-193142914D01*
X181645057Y-193285771D01*
X183002200Y-193642914D02*
X183073628Y-193714343D01*
X183002200Y-193785771D01*
X182930771Y-193714343D01*
X183002200Y-193642914D01*
X183002200Y-193785771D01*
X183002200Y-192857200D02*
X183073628Y-192928629D01*
X183002200Y-193000057D01*
X182930771Y-192928629D01*
X183002200Y-192857200D01*
X183002200Y-193000057D01*
X184787914Y-193357200D02*
X185502200Y-193357200D01*
X184645057Y-193785771D02*
X185145057Y-192285771D01*
X185645057Y-193785771D01*
X186787914Y-192785771D02*
X186787914Y-193785771D01*
X186430771Y-192214343D02*
X186073628Y-193285771D01*
X187002200Y-193285771D01*
D10*
D11*
X263359343Y-196585771D02*
X263359343Y-195085771D01*
X264716486Y-196585771D02*
X264716486Y-195085771D01*
X264716486Y-196514343D02*
X264573629Y-196585771D01*
X264287915Y-196585771D01*
X264145057Y-196514343D01*
X264073629Y-196442914D01*
X264002200Y-196300057D01*
X264002200Y-195871486D01*
X264073629Y-195728629D01*
X264145057Y-195657200D01*
X264287915Y-195585771D01*
X264573629Y-195585771D01*
X264716486Y-195657200D01*
X265430772Y-196442914D02*
X265502200Y-196514343D01*
X265430772Y-196585771D01*
X265359343Y-196514343D01*
X265430772Y-196442914D01*
X265430772Y-196585771D01*
X265430772Y-195657200D02*
X265502200Y-195728629D01*
X265430772Y-195800057D01*
X265359343Y-195728629D01*
X265430772Y-195657200D01*
X265430772Y-195800057D01*
X268073629Y-196585771D02*
X267216486Y-196585771D01*
X267645058Y-196585771D02*
X267645058Y-195085771D01*
X267502201Y-195300057D01*
X267359343Y-195442914D01*
X267216486Y-195514343D01*
X269787914Y-195014343D02*
X268502200Y-196942914D01*
X271073629Y-196585771D02*
X270216486Y-196585771D01*
X270645058Y-196585771D02*
X270645058Y-195085771D01*
X270502201Y-195300057D01*
X270359343Y-195442914D01*
X270216486Y-195514343D01*
D10*
D11*
X177002200Y-187507200D02*
X285002200Y-187507200D01*
D10*
D13*
X178454581Y-188211962D02*
X179597438Y-188211962D01*
X178776010Y-190211962D02*
X179026010Y-188211962D01*
X180014105Y-190211962D02*
X180180771Y-188878629D01*
X180264105Y-188211962D02*
X180156962Y-188307200D01*
X180240295Y-188402438D01*
X180347439Y-188307200D01*
X180264105Y-188211962D01*
X180240295Y-188402438D01*
X180847438Y-188878629D02*
X181609343Y-188878629D01*
X181216486Y-188211962D02*
X181002200Y-189926248D01*
X181073630Y-190116724D01*
X181252201Y-190211962D01*
X181442677Y-190211962D01*
X182395058Y-190211962D02*
X182216487Y-190116724D01*
X182145057Y-189926248D01*
X182359343Y-188211962D01*
X183930772Y-190116724D02*
X183728391Y-190211962D01*
X183347439Y-190211962D01*
X183168867Y-190116724D01*
X183097438Y-189926248D01*
X183192676Y-189164343D01*
X183311724Y-188973867D01*
X183514105Y-188878629D01*
X183895057Y-188878629D01*
X184073629Y-188973867D01*
X184145057Y-189164343D01*
X184121248Y-189354819D01*
X183145057Y-189545295D01*
X184895057Y-190021486D02*
X184978392Y-190116724D01*
X184871248Y-190211962D01*
X184787915Y-190116724D01*
X184895057Y-190021486D01*
X184871248Y-190211962D01*
X185026010Y-188973867D02*
X185109344Y-189069105D01*
X185002200Y-189164343D01*
X184918867Y-189069105D01*
X185026010Y-188973867D01*
X185002200Y-189164343D01*
D10*
D11*
X178859343Y-185600057D02*
X178359343Y-185600057D01*
X178359343Y-186385771D02*
X178359343Y-184885771D01*
X179073629Y-184885771D01*
X179645057Y-186385771D02*
X179645057Y-185385771D01*
X179645057Y-184885771D02*
X179573628Y-184957200D01*
X179645057Y-185028629D01*
X179716485Y-184957200D01*
X179645057Y-184885771D01*
X179645057Y-185028629D01*
X180573629Y-186385771D02*
X180430771Y-186314343D01*
X180359343Y-186171486D01*
X180359343Y-184885771D01*
X181716485Y-186314343D02*
X181573628Y-186385771D01*
X181287914Y-186385771D01*
X181145057Y-186314343D01*
X181073628Y-186171486D01*
X181073628Y-185600057D01*
X181145057Y-185457200D01*
X181287914Y-185385771D01*
X181573628Y-185385771D01*
X181716485Y-185457200D01*
X181787914Y-185600057D01*
X181787914Y-185742914D01*
X181073628Y-185885771D01*
X182430771Y-186242914D02*
X182502199Y-186314343D01*
X182430771Y-186385771D01*
X182359342Y-186314343D01*
X182430771Y-186242914D01*
X182430771Y-186385771D01*
X182430771Y-185457200D02*
X182502199Y-185528629D01*
X182430771Y-185600057D01*
X182359342Y-185528629D01*
X182430771Y-185457200D01*
X182430771Y-185600057D01*
X184287914Y-186385771D02*
X184287914Y-185385771D01*
X184287914Y-185671486D02*
X184359342Y-185528629D01*
X184430771Y-185457200D01*
X184573628Y-185385771D01*
X184716485Y-185385771D01*
X185002199Y-185385771D02*
X185573628Y-185385771D01*
X185216485Y-186385771D02*
X185216485Y-185100057D01*
X185287913Y-184957200D01*
X185430771Y-184885771D01*
X185573628Y-184885771D01*
X186073628Y-186385771D02*
X186073628Y-184885771D01*
X186073628Y-185457200D02*
X186216485Y-185385771D01*
X186502199Y-185385771D01*
X186645056Y-185457200D01*
X186716485Y-185528629D01*
X186787914Y-185671486D01*
X186787914Y-186100057D01*
X186716485Y-186242914D01*
X186645056Y-186314343D01*
X186502199Y-186385771D01*
X186216485Y-186385771D01*
X186073628Y-186314343D01*
X188073628Y-186385771D02*
X188073628Y-185600057D01*
X188002199Y-185457200D01*
X187859342Y-185385771D01*
X187573628Y-185385771D01*
X187430771Y-185457200D01*
X188073628Y-186314343D02*
X187930771Y-186385771D01*
X187573628Y-186385771D01*
X187430771Y-186314343D01*
X187359342Y-186171486D01*
X187359342Y-186028629D01*
X187430771Y-185885771D01*
X187573628Y-185814343D01*
X187930771Y-185814343D01*
X188073628Y-185742914D01*
X188716485Y-186314343D02*
X188859342Y-186385771D01*
X189145057Y-186385771D01*
X189287914Y-186314343D01*
X189359342Y-186171486D01*
X189359342Y-186100057D01*
X189287914Y-185957200D01*
X189145057Y-185885771D01*
X188930771Y-185885771D01*
X188787914Y-185814343D01*
X188716485Y-185671486D01*
X188716485Y-185600057D01*
X188787914Y-185457200D01*
X188930771Y-185385771D01*
X189145057Y-185385771D01*
X189287914Y-185457200D01*
X190573628Y-186314343D02*
X190430771Y-186385771D01*
X190145057Y-186385771D01*
X190002200Y-186314343D01*
X189930771Y-186171486D01*
X189930771Y-185600057D01*
X190002200Y-185457200D01*
X190145057Y-185385771D01*
X190430771Y-185385771D01*
X190573628Y-185457200D01*
X190645057Y-185600057D01*
X190645057Y-185742914D01*
X189930771Y-185885771D01*
X191287914Y-186242914D02*
X191359342Y-186314343D01*
X191287914Y-186385771D01*
X191216485Y-186314343D01*
X191287914Y-186242914D01*
X191287914Y-186385771D01*
X192002200Y-186385771D02*
X192002200Y-184885771D01*
X192145057Y-185814343D02*
X192573628Y-186385771D01*
X192573628Y-185385771D02*
X192002200Y-185957200D01*
X193216486Y-186385771D02*
X193216486Y-185385771D01*
X193216486Y-184885771D02*
X193145057Y-184957200D01*
X193216486Y-185028629D01*
X193287914Y-184957200D01*
X193216486Y-184885771D01*
X193216486Y-185028629D01*
X194573629Y-186314343D02*
X194430772Y-186385771D01*
X194145058Y-186385771D01*
X194002200Y-186314343D01*
X193930772Y-186242914D01*
X193859343Y-186100057D01*
X193859343Y-185671486D01*
X193930772Y-185528629D01*
X194002200Y-185457200D01*
X194145058Y-185385771D01*
X194430772Y-185385771D01*
X194573629Y-185457200D01*
X195859343Y-186385771D02*
X195859343Y-185600057D01*
X195787914Y-185457200D01*
X195645057Y-185385771D01*
X195359343Y-185385771D01*
X195216486Y-185457200D01*
X195859343Y-186314343D02*
X195716486Y-186385771D01*
X195359343Y-186385771D01*
X195216486Y-186314343D01*
X195145057Y-186171486D01*
X195145057Y-186028629D01*
X195216486Y-185885771D01*
X195359343Y-185814343D01*
X195716486Y-185814343D01*
X195859343Y-185742914D01*
X197216486Y-186385771D02*
X197216486Y-184885771D01*
X197216486Y-186314343D02*
X197073629Y-186385771D01*
X196787915Y-186385771D01*
X196645057Y-186314343D01*
X196573629Y-186242914D01*
X196502200Y-186100057D01*
X196502200Y-185671486D01*
X196573629Y-185528629D01*
X196645057Y-185457200D01*
X196787915Y-185385771D01*
X197073629Y-185385771D01*
X197216486Y-185457200D01*
X197573629Y-186528629D02*
X198716486Y-186528629D01*
X199073629Y-185385771D02*
X199073629Y-186885771D01*
X199073629Y-185457200D02*
X199216486Y-185385771D01*
X199502200Y-185385771D01*
X199645057Y-185457200D01*
X199716486Y-185528629D01*
X199787915Y-185671486D01*
X199787915Y-186100057D01*
X199716486Y-186242914D01*
X199645057Y-186314343D01*
X199502200Y-186385771D01*
X199216486Y-186385771D01*
X199073629Y-186314343D01*
X201073629Y-186314343D02*
X200930772Y-186385771D01*
X200645058Y-186385771D01*
X200502200Y-186314343D01*
X200430772Y-186242914D01*
X200359343Y-186100057D01*
X200359343Y-185671486D01*
X200430772Y-185528629D01*
X200502200Y-185457200D01*
X200645058Y-185385771D01*
X200930772Y-185385771D01*
X201073629Y-185457200D01*
X201716486Y-186385771D02*
X201716486Y-184885771D01*
X201716486Y-185457200D02*
X201859343Y-185385771D01*
X202145057Y-185385771D01*
X202287914Y-185457200D01*
X202359343Y-185528629D01*
X202430772Y-185671486D01*
X202430772Y-186100057D01*
X202359343Y-186242914D01*
X202287914Y-186314343D01*
X202145057Y-186385771D01*
X201859343Y-186385771D01*
X201716486Y-186314343D01*
D10*
D11*
X177002200Y-181507200D02*
X285002200Y-181507200D01*
D10*
D11*
X178287914Y-183614343D02*
X178502200Y-183685771D01*
X178859343Y-183685771D01*
X179002200Y-183614343D01*
X179073629Y-183542914D01*
X179145057Y-183400057D01*
X179145057Y-183257200D01*
X179073629Y-183114343D01*
X179002200Y-183042914D01*
X178859343Y-182971486D01*
X178573629Y-182900057D01*
X178430771Y-182828629D01*
X178359343Y-182757200D01*
X178287914Y-182614343D01*
X178287914Y-182471486D01*
X178359343Y-182328629D01*
X178430771Y-182257200D01*
X178573629Y-182185771D01*
X178930771Y-182185771D01*
X179145057Y-182257200D01*
X179787914Y-183685771D02*
X179787914Y-182185771D01*
X180430771Y-183685771D02*
X180430771Y-182900057D01*
X180359342Y-182757200D01*
X180216485Y-182685771D01*
X180002200Y-182685771D01*
X179859342Y-182757200D01*
X179787914Y-182828629D01*
X181716485Y-183614343D02*
X181573628Y-183685771D01*
X181287914Y-183685771D01*
X181145057Y-183614343D01*
X181073628Y-183471486D01*
X181073628Y-182900057D01*
X181145057Y-182757200D01*
X181287914Y-182685771D01*
X181573628Y-182685771D01*
X181716485Y-182757200D01*
X181787914Y-182900057D01*
X181787914Y-183042914D01*
X181073628Y-183185771D01*
X183002199Y-183614343D02*
X182859342Y-183685771D01*
X182573628Y-183685771D01*
X182430771Y-183614343D01*
X182359342Y-183471486D01*
X182359342Y-182900057D01*
X182430771Y-182757200D01*
X182573628Y-182685771D01*
X182859342Y-182685771D01*
X183002199Y-182757200D01*
X183073628Y-182900057D01*
X183073628Y-183042914D01*
X182359342Y-183185771D01*
X183502199Y-182685771D02*
X184073628Y-182685771D01*
X183716485Y-182185771D02*
X183716485Y-183471486D01*
X183787913Y-183614343D01*
X183930771Y-183685771D01*
X184073628Y-183685771D01*
X184573628Y-183542914D02*
X184645056Y-183614343D01*
X184573628Y-183685771D01*
X184502199Y-183614343D01*
X184573628Y-183542914D01*
X184573628Y-183685771D01*
X184573628Y-182757200D02*
X184645056Y-182828629D01*
X184573628Y-182900057D01*
X184502199Y-182828629D01*
X184573628Y-182757200D01*
X184573628Y-182900057D01*
D10*
D11*
X197002200Y-191507200D02*
X197002200Y-194507200D01*
D10*
D11*
X261002200Y-191507200D02*
X261002200Y-198007200D01*
D14*
X162780000Y-117620000D03*
X162780000Y-102380000D03*
X160240000Y-117620000D03*
X160240000Y-102380000D03*
X157700000Y-117620000D03*
X157700000Y-102380000D03*
X155160000Y-117620000D03*
X155160000Y-102380000D03*
X152620000Y-117620000D03*
X152620000Y-102380000D03*
X150080000Y-117620000D03*
X150080000Y-102380000D03*
X147540000Y-117620000D03*
X147540000Y-102380000D03*
X145000000Y-117620000D03*
X145000000Y-102380000D03*
X142460000Y-117620000D03*
X142460000Y-102380000D03*
X139920000Y-117620000D03*
X139920000Y-102380000D03*
X137380000Y-117620000D03*
X137380000Y-102380000D03*
X134840000Y-117620000D03*
X134840000Y-102380000D03*
X132300000Y-117620000D03*
X132300000Y-102380000D03*
X129760000Y-117620000D03*
X129760000Y-102380000D03*
X127220000Y-117620000D03*
X127220000Y-102380000D03*
D15*
X124000000Y-93349000D03*
X124000000Y-96651000D03*
D16*
X130376720Y-121970280D03*
X127074720Y-121970280D03*
D15*
X161700000Y-82011000D03*
X161700000Y-78709000D03*
D17*
X127000000Y-96000000D03*
D18*
X127000000Y-93460000D03*
X129540000Y-96000000D03*
X129540000Y-93460000D03*
X132080000Y-96000000D03*
X132080000Y-93460000D03*
X134620000Y-96000000D03*
X134620000Y-93460000D03*
D19*
X133760000Y-126080000D03*
X126140000Y-126080000D03*
X128680000Y-126080000D03*
X166780000Y-82900000D03*
X166780000Y-80360000D03*
X166780000Y-77820000D03*
D17*
X147460000Y-74580000D03*
X150000000Y-74580000D03*
X169320000Y-113380000D03*
X169320000Y-103220000D03*
X169320000Y-118460000D03*
X169320000Y-108300000D03*
D19*
X166780000Y-126080000D03*
X166780000Y-75280000D03*
D20*
X169930000Y-93060000D03*
D21*
X163630000Y-93060000D03*
X163630000Y-95360000D03*
X163630000Y-90760000D03*
D20*
X154690000Y-93060000D03*
D21*
X148390000Y-93060000D03*
X148390000Y-95360000D03*
X148390000Y-90760000D03*
D20*
X152150000Y-81280000D03*
D21*
X145850000Y-81280000D03*
X145850000Y-83580000D03*
X145850000Y-78980000D03*
D22*
X162450000Y-87980000D03*
X160950000Y-87980000D03*
D23*
X160242040Y-90222120D03*
X160242040Y-91722120D03*
D22*
X146188920Y-87822520D03*
X144688920Y-87822520D03*
D23*
X144321320Y-90145920D03*
X144321320Y-91645920D03*
D22*
X144022300Y-76276200D03*
X142522300Y-76276200D03*
D23*
X142434100Y-78917100D03*
X142434100Y-80417100D03*
D24*
X152302000Y-86650000D03*
X144684540Y-99501440D03*
X156863840Y-112181120D03*
X158062720Y-113400320D03*
X143691400Y-93822000D03*
X124527100Y-98965500D03*
X160079480Y-96595680D03*
X145200160Y-96565200D03*
X157250000Y-85750000D03*
X167092420Y-102155740D03*
X150188720Y-106598200D03*
X146724160Y-112856760D03*
D25*
X162780000Y-117620000D02*
X164675080Y-117620000D01*
X165515080Y-118460000D02*
X169320000Y-118460000D01*
X164675080Y-117620000D02*
X165515080Y-118460000D01*
X143354880Y-83580000D02*
X143354880Y-84904880D01*
X144150000Y-85700000D02*
X143354880Y-84904880D01*
X151352000Y-85700000D02*
X144150000Y-85700000D01*
X151352000Y-85700000D02*
X152302000Y-86650000D01*
X144628660Y-97136700D02*
X145200160Y-96565200D01*
X144628660Y-99445560D02*
X144628660Y-97136700D01*
X144684540Y-99501440D02*
X144628660Y-99445560D01*
X156863840Y-112201440D02*
X156863840Y-112181120D01*
X158062720Y-113400320D02*
X156863840Y-112201440D01*
X124000000Y-96651000D02*
X124000000Y-98438400D01*
X144270520Y-93242880D02*
X144321320Y-93242880D01*
X143691400Y-93822000D02*
X144270520Y-93242880D01*
X124000000Y-98438400D02*
X124527100Y-98965500D01*
X146438440Y-95360000D02*
X146405360Y-95360000D01*
X146405360Y-95360000D02*
X145200160Y-96565200D01*
X161315160Y-95360000D02*
X161480320Y-95360000D01*
X160079480Y-96595680D02*
X161315160Y-95360000D01*
X160240000Y-117620000D02*
X160240000Y-116935500D01*
X160240000Y-116935500D02*
X163795500Y-113380000D01*
X163795500Y-113380000D02*
X169320000Y-113380000D01*
X142434100Y-80417100D02*
X142434100Y-82659220D01*
X142434100Y-82659220D02*
X143354880Y-83580000D01*
X143354880Y-83580000D02*
X145850000Y-83580000D01*
X144321320Y-91645920D02*
X144321320Y-93242880D01*
X146438440Y-95360000D02*
X148390000Y-95360000D01*
X144321320Y-93242880D02*
X146438440Y-95360000D01*
X160242040Y-91722120D02*
X160242040Y-94121720D01*
X160242040Y-94121720D02*
X161480320Y-95360000D01*
X161480320Y-95360000D02*
X163630000Y-95360000D01*
X124000000Y-96651000D02*
X126349000Y-96651000D01*
X126349000Y-96651000D02*
X127000000Y-96000000D01*
X161700000Y-82011000D02*
X160989000Y-82011000D01*
X160989000Y-82011000D02*
X157250000Y-85750000D01*
X152780000Y-120000000D02*
X155160000Y-117620000D01*
X134000000Y-120000000D02*
X152780000Y-120000000D01*
X132029720Y-121970280D02*
X134000000Y-120000000D01*
X132000000Y-121970280D02*
X132029720Y-121970280D01*
X132000000Y-121970280D02*
X131895640Y-121970280D01*
X169320000Y-108300000D02*
X169751800Y-108300000D01*
X169751800Y-108300000D02*
X167092420Y-105640620D01*
X167092420Y-105640620D02*
X167092420Y-102155740D01*
X161700000Y-82011000D02*
X162893800Y-82011000D01*
X163782800Y-82900000D02*
X166780000Y-82900000D01*
X162893800Y-82011000D02*
X163782800Y-82900000D01*
X155160000Y-117620000D02*
X155160000Y-117552720D01*
X155160000Y-117552720D02*
X164412720Y-108300000D01*
X164412720Y-108300000D02*
X169320000Y-108300000D01*
X130376720Y-121970280D02*
X132000000Y-121970280D01*
X131895640Y-121970280D02*
X131948980Y-121970280D01*
X133760000Y-123781300D02*
X133760000Y-126080000D01*
X131948980Y-121970280D02*
X133760000Y-123781300D01*
X152620000Y-102380000D02*
X152620000Y-104166920D01*
X152620000Y-104166920D02*
X150188720Y-106598200D01*
X150080000Y-102380000D02*
X150080000Y-101621840D01*
X150080000Y-101621840D02*
X153094480Y-98607360D01*
X153094480Y-98607360D02*
X156670800Y-98607360D01*
X156670800Y-98607360D02*
X158486900Y-96791260D01*
X158486900Y-96791260D02*
X158486900Y-89415100D01*
X158486900Y-89415100D02*
X159922000Y-87980000D01*
X159922000Y-87980000D02*
X160950000Y-87980000D01*
X145000000Y-102380000D02*
X145000000Y-101896160D01*
X145000000Y-101896160D02*
X149518160Y-97378000D01*
X149518160Y-97378000D02*
X156112000Y-97378000D01*
X156112000Y-97378000D02*
X157229600Y-96260400D01*
X157229600Y-96260400D02*
X157229600Y-88884240D01*
X157229600Y-88884240D02*
X160554460Y-85559380D01*
X160554460Y-85559380D02*
X168573240Y-85559380D01*
X168573240Y-85559380D02*
X169942300Y-84190320D01*
X169942300Y-84190320D02*
X169942300Y-80982300D01*
X169942300Y-80982300D02*
X166780000Y-77820000D01*
X134840000Y-102380000D02*
X134840000Y-101363760D01*
X130826300Y-94746300D02*
X129540000Y-93460000D01*
X130826300Y-97350060D02*
X130826300Y-94746300D01*
X134840000Y-101363760D02*
X130826300Y-97350060D01*
X132300000Y-102380000D02*
X132300000Y-101198660D01*
X129540000Y-98438660D02*
X129540000Y-96000000D01*
X132300000Y-101198660D02*
X129540000Y-98438660D01*
X124000000Y-93349000D02*
X126889000Y-93349000D01*
X126889000Y-93349000D02*
X127000000Y-93460000D01*
X146724160Y-112856760D02*
X138890800Y-105023400D01*
X138890800Y-105023400D02*
X136833400Y-105023400D01*
X136833400Y-105023400D02*
X136056160Y-104246160D01*
X136056160Y-104246160D02*
X136056160Y-101025440D01*
X136056160Y-101025440D02*
X132080000Y-97049280D01*
X132080000Y-97049280D02*
X132080000Y-96000000D01*
X163630000Y-93060000D02*
X169930000Y-93060000D01*
X169930000Y-93060000D02*
X169930000Y-98025300D01*
X125662480Y-121970280D02*
X127074720Y-121970280D01*
X123955600Y-120263400D02*
X125662480Y-121970280D01*
X123955600Y-116849640D02*
X123955600Y-120263400D01*
X126256840Y-114548400D02*
X123955600Y-116849640D01*
X153406900Y-114548400D02*
X126256840Y-114548400D01*
X169930000Y-98025300D02*
X153406900Y-114548400D01*
X127074720Y-121970280D02*
X127074720Y-122922780D01*
X127074720Y-122922780D02*
X126140000Y-123857500D01*
X126140000Y-123857500D02*
X126140000Y-126080000D01*
X148390000Y-93060000D02*
X154690000Y-93060000D01*
X154690000Y-93060000D02*
X154690000Y-85719000D01*
X154690000Y-85719000D02*
X161781280Y-78627720D01*
X161781280Y-78627720D02*
X163076680Y-78627720D01*
X163076680Y-78627720D02*
X164808960Y-80360000D01*
X164808960Y-80360000D02*
X166780000Y-80360000D01*
X150000000Y-75700000D02*
X150000000Y-74580000D01*
X152150000Y-77850000D02*
X150000000Y-75700000D01*
X152150000Y-81280000D02*
X152150000Y-77850000D01*
X145850000Y-81280000D02*
X152150000Y-81280000D01*
D26*
X170920000Y-137920000D02*
X170920000Y-141920000D01*
X166780000Y-126080000D02*
X170920000Y-126080000D01*
X170920000Y-126080000D02*
X170920000Y-137920000D01*
X141000000Y-130000000D02*
X141000000Y-142000000D01*
X144000000Y-130000000D02*
X141000000Y-130000000D01*
X144000000Y-142000000D02*
X144000000Y-130000000D01*
X147000000Y-142000000D02*
X144000000Y-142000000D01*
X147000000Y-130000000D02*
X147000000Y-142000000D01*
X150000000Y-130000000D02*
X147000000Y-130000000D01*
X150000000Y-142000000D02*
X150000000Y-130000000D01*
X153000000Y-142000000D02*
X150000000Y-142000000D01*
X153000000Y-130000000D02*
X153000000Y-142000000D01*
X156000000Y-130000000D02*
X153000000Y-130000000D01*
X156000000Y-142000000D02*
X156000000Y-130000000D01*
X159000000Y-142000000D02*
X156000000Y-142000000D01*
X159000000Y-130000000D02*
X159000000Y-142000000D01*
X162000000Y-130000000D02*
X159000000Y-130000000D01*
X162000000Y-142000000D02*
X162000000Y-130000000D01*
X165000000Y-142000000D02*
X162000000Y-142000000D01*
X165000000Y-130000000D02*
X165000000Y-142000000D01*
X168000000Y-130000000D02*
X165000000Y-130000000D01*
X168000000Y-142000000D02*
X168000000Y-130000000D01*
X170840000Y-142000000D02*
X168000000Y-142000000D01*
X170920000Y-141920000D02*
X170840000Y-142000000D01*
X141000000Y-71000000D02*
X141000000Y-60000000D01*
X147000000Y-71000000D02*
X147000000Y-60000000D01*
X153000000Y-60000000D02*
X153000000Y-71000000D01*
X153000000Y-71000000D02*
X156000000Y-71000000D01*
X156000000Y-71000000D02*
X156000000Y-60000000D01*
X156000000Y-60000000D02*
X159000000Y-60000000D01*
X159000000Y-60000000D02*
X159000000Y-71000000D01*
X159000000Y-71000000D02*
X162000000Y-71000000D01*
X162000000Y-71000000D02*
X162000000Y-60000000D01*
X170720000Y-75280000D02*
X171000000Y-75000000D01*
X171000000Y-75000000D02*
X171000000Y-60000000D01*
X171000000Y-60000000D02*
X169000000Y-60000000D01*
X169000000Y-60000000D02*
X168000000Y-60000000D01*
X168000000Y-60000000D02*
X168000000Y-72000000D01*
X168000000Y-72000000D02*
X165000000Y-72000000D01*
X165000000Y-72000000D02*
X165000000Y-60000000D01*
X165000000Y-60000000D02*
X162000000Y-60000000D01*
X170720000Y-75280000D02*
X166780000Y-75280000D01*
X144000000Y-71000000D02*
X141000000Y-71000000D01*
X144000000Y-60000000D02*
X144000000Y-71000000D01*
X147000000Y-60000000D02*
X144000000Y-60000000D01*
X150000000Y-71000000D02*
X147000000Y-71000000D01*
X150000000Y-60000000D02*
X150000000Y-71000000D01*
X153000000Y-60000000D02*
X150000000Y-60000000D01*
D25*
X160242040Y-90222120D02*
X161632120Y-90222120D01*
X161632120Y-90222120D02*
X162450000Y-89404240D01*
X162450000Y-87980000D02*
X162450000Y-89404240D01*
X162450000Y-89404240D02*
X162450000Y-89580000D01*
X162450000Y-89580000D02*
X163630000Y-90760000D01*
X144321320Y-90145920D02*
X146000960Y-90145920D01*
X146000960Y-90145920D02*
X146188920Y-89957960D01*
X146188920Y-87822520D02*
X146188920Y-89957960D01*
X146188920Y-89957960D02*
X146188920Y-90106680D01*
X146842240Y-90760000D02*
X148390000Y-90760000D01*
X146188920Y-90106680D02*
X146842240Y-90760000D01*
X142434100Y-78917100D02*
X144419680Y-78917100D01*
X144419680Y-78917100D02*
X144482580Y-78980000D01*
X144022300Y-76276200D02*
X144022300Y-78519720D01*
X144482580Y-78980000D02*
X145850000Y-78980000D01*
X144022300Y-78519720D02*
X144482580Y-78980000D01*
X142460000Y-102380000D02*
X142460000Y-90051440D01*
X142460000Y-90051440D02*
X144688920Y-87822520D01*
X139920000Y-102380000D02*
X139920000Y-77080000D01*
X140723800Y-76276200D02*
X142522300Y-76276200D01*
X139920000Y-77080000D02*
X140723800Y-76276200D01*
D27*
G36*
X139495000Y-101379038D02*
X139304842Y-101457610D01*
X138998685Y-101763233D01*
X138832790Y-102162754D01*
X138832412Y-102595348D01*
X138997610Y-102995158D01*
X139303233Y-103301315D01*
X139702754Y-103467210D01*
X140135348Y-103467588D01*
X140535158Y-103302390D01*
X140841315Y-102996767D01*
X141007210Y-102597246D01*
X141007211Y-102595348D01*
X141372412Y-102595348D01*
X141537610Y-102995158D01*
X141843233Y-103301315D01*
X142242754Y-103467210D01*
X142675348Y-103467588D01*
X143075158Y-103302390D01*
X143381315Y-102996767D01*
X143547210Y-102597246D01*
X143547588Y-102164652D01*
X143382390Y-101764842D01*
X143076767Y-101458685D01*
X142885000Y-101379057D01*
X142885000Y-95462500D01*
X147090000Y-95462500D01*
X147090000Y-96169673D01*
X147135672Y-96279936D01*
X147220063Y-96364328D01*
X147330326Y-96410000D01*
X148287500Y-96410000D01*
X148362500Y-96335000D01*
X148362500Y-95387500D01*
X148417500Y-95387500D01*
X148417500Y-96335000D01*
X148492500Y-96410000D01*
X149449674Y-96410000D01*
X149559937Y-96364328D01*
X149644328Y-96279936D01*
X149690000Y-96169673D01*
X149690000Y-95462500D01*
X149615000Y-95387500D01*
X148417500Y-95387500D01*
X148362500Y-95387500D01*
X147165000Y-95387500D01*
X147090000Y-95462500D01*
X142885000Y-95462500D01*
X142885000Y-94550327D01*
X147090000Y-94550327D01*
X147090000Y-95257500D01*
X147165000Y-95332500D01*
X148362500Y-95332500D01*
X148362500Y-94385000D01*
X148417500Y-94385000D01*
X148417500Y-95332500D01*
X149615000Y-95332500D01*
X149690000Y-95257500D01*
X149690000Y-94550327D01*
X149644328Y-94440064D01*
X149559937Y-94355672D01*
X149449674Y-94310000D01*
X148492500Y-94310000D01*
X148417500Y-94385000D01*
X148362500Y-94385000D01*
X148287500Y-94310000D01*
X147330326Y-94310000D01*
X147220063Y-94355672D01*
X147135672Y-94440064D01*
X147090000Y-94550327D01*
X142885000Y-94550327D01*
X142885000Y-92310000D01*
X147084123Y-92310000D01*
X147084123Y-93810000D01*
X147105042Y-93921173D01*
X147170745Y-94023279D01*
X147270997Y-94091778D01*
X147390000Y-94115877D01*
X149390000Y-94115877D01*
X149501173Y-94094958D01*
X149603279Y-94029255D01*
X149671778Y-93929003D01*
X149695877Y-93810000D01*
X149695877Y-93485000D01*
X153384123Y-93485000D01*
X153384123Y-94960000D01*
X153405042Y-95071173D01*
X153470745Y-95173279D01*
X153570997Y-95241778D01*
X153690000Y-95265877D01*
X155690000Y-95265877D01*
X155801173Y-95244958D01*
X155903279Y-95179255D01*
X155971778Y-95079003D01*
X155995877Y-94960000D01*
X155995877Y-91160000D01*
X155974958Y-91048827D01*
X155909255Y-90946721D01*
X155809003Y-90878222D01*
X155690000Y-90854123D01*
X155115000Y-90854123D01*
X155115000Y-85895040D01*
X155141216Y-85868824D01*
X156649896Y-85868824D01*
X156741048Y-86089429D01*
X156909683Y-86258359D01*
X157130129Y-86349896D01*
X157368824Y-86350104D01*
X157589429Y-86258952D01*
X157758359Y-86090317D01*
X157849896Y-85869871D01*
X157850000Y-85751041D01*
X160553867Y-83047173D01*
X160564997Y-83054778D01*
X160684000Y-83078877D01*
X162716000Y-83078877D01*
X162827173Y-83057958D01*
X162929279Y-82992255D01*
X162997778Y-82892003D01*
X163021877Y-82773000D01*
X163021877Y-82740117D01*
X163482280Y-83200520D01*
X163620159Y-83292649D01*
X163782800Y-83325000D01*
X165711305Y-83325000D01*
X165804509Y-83550572D01*
X166127727Y-83874354D01*
X166550247Y-84049800D01*
X167007746Y-84050199D01*
X167430572Y-83875491D01*
X167754354Y-83552273D01*
X167929800Y-83129753D01*
X167930199Y-82672254D01*
X167755491Y-82249428D01*
X167432273Y-81925646D01*
X167009753Y-81750200D01*
X166552254Y-81749801D01*
X166129428Y-81924509D01*
X165805646Y-82247727D01*
X165711274Y-82475000D01*
X163958840Y-82475000D01*
X163194320Y-81710480D01*
X163056441Y-81618351D01*
X163029457Y-81612984D01*
X163021877Y-81611476D01*
X163021877Y-81249000D01*
X163000958Y-81137827D01*
X162935255Y-81035721D01*
X162835003Y-80967222D01*
X162716000Y-80943123D01*
X160684000Y-80943123D01*
X160572827Y-80964042D01*
X160470721Y-81029745D01*
X160402222Y-81129997D01*
X160378123Y-81249000D01*
X160378123Y-82020836D01*
X157248961Y-85149999D01*
X157131176Y-85149896D01*
X156910571Y-85241048D01*
X156741641Y-85409683D01*
X156650104Y-85630129D01*
X156649896Y-85868824D01*
X155141216Y-85868824D01*
X161233164Y-79776877D01*
X162716000Y-79776877D01*
X162827173Y-79755958D01*
X162929279Y-79690255D01*
X162997778Y-79590003D01*
X163021877Y-79471000D01*
X163021877Y-79173957D01*
X164508440Y-80660520D01*
X164646319Y-80752649D01*
X164808960Y-80785000D01*
X165711305Y-80785000D01*
X165804509Y-81010572D01*
X166127727Y-81334354D01*
X166550247Y-81509800D01*
X167007746Y-81510199D01*
X167430572Y-81335491D01*
X167754354Y-81012273D01*
X167929800Y-80589753D01*
X167930199Y-80132254D01*
X167755491Y-79709428D01*
X167432273Y-79385646D01*
X167009753Y-79210200D01*
X166552254Y-79209801D01*
X166129428Y-79384509D01*
X165805646Y-79707727D01*
X165711274Y-79935000D01*
X164985000Y-79935000D01*
X163377200Y-78327200D01*
X163239321Y-78235071D01*
X163212337Y-78229704D01*
X163076680Y-78202720D01*
X163021877Y-78202720D01*
X163021877Y-77947000D01*
X163000958Y-77835827D01*
X162935255Y-77733721D01*
X162835003Y-77665222D01*
X162716000Y-77641123D01*
X160684000Y-77641123D01*
X160572827Y-77662042D01*
X160470721Y-77727745D01*
X160402222Y-77827997D01*
X160378123Y-77947000D01*
X160378123Y-79429836D01*
X154389480Y-85418480D01*
X154297351Y-85556359D01*
X154297351Y-85556360D01*
X154265000Y-85719000D01*
X154265000Y-90854123D01*
X153690000Y-90854123D01*
X153578827Y-90875042D01*
X153476721Y-90940745D01*
X153408222Y-91040997D01*
X153384123Y-91160000D01*
X153384123Y-92635000D01*
X149695877Y-92635000D01*
X149695877Y-92310000D01*
X149674958Y-92198827D01*
X149609255Y-92096721D01*
X149509003Y-92028222D01*
X149390000Y-92004123D01*
X147390000Y-92004123D01*
X147278827Y-92025042D01*
X147176721Y-92090745D01*
X147108222Y-92190997D01*
X147084123Y-92310000D01*
X142885000Y-92310000D01*
X142885000Y-91748420D01*
X143571320Y-91748420D01*
X143571320Y-91955594D01*
X143616992Y-92065857D01*
X143701384Y-92150248D01*
X143811647Y-92195920D01*
X144218820Y-92195920D01*
X144293820Y-92120920D01*
X144293820Y-91673420D01*
X144348820Y-91673420D01*
X144348820Y-92120920D01*
X144423820Y-92195920D01*
X144830993Y-92195920D01*
X144941256Y-92150248D01*
X145025648Y-92065857D01*
X145071320Y-91955594D01*
X145071320Y-91748420D01*
X144996320Y-91673420D01*
X144348820Y-91673420D01*
X144293820Y-91673420D01*
X143646320Y-91673420D01*
X143571320Y-91748420D01*
X142885000Y-91748420D01*
X142885000Y-91336246D01*
X143571320Y-91336246D01*
X143571320Y-91543420D01*
X143646320Y-91618420D01*
X144293820Y-91618420D01*
X144293820Y-91170920D01*
X144348820Y-91170920D01*
X144348820Y-91618420D01*
X144996320Y-91618420D01*
X145071320Y-91543420D01*
X145071320Y-91336246D01*
X145025648Y-91225983D01*
X144941256Y-91141592D01*
X144830993Y-91095920D01*
X144423820Y-91095920D01*
X144348820Y-91170920D01*
X144293820Y-91170920D01*
X144218820Y-91095920D01*
X143811647Y-91095920D01*
X143701384Y-91141592D01*
X143616992Y-91225983D01*
X143571320Y-91336246D01*
X142885000Y-91336246D01*
X142885000Y-90227480D01*
X143216560Y-89895920D01*
X143565443Y-89895920D01*
X143565443Y-90395920D01*
X143586362Y-90507093D01*
X143652065Y-90609199D01*
X143752317Y-90677698D01*
X143871320Y-90701797D01*
X144771320Y-90701797D01*
X144882493Y-90680878D01*
X144984599Y-90615175D01*
X145014837Y-90570920D01*
X146000960Y-90570920D01*
X146043632Y-90562432D01*
X146541720Y-91060520D01*
X146679599Y-91152649D01*
X146706583Y-91158016D01*
X146842240Y-91185000D01*
X147084123Y-91185000D01*
X147084123Y-91510000D01*
X147105042Y-91621173D01*
X147170745Y-91723279D01*
X147270997Y-91791778D01*
X147390000Y-91815877D01*
X149390000Y-91815877D01*
X149501173Y-91794958D01*
X149603279Y-91729255D01*
X149671778Y-91629003D01*
X149695877Y-91510000D01*
X149695877Y-90010000D01*
X149674958Y-89898827D01*
X149609255Y-89796721D01*
X149509003Y-89728222D01*
X149390000Y-89704123D01*
X147390000Y-89704123D01*
X147278827Y-89725042D01*
X147176721Y-89790745D01*
X147108222Y-89890997D01*
X147084123Y-90010000D01*
X147084123Y-90335000D01*
X147018280Y-90335000D01*
X146613920Y-89930640D01*
X146613920Y-88516407D01*
X146652199Y-88491775D01*
X146720698Y-88391523D01*
X146744797Y-88272520D01*
X146744797Y-87372520D01*
X146723878Y-87261347D01*
X146658175Y-87159241D01*
X146557923Y-87090742D01*
X146438920Y-87066643D01*
X145938920Y-87066643D01*
X145827747Y-87087562D01*
X145725641Y-87153265D01*
X145657142Y-87253517D01*
X145633043Y-87372520D01*
X145633043Y-88272520D01*
X145653962Y-88383693D01*
X145719665Y-88485799D01*
X145763920Y-88516037D01*
X145763920Y-89720920D01*
X145015207Y-89720920D01*
X144990575Y-89682641D01*
X144890323Y-89614142D01*
X144771320Y-89590043D01*
X143871320Y-89590043D01*
X143760147Y-89610962D01*
X143658041Y-89676665D01*
X143589542Y-89776917D01*
X143565443Y-89895920D01*
X143216560Y-89895920D01*
X144534083Y-88578397D01*
X144938920Y-88578397D01*
X145050093Y-88557478D01*
X145152199Y-88491775D01*
X145220698Y-88391523D01*
X145244797Y-88272520D01*
X145244797Y-87372520D01*
X145223878Y-87261347D01*
X145158175Y-87159241D01*
X145057923Y-87090742D01*
X144938920Y-87066643D01*
X144438920Y-87066643D01*
X144327747Y-87087562D01*
X144225641Y-87153265D01*
X144157142Y-87253517D01*
X144133043Y-87372520D01*
X144133043Y-87777357D01*
X142159480Y-89750920D01*
X142067351Y-89888799D01*
X142061984Y-89915783D01*
X142035000Y-90051440D01*
X142035000Y-101379038D01*
X141844842Y-101457610D01*
X141538685Y-101763233D01*
X141372790Y-102162754D01*
X141372412Y-102595348D01*
X141007211Y-102595348D01*
X141007588Y-102164652D01*
X140842390Y-101764842D01*
X140536767Y-101458685D01*
X140345000Y-101379057D01*
X140345000Y-83682500D01*
X144550000Y-83682500D01*
X144550000Y-84389673D01*
X144595672Y-84499936D01*
X144680063Y-84584328D01*
X144790326Y-84630000D01*
X145747500Y-84630000D01*
X145822500Y-84555000D01*
X145822500Y-83607500D01*
X145877500Y-83607500D01*
X145877500Y-84555000D01*
X145952500Y-84630000D01*
X146909674Y-84630000D01*
X147019937Y-84584328D01*
X147104328Y-84499936D01*
X147150000Y-84389673D01*
X147150000Y-83682500D01*
X147075000Y-83607500D01*
X145877500Y-83607500D01*
X145822500Y-83607500D01*
X144625000Y-83607500D01*
X144550000Y-83682500D01*
X140345000Y-83682500D01*
X140345000Y-82770327D01*
X144550000Y-82770327D01*
X144550000Y-83477500D01*
X144625000Y-83552500D01*
X145822500Y-83552500D01*
X145822500Y-82605000D01*
X145877500Y-82605000D01*
X145877500Y-83552500D01*
X147075000Y-83552500D01*
X147150000Y-83477500D01*
X147150000Y-82770327D01*
X147104328Y-82660064D01*
X147019937Y-82575672D01*
X146909674Y-82530000D01*
X145952500Y-82530000D01*
X145877500Y-82605000D01*
X145822500Y-82605000D01*
X145747500Y-82530000D01*
X144790326Y-82530000D01*
X144680063Y-82575672D01*
X144595672Y-82660064D01*
X144550000Y-82770327D01*
X140345000Y-82770327D01*
X140345000Y-80519600D01*
X141684100Y-80519600D01*
X141684100Y-80726774D01*
X141729772Y-80837037D01*
X141814164Y-80921428D01*
X141924427Y-80967100D01*
X142331600Y-80967100D01*
X142406600Y-80892100D01*
X142406600Y-80444600D01*
X142461600Y-80444600D01*
X142461600Y-80892100D01*
X142536600Y-80967100D01*
X142943773Y-80967100D01*
X143054036Y-80921428D01*
X143138428Y-80837037D01*
X143184100Y-80726774D01*
X143184100Y-80519600D01*
X143109100Y-80444600D01*
X142461600Y-80444600D01*
X142406600Y-80444600D01*
X141759100Y-80444600D01*
X141684100Y-80519600D01*
X140345000Y-80519600D01*
X140345000Y-80107426D01*
X141684100Y-80107426D01*
X141684100Y-80314600D01*
X141759100Y-80389600D01*
X142406600Y-80389600D01*
X142406600Y-79942100D01*
X142461600Y-79942100D01*
X142461600Y-80389600D01*
X143109100Y-80389600D01*
X143184100Y-80314600D01*
X143184100Y-80107426D01*
X143138428Y-79997163D01*
X143054036Y-79912772D01*
X142943773Y-79867100D01*
X142536600Y-79867100D01*
X142461600Y-79942100D01*
X142406600Y-79942100D01*
X142331600Y-79867100D01*
X141924427Y-79867100D01*
X141814164Y-79912772D01*
X141729772Y-79997163D01*
X141684100Y-80107426D01*
X140345000Y-80107426D01*
X140345000Y-77256040D01*
X140501040Y-77100000D01*
X143597300Y-77100000D01*
X143597300Y-78492100D01*
X143127987Y-78492100D01*
X143103355Y-78453821D01*
X143003103Y-78385322D01*
X142884100Y-78361223D01*
X141984100Y-78361223D01*
X141872927Y-78382142D01*
X141770821Y-78447845D01*
X141702322Y-78548097D01*
X141678223Y-78667100D01*
X141678223Y-79167100D01*
X141699142Y-79278273D01*
X141764845Y-79380379D01*
X141865097Y-79448878D01*
X141984100Y-79472977D01*
X142884100Y-79472977D01*
X142995273Y-79452058D01*
X143097379Y-79386355D01*
X143127617Y-79342100D01*
X144274220Y-79342100D01*
X144319939Y-79372649D01*
X144346923Y-79378016D01*
X144482580Y-79405000D01*
X144544123Y-79405000D01*
X144544123Y-79730000D01*
X144565042Y-79841173D01*
X144630745Y-79943279D01*
X144730997Y-80011778D01*
X144850000Y-80035877D01*
X146850000Y-80035877D01*
X146961173Y-80014958D01*
X147063279Y-79949255D01*
X147131778Y-79849003D01*
X147155877Y-79730000D01*
X147155877Y-78230000D01*
X147134958Y-78118827D01*
X147069255Y-78016721D01*
X146969003Y-77948222D01*
X146850000Y-77924123D01*
X144850000Y-77924123D01*
X144738827Y-77945042D01*
X144636721Y-78010745D01*
X144568222Y-78110997D01*
X144544123Y-78230000D01*
X144544123Y-78440503D01*
X144447300Y-78343680D01*
X144447300Y-77100000D01*
X150798960Y-77100000D01*
X151725000Y-78026040D01*
X151725000Y-79074123D01*
X151150000Y-79074123D01*
X151038827Y-79095042D01*
X150936721Y-79160745D01*
X150868222Y-79260997D01*
X150844123Y-79380000D01*
X150844123Y-80855000D01*
X147155877Y-80855000D01*
X147155877Y-80530000D01*
X147134958Y-80418827D01*
X147069255Y-80316721D01*
X146969003Y-80248222D01*
X146850000Y-80224123D01*
X144850000Y-80224123D01*
X144738827Y-80245042D01*
X144636721Y-80310745D01*
X144568222Y-80410997D01*
X144544123Y-80530000D01*
X144544123Y-82030000D01*
X144565042Y-82141173D01*
X144630745Y-82243279D01*
X144730997Y-82311778D01*
X144850000Y-82335877D01*
X146850000Y-82335877D01*
X146961173Y-82314958D01*
X147063279Y-82249255D01*
X147131778Y-82149003D01*
X147155877Y-82030000D01*
X147155877Y-81705000D01*
X150844123Y-81705000D01*
X150844123Y-83180000D01*
X150865042Y-83291173D01*
X150930745Y-83393279D01*
X151030997Y-83461778D01*
X151150000Y-83485877D01*
X153150000Y-83485877D01*
X153261173Y-83464958D01*
X153363279Y-83399255D01*
X153431778Y-83299003D01*
X153455877Y-83180000D01*
X153455877Y-79380000D01*
X153434958Y-79268827D01*
X153369255Y-79166721D01*
X153269003Y-79098222D01*
X153150000Y-79074123D01*
X152575000Y-79074123D01*
X152575000Y-77850000D01*
X152542649Y-77687360D01*
X152542649Y-77687359D01*
X152450520Y-77549480D01*
X152001040Y-77100000D01*
X165873491Y-77100000D01*
X165805646Y-77167727D01*
X165630200Y-77590247D01*
X165629801Y-78047746D01*
X165804509Y-78470572D01*
X166127727Y-78794354D01*
X166550247Y-78969800D01*
X167007746Y-78970199D01*
X167235184Y-78876224D01*
X169517300Y-81158341D01*
X169517300Y-84014279D01*
X168397200Y-85134380D01*
X160554460Y-85134380D01*
X160418803Y-85161364D01*
X160391819Y-85166731D01*
X160253940Y-85258860D01*
X156929080Y-88583720D01*
X156836951Y-88721599D01*
X156836951Y-88721600D01*
X156804600Y-88884240D01*
X156804600Y-96084360D01*
X155935960Y-96953000D01*
X149518160Y-96953000D01*
X149382503Y-96979984D01*
X149355519Y-96985351D01*
X149217640Y-97077480D01*
X145002518Y-101292602D01*
X144784652Y-101292412D01*
X144384842Y-101457610D01*
X144078685Y-101763233D01*
X143912790Y-102162754D01*
X143912412Y-102595348D01*
X144077610Y-102995158D01*
X144383233Y-103301315D01*
X144782754Y-103467210D01*
X145215348Y-103467588D01*
X145615158Y-103302390D01*
X145921315Y-102996767D01*
X146087210Y-102597246D01*
X146087211Y-102595348D01*
X146452412Y-102595348D01*
X146617610Y-102995158D01*
X146923233Y-103301315D01*
X147322754Y-103467210D01*
X147755348Y-103467588D01*
X148155158Y-103302390D01*
X148461315Y-102996767D01*
X148627210Y-102597246D01*
X148627211Y-102595348D01*
X148992412Y-102595348D01*
X149157610Y-102995158D01*
X149463233Y-103301315D01*
X149862754Y-103467210D01*
X150295348Y-103467588D01*
X150695158Y-103302390D01*
X151001315Y-102996767D01*
X151167210Y-102597246D01*
X151167588Y-102164652D01*
X151002390Y-101764842D01*
X150770417Y-101532463D01*
X153270521Y-99032360D01*
X156670800Y-99032360D01*
X156806457Y-99005376D01*
X156833441Y-99000009D01*
X156971320Y-98907880D01*
X158787420Y-97091781D01*
X158879548Y-96953901D01*
X158879549Y-96953900D01*
X158911900Y-96791260D01*
X158911900Y-95462500D01*
X162330000Y-95462500D01*
X162330000Y-96169673D01*
X162375672Y-96279936D01*
X162460063Y-96364328D01*
X162570326Y-96410000D01*
X163527500Y-96410000D01*
X163602500Y-96335000D01*
X163602500Y-95387500D01*
X163657500Y-95387500D01*
X163657500Y-96335000D01*
X163732500Y-96410000D01*
X164689674Y-96410000D01*
X164799937Y-96364328D01*
X164884328Y-96279936D01*
X164930000Y-96169673D01*
X164930000Y-95462500D01*
X164855000Y-95387500D01*
X163657500Y-95387500D01*
X163602500Y-95387500D01*
X162405000Y-95387500D01*
X162330000Y-95462500D01*
X158911900Y-95462500D01*
X158911900Y-94550327D01*
X162330000Y-94550327D01*
X162330000Y-95257500D01*
X162405000Y-95332500D01*
X163602500Y-95332500D01*
X163602500Y-94385000D01*
X163657500Y-94385000D01*
X163657500Y-95332500D01*
X164855000Y-95332500D01*
X164930000Y-95257500D01*
X164930000Y-94550327D01*
X164884328Y-94440064D01*
X164799937Y-94355672D01*
X164689674Y-94310000D01*
X163732500Y-94310000D01*
X163657500Y-94385000D01*
X163602500Y-94385000D01*
X163527500Y-94310000D01*
X162570326Y-94310000D01*
X162460063Y-94355672D01*
X162375672Y-94440064D01*
X162330000Y-94550327D01*
X158911900Y-94550327D01*
X158911900Y-91824620D01*
X159492040Y-91824620D01*
X159492040Y-92031794D01*
X159537712Y-92142057D01*
X159622104Y-92226448D01*
X159732367Y-92272120D01*
X160139540Y-92272120D01*
X160214540Y-92197120D01*
X160214540Y-91749620D01*
X160269540Y-91749620D01*
X160269540Y-92197120D01*
X160344540Y-92272120D01*
X160751713Y-92272120D01*
X160861976Y-92226448D01*
X160946368Y-92142057D01*
X160992040Y-92031794D01*
X160992040Y-91824620D01*
X160917040Y-91749620D01*
X160269540Y-91749620D01*
X160214540Y-91749620D01*
X159567040Y-91749620D01*
X159492040Y-91824620D01*
X158911900Y-91824620D01*
X158911900Y-91412446D01*
X159492040Y-91412446D01*
X159492040Y-91619620D01*
X159567040Y-91694620D01*
X160214540Y-91694620D01*
X160214540Y-91247120D01*
X160269540Y-91247120D01*
X160269540Y-91694620D01*
X160917040Y-91694620D01*
X160992040Y-91619620D01*
X160992040Y-91412446D01*
X160946368Y-91302183D01*
X160861976Y-91217792D01*
X160751713Y-91172120D01*
X160344540Y-91172120D01*
X160269540Y-91247120D01*
X160214540Y-91247120D01*
X160139540Y-91172120D01*
X159732367Y-91172120D01*
X159622104Y-91217792D01*
X159537712Y-91302183D01*
X159492040Y-91412446D01*
X158911900Y-91412446D01*
X158911900Y-89972120D01*
X159486163Y-89972120D01*
X159486163Y-90472120D01*
X159507082Y-90583293D01*
X159572785Y-90685399D01*
X159673037Y-90753898D01*
X159792040Y-90777997D01*
X160692040Y-90777997D01*
X160803213Y-90757078D01*
X160905319Y-90691375D01*
X160935557Y-90647120D01*
X161632120Y-90647120D01*
X161767777Y-90620136D01*
X161794761Y-90614769D01*
X161932640Y-90522640D01*
X162324123Y-90131157D01*
X162324123Y-91510000D01*
X162345042Y-91621173D01*
X162410745Y-91723279D01*
X162510997Y-91791778D01*
X162630000Y-91815877D01*
X164630000Y-91815877D01*
X164741173Y-91794958D01*
X164843279Y-91729255D01*
X164911778Y-91629003D01*
X164935877Y-91510000D01*
X164935877Y-90010000D01*
X164914958Y-89898827D01*
X164849255Y-89796721D01*
X164749003Y-89728222D01*
X164630000Y-89704123D01*
X163175163Y-89704123D01*
X162875000Y-89403960D01*
X162875000Y-88673887D01*
X162913279Y-88649255D01*
X162981778Y-88549003D01*
X163005877Y-88430000D01*
X163005877Y-87530000D01*
X162984958Y-87418827D01*
X162919255Y-87316721D01*
X162819003Y-87248222D01*
X162700000Y-87224123D01*
X162200000Y-87224123D01*
X162088827Y-87245042D01*
X161986721Y-87310745D01*
X161918222Y-87410997D01*
X161894123Y-87530000D01*
X161894123Y-88430000D01*
X161915042Y-88541173D01*
X161980745Y-88643279D01*
X162025000Y-88673517D01*
X162025000Y-89228200D01*
X161456080Y-89797120D01*
X160935927Y-89797120D01*
X160911295Y-89758841D01*
X160811043Y-89690342D01*
X160692040Y-89666243D01*
X159792040Y-89666243D01*
X159680867Y-89687162D01*
X159578761Y-89752865D01*
X159510262Y-89853117D01*
X159486163Y-89972120D01*
X158911900Y-89972120D01*
X158911900Y-89591140D01*
X160098040Y-88405000D01*
X160394123Y-88405000D01*
X160394123Y-88430000D01*
X160415042Y-88541173D01*
X160480745Y-88643279D01*
X160580997Y-88711778D01*
X160700000Y-88735877D01*
X161200000Y-88735877D01*
X161311173Y-88714958D01*
X161413279Y-88649255D01*
X161481778Y-88549003D01*
X161505877Y-88430000D01*
X161505877Y-87530000D01*
X161484958Y-87418827D01*
X161419255Y-87316721D01*
X161319003Y-87248222D01*
X161200000Y-87224123D01*
X160700000Y-87224123D01*
X160588827Y-87245042D01*
X160486721Y-87310745D01*
X160418222Y-87410997D01*
X160394123Y-87530000D01*
X160394123Y-87555000D01*
X159922000Y-87555000D01*
X159759359Y-87587351D01*
X159621480Y-87679480D01*
X158186380Y-89114580D01*
X158094251Y-89252459D01*
X158094251Y-89252460D01*
X158061900Y-89415100D01*
X158061900Y-96615219D01*
X156494760Y-98182360D01*
X153094480Y-98182360D01*
X152931840Y-98214711D01*
X152931838Y-98214712D01*
X152931839Y-98214712D01*
X152793959Y-98306840D01*
X149779480Y-101321320D01*
X149773679Y-101330001D01*
X149464842Y-101457610D01*
X149158685Y-101763233D01*
X148992790Y-102162754D01*
X148992412Y-102595348D01*
X148627211Y-102595348D01*
X148627588Y-102164652D01*
X148462390Y-101764842D01*
X148156767Y-101458685D01*
X147757246Y-101292790D01*
X147324652Y-101292412D01*
X146924842Y-101457610D01*
X146618685Y-101763233D01*
X146452790Y-102162754D01*
X146452412Y-102595348D01*
X146087211Y-102595348D01*
X146087588Y-102164652D01*
X145922390Y-101764842D01*
X145827457Y-101669743D01*
X149694200Y-97803000D01*
X156112000Y-97803000D01*
X156247657Y-97776016D01*
X156274641Y-97770649D01*
X156412520Y-97678520D01*
X157530120Y-96560920D01*
X157622249Y-96423041D01*
X157633543Y-96366261D01*
X157654600Y-96260400D01*
X157654600Y-89060280D01*
X160730500Y-85984380D01*
X168573240Y-85984380D01*
X168708897Y-85957396D01*
X168735881Y-85952029D01*
X168873760Y-85859900D01*
X170242820Y-84490841D01*
X170334948Y-84352961D01*
X170334949Y-84352960D01*
X170367300Y-84190320D01*
X170367300Y-80982300D01*
X170341979Y-80855000D01*
X170334949Y-80819659D01*
X170242821Y-80681780D01*
X167836202Y-78275162D01*
X167929800Y-78049753D01*
X167930199Y-77592254D01*
X167755491Y-77169428D01*
X167686184Y-77100000D01*
X171900000Y-77100000D01*
X171900000Y-122900000D01*
X133479740Y-122900000D01*
X132590390Y-122010650D01*
X134176041Y-120425000D01*
X152780000Y-120425000D01*
X152915657Y-120398016D01*
X152942641Y-120392649D01*
X153080520Y-120300520D01*
X154752734Y-118628307D01*
X154942754Y-118707210D01*
X155375348Y-118707588D01*
X155775158Y-118542390D01*
X156081315Y-118236767D01*
X156247210Y-117837246D01*
X156247211Y-117835348D01*
X156612412Y-117835348D01*
X156777610Y-118235158D01*
X157083233Y-118541315D01*
X157482754Y-118707210D01*
X157915348Y-118707588D01*
X158315158Y-118542390D01*
X158487723Y-118370125D01*
X159528766Y-118370125D01*
X159610769Y-118532847D01*
X160007998Y-118704157D01*
X160440548Y-118710415D01*
X160842565Y-118550666D01*
X160869231Y-118532847D01*
X160951234Y-118370125D01*
X160240000Y-117658891D01*
X159528766Y-118370125D01*
X158487723Y-118370125D01*
X158621315Y-118236767D01*
X158787210Y-117837246D01*
X158787224Y-117820548D01*
X159149585Y-117820548D01*
X159309334Y-118222565D01*
X159327153Y-118249231D01*
X159489875Y-118331234D01*
X160201109Y-117620000D01*
X160278891Y-117620000D01*
X160990125Y-118331234D01*
X161152847Y-118249231D01*
X161324157Y-117852002D01*
X161324397Y-117835348D01*
X161692412Y-117835348D01*
X161857610Y-118235158D01*
X162163233Y-118541315D01*
X162562754Y-118707210D01*
X162995348Y-118707588D01*
X163395158Y-118542390D01*
X163701315Y-118236767D01*
X163780943Y-118045000D01*
X164499040Y-118045000D01*
X165214559Y-118760520D01*
X165306688Y-118822078D01*
X165352440Y-118852649D01*
X165515080Y-118885000D01*
X168164123Y-118885000D01*
X168164123Y-119310000D01*
X168185042Y-119421173D01*
X168250745Y-119523279D01*
X168350997Y-119591778D01*
X168470000Y-119615877D01*
X170170000Y-119615877D01*
X170281173Y-119594958D01*
X170383279Y-119529255D01*
X170451778Y-119429003D01*
X170475877Y-119310000D01*
X170475877Y-117610000D01*
X170454958Y-117498827D01*
X170389255Y-117396721D01*
X170289003Y-117328222D01*
X170170000Y-117304123D01*
X168470000Y-117304123D01*
X168358827Y-117325042D01*
X168256721Y-117390745D01*
X168188222Y-117490997D01*
X168164123Y-117610000D01*
X168164123Y-118035000D01*
X165691121Y-118035000D01*
X164975600Y-117319480D01*
X164837721Y-117227351D01*
X164810737Y-117221984D01*
X164675080Y-117195000D01*
X163780962Y-117195000D01*
X163702390Y-117004842D01*
X163396767Y-116698685D01*
X162997246Y-116532790D01*
X162564652Y-116532412D01*
X162164842Y-116697610D01*
X161858685Y-117003233D01*
X161692790Y-117402754D01*
X161692412Y-117835348D01*
X161324397Y-117835348D01*
X161330415Y-117419452D01*
X161170666Y-117017435D01*
X161152847Y-116990769D01*
X160990125Y-116908766D01*
X160278891Y-117620000D01*
X160201109Y-117620000D01*
X159489875Y-116908766D01*
X159327153Y-116990769D01*
X159155843Y-117387998D01*
X159149585Y-117820548D01*
X158787224Y-117820548D01*
X158787588Y-117404652D01*
X158622390Y-117004842D01*
X158487659Y-116869875D01*
X159528766Y-116869875D01*
X160240000Y-117581109D01*
X160951234Y-116869875D01*
X160869231Y-116707153D01*
X160472002Y-116535843D01*
X160039452Y-116529585D01*
X159637435Y-116689334D01*
X159610769Y-116707153D01*
X159528766Y-116869875D01*
X158487659Y-116869875D01*
X158316767Y-116698685D01*
X157917246Y-116532790D01*
X157484652Y-116532412D01*
X157084842Y-116697610D01*
X156778685Y-117003233D01*
X156612790Y-117402754D01*
X156612412Y-117835348D01*
X156247211Y-117835348D01*
X156247588Y-117404652D01*
X156148623Y-117165137D01*
X159831260Y-113482500D01*
X168170000Y-113482500D01*
X168170000Y-114289673D01*
X168215672Y-114399936D01*
X168300063Y-114484328D01*
X168410326Y-114530000D01*
X169217500Y-114530000D01*
X169292500Y-114455000D01*
X169292500Y-113407500D01*
X169347500Y-113407500D01*
X169347500Y-114455000D01*
X169422500Y-114530000D01*
X170229674Y-114530000D01*
X170339937Y-114484328D01*
X170424328Y-114399936D01*
X170470000Y-114289673D01*
X170470000Y-113482500D01*
X170395000Y-113407500D01*
X169347500Y-113407500D01*
X169292500Y-113407500D01*
X168245000Y-113407500D01*
X168170000Y-113482500D01*
X159831260Y-113482500D01*
X160843433Y-112470327D01*
X168170000Y-112470327D01*
X168170000Y-113277500D01*
X168245000Y-113352500D01*
X169292500Y-113352500D01*
X169292500Y-112305000D01*
X169347500Y-112305000D01*
X169347500Y-113352500D01*
X170395000Y-113352500D01*
X170470000Y-113277500D01*
X170470000Y-112470327D01*
X170424328Y-112360064D01*
X170339937Y-112275672D01*
X170229674Y-112230000D01*
X169422500Y-112230000D01*
X169347500Y-112305000D01*
X169292500Y-112305000D01*
X169217500Y-112230000D01*
X168410326Y-112230000D01*
X168300063Y-112275672D01*
X168215672Y-112360064D01*
X168170000Y-112470327D01*
X160843433Y-112470327D01*
X164588760Y-108725000D01*
X168164123Y-108725000D01*
X168164123Y-109150000D01*
X168185042Y-109261173D01*
X168250745Y-109363279D01*
X168350997Y-109431778D01*
X168470000Y-109455877D01*
X170170000Y-109455877D01*
X170281173Y-109434958D01*
X170383279Y-109369255D01*
X170451778Y-109269003D01*
X170475877Y-109150000D01*
X170475877Y-107450000D01*
X170454958Y-107338827D01*
X170389255Y-107236721D01*
X170289003Y-107168222D01*
X170170000Y-107144123D01*
X169196964Y-107144123D01*
X167517420Y-105464580D01*
X167517420Y-102579270D01*
X167600779Y-102496057D01*
X167653122Y-102370000D01*
X168164123Y-102370000D01*
X168164123Y-104070000D01*
X168185042Y-104181173D01*
X168250745Y-104283279D01*
X168350997Y-104351778D01*
X168470000Y-104375877D01*
X170170000Y-104375877D01*
X170281173Y-104354958D01*
X170383279Y-104289255D01*
X170451778Y-104189003D01*
X170475877Y-104070000D01*
X170475877Y-102370000D01*
X170454958Y-102258827D01*
X170389255Y-102156721D01*
X170289003Y-102088222D01*
X170170000Y-102064123D01*
X168470000Y-102064123D01*
X168358827Y-102085042D01*
X168256721Y-102150745D01*
X168188222Y-102250997D01*
X168164123Y-102370000D01*
X167653122Y-102370000D01*
X167692316Y-102275611D01*
X167692524Y-102036916D01*
X167601372Y-101816311D01*
X167432737Y-101647381D01*
X167212291Y-101555844D01*
X167000680Y-101555660D01*
X170230520Y-98325820D01*
X170322649Y-98187941D01*
X170332555Y-98138140D01*
X170355000Y-98025300D01*
X170355000Y-95265877D01*
X170930000Y-95265877D01*
X171041173Y-95244958D01*
X171143279Y-95179255D01*
X171211778Y-95079003D01*
X171235877Y-94960000D01*
X171235877Y-91160000D01*
X171214958Y-91048827D01*
X171149255Y-90946721D01*
X171049003Y-90878222D01*
X170930000Y-90854123D01*
X168930000Y-90854123D01*
X168818827Y-90875042D01*
X168716721Y-90940745D01*
X168648222Y-91040997D01*
X168624123Y-91160000D01*
X168624123Y-92635000D01*
X164935877Y-92635000D01*
X164935877Y-92310000D01*
X164914958Y-92198827D01*
X164849255Y-92096721D01*
X164749003Y-92028222D01*
X164630000Y-92004123D01*
X162630000Y-92004123D01*
X162518827Y-92025042D01*
X162416721Y-92090745D01*
X162348222Y-92190997D01*
X162324123Y-92310000D01*
X162324123Y-93810000D01*
X162345042Y-93921173D01*
X162410745Y-94023279D01*
X162510997Y-94091778D01*
X162630000Y-94115877D01*
X164630000Y-94115877D01*
X164741173Y-94094958D01*
X164843279Y-94029255D01*
X164911778Y-93929003D01*
X164935877Y-93810000D01*
X164935877Y-93485000D01*
X168624123Y-93485000D01*
X168624123Y-94960000D01*
X168645042Y-95071173D01*
X168710745Y-95173279D01*
X168810997Y-95241778D01*
X168930000Y-95265877D01*
X169505000Y-95265877D01*
X169505000Y-97849260D01*
X153230860Y-114123400D01*
X126256840Y-114123400D01*
X126094199Y-114155751D01*
X125956320Y-114247879D01*
X123655080Y-116549120D01*
X123562951Y-116686999D01*
X123560627Y-116698685D01*
X123530600Y-116849640D01*
X123530600Y-120263400D01*
X123537984Y-120300520D01*
X123562951Y-120426041D01*
X123655080Y-120563920D01*
X125361960Y-122270800D01*
X125499839Y-122362929D01*
X125662480Y-122395280D01*
X126006843Y-122395280D01*
X126006843Y-122900000D01*
X122375000Y-122900000D01*
X122375000Y-102595348D01*
X126132412Y-102595348D01*
X126297610Y-102995158D01*
X126603233Y-103301315D01*
X127002754Y-103467210D01*
X127435348Y-103467588D01*
X127835158Y-103302390D01*
X128141315Y-102996767D01*
X128307210Y-102597246D01*
X128307211Y-102595348D01*
X128672412Y-102595348D01*
X128837610Y-102995158D01*
X129143233Y-103301315D01*
X129542754Y-103467210D01*
X129975348Y-103467588D01*
X130375158Y-103302390D01*
X130681315Y-102996767D01*
X130847210Y-102597246D01*
X130847588Y-102164652D01*
X130682390Y-101764842D01*
X130376767Y-101458685D01*
X129977246Y-101292790D01*
X129544652Y-101292412D01*
X129144842Y-101457610D01*
X128838685Y-101763233D01*
X128672790Y-102162754D01*
X128672412Y-102595348D01*
X128307211Y-102595348D01*
X128307588Y-102164652D01*
X128142390Y-101764842D01*
X127836767Y-101458685D01*
X127437246Y-101292790D01*
X127004652Y-101292412D01*
X126604842Y-101457610D01*
X126298685Y-101763233D01*
X126132790Y-102162754D01*
X126132412Y-102595348D01*
X122375000Y-102595348D01*
X122375000Y-96753500D01*
X122684000Y-96753500D01*
X122684000Y-97472674D01*
X122729672Y-97582937D01*
X122814064Y-97667328D01*
X122924327Y-97713000D01*
X123897500Y-97713000D01*
X123972500Y-97638000D01*
X123972500Y-96678500D01*
X124027500Y-96678500D01*
X124027500Y-97638000D01*
X124102500Y-97713000D01*
X125075673Y-97713000D01*
X125185936Y-97667328D01*
X125270328Y-97582937D01*
X125316000Y-97472674D01*
X125316000Y-96753500D01*
X125241000Y-96678500D01*
X124027500Y-96678500D01*
X123972500Y-96678500D01*
X122759000Y-96678500D01*
X122684000Y-96753500D01*
X122375000Y-96753500D01*
X122375000Y-95829326D01*
X122684000Y-95829326D01*
X122684000Y-96548500D01*
X122759000Y-96623500D01*
X123972500Y-96623500D01*
X123972500Y-95664000D01*
X124027500Y-95664000D01*
X124027500Y-96623500D01*
X125241000Y-96623500D01*
X125316000Y-96548500D01*
X125316000Y-96102500D01*
X125850000Y-96102500D01*
X125850000Y-96909674D01*
X125895672Y-97019937D01*
X125980064Y-97104328D01*
X126090327Y-97150000D01*
X126897500Y-97150000D01*
X126972500Y-97075000D01*
X126972500Y-96027500D01*
X127027500Y-96027500D01*
X127027500Y-97075000D01*
X127102500Y-97150000D01*
X127909673Y-97150000D01*
X128019936Y-97104328D01*
X128104328Y-97019937D01*
X128150000Y-96909674D01*
X128150000Y-96102500D01*
X128075000Y-96027500D01*
X127027500Y-96027500D01*
X126972500Y-96027500D01*
X125925000Y-96027500D01*
X125850000Y-96102500D01*
X125316000Y-96102500D01*
X125316000Y-95829326D01*
X125270328Y-95719063D01*
X125185936Y-95634672D01*
X125075673Y-95589000D01*
X124102500Y-95589000D01*
X124027500Y-95664000D01*
X123972500Y-95664000D01*
X123897500Y-95589000D01*
X122924327Y-95589000D01*
X122814064Y-95634672D01*
X122729672Y-95719063D01*
X122684000Y-95829326D01*
X122375000Y-95829326D01*
X122375000Y-95090326D01*
X125850000Y-95090326D01*
X125850000Y-95897500D01*
X125925000Y-95972500D01*
X126972500Y-95972500D01*
X126972500Y-94925000D01*
X127027500Y-94925000D01*
X127027500Y-95972500D01*
X128075000Y-95972500D01*
X128150000Y-95897500D01*
X128150000Y-95090326D01*
X128104328Y-94980063D01*
X128019936Y-94895672D01*
X127909673Y-94850000D01*
X127102500Y-94850000D01*
X127027500Y-94925000D01*
X126972500Y-94925000D01*
X126897500Y-94850000D01*
X126090327Y-94850000D01*
X125980064Y-94895672D01*
X125895672Y-94980063D01*
X125850000Y-95090326D01*
X122375000Y-95090326D01*
X122375000Y-92587000D01*
X122678123Y-92587000D01*
X122678123Y-94111000D01*
X122699042Y-94222173D01*
X122764745Y-94324279D01*
X122864997Y-94392778D01*
X122984000Y-94416877D01*
X125016000Y-94416877D01*
X125127173Y-94395958D01*
X125229279Y-94330255D01*
X125297778Y-94230003D01*
X125321877Y-94111000D01*
X125321877Y-93774000D01*
X125907977Y-93774000D01*
X125937539Y-93922616D01*
X126186827Y-94295703D01*
X126559914Y-94544991D01*
X127000000Y-94632530D01*
X127440086Y-94544991D01*
X127813173Y-94295703D01*
X128062461Y-93922616D01*
X128150000Y-93482530D01*
X128150000Y-93437470D01*
X128390000Y-93437470D01*
X128390000Y-93482530D01*
X128477539Y-93922616D01*
X128726827Y-94295703D01*
X129099914Y-94544991D01*
X129540000Y-94632530D01*
X129980086Y-94544991D01*
X130006381Y-94527421D01*
X130401300Y-94922340D01*
X130401300Y-95236324D01*
X130353173Y-95164297D01*
X129980086Y-94915009D01*
X129540000Y-94827470D01*
X129099914Y-94915009D01*
X128726827Y-95164297D01*
X128477539Y-95537384D01*
X128390000Y-95977470D01*
X128390000Y-96022530D01*
X128477539Y-96462616D01*
X128726827Y-96835703D01*
X129099914Y-97084991D01*
X129115000Y-97087992D01*
X129115000Y-98438660D01*
X129141984Y-98574317D01*
X129147351Y-98601301D01*
X129239480Y-98739180D01*
X131875000Y-101374701D01*
X131875000Y-101379038D01*
X131684842Y-101457610D01*
X131378685Y-101763233D01*
X131212790Y-102162754D01*
X131212412Y-102595348D01*
X131377610Y-102995158D01*
X131683233Y-103301315D01*
X132082754Y-103467210D01*
X132515348Y-103467588D01*
X132915158Y-103302390D01*
X133221315Y-102996767D01*
X133387210Y-102597246D01*
X133387588Y-102164652D01*
X133222390Y-101764842D01*
X132916767Y-101458685D01*
X132725000Y-101379057D01*
X132725000Y-101198660D01*
X132692649Y-101036020D01*
X132627662Y-100938760D01*
X132600520Y-100898139D01*
X129965000Y-98262620D01*
X129965000Y-97087992D01*
X129980086Y-97084991D01*
X130353173Y-96835703D01*
X130401300Y-96763676D01*
X130401300Y-97350060D01*
X130406858Y-97378000D01*
X130433651Y-97512701D01*
X130525780Y-97650580D01*
X134301242Y-101426042D01*
X134224842Y-101457610D01*
X133918685Y-101763233D01*
X133752790Y-102162754D01*
X133752412Y-102595348D01*
X133917610Y-102995158D01*
X134223233Y-103301315D01*
X134622754Y-103467210D01*
X135055348Y-103467588D01*
X135455158Y-103302390D01*
X135631160Y-103126695D01*
X135631160Y-104246160D01*
X135652169Y-104351778D01*
X135663511Y-104408801D01*
X135755640Y-104546680D01*
X136532879Y-105323920D01*
X136625008Y-105385478D01*
X136670760Y-105416049D01*
X136833400Y-105448400D01*
X138714760Y-105448400D01*
X146124159Y-112857799D01*
X146124056Y-112975584D01*
X146215208Y-113196189D01*
X146383843Y-113365119D01*
X146604289Y-113456656D01*
X146842984Y-113456864D01*
X147063589Y-113365712D01*
X147232519Y-113197077D01*
X147324056Y-112976631D01*
X147324264Y-112737936D01*
X147233112Y-112517331D01*
X147064477Y-112348401D01*
X146844031Y-112256864D01*
X146725200Y-112256760D01*
X141185464Y-106717024D01*
X149588616Y-106717024D01*
X149679768Y-106937629D01*
X149848403Y-107106559D01*
X150068849Y-107198096D01*
X150307544Y-107198304D01*
X150528149Y-107107152D01*
X150697079Y-106938517D01*
X150788616Y-106718071D01*
X150788720Y-106599240D01*
X152920520Y-104467440D01*
X153012649Y-104329561D01*
X153040607Y-104189003D01*
X153045000Y-104166920D01*
X153045000Y-103380962D01*
X153235158Y-103302390D01*
X153407723Y-103130125D01*
X154448766Y-103130125D01*
X154530769Y-103292847D01*
X154927998Y-103464157D01*
X155360548Y-103470415D01*
X155762565Y-103310666D01*
X155789231Y-103292847D01*
X155871234Y-103130125D01*
X155160000Y-102418891D01*
X154448766Y-103130125D01*
X153407723Y-103130125D01*
X153541315Y-102996767D01*
X153707210Y-102597246D01*
X153707224Y-102580548D01*
X154069585Y-102580548D01*
X154229334Y-102982565D01*
X154247153Y-103009231D01*
X154409875Y-103091234D01*
X155121109Y-102380000D01*
X155198891Y-102380000D01*
X155910125Y-103091234D01*
X156072847Y-103009231D01*
X156244157Y-102612002D01*
X156244397Y-102595348D01*
X156612412Y-102595348D01*
X156777610Y-102995158D01*
X157083233Y-103301315D01*
X157482754Y-103467210D01*
X157915348Y-103467588D01*
X158315158Y-103302390D01*
X158621315Y-102996767D01*
X158787210Y-102597246D01*
X158787211Y-102595348D01*
X159152412Y-102595348D01*
X159317610Y-102995158D01*
X159623233Y-103301315D01*
X160022754Y-103467210D01*
X160455348Y-103467588D01*
X160855158Y-103302390D01*
X161161315Y-102996767D01*
X161327210Y-102597246D01*
X161327211Y-102595348D01*
X161692412Y-102595348D01*
X161857610Y-102995158D01*
X162163233Y-103301315D01*
X162562754Y-103467210D01*
X162995348Y-103467588D01*
X163395158Y-103302390D01*
X163701315Y-102996767D01*
X163867210Y-102597246D01*
X163867588Y-102164652D01*
X163702390Y-101764842D01*
X163396767Y-101458685D01*
X162997246Y-101292790D01*
X162564652Y-101292412D01*
X162164842Y-101457610D01*
X161858685Y-101763233D01*
X161692790Y-102162754D01*
X161692412Y-102595348D01*
X161327211Y-102595348D01*
X161327588Y-102164652D01*
X161162390Y-101764842D01*
X160856767Y-101458685D01*
X160457246Y-101292790D01*
X160024652Y-101292412D01*
X159624842Y-101457610D01*
X159318685Y-101763233D01*
X159152790Y-102162754D01*
X159152412Y-102595348D01*
X158787211Y-102595348D01*
X158787588Y-102164652D01*
X158622390Y-101764842D01*
X158316767Y-101458685D01*
X157917246Y-101292790D01*
X157484652Y-101292412D01*
X157084842Y-101457610D01*
X156778685Y-101763233D01*
X156612790Y-102162754D01*
X156612412Y-102595348D01*
X156244397Y-102595348D01*
X156250415Y-102179452D01*
X156090666Y-101777435D01*
X156072847Y-101750769D01*
X155910125Y-101668766D01*
X155198891Y-102380000D01*
X155121109Y-102380000D01*
X154409875Y-101668766D01*
X154247153Y-101750769D01*
X154075843Y-102147998D01*
X154069585Y-102580548D01*
X153707224Y-102580548D01*
X153707588Y-102164652D01*
X153542390Y-101764842D01*
X153407659Y-101629875D01*
X154448766Y-101629875D01*
X155160000Y-102341109D01*
X155871234Y-101629875D01*
X155789231Y-101467153D01*
X155392002Y-101295843D01*
X154959452Y-101289585D01*
X154557435Y-101449334D01*
X154530769Y-101467153D01*
X154448766Y-101629875D01*
X153407659Y-101629875D01*
X153236767Y-101458685D01*
X152837246Y-101292790D01*
X152404652Y-101292412D01*
X152004842Y-101457610D01*
X151698685Y-101763233D01*
X151532790Y-102162754D01*
X151532412Y-102595348D01*
X151697610Y-102995158D01*
X152003233Y-103301315D01*
X152195000Y-103380943D01*
X152195000Y-103990880D01*
X150187681Y-105998199D01*
X150069896Y-105998096D01*
X149849291Y-106089248D01*
X149680361Y-106257883D01*
X149588824Y-106478329D01*
X149588616Y-106717024D01*
X141185464Y-106717024D01*
X139191320Y-104722880D01*
X139053441Y-104630751D01*
X139026457Y-104625384D01*
X138890800Y-104598400D01*
X137009441Y-104598400D01*
X136481160Y-104070120D01*
X136481160Y-103018749D01*
X136763233Y-103301315D01*
X137162754Y-103467210D01*
X137595348Y-103467588D01*
X137995158Y-103302390D01*
X138301315Y-102996767D01*
X138467210Y-102597246D01*
X138467588Y-102164652D01*
X138302390Y-101764842D01*
X137996767Y-101458685D01*
X137597246Y-101292790D01*
X137164652Y-101292412D01*
X136764842Y-101457610D01*
X136481160Y-101740797D01*
X136481160Y-101025440D01*
X136448809Y-100862800D01*
X136410864Y-100806011D01*
X136356680Y-100724919D01*
X132637978Y-97006218D01*
X132893173Y-96835703D01*
X133142461Y-96462616D01*
X133230000Y-96022530D01*
X133230000Y-95977470D01*
X133470000Y-95977470D01*
X133470000Y-96022530D01*
X133557539Y-96462616D01*
X133806827Y-96835703D01*
X134179914Y-97084991D01*
X134620000Y-97172530D01*
X135060086Y-97084991D01*
X135433173Y-96835703D01*
X135682461Y-96462616D01*
X135770000Y-96022530D01*
X135770000Y-95977470D01*
X135682461Y-95537384D01*
X135433173Y-95164297D01*
X135060086Y-94915009D01*
X134620000Y-94827470D01*
X134179914Y-94915009D01*
X133806827Y-95164297D01*
X133557539Y-95537384D01*
X133470000Y-95977470D01*
X133230000Y-95977470D01*
X133142461Y-95537384D01*
X132893173Y-95164297D01*
X132520086Y-94915009D01*
X132080000Y-94827470D01*
X131639914Y-94915009D01*
X131266827Y-95164297D01*
X131251300Y-95187535D01*
X131251300Y-94746300D01*
X131218949Y-94583660D01*
X131218949Y-94583659D01*
X131126820Y-94445780D01*
X130602659Y-93921619D01*
X130690000Y-93482530D01*
X130690000Y-93437470D01*
X130930000Y-93437470D01*
X130930000Y-93482530D01*
X131017539Y-93922616D01*
X131266827Y-94295703D01*
X131639914Y-94544991D01*
X132080000Y-94632530D01*
X132520086Y-94544991D01*
X132893173Y-94295703D01*
X133142461Y-93922616D01*
X133230000Y-93482530D01*
X133230000Y-93437470D01*
X133470000Y-93437470D01*
X133470000Y-93482530D01*
X133557539Y-93922616D01*
X133806827Y-94295703D01*
X134179914Y-94544991D01*
X134620000Y-94632530D01*
X135060086Y-94544991D01*
X135433173Y-94295703D01*
X135682461Y-93922616D01*
X135770000Y-93482530D01*
X135770000Y-93437470D01*
X135682461Y-92997384D01*
X135433173Y-92624297D01*
X135060086Y-92375009D01*
X134620000Y-92287470D01*
X134179914Y-92375009D01*
X133806827Y-92624297D01*
X133557539Y-92997384D01*
X133470000Y-93437470D01*
X133230000Y-93437470D01*
X133142461Y-92997384D01*
X132893173Y-92624297D01*
X132520086Y-92375009D01*
X132080000Y-92287470D01*
X131639914Y-92375009D01*
X131266827Y-92624297D01*
X131017539Y-92997384D01*
X130930000Y-93437470D01*
X130690000Y-93437470D01*
X130602461Y-92997384D01*
X130353173Y-92624297D01*
X129980086Y-92375009D01*
X129540000Y-92287470D01*
X129099914Y-92375009D01*
X128726827Y-92624297D01*
X128477539Y-92997384D01*
X128390000Y-93437470D01*
X128150000Y-93437470D01*
X128062461Y-92997384D01*
X127813173Y-92624297D01*
X127440086Y-92375009D01*
X127000000Y-92287470D01*
X126559914Y-92375009D01*
X126186827Y-92624297D01*
X125986572Y-92924000D01*
X125321877Y-92924000D01*
X125321877Y-92587000D01*
X125300958Y-92475827D01*
X125235255Y-92373721D01*
X125135003Y-92305222D01*
X125016000Y-92281123D01*
X122984000Y-92281123D01*
X122872827Y-92302042D01*
X122770721Y-92367745D01*
X122702222Y-92467997D01*
X122678123Y-92587000D01*
X122375000Y-92587000D01*
X122375000Y-89100000D01*
X138000000Y-89100000D01*
X138038906Y-89092121D01*
X138071681Y-89069727D01*
X138093161Y-89036346D01*
X138100000Y-89000000D01*
X138100000Y-77100000D01*
X139495000Y-77100000D01*
X139495000Y-101379038D01*
X139495000Y-101379038D01*
G37*
X139495000Y-101379038D02*
X139304842Y-101457610D01*
X138998685Y-101763233D01*
X138832790Y-102162754D01*
X138832412Y-102595348D01*
X138997610Y-102995158D01*
X139303233Y-103301315D01*
X139702754Y-103467210D01*
X140135348Y-103467588D01*
X140535158Y-103302390D01*
X140841315Y-102996767D01*
X141007210Y-102597246D01*
X141007211Y-102595348D01*
X141372412Y-102595348D01*
X141537610Y-102995158D01*
X141843233Y-103301315D01*
X142242754Y-103467210D01*
X142675348Y-103467588D01*
X143075158Y-103302390D01*
X143381315Y-102996767D01*
X143547210Y-102597246D01*
X143547588Y-102164652D01*
X143382390Y-101764842D01*
X143076767Y-101458685D01*
X142885000Y-101379057D01*
X142885000Y-95462500D01*
X147090000Y-95462500D01*
X147090000Y-96169673D01*
X147135672Y-96279936D01*
X147220063Y-96364328D01*
X147330326Y-96410000D01*
X148287500Y-96410000D01*
X148362500Y-96335000D01*
X148362500Y-95387500D01*
X148417500Y-95387500D01*
X148417500Y-96335000D01*
X148492500Y-96410000D01*
X149449674Y-96410000D01*
X149559937Y-96364328D01*
X149644328Y-96279936D01*
X149690000Y-96169673D01*
X149690000Y-95462500D01*
X149615000Y-95387500D01*
X148417500Y-95387500D01*
X148362500Y-95387500D01*
X147165000Y-95387500D01*
X147090000Y-95462500D01*
X142885000Y-95462500D01*
X142885000Y-94550327D01*
X147090000Y-94550327D01*
X147090000Y-95257500D01*
X147165000Y-95332500D01*
X148362500Y-95332500D01*
X148362500Y-94385000D01*
X148417500Y-94385000D01*
X148417500Y-95332500D01*
X149615000Y-95332500D01*
X149690000Y-95257500D01*
X149690000Y-94550327D01*
X149644328Y-94440064D01*
X149559937Y-94355672D01*
X149449674Y-94310000D01*
X148492500Y-94310000D01*
X148417500Y-94385000D01*
X148362500Y-94385000D01*
X148287500Y-94310000D01*
X147330326Y-94310000D01*
X147220063Y-94355672D01*
X147135672Y-94440064D01*
X147090000Y-94550327D01*
X142885000Y-94550327D01*
X142885000Y-92310000D01*
X147084123Y-92310000D01*
X147084123Y-93810000D01*
X147105042Y-93921173D01*
X147170745Y-94023279D01*
X147270997Y-94091778D01*
X147390000Y-94115877D01*
X149390000Y-94115877D01*
X149501173Y-94094958D01*
X149603279Y-94029255D01*
X149671778Y-93929003D01*
X149695877Y-93810000D01*
X149695877Y-93485000D01*
X153384123Y-93485000D01*
X153384123Y-94960000D01*
X153405042Y-95071173D01*
X153470745Y-95173279D01*
X153570997Y-95241778D01*
X153690000Y-95265877D01*
X155690000Y-95265877D01*
X155801173Y-95244958D01*
X155903279Y-95179255D01*
X155971778Y-95079003D01*
X155995877Y-94960000D01*
X155995877Y-91160000D01*
X155974958Y-91048827D01*
X155909255Y-90946721D01*
X155809003Y-90878222D01*
X155690000Y-90854123D01*
X155115000Y-90854123D01*
X155115000Y-85895040D01*
X155141216Y-85868824D01*
X156649896Y-85868824D01*
X156741048Y-86089429D01*
X156909683Y-86258359D01*
X157130129Y-86349896D01*
X157368824Y-86350104D01*
X157589429Y-86258952D01*
X157758359Y-86090317D01*
X157849896Y-85869871D01*
X157850000Y-85751041D01*
X160553867Y-83047173D01*
X160564997Y-83054778D01*
X160684000Y-83078877D01*
X162716000Y-83078877D01*
X162827173Y-83057958D01*
X162929279Y-82992255D01*
X162997778Y-82892003D01*
X163021877Y-82773000D01*
X163021877Y-82740117D01*
X163482280Y-83200520D01*
X163620159Y-83292649D01*
X163782800Y-83325000D01*
X165711305Y-83325000D01*
X165804509Y-83550572D01*
X166127727Y-83874354D01*
X166550247Y-84049800D01*
X167007746Y-84050199D01*
X167430572Y-83875491D01*
X167754354Y-83552273D01*
X167929800Y-83129753D01*
X167930199Y-82672254D01*
X167755491Y-82249428D01*
X167432273Y-81925646D01*
X167009753Y-81750200D01*
X166552254Y-81749801D01*
X166129428Y-81924509D01*
X165805646Y-82247727D01*
X165711274Y-82475000D01*
X163958840Y-82475000D01*
X163194320Y-81710480D01*
X163056441Y-81618351D01*
X163029457Y-81612984D01*
X163021877Y-81611476D01*
X163021877Y-81249000D01*
X163000958Y-81137827D01*
X162935255Y-81035721D01*
X162835003Y-80967222D01*
X162716000Y-80943123D01*
X160684000Y-80943123D01*
X160572827Y-80964042D01*
X160470721Y-81029745D01*
X160402222Y-81129997D01*
X160378123Y-81249000D01*
X160378123Y-82020836D01*
X157248961Y-85149999D01*
X157131176Y-85149896D01*
X156910571Y-85241048D01*
X156741641Y-85409683D01*
X156650104Y-85630129D01*
X156649896Y-85868824D01*
X155141216Y-85868824D01*
X161233164Y-79776877D01*
X162716000Y-79776877D01*
X162827173Y-79755958D01*
X162929279Y-79690255D01*
X162997778Y-79590003D01*
X163021877Y-79471000D01*
X163021877Y-79173957D01*
X164508440Y-80660520D01*
X164646319Y-80752649D01*
X164808960Y-80785000D01*
X165711305Y-80785000D01*
X165804509Y-81010572D01*
X166127727Y-81334354D01*
X166550247Y-81509800D01*
X167007746Y-81510199D01*
X167430572Y-81335491D01*
X167754354Y-81012273D01*
X167929800Y-80589753D01*
X167930199Y-80132254D01*
X167755491Y-79709428D01*
X167432273Y-79385646D01*
X167009753Y-79210200D01*
X166552254Y-79209801D01*
X166129428Y-79384509D01*
X165805646Y-79707727D01*
X165711274Y-79935000D01*
X164985000Y-79935000D01*
X163377200Y-78327200D01*
X163239321Y-78235071D01*
X163212337Y-78229704D01*
X163076680Y-78202720D01*
X163021877Y-78202720D01*
X163021877Y-77947000D01*
X163000958Y-77835827D01*
X162935255Y-77733721D01*
X162835003Y-77665222D01*
X162716000Y-77641123D01*
X160684000Y-77641123D01*
X160572827Y-77662042D01*
X160470721Y-77727745D01*
X160402222Y-77827997D01*
X160378123Y-77947000D01*
X160378123Y-79429836D01*
X154389480Y-85418480D01*
X154297351Y-85556359D01*
X154297351Y-85556360D01*
X154265000Y-85719000D01*
X154265000Y-90854123D01*
X153690000Y-90854123D01*
X153578827Y-90875042D01*
X153476721Y-90940745D01*
X153408222Y-91040997D01*
X153384123Y-91160000D01*
X153384123Y-92635000D01*
X149695877Y-92635000D01*
X149695877Y-92310000D01*
X149674958Y-92198827D01*
X149609255Y-92096721D01*
X149509003Y-92028222D01*
X149390000Y-92004123D01*
X147390000Y-92004123D01*
X147278827Y-92025042D01*
X147176721Y-92090745D01*
X147108222Y-92190997D01*
X147084123Y-92310000D01*
X142885000Y-92310000D01*
X142885000Y-91748420D01*
X143571320Y-91748420D01*
X143571320Y-91955594D01*
X143616992Y-92065857D01*
X143701384Y-92150248D01*
X143811647Y-92195920D01*
X144218820Y-92195920D01*
X144293820Y-92120920D01*
X144293820Y-91673420D01*
X144348820Y-91673420D01*
X144348820Y-92120920D01*
X144423820Y-92195920D01*
X144830993Y-92195920D01*
X144941256Y-92150248D01*
X145025648Y-92065857D01*
X145071320Y-91955594D01*
X145071320Y-91748420D01*
X144996320Y-91673420D01*
X144348820Y-91673420D01*
X144293820Y-91673420D01*
X143646320Y-91673420D01*
X143571320Y-91748420D01*
X142885000Y-91748420D01*
X142885000Y-91336246D01*
X143571320Y-91336246D01*
X143571320Y-91543420D01*
X143646320Y-91618420D01*
X144293820Y-91618420D01*
X144293820Y-91170920D01*
X144348820Y-91170920D01*
X144348820Y-91618420D01*
X144996320Y-91618420D01*
X145071320Y-91543420D01*
X145071320Y-91336246D01*
X145025648Y-91225983D01*
X144941256Y-91141592D01*
X144830993Y-91095920D01*
X144423820Y-91095920D01*
X144348820Y-91170920D01*
X144293820Y-91170920D01*
X144218820Y-91095920D01*
X143811647Y-91095920D01*
X143701384Y-91141592D01*
X143616992Y-91225983D01*
X143571320Y-91336246D01*
X142885000Y-91336246D01*
X142885000Y-90227480D01*
X143216560Y-89895920D01*
X143565443Y-89895920D01*
X143565443Y-90395920D01*
X143586362Y-90507093D01*
X143652065Y-90609199D01*
X143752317Y-90677698D01*
X143871320Y-90701797D01*
X144771320Y-90701797D01*
X144882493Y-90680878D01*
X144984599Y-90615175D01*
X145014837Y-90570920D01*
X146000960Y-90570920D01*
X146043632Y-90562432D01*
X146541720Y-91060520D01*
X146679599Y-91152649D01*
X146706583Y-91158016D01*
X146842240Y-91185000D01*
X147084123Y-91185000D01*
X147084123Y-91510000D01*
X147105042Y-91621173D01*
X147170745Y-91723279D01*
X147270997Y-91791778D01*
X147390000Y-91815877D01*
X149390000Y-91815877D01*
X149501173Y-91794958D01*
X149603279Y-91729255D01*
X149671778Y-91629003D01*
X149695877Y-91510000D01*
X149695877Y-90010000D01*
X149674958Y-89898827D01*
X149609255Y-89796721D01*
X149509003Y-89728222D01*
X149390000Y-89704123D01*
X147390000Y-89704123D01*
X147278827Y-89725042D01*
X147176721Y-89790745D01*
X147108222Y-89890997D01*
X147084123Y-90010000D01*
X147084123Y-90335000D01*
X147018280Y-90335000D01*
X146613920Y-89930640D01*
X146613920Y-88516407D01*
X146652199Y-88491775D01*
X146720698Y-88391523D01*
X146744797Y-88272520D01*
X146744797Y-87372520D01*
X146723878Y-87261347D01*
X146658175Y-87159241D01*
X146557923Y-87090742D01*
X146438920Y-87066643D01*
X145938920Y-87066643D01*
X145827747Y-87087562D01*
X145725641Y-87153265D01*
X145657142Y-87253517D01*
X145633043Y-87372520D01*
X145633043Y-88272520D01*
X145653962Y-88383693D01*
X145719665Y-88485799D01*
X145763920Y-88516037D01*
X145763920Y-89720920D01*
X145015207Y-89720920D01*
X144990575Y-89682641D01*
X144890323Y-89614142D01*
X144771320Y-89590043D01*
X143871320Y-89590043D01*
X143760147Y-89610962D01*
X143658041Y-89676665D01*
X143589542Y-89776917D01*
X143565443Y-89895920D01*
X143216560Y-89895920D01*
X144534083Y-88578397D01*
X144938920Y-88578397D01*
X145050093Y-88557478D01*
X145152199Y-88491775D01*
X145220698Y-88391523D01*
X145244797Y-88272520D01*
X145244797Y-87372520D01*
X145223878Y-87261347D01*
X145158175Y-87159241D01*
X145057923Y-87090742D01*
X144938920Y-87066643D01*
X144438920Y-87066643D01*
X144327747Y-87087562D01*
X144225641Y-87153265D01*
X144157142Y-87253517D01*
X144133043Y-87372520D01*
X144133043Y-87777357D01*
X142159480Y-89750920D01*
X142067351Y-89888799D01*
X142061984Y-89915783D01*
X142035000Y-90051440D01*
X142035000Y-101379038D01*
X141844842Y-101457610D01*
X141538685Y-101763233D01*
X141372790Y-102162754D01*
X141372412Y-102595348D01*
X141007211Y-102595348D01*
X141007588Y-102164652D01*
X140842390Y-101764842D01*
X140536767Y-101458685D01*
X140345000Y-101379057D01*
X140345000Y-83682500D01*
X144550000Y-83682500D01*
X144550000Y-84389673D01*
X144595672Y-84499936D01*
X144680063Y-84584328D01*
X144790326Y-84630000D01*
X145747500Y-84630000D01*
X145822500Y-84555000D01*
X145822500Y-83607500D01*
X145877500Y-83607500D01*
X145877500Y-84555000D01*
X145952500Y-84630000D01*
X146909674Y-84630000D01*
X147019937Y-84584328D01*
X147104328Y-84499936D01*
X147150000Y-84389673D01*
X147150000Y-83682500D01*
X147075000Y-83607500D01*
X145877500Y-83607500D01*
X145822500Y-83607500D01*
X144625000Y-83607500D01*
X144550000Y-83682500D01*
X140345000Y-83682500D01*
X140345000Y-82770327D01*
X144550000Y-82770327D01*
X144550000Y-83477500D01*
X144625000Y-83552500D01*
X145822500Y-83552500D01*
X145822500Y-82605000D01*
X145877500Y-82605000D01*
X145877500Y-83552500D01*
X147075000Y-83552500D01*
X147150000Y-83477500D01*
X147150000Y-82770327D01*
X147104328Y-82660064D01*
X147019937Y-82575672D01*
X146909674Y-82530000D01*
X145952500Y-82530000D01*
X145877500Y-82605000D01*
X145822500Y-82605000D01*
X145747500Y-82530000D01*
X144790326Y-82530000D01*
X144680063Y-82575672D01*
X144595672Y-82660064D01*
X144550000Y-82770327D01*
X140345000Y-82770327D01*
X140345000Y-80519600D01*
X141684100Y-80519600D01*
X141684100Y-80726774D01*
X141729772Y-80837037D01*
X141814164Y-80921428D01*
X141924427Y-80967100D01*
X142331600Y-80967100D01*
X142406600Y-80892100D01*
X142406600Y-80444600D01*
X142461600Y-80444600D01*
X142461600Y-80892100D01*
X142536600Y-80967100D01*
X142943773Y-80967100D01*
X143054036Y-80921428D01*
X143138428Y-80837037D01*
X143184100Y-80726774D01*
X143184100Y-80519600D01*
X143109100Y-80444600D01*
X142461600Y-80444600D01*
X142406600Y-80444600D01*
X141759100Y-80444600D01*
X141684100Y-80519600D01*
X140345000Y-80519600D01*
X140345000Y-80107426D01*
X141684100Y-80107426D01*
X141684100Y-80314600D01*
X141759100Y-80389600D01*
X142406600Y-80389600D01*
X142406600Y-79942100D01*
X142461600Y-79942100D01*
X142461600Y-80389600D01*
X143109100Y-80389600D01*
X143184100Y-80314600D01*
X143184100Y-80107426D01*
X143138428Y-79997163D01*
X143054036Y-79912772D01*
X142943773Y-79867100D01*
X142536600Y-79867100D01*
X142461600Y-79942100D01*
X142406600Y-79942100D01*
X142331600Y-79867100D01*
X141924427Y-79867100D01*
X141814164Y-79912772D01*
X141729772Y-79997163D01*
X141684100Y-80107426D01*
X140345000Y-80107426D01*
X140345000Y-77256040D01*
X140501040Y-77100000D01*
X143597300Y-77100000D01*
X143597300Y-78492100D01*
X143127987Y-78492100D01*
X143103355Y-78453821D01*
X143003103Y-78385322D01*
X142884100Y-78361223D01*
X141984100Y-78361223D01*
X141872927Y-78382142D01*
X141770821Y-78447845D01*
X141702322Y-78548097D01*
X141678223Y-78667100D01*
X141678223Y-79167100D01*
X141699142Y-79278273D01*
X141764845Y-79380379D01*
X141865097Y-79448878D01*
X141984100Y-79472977D01*
X142884100Y-79472977D01*
X142995273Y-79452058D01*
X143097379Y-79386355D01*
X143127617Y-79342100D01*
X144274220Y-79342100D01*
X144319939Y-79372649D01*
X144346923Y-79378016D01*
X144482580Y-79405000D01*
X144544123Y-79405000D01*
X144544123Y-79730000D01*
X144565042Y-79841173D01*
X144630745Y-79943279D01*
X144730997Y-80011778D01*
X144850000Y-80035877D01*
X146850000Y-80035877D01*
X146961173Y-80014958D01*
X147063279Y-79949255D01*
X147131778Y-79849003D01*
X147155877Y-79730000D01*
X147155877Y-78230000D01*
X147134958Y-78118827D01*
X147069255Y-78016721D01*
X146969003Y-77948222D01*
X146850000Y-77924123D01*
X144850000Y-77924123D01*
X144738827Y-77945042D01*
X144636721Y-78010745D01*
X144568222Y-78110997D01*
X144544123Y-78230000D01*
X144544123Y-78440503D01*
X144447300Y-78343680D01*
X144447300Y-77100000D01*
X150798960Y-77100000D01*
X151725000Y-78026040D01*
X151725000Y-79074123D01*
X151150000Y-79074123D01*
X151038827Y-79095042D01*
X150936721Y-79160745D01*
X150868222Y-79260997D01*
X150844123Y-79380000D01*
X150844123Y-80855000D01*
X147155877Y-80855000D01*
X147155877Y-80530000D01*
X147134958Y-80418827D01*
X147069255Y-80316721D01*
X146969003Y-80248222D01*
X146850000Y-80224123D01*
X144850000Y-80224123D01*
X144738827Y-80245042D01*
X144636721Y-80310745D01*
X144568222Y-80410997D01*
X144544123Y-80530000D01*
X144544123Y-82030000D01*
X144565042Y-82141173D01*
X144630745Y-82243279D01*
X144730997Y-82311778D01*
X144850000Y-82335877D01*
X146850000Y-82335877D01*
X146961173Y-82314958D01*
X147063279Y-82249255D01*
X147131778Y-82149003D01*
X147155877Y-82030000D01*
X147155877Y-81705000D01*
X150844123Y-81705000D01*
X150844123Y-83180000D01*
X150865042Y-83291173D01*
X150930745Y-83393279D01*
X151030997Y-83461778D01*
X151150000Y-83485877D01*
X153150000Y-83485877D01*
X153261173Y-83464958D01*
X153363279Y-83399255D01*
X153431778Y-83299003D01*
X153455877Y-83180000D01*
X153455877Y-79380000D01*
X153434958Y-79268827D01*
X153369255Y-79166721D01*
X153269003Y-79098222D01*
X153150000Y-79074123D01*
X152575000Y-79074123D01*
X152575000Y-77850000D01*
X152542649Y-77687360D01*
X152542649Y-77687359D01*
X152450520Y-77549480D01*
X152001040Y-77100000D01*
X165873491Y-77100000D01*
X165805646Y-77167727D01*
X165630200Y-77590247D01*
X165629801Y-78047746D01*
X165804509Y-78470572D01*
X166127727Y-78794354D01*
X166550247Y-78969800D01*
X167007746Y-78970199D01*
X167235184Y-78876224D01*
X169517300Y-81158341D01*
X169517300Y-84014279D01*
X168397200Y-85134380D01*
X160554460Y-85134380D01*
X160418803Y-85161364D01*
X160391819Y-85166731D01*
X160253940Y-85258860D01*
X156929080Y-88583720D01*
X156836951Y-88721599D01*
X156836951Y-88721600D01*
X156804600Y-88884240D01*
X156804600Y-96084360D01*
X155935960Y-96953000D01*
X149518160Y-96953000D01*
X149382503Y-96979984D01*
X149355519Y-96985351D01*
X149217640Y-97077480D01*
X145002518Y-101292602D01*
X144784652Y-101292412D01*
X144384842Y-101457610D01*
X144078685Y-101763233D01*
X143912790Y-102162754D01*
X143912412Y-102595348D01*
X144077610Y-102995158D01*
X144383233Y-103301315D01*
X144782754Y-103467210D01*
X145215348Y-103467588D01*
X145615158Y-103302390D01*
X145921315Y-102996767D01*
X146087210Y-102597246D01*
X146087211Y-102595348D01*
X146452412Y-102595348D01*
X146617610Y-102995158D01*
X146923233Y-103301315D01*
X147322754Y-103467210D01*
X147755348Y-103467588D01*
X148155158Y-103302390D01*
X148461315Y-102996767D01*
X148627210Y-102597246D01*
X148627211Y-102595348D01*
X148992412Y-102595348D01*
X149157610Y-102995158D01*
X149463233Y-103301315D01*
X149862754Y-103467210D01*
X150295348Y-103467588D01*
X150695158Y-103302390D01*
X151001315Y-102996767D01*
X151167210Y-102597246D01*
X151167588Y-102164652D01*
X151002390Y-101764842D01*
X150770417Y-101532463D01*
X153270521Y-99032360D01*
X156670800Y-99032360D01*
X156806457Y-99005376D01*
X156833441Y-99000009D01*
X156971320Y-98907880D01*
X158787420Y-97091781D01*
X158879548Y-96953901D01*
X158879549Y-96953900D01*
X158911900Y-96791260D01*
X158911900Y-95462500D01*
X162330000Y-95462500D01*
X162330000Y-96169673D01*
X162375672Y-96279936D01*
X162460063Y-96364328D01*
X162570326Y-96410000D01*
X163527500Y-96410000D01*
X163602500Y-96335000D01*
X163602500Y-95387500D01*
X163657500Y-95387500D01*
X163657500Y-96335000D01*
X163732500Y-96410000D01*
X164689674Y-96410000D01*
X164799937Y-96364328D01*
X164884328Y-96279936D01*
X164930000Y-96169673D01*
X164930000Y-95462500D01*
X164855000Y-95387500D01*
X163657500Y-95387500D01*
X163602500Y-95387500D01*
X162405000Y-95387500D01*
X162330000Y-95462500D01*
X158911900Y-95462500D01*
X158911900Y-94550327D01*
X162330000Y-94550327D01*
X162330000Y-95257500D01*
X162405000Y-95332500D01*
X163602500Y-95332500D01*
X163602500Y-94385000D01*
X163657500Y-94385000D01*
X163657500Y-95332500D01*
X164855000Y-95332500D01*
X164930000Y-95257500D01*
X164930000Y-94550327D01*
X164884328Y-94440064D01*
X164799937Y-94355672D01*
X164689674Y-94310000D01*
X163732500Y-94310000D01*
X163657500Y-94385000D01*
X163602500Y-94385000D01*
X163527500Y-94310000D01*
X162570326Y-94310000D01*
X162460063Y-94355672D01*
X162375672Y-94440064D01*
X162330000Y-94550327D01*
X158911900Y-94550327D01*
X158911900Y-91824620D01*
X159492040Y-91824620D01*
X159492040Y-92031794D01*
X159537712Y-92142057D01*
X159622104Y-92226448D01*
X159732367Y-92272120D01*
X160139540Y-92272120D01*
X160214540Y-92197120D01*
X160214540Y-91749620D01*
X160269540Y-91749620D01*
X160269540Y-92197120D01*
X160344540Y-92272120D01*
X160751713Y-92272120D01*
X160861976Y-92226448D01*
X160946368Y-92142057D01*
X160992040Y-92031794D01*
X160992040Y-91824620D01*
X160917040Y-91749620D01*
X160269540Y-91749620D01*
X160214540Y-91749620D01*
X159567040Y-91749620D01*
X159492040Y-91824620D01*
X158911900Y-91824620D01*
X158911900Y-91412446D01*
X159492040Y-91412446D01*
X159492040Y-91619620D01*
X159567040Y-91694620D01*
X160214540Y-91694620D01*
X160214540Y-91247120D01*
X160269540Y-91247120D01*
X160269540Y-91694620D01*
X160917040Y-91694620D01*
X160992040Y-91619620D01*
X160992040Y-91412446D01*
X160946368Y-91302183D01*
X160861976Y-91217792D01*
X160751713Y-91172120D01*
X160344540Y-91172120D01*
X160269540Y-91247120D01*
X160214540Y-91247120D01*
X160139540Y-91172120D01*
X159732367Y-91172120D01*
X159622104Y-91217792D01*
X159537712Y-91302183D01*
X159492040Y-91412446D01*
X158911900Y-91412446D01*
X158911900Y-89972120D01*
X159486163Y-89972120D01*
X159486163Y-90472120D01*
X159507082Y-90583293D01*
X159572785Y-90685399D01*
X159673037Y-90753898D01*
X159792040Y-90777997D01*
X160692040Y-90777997D01*
X160803213Y-90757078D01*
X160905319Y-90691375D01*
X160935557Y-90647120D01*
X161632120Y-90647120D01*
X161767777Y-90620136D01*
X161794761Y-90614769D01*
X161932640Y-90522640D01*
X162324123Y-90131157D01*
X162324123Y-91510000D01*
X162345042Y-91621173D01*
X162410745Y-91723279D01*
X162510997Y-91791778D01*
X162630000Y-91815877D01*
X164630000Y-91815877D01*
X164741173Y-91794958D01*
X164843279Y-91729255D01*
X164911778Y-91629003D01*
X164935877Y-91510000D01*
X164935877Y-90010000D01*
X164914958Y-89898827D01*
X164849255Y-89796721D01*
X164749003Y-89728222D01*
X164630000Y-89704123D01*
X163175163Y-89704123D01*
X162875000Y-89403960D01*
X162875000Y-88673887D01*
X162913279Y-88649255D01*
X162981778Y-88549003D01*
X163005877Y-88430000D01*
X163005877Y-87530000D01*
X162984958Y-87418827D01*
X162919255Y-87316721D01*
X162819003Y-87248222D01*
X162700000Y-87224123D01*
X162200000Y-87224123D01*
X162088827Y-87245042D01*
X161986721Y-87310745D01*
X161918222Y-87410997D01*
X161894123Y-87530000D01*
X161894123Y-88430000D01*
X161915042Y-88541173D01*
X161980745Y-88643279D01*
X162025000Y-88673517D01*
X162025000Y-89228200D01*
X161456080Y-89797120D01*
X160935927Y-89797120D01*
X160911295Y-89758841D01*
X160811043Y-89690342D01*
X160692040Y-89666243D01*
X159792040Y-89666243D01*
X159680867Y-89687162D01*
X159578761Y-89752865D01*
X159510262Y-89853117D01*
X159486163Y-89972120D01*
X158911900Y-89972120D01*
X158911900Y-89591140D01*
X160098040Y-88405000D01*
X160394123Y-88405000D01*
X160394123Y-88430000D01*
X160415042Y-88541173D01*
X160480745Y-88643279D01*
X160580997Y-88711778D01*
X160700000Y-88735877D01*
X161200000Y-88735877D01*
X161311173Y-88714958D01*
X161413279Y-88649255D01*
X161481778Y-88549003D01*
X161505877Y-88430000D01*
X161505877Y-87530000D01*
X161484958Y-87418827D01*
X161419255Y-87316721D01*
X161319003Y-87248222D01*
X161200000Y-87224123D01*
X160700000Y-87224123D01*
X160588827Y-87245042D01*
X160486721Y-87310745D01*
X160418222Y-87410997D01*
X160394123Y-87530000D01*
X160394123Y-87555000D01*
X159922000Y-87555000D01*
X159759359Y-87587351D01*
X159621480Y-87679480D01*
X158186380Y-89114580D01*
X158094251Y-89252459D01*
X158094251Y-89252460D01*
X158061900Y-89415100D01*
X158061900Y-96615219D01*
X156494760Y-98182360D01*
X153094480Y-98182360D01*
X152931840Y-98214711D01*
X152931838Y-98214712D01*
X152931839Y-98214712D01*
X152793959Y-98306840D01*
X149779480Y-101321320D01*
X149773679Y-101330001D01*
X149464842Y-101457610D01*
X149158685Y-101763233D01*
X148992790Y-102162754D01*
X148992412Y-102595348D01*
X148627211Y-102595348D01*
X148627588Y-102164652D01*
X148462390Y-101764842D01*
X148156767Y-101458685D01*
X147757246Y-101292790D01*
X147324652Y-101292412D01*
X146924842Y-101457610D01*
X146618685Y-101763233D01*
X146452790Y-102162754D01*
X146452412Y-102595348D01*
X146087211Y-102595348D01*
X146087588Y-102164652D01*
X145922390Y-101764842D01*
X145827457Y-101669743D01*
X149694200Y-97803000D01*
X156112000Y-97803000D01*
X156247657Y-97776016D01*
X156274641Y-97770649D01*
X156412520Y-97678520D01*
X157530120Y-96560920D01*
X157622249Y-96423041D01*
X157633543Y-96366261D01*
X157654600Y-96260400D01*
X157654600Y-89060280D01*
X160730500Y-85984380D01*
X168573240Y-85984380D01*
X168708897Y-85957396D01*
X168735881Y-85952029D01*
X168873760Y-85859900D01*
X170242820Y-84490841D01*
X170334948Y-84352961D01*
X170334949Y-84352960D01*
X170367300Y-84190320D01*
X170367300Y-80982300D01*
X170341979Y-80855000D01*
X170334949Y-80819659D01*
X170242821Y-80681780D01*
X167836202Y-78275162D01*
X167929800Y-78049753D01*
X167930199Y-77592254D01*
X167755491Y-77169428D01*
X167686184Y-77100000D01*
X171900000Y-77100000D01*
X171900000Y-122900000D01*
X133479740Y-122900000D01*
X132590390Y-122010650D01*
X134176041Y-120425000D01*
X152780000Y-120425000D01*
X152915657Y-120398016D01*
X152942641Y-120392649D01*
X153080520Y-120300520D01*
X154752734Y-118628307D01*
X154942754Y-118707210D01*
X155375348Y-118707588D01*
X155775158Y-118542390D01*
X156081315Y-118236767D01*
X156247210Y-117837246D01*
X156247211Y-117835348D01*
X156612412Y-117835348D01*
X156777610Y-118235158D01*
X157083233Y-118541315D01*
X157482754Y-118707210D01*
X157915348Y-118707588D01*
X158315158Y-118542390D01*
X158487723Y-118370125D01*
X159528766Y-118370125D01*
X159610769Y-118532847D01*
X160007998Y-118704157D01*
X160440548Y-118710415D01*
X160842565Y-118550666D01*
X160869231Y-118532847D01*
X160951234Y-118370125D01*
X160240000Y-117658891D01*
X159528766Y-118370125D01*
X158487723Y-118370125D01*
X158621315Y-118236767D01*
X158787210Y-117837246D01*
X158787224Y-117820548D01*
X159149585Y-117820548D01*
X159309334Y-118222565D01*
X159327153Y-118249231D01*
X159489875Y-118331234D01*
X160201109Y-117620000D01*
X160278891Y-117620000D01*
X160990125Y-118331234D01*
X161152847Y-118249231D01*
X161324157Y-117852002D01*
X161324397Y-117835348D01*
X161692412Y-117835348D01*
X161857610Y-118235158D01*
X162163233Y-118541315D01*
X162562754Y-118707210D01*
X162995348Y-118707588D01*
X163395158Y-118542390D01*
X163701315Y-118236767D01*
X163780943Y-118045000D01*
X164499040Y-118045000D01*
X165214559Y-118760520D01*
X165306688Y-118822078D01*
X165352440Y-118852649D01*
X165515080Y-118885000D01*
X168164123Y-118885000D01*
X168164123Y-119310000D01*
X168185042Y-119421173D01*
X168250745Y-119523279D01*
X168350997Y-119591778D01*
X168470000Y-119615877D01*
X170170000Y-119615877D01*
X170281173Y-119594958D01*
X170383279Y-119529255D01*
X170451778Y-119429003D01*
X170475877Y-119310000D01*
X170475877Y-117610000D01*
X170454958Y-117498827D01*
X170389255Y-117396721D01*
X170289003Y-117328222D01*
X170170000Y-117304123D01*
X168470000Y-117304123D01*
X168358827Y-117325042D01*
X168256721Y-117390745D01*
X168188222Y-117490997D01*
X168164123Y-117610000D01*
X168164123Y-118035000D01*
X165691121Y-118035000D01*
X164975600Y-117319480D01*
X164837721Y-117227351D01*
X164810737Y-117221984D01*
X164675080Y-117195000D01*
X163780962Y-117195000D01*
X163702390Y-117004842D01*
X163396767Y-116698685D01*
X162997246Y-116532790D01*
X162564652Y-116532412D01*
X162164842Y-116697610D01*
X161858685Y-117003233D01*
X161692790Y-117402754D01*
X161692412Y-117835348D01*
X161324397Y-117835348D01*
X161330415Y-117419452D01*
X161170666Y-117017435D01*
X161152847Y-116990769D01*
X160990125Y-116908766D01*
X160278891Y-117620000D01*
X160201109Y-117620000D01*
X159489875Y-116908766D01*
X159327153Y-116990769D01*
X159155843Y-117387998D01*
X159149585Y-117820548D01*
X158787224Y-117820548D01*
X158787588Y-117404652D01*
X158622390Y-117004842D01*
X158487659Y-116869875D01*
X159528766Y-116869875D01*
X160240000Y-117581109D01*
X160951234Y-116869875D01*
X160869231Y-116707153D01*
X160472002Y-116535843D01*
X160039452Y-116529585D01*
X159637435Y-116689334D01*
X159610769Y-116707153D01*
X159528766Y-116869875D01*
X158487659Y-116869875D01*
X158316767Y-116698685D01*
X157917246Y-116532790D01*
X157484652Y-116532412D01*
X157084842Y-116697610D01*
X156778685Y-117003233D01*
X156612790Y-117402754D01*
X156612412Y-117835348D01*
X156247211Y-117835348D01*
X156247588Y-117404652D01*
X156148623Y-117165137D01*
X159831260Y-113482500D01*
X168170000Y-113482500D01*
X168170000Y-114289673D01*
X168215672Y-114399936D01*
X168300063Y-114484328D01*
X168410326Y-114530000D01*
X169217500Y-114530000D01*
X169292500Y-114455000D01*
X169292500Y-113407500D01*
X169347500Y-113407500D01*
X169347500Y-114455000D01*
X169422500Y-114530000D01*
X170229674Y-114530000D01*
X170339937Y-114484328D01*
X170424328Y-114399936D01*
X170470000Y-114289673D01*
X170470000Y-113482500D01*
X170395000Y-113407500D01*
X169347500Y-113407500D01*
X169292500Y-113407500D01*
X168245000Y-113407500D01*
X168170000Y-113482500D01*
X159831260Y-113482500D01*
X160843433Y-112470327D01*
X168170000Y-112470327D01*
X168170000Y-113277500D01*
X168245000Y-113352500D01*
X169292500Y-113352500D01*
X169292500Y-112305000D01*
X169347500Y-112305000D01*
X169347500Y-113352500D01*
X170395000Y-113352500D01*
X170470000Y-113277500D01*
X170470000Y-112470327D01*
X170424328Y-112360064D01*
X170339937Y-112275672D01*
X170229674Y-112230000D01*
X169422500Y-112230000D01*
X169347500Y-112305000D01*
X169292500Y-112305000D01*
X169217500Y-112230000D01*
X168410326Y-112230000D01*
X168300063Y-112275672D01*
X168215672Y-112360064D01*
X168170000Y-112470327D01*
X160843433Y-112470327D01*
X164588760Y-108725000D01*
X168164123Y-108725000D01*
X168164123Y-109150000D01*
X168185042Y-109261173D01*
X168250745Y-109363279D01*
X168350997Y-109431778D01*
X168470000Y-109455877D01*
X170170000Y-109455877D01*
X170281173Y-109434958D01*
X170383279Y-109369255D01*
X170451778Y-109269003D01*
X170475877Y-109150000D01*
X170475877Y-107450000D01*
X170454958Y-107338827D01*
X170389255Y-107236721D01*
X170289003Y-107168222D01*
X170170000Y-107144123D01*
X169196964Y-107144123D01*
X167517420Y-105464580D01*
X167517420Y-102579270D01*
X167600779Y-102496057D01*
X167653122Y-102370000D01*
X168164123Y-102370000D01*
X168164123Y-104070000D01*
X168185042Y-104181173D01*
X168250745Y-104283279D01*
X168350997Y-104351778D01*
X168470000Y-104375877D01*
X170170000Y-104375877D01*
X170281173Y-104354958D01*
X170383279Y-104289255D01*
X170451778Y-104189003D01*
X170475877Y-104070000D01*
X170475877Y-102370000D01*
X170454958Y-102258827D01*
X170389255Y-102156721D01*
X170289003Y-102088222D01*
X170170000Y-102064123D01*
X168470000Y-102064123D01*
X168358827Y-102085042D01*
X168256721Y-102150745D01*
X168188222Y-102250997D01*
X168164123Y-102370000D01*
X167653122Y-102370000D01*
X167692316Y-102275611D01*
X167692524Y-102036916D01*
X167601372Y-101816311D01*
X167432737Y-101647381D01*
X167212291Y-101555844D01*
X167000680Y-101555660D01*
X170230520Y-98325820D01*
X170322649Y-98187941D01*
X170332555Y-98138140D01*
X170355000Y-98025300D01*
X170355000Y-95265877D01*
X170930000Y-95265877D01*
X171041173Y-95244958D01*
X171143279Y-95179255D01*
X171211778Y-95079003D01*
X171235877Y-94960000D01*
X171235877Y-91160000D01*
X171214958Y-91048827D01*
X171149255Y-90946721D01*
X171049003Y-90878222D01*
X170930000Y-90854123D01*
X168930000Y-90854123D01*
X168818827Y-90875042D01*
X168716721Y-90940745D01*
X168648222Y-91040997D01*
X168624123Y-91160000D01*
X168624123Y-92635000D01*
X164935877Y-92635000D01*
X164935877Y-92310000D01*
X164914958Y-92198827D01*
X164849255Y-92096721D01*
X164749003Y-92028222D01*
X164630000Y-92004123D01*
X162630000Y-92004123D01*
X162518827Y-92025042D01*
X162416721Y-92090745D01*
X162348222Y-92190997D01*
X162324123Y-92310000D01*
X162324123Y-93810000D01*
X162345042Y-93921173D01*
X162410745Y-94023279D01*
X162510997Y-94091778D01*
X162630000Y-94115877D01*
X164630000Y-94115877D01*
X164741173Y-94094958D01*
X164843279Y-94029255D01*
X164911778Y-93929003D01*
X164935877Y-93810000D01*
X164935877Y-93485000D01*
X168624123Y-93485000D01*
X168624123Y-94960000D01*
X168645042Y-95071173D01*
X168710745Y-95173279D01*
X168810997Y-95241778D01*
X168930000Y-95265877D01*
X169505000Y-95265877D01*
X169505000Y-97849260D01*
X153230860Y-114123400D01*
X126256840Y-114123400D01*
X126094199Y-114155751D01*
X125956320Y-114247879D01*
X123655080Y-116549120D01*
X123562951Y-116686999D01*
X123560627Y-116698685D01*
X123530600Y-116849640D01*
X123530600Y-120263400D01*
X123537984Y-120300520D01*
X123562951Y-120426041D01*
X123655080Y-120563920D01*
X125361960Y-122270800D01*
X125499839Y-122362929D01*
X125662480Y-122395280D01*
X126006843Y-122395280D01*
X126006843Y-122900000D01*
X122375000Y-122900000D01*
X122375000Y-102595348D01*
X126132412Y-102595348D01*
X126297610Y-102995158D01*
X126603233Y-103301315D01*
X127002754Y-103467210D01*
X127435348Y-103467588D01*
X127835158Y-103302390D01*
X128141315Y-102996767D01*
X128307210Y-102597246D01*
X128307211Y-102595348D01*
X128672412Y-102595348D01*
X128837610Y-102995158D01*
X129143233Y-103301315D01*
X129542754Y-103467210D01*
X129975348Y-103467588D01*
X130375158Y-103302390D01*
X130681315Y-102996767D01*
X130847210Y-102597246D01*
X130847588Y-102164652D01*
X130682390Y-101764842D01*
X130376767Y-101458685D01*
X129977246Y-101292790D01*
X129544652Y-101292412D01*
X129144842Y-101457610D01*
X128838685Y-101763233D01*
X128672790Y-102162754D01*
X128672412Y-102595348D01*
X128307211Y-102595348D01*
X128307588Y-102164652D01*
X128142390Y-101764842D01*
X127836767Y-101458685D01*
X127437246Y-101292790D01*
X127004652Y-101292412D01*
X126604842Y-101457610D01*
X126298685Y-101763233D01*
X126132790Y-102162754D01*
X126132412Y-102595348D01*
X122375000Y-102595348D01*
X122375000Y-96753500D01*
X122684000Y-96753500D01*
X122684000Y-97472674D01*
X122729672Y-97582937D01*
X122814064Y-97667328D01*
X122924327Y-97713000D01*
X123897500Y-97713000D01*
X123972500Y-97638000D01*
X123972500Y-96678500D01*
X124027500Y-96678500D01*
X124027500Y-97638000D01*
X124102500Y-97713000D01*
X125075673Y-97713000D01*
X125185936Y-97667328D01*
X125270328Y-97582937D01*
X125316000Y-97472674D01*
X125316000Y-96753500D01*
X125241000Y-96678500D01*
X124027500Y-96678500D01*
X123972500Y-96678500D01*
X122759000Y-96678500D01*
X122684000Y-96753500D01*
X122375000Y-96753500D01*
X122375000Y-95829326D01*
X122684000Y-95829326D01*
X122684000Y-96548500D01*
X122759000Y-96623500D01*
X123972500Y-96623500D01*
X123972500Y-95664000D01*
X124027500Y-95664000D01*
X124027500Y-96623500D01*
X125241000Y-96623500D01*
X125316000Y-96548500D01*
X125316000Y-96102500D01*
X125850000Y-96102500D01*
X125850000Y-96909674D01*
X125895672Y-97019937D01*
X125980064Y-97104328D01*
X126090327Y-97150000D01*
X126897500Y-97150000D01*
X126972500Y-97075000D01*
X126972500Y-96027500D01*
X127027500Y-96027500D01*
X127027500Y-97075000D01*
X127102500Y-97150000D01*
X127909673Y-97150000D01*
X128019936Y-97104328D01*
X128104328Y-97019937D01*
X128150000Y-96909674D01*
X128150000Y-96102500D01*
X128075000Y-96027500D01*
X127027500Y-96027500D01*
X126972500Y-96027500D01*
X125925000Y-96027500D01*
X125850000Y-96102500D01*
X125316000Y-96102500D01*
X125316000Y-95829326D01*
X125270328Y-95719063D01*
X125185936Y-95634672D01*
X125075673Y-95589000D01*
X124102500Y-95589000D01*
X124027500Y-95664000D01*
X123972500Y-95664000D01*
X123897500Y-95589000D01*
X122924327Y-95589000D01*
X122814064Y-95634672D01*
X122729672Y-95719063D01*
X122684000Y-95829326D01*
X122375000Y-95829326D01*
X122375000Y-95090326D01*
X125850000Y-95090326D01*
X125850000Y-95897500D01*
X125925000Y-95972500D01*
X126972500Y-95972500D01*
X126972500Y-94925000D01*
X127027500Y-94925000D01*
X127027500Y-95972500D01*
X128075000Y-95972500D01*
X128150000Y-95897500D01*
X128150000Y-95090326D01*
X128104328Y-94980063D01*
X128019936Y-94895672D01*
X127909673Y-94850000D01*
X127102500Y-94850000D01*
X127027500Y-94925000D01*
X126972500Y-94925000D01*
X126897500Y-94850000D01*
X126090327Y-94850000D01*
X125980064Y-94895672D01*
X125895672Y-94980063D01*
X125850000Y-95090326D01*
X122375000Y-95090326D01*
X122375000Y-92587000D01*
X122678123Y-92587000D01*
X122678123Y-94111000D01*
X122699042Y-94222173D01*
X122764745Y-94324279D01*
X122864997Y-94392778D01*
X122984000Y-94416877D01*
X125016000Y-94416877D01*
X125127173Y-94395958D01*
X125229279Y-94330255D01*
X125297778Y-94230003D01*
X125321877Y-94111000D01*
X125321877Y-93774000D01*
X125907977Y-93774000D01*
X125937539Y-93922616D01*
X126186827Y-94295703D01*
X126559914Y-94544991D01*
X127000000Y-94632530D01*
X127440086Y-94544991D01*
X127813173Y-94295703D01*
X128062461Y-93922616D01*
X128150000Y-93482530D01*
X128150000Y-93437470D01*
X128390000Y-93437470D01*
X128390000Y-93482530D01*
X128477539Y-93922616D01*
X128726827Y-94295703D01*
X129099914Y-94544991D01*
X129540000Y-94632530D01*
X129980086Y-94544991D01*
X130006381Y-94527421D01*
X130401300Y-94922340D01*
X130401300Y-95236324D01*
X130353173Y-95164297D01*
X129980086Y-94915009D01*
X129540000Y-94827470D01*
X129099914Y-94915009D01*
X128726827Y-95164297D01*
X128477539Y-95537384D01*
X128390000Y-95977470D01*
X128390000Y-96022530D01*
X128477539Y-96462616D01*
X128726827Y-96835703D01*
X129099914Y-97084991D01*
X129115000Y-97087992D01*
X129115000Y-98438660D01*
X129141984Y-98574317D01*
X129147351Y-98601301D01*
X129239480Y-98739180D01*
X131875000Y-101374701D01*
X131875000Y-101379038D01*
X131684842Y-101457610D01*
X131378685Y-101763233D01*
X131212790Y-102162754D01*
X131212412Y-102595348D01*
X131377610Y-102995158D01*
X131683233Y-103301315D01*
X132082754Y-103467210D01*
X132515348Y-103467588D01*
X132915158Y-103302390D01*
X133221315Y-102996767D01*
X133387210Y-102597246D01*
X133387588Y-102164652D01*
X133222390Y-101764842D01*
X132916767Y-101458685D01*
X132725000Y-101379057D01*
X132725000Y-101198660D01*
X132692649Y-101036020D01*
X132627662Y-100938760D01*
X132600520Y-100898139D01*
X129965000Y-98262620D01*
X129965000Y-97087992D01*
X129980086Y-97084991D01*
X130353173Y-96835703D01*
X130401300Y-96763676D01*
X130401300Y-97350060D01*
X130406858Y-97378000D01*
X130433651Y-97512701D01*
X130525780Y-97650580D01*
X134301242Y-101426042D01*
X134224842Y-101457610D01*
X133918685Y-101763233D01*
X133752790Y-102162754D01*
X133752412Y-102595348D01*
X133917610Y-102995158D01*
X134223233Y-103301315D01*
X134622754Y-103467210D01*
X135055348Y-103467588D01*
X135455158Y-103302390D01*
X135631160Y-103126695D01*
X135631160Y-104246160D01*
X135652169Y-104351778D01*
X135663511Y-104408801D01*
X135755640Y-104546680D01*
X136532879Y-105323920D01*
X136625008Y-105385478D01*
X136670760Y-105416049D01*
X136833400Y-105448400D01*
X138714760Y-105448400D01*
X146124159Y-112857799D01*
X146124056Y-112975584D01*
X146215208Y-113196189D01*
X146383843Y-113365119D01*
X146604289Y-113456656D01*
X146842984Y-113456864D01*
X147063589Y-113365712D01*
X147232519Y-113197077D01*
X147324056Y-112976631D01*
X147324264Y-112737936D01*
X147233112Y-112517331D01*
X147064477Y-112348401D01*
X146844031Y-112256864D01*
X146725200Y-112256760D01*
X141185464Y-106717024D01*
X149588616Y-106717024D01*
X149679768Y-106937629D01*
X149848403Y-107106559D01*
X150068849Y-107198096D01*
X150307544Y-107198304D01*
X150528149Y-107107152D01*
X150697079Y-106938517D01*
X150788616Y-106718071D01*
X150788720Y-106599240D01*
X152920520Y-104467440D01*
X153012649Y-104329561D01*
X153040607Y-104189003D01*
X153045000Y-104166920D01*
X153045000Y-103380962D01*
X153235158Y-103302390D01*
X153407723Y-103130125D01*
X154448766Y-103130125D01*
X154530769Y-103292847D01*
X154927998Y-103464157D01*
X155360548Y-103470415D01*
X155762565Y-103310666D01*
X155789231Y-103292847D01*
X155871234Y-103130125D01*
X155160000Y-102418891D01*
X154448766Y-103130125D01*
X153407723Y-103130125D01*
X153541315Y-102996767D01*
X153707210Y-102597246D01*
X153707224Y-102580548D01*
X154069585Y-102580548D01*
X154229334Y-102982565D01*
X154247153Y-103009231D01*
X154409875Y-103091234D01*
X155121109Y-102380000D01*
X155198891Y-102380000D01*
X155910125Y-103091234D01*
X156072847Y-103009231D01*
X156244157Y-102612002D01*
X156244397Y-102595348D01*
X156612412Y-102595348D01*
X156777610Y-102995158D01*
X157083233Y-103301315D01*
X157482754Y-103467210D01*
X157915348Y-103467588D01*
X158315158Y-103302390D01*
X158621315Y-102996767D01*
X158787210Y-102597246D01*
X158787211Y-102595348D01*
X159152412Y-102595348D01*
X159317610Y-102995158D01*
X159623233Y-103301315D01*
X160022754Y-103467210D01*
X160455348Y-103467588D01*
X160855158Y-103302390D01*
X161161315Y-102996767D01*
X161327210Y-102597246D01*
X161327211Y-102595348D01*
X161692412Y-102595348D01*
X161857610Y-102995158D01*
X162163233Y-103301315D01*
X162562754Y-103467210D01*
X162995348Y-103467588D01*
X163395158Y-103302390D01*
X163701315Y-102996767D01*
X163867210Y-102597246D01*
X163867588Y-102164652D01*
X163702390Y-101764842D01*
X163396767Y-101458685D01*
X162997246Y-101292790D01*
X162564652Y-101292412D01*
X162164842Y-101457610D01*
X161858685Y-101763233D01*
X161692790Y-102162754D01*
X161692412Y-102595348D01*
X161327211Y-102595348D01*
X161327588Y-102164652D01*
X161162390Y-101764842D01*
X160856767Y-101458685D01*
X160457246Y-101292790D01*
X160024652Y-101292412D01*
X159624842Y-101457610D01*
X159318685Y-101763233D01*
X159152790Y-102162754D01*
X159152412Y-102595348D01*
X158787211Y-102595348D01*
X158787588Y-102164652D01*
X158622390Y-101764842D01*
X158316767Y-101458685D01*
X157917246Y-101292790D01*
X157484652Y-101292412D01*
X157084842Y-101457610D01*
X156778685Y-101763233D01*
X156612790Y-102162754D01*
X156612412Y-102595348D01*
X156244397Y-102595348D01*
X156250415Y-102179452D01*
X156090666Y-101777435D01*
X156072847Y-101750769D01*
X155910125Y-101668766D01*
X155198891Y-102380000D01*
X155121109Y-102380000D01*
X154409875Y-101668766D01*
X154247153Y-101750769D01*
X154075843Y-102147998D01*
X154069585Y-102580548D01*
X153707224Y-102580548D01*
X153707588Y-102164652D01*
X153542390Y-101764842D01*
X153407659Y-101629875D01*
X154448766Y-101629875D01*
X155160000Y-102341109D01*
X155871234Y-101629875D01*
X155789231Y-101467153D01*
X155392002Y-101295843D01*
X154959452Y-101289585D01*
X154557435Y-101449334D01*
X154530769Y-101467153D01*
X154448766Y-101629875D01*
X153407659Y-101629875D01*
X153236767Y-101458685D01*
X152837246Y-101292790D01*
X152404652Y-101292412D01*
X152004842Y-101457610D01*
X151698685Y-101763233D01*
X151532790Y-102162754D01*
X151532412Y-102595348D01*
X151697610Y-102995158D01*
X152003233Y-103301315D01*
X152195000Y-103380943D01*
X152195000Y-103990880D01*
X150187681Y-105998199D01*
X150069896Y-105998096D01*
X149849291Y-106089248D01*
X149680361Y-106257883D01*
X149588824Y-106478329D01*
X149588616Y-106717024D01*
X141185464Y-106717024D01*
X139191320Y-104722880D01*
X139053441Y-104630751D01*
X139026457Y-104625384D01*
X138890800Y-104598400D01*
X137009441Y-104598400D01*
X136481160Y-104070120D01*
X136481160Y-103018749D01*
X136763233Y-103301315D01*
X137162754Y-103467210D01*
X137595348Y-103467588D01*
X137995158Y-103302390D01*
X138301315Y-102996767D01*
X138467210Y-102597246D01*
X138467588Y-102164652D01*
X138302390Y-101764842D01*
X137996767Y-101458685D01*
X137597246Y-101292790D01*
X137164652Y-101292412D01*
X136764842Y-101457610D01*
X136481160Y-101740797D01*
X136481160Y-101025440D01*
X136448809Y-100862800D01*
X136410864Y-100806011D01*
X136356680Y-100724919D01*
X132637978Y-97006218D01*
X132893173Y-96835703D01*
X133142461Y-96462616D01*
X133230000Y-96022530D01*
X133230000Y-95977470D01*
X133470000Y-95977470D01*
X133470000Y-96022530D01*
X133557539Y-96462616D01*
X133806827Y-96835703D01*
X134179914Y-97084991D01*
X134620000Y-97172530D01*
X135060086Y-97084991D01*
X135433173Y-96835703D01*
X135682461Y-96462616D01*
X135770000Y-96022530D01*
X135770000Y-95977470D01*
X135682461Y-95537384D01*
X135433173Y-95164297D01*
X135060086Y-94915009D01*
X134620000Y-94827470D01*
X134179914Y-94915009D01*
X133806827Y-95164297D01*
X133557539Y-95537384D01*
X133470000Y-95977470D01*
X133230000Y-95977470D01*
X133142461Y-95537384D01*
X132893173Y-95164297D01*
X132520086Y-94915009D01*
X132080000Y-94827470D01*
X131639914Y-94915009D01*
X131266827Y-95164297D01*
X131251300Y-95187535D01*
X131251300Y-94746300D01*
X131218949Y-94583660D01*
X131218949Y-94583659D01*
X131126820Y-94445780D01*
X130602659Y-93921619D01*
X130690000Y-93482530D01*
X130690000Y-93437470D01*
X130930000Y-93437470D01*
X130930000Y-93482530D01*
X131017539Y-93922616D01*
X131266827Y-94295703D01*
X131639914Y-94544991D01*
X132080000Y-94632530D01*
X132520086Y-94544991D01*
X132893173Y-94295703D01*
X133142461Y-93922616D01*
X133230000Y-93482530D01*
X133230000Y-93437470D01*
X133470000Y-93437470D01*
X133470000Y-93482530D01*
X133557539Y-93922616D01*
X133806827Y-94295703D01*
X134179914Y-94544991D01*
X134620000Y-94632530D01*
X135060086Y-94544991D01*
X135433173Y-94295703D01*
X135682461Y-93922616D01*
X135770000Y-93482530D01*
X135770000Y-93437470D01*
X135682461Y-92997384D01*
X135433173Y-92624297D01*
X135060086Y-92375009D01*
X134620000Y-92287470D01*
X134179914Y-92375009D01*
X133806827Y-92624297D01*
X133557539Y-92997384D01*
X133470000Y-93437470D01*
X133230000Y-93437470D01*
X133142461Y-92997384D01*
X132893173Y-92624297D01*
X132520086Y-92375009D01*
X132080000Y-92287470D01*
X131639914Y-92375009D01*
X131266827Y-92624297D01*
X131017539Y-92997384D01*
X130930000Y-93437470D01*
X130690000Y-93437470D01*
X130602461Y-92997384D01*
X130353173Y-92624297D01*
X129980086Y-92375009D01*
X129540000Y-92287470D01*
X129099914Y-92375009D01*
X128726827Y-92624297D01*
X128477539Y-92997384D01*
X128390000Y-93437470D01*
X128150000Y-93437470D01*
X128062461Y-92997384D01*
X127813173Y-92624297D01*
X127440086Y-92375009D01*
X127000000Y-92287470D01*
X126559914Y-92375009D01*
X126186827Y-92624297D01*
X125986572Y-92924000D01*
X125321877Y-92924000D01*
X125321877Y-92587000D01*
X125300958Y-92475827D01*
X125235255Y-92373721D01*
X125135003Y-92305222D01*
X125016000Y-92281123D01*
X122984000Y-92281123D01*
X122872827Y-92302042D01*
X122770721Y-92367745D01*
X122702222Y-92467997D01*
X122678123Y-92587000D01*
X122375000Y-92587000D01*
X122375000Y-89100000D01*
X138000000Y-89100000D01*
X138038906Y-89092121D01*
X138071681Y-89069727D01*
X138093161Y-89036346D01*
X138100000Y-89000000D01*
X138100000Y-77100000D01*
X139495000Y-77100000D01*
X139495000Y-101379038D01*
G36*
X166492316Y-102274564D02*
X166583468Y-102495169D01*
X166667420Y-102579268D01*
X166667420Y-105640620D01*
X166694404Y-105776277D01*
X166699771Y-105803261D01*
X166791900Y-105941140D01*
X168187133Y-107336374D01*
X168164123Y-107450000D01*
X168164123Y-107875000D01*
X164412720Y-107875000D01*
X164277063Y-107901984D01*
X164250079Y-107907351D01*
X164112200Y-107999480D01*
X155519727Y-116591953D01*
X155377246Y-116532790D01*
X154944652Y-116532412D01*
X154544842Y-116697610D01*
X154238685Y-117003233D01*
X154072790Y-117402754D01*
X154072412Y-117835348D01*
X154151706Y-118027254D01*
X152603960Y-119575000D01*
X134000000Y-119575000D01*
X133837359Y-119607351D01*
X133699480Y-119699479D01*
X131853680Y-121545280D01*
X131444597Y-121545280D01*
X131444597Y-120954280D01*
X131423678Y-120843107D01*
X131357975Y-120741001D01*
X131257723Y-120672502D01*
X131138720Y-120648403D01*
X129614720Y-120648403D01*
X129503547Y-120669322D01*
X129401441Y-120735025D01*
X129332942Y-120835277D01*
X129308843Y-120954280D01*
X129308843Y-122900000D01*
X128142597Y-122900000D01*
X128142597Y-120954280D01*
X128121678Y-120843107D01*
X128055975Y-120741001D01*
X127955723Y-120672502D01*
X127836720Y-120648403D01*
X126312720Y-120648403D01*
X126201547Y-120669322D01*
X126099441Y-120735025D01*
X126030942Y-120835277D01*
X126006843Y-120954280D01*
X126006843Y-121545280D01*
X125838520Y-121545280D01*
X124380600Y-120087360D01*
X124380600Y-117835348D01*
X126132412Y-117835348D01*
X126297610Y-118235158D01*
X126603233Y-118541315D01*
X127002754Y-118707210D01*
X127435348Y-118707588D01*
X127835158Y-118542390D01*
X128141315Y-118236767D01*
X128307210Y-117837246D01*
X128307211Y-117835348D01*
X128672412Y-117835348D01*
X128837610Y-118235158D01*
X129143233Y-118541315D01*
X129542754Y-118707210D01*
X129975348Y-118707588D01*
X130375158Y-118542390D01*
X130681315Y-118236767D01*
X130847210Y-117837246D01*
X130847211Y-117835348D01*
X131212412Y-117835348D01*
X131377610Y-118235158D01*
X131683233Y-118541315D01*
X132082754Y-118707210D01*
X132515348Y-118707588D01*
X132915158Y-118542390D01*
X133221315Y-118236767D01*
X133387210Y-117837246D01*
X133387211Y-117835348D01*
X133752412Y-117835348D01*
X133917610Y-118235158D01*
X134223233Y-118541315D01*
X134622754Y-118707210D01*
X135055348Y-118707588D01*
X135455158Y-118542390D01*
X135761315Y-118236767D01*
X135927210Y-117837246D01*
X135927211Y-117835348D01*
X136292412Y-117835348D01*
X136457610Y-118235158D01*
X136763233Y-118541315D01*
X137162754Y-118707210D01*
X137595348Y-118707588D01*
X137995158Y-118542390D01*
X138301315Y-118236767D01*
X138467210Y-117837246D01*
X138467211Y-117835348D01*
X138832412Y-117835348D01*
X138997610Y-118235158D01*
X139303233Y-118541315D01*
X139702754Y-118707210D01*
X140135348Y-118707588D01*
X140535158Y-118542390D01*
X140841315Y-118236767D01*
X141007210Y-117837246D01*
X141007211Y-117835348D01*
X141372412Y-117835348D01*
X141537610Y-118235158D01*
X141843233Y-118541315D01*
X142242754Y-118707210D01*
X142675348Y-118707588D01*
X143075158Y-118542390D01*
X143381315Y-118236767D01*
X143547210Y-117837246D01*
X143547211Y-117835348D01*
X143912412Y-117835348D01*
X144077610Y-118235158D01*
X144383233Y-118541315D01*
X144782754Y-118707210D01*
X145215348Y-118707588D01*
X145615158Y-118542390D01*
X145921315Y-118236767D01*
X146087210Y-117837246D01*
X146087211Y-117835348D01*
X146452412Y-117835348D01*
X146617610Y-118235158D01*
X146923233Y-118541315D01*
X147322754Y-118707210D01*
X147755348Y-118707588D01*
X148155158Y-118542390D01*
X148461315Y-118236767D01*
X148627210Y-117837246D01*
X148627211Y-117835348D01*
X148992412Y-117835348D01*
X149157610Y-118235158D01*
X149463233Y-118541315D01*
X149862754Y-118707210D01*
X150295348Y-118707588D01*
X150695158Y-118542390D01*
X151001315Y-118236767D01*
X151167210Y-117837246D01*
X151167211Y-117835348D01*
X151532412Y-117835348D01*
X151697610Y-118235158D01*
X152003233Y-118541315D01*
X152402754Y-118707210D01*
X152835348Y-118707588D01*
X153235158Y-118542390D01*
X153541315Y-118236767D01*
X153707210Y-117837246D01*
X153707588Y-117404652D01*
X153542390Y-117004842D01*
X153236767Y-116698685D01*
X152837246Y-116532790D01*
X152404652Y-116532412D01*
X152004842Y-116697610D01*
X151698685Y-117003233D01*
X151532790Y-117402754D01*
X151532412Y-117835348D01*
X151167211Y-117835348D01*
X151167588Y-117404652D01*
X151002390Y-117004842D01*
X150696767Y-116698685D01*
X150297246Y-116532790D01*
X149864652Y-116532412D01*
X149464842Y-116697610D01*
X149158685Y-117003233D01*
X148992790Y-117402754D01*
X148992412Y-117835348D01*
X148627211Y-117835348D01*
X148627588Y-117404652D01*
X148462390Y-117004842D01*
X148156767Y-116698685D01*
X147757246Y-116532790D01*
X147324652Y-116532412D01*
X146924842Y-116697610D01*
X146618685Y-117003233D01*
X146452790Y-117402754D01*
X146452412Y-117835348D01*
X146087211Y-117835348D01*
X146087588Y-117404652D01*
X145922390Y-117004842D01*
X145616767Y-116698685D01*
X145217246Y-116532790D01*
X144784652Y-116532412D01*
X144384842Y-116697610D01*
X144078685Y-117003233D01*
X143912790Y-117402754D01*
X143912412Y-117835348D01*
X143547211Y-117835348D01*
X143547588Y-117404652D01*
X143382390Y-117004842D01*
X143076767Y-116698685D01*
X142677246Y-116532790D01*
X142244652Y-116532412D01*
X141844842Y-116697610D01*
X141538685Y-117003233D01*
X141372790Y-117402754D01*
X141372412Y-117835348D01*
X141007211Y-117835348D01*
X141007588Y-117404652D01*
X140842390Y-117004842D01*
X140536767Y-116698685D01*
X140137246Y-116532790D01*
X139704652Y-116532412D01*
X139304842Y-116697610D01*
X138998685Y-117003233D01*
X138832790Y-117402754D01*
X138832412Y-117835348D01*
X138467211Y-117835348D01*
X138467588Y-117404652D01*
X138302390Y-117004842D01*
X137996767Y-116698685D01*
X137597246Y-116532790D01*
X137164652Y-116532412D01*
X136764842Y-116697610D01*
X136458685Y-117003233D01*
X136292790Y-117402754D01*
X136292412Y-117835348D01*
X135927211Y-117835348D01*
X135927588Y-117404652D01*
X135762390Y-117004842D01*
X135456767Y-116698685D01*
X135057246Y-116532790D01*
X134624652Y-116532412D01*
X134224842Y-116697610D01*
X133918685Y-117003233D01*
X133752790Y-117402754D01*
X133752412Y-117835348D01*
X133387211Y-117835348D01*
X133387588Y-117404652D01*
X133222390Y-117004842D01*
X132916767Y-116698685D01*
X132517246Y-116532790D01*
X132084652Y-116532412D01*
X131684842Y-116697610D01*
X131378685Y-117003233D01*
X131212790Y-117402754D01*
X131212412Y-117835348D01*
X130847211Y-117835348D01*
X130847588Y-117404652D01*
X130682390Y-117004842D01*
X130376767Y-116698685D01*
X129977246Y-116532790D01*
X129544652Y-116532412D01*
X129144842Y-116697610D01*
X128838685Y-117003233D01*
X128672790Y-117402754D01*
X128672412Y-117835348D01*
X128307211Y-117835348D01*
X128307588Y-117404652D01*
X128142390Y-117004842D01*
X127836767Y-116698685D01*
X127437246Y-116532790D01*
X127004652Y-116532412D01*
X126604842Y-116697610D01*
X126298685Y-117003233D01*
X126132790Y-117402754D01*
X126132412Y-117835348D01*
X124380600Y-117835348D01*
X124380600Y-117025680D01*
X126432881Y-114973400D01*
X153406900Y-114973400D01*
X153542557Y-114946416D01*
X153569541Y-114941049D01*
X153707420Y-114848920D01*
X166492500Y-102063840D01*
X166492316Y-102274564D01*
X166492316Y-102274564D01*
G37*
X166492316Y-102274564D02*
X166583468Y-102495169D01*
X166667420Y-102579268D01*
X166667420Y-105640620D01*
X166694404Y-105776277D01*
X166699771Y-105803261D01*
X166791900Y-105941140D01*
X168187133Y-107336374D01*
X168164123Y-107450000D01*
X168164123Y-107875000D01*
X164412720Y-107875000D01*
X164277063Y-107901984D01*
X164250079Y-107907351D01*
X164112200Y-107999480D01*
X155519727Y-116591953D01*
X155377246Y-116532790D01*
X154944652Y-116532412D01*
X154544842Y-116697610D01*
X154238685Y-117003233D01*
X154072790Y-117402754D01*
X154072412Y-117835348D01*
X154151706Y-118027254D01*
X152603960Y-119575000D01*
X134000000Y-119575000D01*
X133837359Y-119607351D01*
X133699480Y-119699479D01*
X131853680Y-121545280D01*
X131444597Y-121545280D01*
X131444597Y-120954280D01*
X131423678Y-120843107D01*
X131357975Y-120741001D01*
X131257723Y-120672502D01*
X131138720Y-120648403D01*
X129614720Y-120648403D01*
X129503547Y-120669322D01*
X129401441Y-120735025D01*
X129332942Y-120835277D01*
X129308843Y-120954280D01*
X129308843Y-122900000D01*
X128142597Y-122900000D01*
X128142597Y-120954280D01*
X128121678Y-120843107D01*
X128055975Y-120741001D01*
X127955723Y-120672502D01*
X127836720Y-120648403D01*
X126312720Y-120648403D01*
X126201547Y-120669322D01*
X126099441Y-120735025D01*
X126030942Y-120835277D01*
X126006843Y-120954280D01*
X126006843Y-121545280D01*
X125838520Y-121545280D01*
X124380600Y-120087360D01*
X124380600Y-117835348D01*
X126132412Y-117835348D01*
X126297610Y-118235158D01*
X126603233Y-118541315D01*
X127002754Y-118707210D01*
X127435348Y-118707588D01*
X127835158Y-118542390D01*
X128141315Y-118236767D01*
X128307210Y-117837246D01*
X128307211Y-117835348D01*
X128672412Y-117835348D01*
X128837610Y-118235158D01*
X129143233Y-118541315D01*
X129542754Y-118707210D01*
X129975348Y-118707588D01*
X130375158Y-118542390D01*
X130681315Y-118236767D01*
X130847210Y-117837246D01*
X130847211Y-117835348D01*
X131212412Y-117835348D01*
X131377610Y-118235158D01*
X131683233Y-118541315D01*
X132082754Y-118707210D01*
X132515348Y-118707588D01*
X132915158Y-118542390D01*
X133221315Y-118236767D01*
X133387210Y-117837246D01*
X133387211Y-117835348D01*
X133752412Y-117835348D01*
X133917610Y-118235158D01*
X134223233Y-118541315D01*
X134622754Y-118707210D01*
X135055348Y-118707588D01*
X135455158Y-118542390D01*
X135761315Y-118236767D01*
X135927210Y-117837246D01*
X135927211Y-117835348D01*
X136292412Y-117835348D01*
X136457610Y-118235158D01*
X136763233Y-118541315D01*
X137162754Y-118707210D01*
X137595348Y-118707588D01*
X137995158Y-118542390D01*
X138301315Y-118236767D01*
X138467210Y-117837246D01*
X138467211Y-117835348D01*
X138832412Y-117835348D01*
X138997610Y-118235158D01*
X139303233Y-118541315D01*
X139702754Y-118707210D01*
X140135348Y-118707588D01*
X140535158Y-118542390D01*
X140841315Y-118236767D01*
X141007210Y-117837246D01*
X141007211Y-117835348D01*
X141372412Y-117835348D01*
X141537610Y-118235158D01*
X141843233Y-118541315D01*
X142242754Y-118707210D01*
X142675348Y-118707588D01*
X143075158Y-118542390D01*
X143381315Y-118236767D01*
X143547210Y-117837246D01*
X143547211Y-117835348D01*
X143912412Y-117835348D01*
X144077610Y-118235158D01*
X144383233Y-118541315D01*
X144782754Y-118707210D01*
X145215348Y-118707588D01*
X145615158Y-118542390D01*
X145921315Y-118236767D01*
X146087210Y-117837246D01*
X146087211Y-117835348D01*
X146452412Y-117835348D01*
X146617610Y-118235158D01*
X146923233Y-118541315D01*
X147322754Y-118707210D01*
X147755348Y-118707588D01*
X148155158Y-118542390D01*
X148461315Y-118236767D01*
X148627210Y-117837246D01*
X148627211Y-117835348D01*
X148992412Y-117835348D01*
X149157610Y-118235158D01*
X149463233Y-118541315D01*
X149862754Y-118707210D01*
X150295348Y-118707588D01*
X150695158Y-118542390D01*
X151001315Y-118236767D01*
X151167210Y-117837246D01*
X151167211Y-117835348D01*
X151532412Y-117835348D01*
X151697610Y-118235158D01*
X152003233Y-118541315D01*
X152402754Y-118707210D01*
X152835348Y-118707588D01*
X153235158Y-118542390D01*
X153541315Y-118236767D01*
X153707210Y-117837246D01*
X153707588Y-117404652D01*
X153542390Y-117004842D01*
X153236767Y-116698685D01*
X152837246Y-116532790D01*
X152404652Y-116532412D01*
X152004842Y-116697610D01*
X151698685Y-117003233D01*
X151532790Y-117402754D01*
X151532412Y-117835348D01*
X151167211Y-117835348D01*
X151167588Y-117404652D01*
X151002390Y-117004842D01*
X150696767Y-116698685D01*
X150297246Y-116532790D01*
X149864652Y-116532412D01*
X149464842Y-116697610D01*
X149158685Y-117003233D01*
X148992790Y-117402754D01*
X148992412Y-117835348D01*
X148627211Y-117835348D01*
X148627588Y-117404652D01*
X148462390Y-117004842D01*
X148156767Y-116698685D01*
X147757246Y-116532790D01*
X147324652Y-116532412D01*
X146924842Y-116697610D01*
X146618685Y-117003233D01*
X146452790Y-117402754D01*
X146452412Y-117835348D01*
X146087211Y-117835348D01*
X146087588Y-117404652D01*
X145922390Y-117004842D01*
X145616767Y-116698685D01*
X145217246Y-116532790D01*
X144784652Y-116532412D01*
X144384842Y-116697610D01*
X144078685Y-117003233D01*
X143912790Y-117402754D01*
X143912412Y-117835348D01*
X143547211Y-117835348D01*
X143547588Y-117404652D01*
X143382390Y-117004842D01*
X143076767Y-116698685D01*
X142677246Y-116532790D01*
X142244652Y-116532412D01*
X141844842Y-116697610D01*
X141538685Y-117003233D01*
X141372790Y-117402754D01*
X141372412Y-117835348D01*
X141007211Y-117835348D01*
X141007588Y-117404652D01*
X140842390Y-117004842D01*
X140536767Y-116698685D01*
X140137246Y-116532790D01*
X139704652Y-116532412D01*
X139304842Y-116697610D01*
X138998685Y-117003233D01*
X138832790Y-117402754D01*
X138832412Y-117835348D01*
X138467211Y-117835348D01*
X138467588Y-117404652D01*
X138302390Y-117004842D01*
X137996767Y-116698685D01*
X137597246Y-116532790D01*
X137164652Y-116532412D01*
X136764842Y-116697610D01*
X136458685Y-117003233D01*
X136292790Y-117402754D01*
X136292412Y-117835348D01*
X135927211Y-117835348D01*
X135927588Y-117404652D01*
X135762390Y-117004842D01*
X135456767Y-116698685D01*
X135057246Y-116532790D01*
X134624652Y-116532412D01*
X134224842Y-116697610D01*
X133918685Y-117003233D01*
X133752790Y-117402754D01*
X133752412Y-117835348D01*
X133387211Y-117835348D01*
X133387588Y-117404652D01*
X133222390Y-117004842D01*
X132916767Y-116698685D01*
X132517246Y-116532790D01*
X132084652Y-116532412D01*
X131684842Y-116697610D01*
X131378685Y-117003233D01*
X131212790Y-117402754D01*
X131212412Y-117835348D01*
X130847211Y-117835348D01*
X130847588Y-117404652D01*
X130682390Y-117004842D01*
X130376767Y-116698685D01*
X129977246Y-116532790D01*
X129544652Y-116532412D01*
X129144842Y-116697610D01*
X128838685Y-117003233D01*
X128672790Y-117402754D01*
X128672412Y-117835348D01*
X128307211Y-117835348D01*
X128307588Y-117404652D01*
X128142390Y-117004842D01*
X127836767Y-116698685D01*
X127437246Y-116532790D01*
X127004652Y-116532412D01*
X126604842Y-116697610D01*
X126298685Y-117003233D01*
X126132790Y-117402754D01*
X126132412Y-117835348D01*
X124380600Y-117835348D01*
X124380600Y-117025680D01*
X126432881Y-114973400D01*
X153406900Y-114973400D01*
X153542557Y-114946416D01*
X153569541Y-114941049D01*
X153707420Y-114848920D01*
X166492500Y-102063840D01*
X166492316Y-102274564D01*
M02*
