  0
SECTION
  2
HEADER
  9
$ACADVER
  1
AC1014
  9
$HANDSEED
  5
FFFF
  9
$MEASUREMENT
 70
     1
  0
ENDSEC
  0
SECTION
  2
TABLES
  0
TABLE
  2
VPORT
  5
8
330
0
100
AcDbSymbolTable
 70
     4
  0
VPORT
  5
2E
330
8
100
AcDbSymbolTableRecord
100
AcDbViewportTableRecord
  2
*ACTIVE
 70
     0
 10
0.0
 20
0.0
 11
1.0
 21
1.0
 12
210.0
 22
148.5
 13
0.0
 23
0.0
 14
10.0
 24
10.0
 15
10.0
 25
10.0
 16
0.0
 26
0.0
 36
1.0
 17
0.0
 27
0.0
 37
0.0
 40
341.0
 41
1.24
 42
50.0
 43
0.0
 44
0.0
 50
0.0
 51
0.0
 71
     0
 72
   100
 73
     1
 74
     3
 75
     0
 76
     0
 77
     0
 78
     0
  0
ENDTAB
  0
TABLE
  2
LTYPE
  5
5
330
0
100
AcDbSymbolTable
 70
     1
  0
LTYPE
  5
14
330
5
100
AcDbSymbolTableRecord
100
AcDbLinetypeTableRecord
  2
BYBLOCK
 70
     0
  3

 72
    65
 73
     0
 40
0.0
  0
LTYPE
  5
15
330
5
100
AcDbSymbolTableRecord
100
AcDbLinetypeTableRecord
  2
BYLAYER
 70
     0
  3

 72
    65
 73
     0
 40
0.0
  0
LTYPE
  5
16
330
5
100
AcDbSymbolTableRecord
100
AcDbLinetypeTableRecord
  2
CONTINUOUS
 70
     0
  3
Solid line
 72
    65
 73
     0
 40
0.0
  0
ENDTAB
  0
TABLE
  2
LAYER
  5
2
100
AcDbSymbolTable
 70
1
  0
LAYER
  5
50
100
AcDbSymbolTableRecord
100
AcDbLayerTableRecord
  2
0
 70
0
  6
CONTINUOUS
  0
ENDTAB
  0
TABLE
  2
STYLE
  5
3
330
0
100
AcDbSymbolTable
 70
     1
  0
STYLE
  5
11
330
3
100
AcDbSymbolTableRecord
100
AcDbTextStyleTableRecord
  2
STANDARD
 70
     0
 40
0.0
 41
1.0
 50
0.0
 71
     0
 42
2.5
  3
txt
  4

  0
ENDTAB
  0
TABLE
  2
VIEW
  5
6
330
0
100
AcDbSymbolTable
 70
     0
  0
ENDTAB
  0
TABLE
  2
UCS
  5
7
330
0
100
AcDbSymbolTable
 70
     0
  0
ENDTAB
  0
TABLE
  2
APPID
  5
9
330
0
100
AcDbSymbolTable
 70
     2
  0
APPID
  5
12
330
9
100
AcDbSymbolTableRecord
100
AcDbRegAppTableRecord
  2
ACAD
 70
     0
  0
ENDTAB
  0
TABLE
  2
DIMSTYLE
  5
A
330
0
100
AcDbSymbolTable
 70
     1
  0
DIMSTYLE
105
27
330
A
100
AcDbSymbolTableRecord
100
AcDbDimStyleTableRecord
  2
ISO-25
 70
     0
  3

  4

  5

  6

  7

 40
1.0
 41
2.5
 42
0.625
 43
3.75
 44
1.25
 45
0.0
 46
0.0
 47
0.0
 48
0.0
140
2.5
141
2.5
142
0.0
143
0.03937007874016
144
1.0
145
0.0
146
1.0
147
0.625
 71
     0
 72
     0
 73
     0
 74
     0
 75
     0
 76
     0
 77
     1
 78
     8
170
     0
171
     3
172
     1
173
     0
174
     0
175
     0
176
     0
177
     0
178
     0
270
     2
271
     2
272
     2
273
     2
274
     3
340
11
275
     0
280
     0
281
     0
282
     0
283
     0
284
     8
285
     0
286
     0
287
     3
288
     0
  0
ENDTAB
  0
TABLE
  2
BLOCK_RECORD
  5
1
330
0
100
AcDbSymbolTable
 70
     1
  0
BLOCK_RECORD
  5
1F
330
1
100
AcDbSymbolTableRecord
100
AcDbBlockTableRecord
  2
*MODEL_SPACE
  0
BLOCK_RECORD
  5
1B
330
1
100
AcDbSymbolTableRecord
100
AcDbBlockTableRecord
  2
*PAPER_SPACE
  0
ENDTAB
  0
ENDSEC
  0
SECTION
  2
BLOCKS
  0
BLOCK
  5
20
330
1F
100
AcDbEntity
  8
0
100
AcDbBlockBegin
  2
*MODEL_SPACE
 70
     0
 10
0.0
 20
0.0
 30
0.0
  3
*MODEL_SPACE
  1

  0
ENDBLK
  5
21
330
1F
100
AcDbEntity
  8
0
100
AcDbBlockEnd
  0
BLOCK
  5
1C
330
1B
100
AcDbEntity
 67
     1
  8
0
100
AcDbBlockBegin
  2
*PAPER_SPACE
  1

  0
ENDBLK
  5
1D
330
1B
100
AcDbEntity
 67
     1
  8
0
100
AcDbBlockEnd
  0
ENDSEC
  0
SECTION
  2
ENTITIES
  0
LWPOLYLINE
  5
100
100
AcDbEntity
  8
0
 62
7
100
AcDbPolyline
 90
4
 70
1
 10
52264.425000
 20
-48422.604567
 30
0.0
 10
84154.200000
 20
-48422.604567
 30
0.0
 10
84154.200000
 20
-57871.404567
 30
0.0
 10
52264.425000
 20
-57871.404567
 30
0.0
  0
LWPOLYLINE
  5
101
100
AcDbEntity
  8
0
 62
7
100
AcDbPolyline
 90
4
 70
1
 10
2952.757500
 20
-2357.462067
 30
0.0
 10
84744.757500
 20
-2357.462067
 30
0.0
 10
84744.757500
 20
-58461.962067
 30
0.0
 10
2952.757500
 20
-58461.962067
 30
0.0
  0
LWPOLYLINE
  5
102
100
AcDbEntity
  8
0
 62
7
100
AcDbPolyline
 90
4
 70
1
 10
3543.307500
 20
-2948.012067
 30
0.0
 10
84154.057500
 20
-2948.012067
 30
0.0
 10
84154.057500
 20
-57871.412067
 30
0.0
 10
3543.307500
 20
-57871.412067
 30
0.0
  0
LWPOLYLINE
  5
103
100
AcDbEntity
  8
0
 62
7
100
AcDbPolyline
 90
2
 70
0
 10
17716.500000
 20
-2947.704567
 30
0.0
 10
17716.500000
 20
-2357.454567
 30
0.0
  0
LWPOLYLINE
  5
104
100
AcDbEntity
  8
0
 62
7
100
AcDbPolyline
 90
2
 70
0
 10
32480.250000
 20
-2947.704567
 30
0.0
 10
32480.250000
 20
-2357.454567
 30
0.0
  0
LWPOLYLINE
  5
105
100
AcDbEntity
  8
0
 62
7
100
AcDbPolyline
 90
2
 70
0
 10
47244.000000
 20
-2947.704567
 30
0.0
 10
47244.000000
 20
-2357.454567
 30
0.0
  0
LWPOLYLINE
  5
106
100
AcDbEntity
  8
0
 62
7
100
AcDbPolyline
 90
2
 70
0
 10
62007.750000
 20
-2947.704567
 30
0.0
 10
62007.750000
 20
-2357.454567
 30
0.0
  0
LWPOLYLINE
  5
107
100
AcDbEntity
  8
0
 62
7
100
AcDbPolyline
 90
2
 70
0
 10
76771.500000
 20
-2947.704567
 30
0.0
 10
76771.500000
 20
-2357.454567
 30
0.0
  0
LWPOLYLINE
  5
108
100
AcDbEntity
  8
0
 62
7
100
AcDbPolyline
 90
2
 70
0
 10
10626.750000
 20
-2826.204567
 30
0.0
 10
10407.750000
 20
-2826.204567
 30
0.0
  0
LWPOLYLINE
  5
109
100
AcDbEntity
  8
0
 62
7
100
AcDbPolyline
 90
5
 70
0
 10
10517.250000
 20
-2826.204567
 30
0.0
 10
10517.250000
 20
-2442.204567
 30
0.0
 10
10480.500000
 20
-2496.954567
 30
0.0
 10
10443.750000
 20
-2533.704567
 30
0.0
 10
10407.750000
 20
-2551.704567
 30
0.0
  0
LWPOLYLINE
  5
10a
100
AcDbEntity
  8
0
 62
7
100
AcDbPolyline
 90
11
 70
0
 10
25171.500000
 20
-2478.954567
 30
0.0
 10
25189.500000
 20
-2460.204567
 30
0.0
 10
25226.250000
 20
-2442.204567
 30
0.0
 10
25317.750000
 20
-2442.204567
 30
0.0
 10
25353.750000
 20
-2460.204567
 30
0.0
 10
25372.500000
 20
-2478.954567
 30
0.0
 10
25390.500000
 20
-2514.954567
 30
0.0
 10
25390.500000
 20
-2551.704567
 30
0.0
 10
25372.500000
 20
-2606.454567
 30
0.0
 10
25152.750000
 20
-2826.204567
 30
0.0
 10
25390.500000
 20
-2826.204567
 30
0.0
  0
LWPOLYLINE
  5
10b
100
AcDbEntity
  8
0
 62
7
100
AcDbPolyline
 90
14
 70
0
 10
39916.500000
 20
-2442.204567
 30
0.0
 10
40154.250000
 20
-2442.204567
 30
0.0
 10
40026.000000
 20
-2588.454567
 30
0.0
 10
40081.500000
 20
-2588.454567
 30
0.0
 10
40117.500000
 20
-2606.454567
 30
0.0
 10
40136.250000
 20
-2625.204567
 30
0.0
 10
40154.250000
 20
-2661.204567
 30
0.0
 10
40154.250000
 20
-2752.704567
 30
0.0
 10
40136.250000
 20
-2789.454567
 30
0.0
 10
40117.500000
 20
-2807.454567
 30
0.0
 10
40081.500000
 20
-2826.204567
 30
0.0
 10
39971.250000
 20
-2826.204567
 30
0.0
 10
39935.250000
 20
-2807.454567
 30
0.0
 10
39916.500000
 20
-2789.454567
 30
0.0
  0
LWPOLYLINE
  5
10c
100
AcDbEntity
  8
0
 62
7
100
AcDbPolyline
 90
2
 70
0
 10
54881.250000
 20
-2570.454567
 30
0.0
 10
54881.250000
 20
-2826.204567
 30
0.0
  0
LWPOLYLINE
  5
10d
100
AcDbEntity
  8
0
 62
7
100
AcDbPolyline
 90
3
 70
0
 10
54789.750000
 20
-2424.204567
 30
0.0
 10
54699.000000
 20
-2697.954567
 30
0.0
 10
54936.000000
 20
-2697.954567
 30
0.0
  0
LWPOLYLINE
  5
10e
100
AcDbEntity
  8
0
 62
7
100
AcDbPolyline
 90
16
 70
0
 10
69663.750000
 20
-2442.204567
 30
0.0
 10
69480.750000
 20
-2442.204567
 30
0.0
 10
69462.750000
 20
-2625.204567
 30
0.0
 10
69480.750000
 20
-2606.454567
 30
0.0
 10
69517.500000
 20
-2588.454567
 30
0.0
 10
69609.000000
 20
-2588.454567
 30
0.0
 10
69645.000000
 20
-2606.454567
 30
0.0
 10
69663.750000
 20
-2625.204567
 30
0.0
 10
69681.750000
 20
-2661.204567
 30
0.0
 10
69681.750000
 20
-2752.704567
 30
0.0
 10
69663.750000
 20
-2789.454567
 30
0.0
 10
69645.000000
 20
-2807.454567
 30
0.0
 10
69609.000000
 20
-2826.204567
 30
0.0
 10
69517.500000
 20
-2826.204567
 30
0.0
 10
69480.750000
 20
-2807.454567
 30
0.0
 10
69462.750000
 20
-2789.454567
 30
0.0
  0
LWPOLYLINE
  5
10f
100
AcDbEntity
  8
0
 62
7
100
AcDbPolyline
 90
22
 70
0
 10
84408.750000
 20
-2442.204567
 30
0.0
 10
84336.000000
 20
-2442.204567
 30
0.0
 10
84299.250000
 20
-2460.204567
 30
0.0
 10
84281.250000
 20
-2478.954567
 30
0.0
 10
84244.500000
 20
-2533.704567
 30
0.0
 10
84226.500000
 20
-2606.454567
 30
0.0
 10
84226.500000
 20
-2752.704567
 30
0.0
 10
84244.500000
 20
-2789.454567
 30
0.0
 10
84262.500000
 20
-2807.454567
 30
0.0
 10
84299.250000
 20
-2826.204567
 30
0.0
 10
84372.750000
 20
-2826.204567
 30
0.0
 10
84408.750000
 20
-2807.454567
 30
0.0
 10
84427.500000
 20
-2789.454567
 30
0.0
 10
84445.500000
 20
-2752.704567
 30
0.0
 10
84445.500000
 20
-2661.204567
 30
0.0
 10
84427.500000
 20
-2625.204567
 30
0.0
 10
84408.750000
 20
-2606.454567
 30
0.0
 10
84372.750000
 20
-2588.454567
 30
0.0
 10
84299.250000
 20
-2588.454567
 30
0.0
 10
84262.500000
 20
-2606.454567
 30
0.0
 10
84244.500000
 20
-2625.204567
 30
0.0
 10
84226.500000
 20
-2661.204567
 30
0.0
  0
LWPOLYLINE
  5
110
100
AcDbEntity
  8
0
 62
7
100
AcDbPolyline
 90
2
 70
0
 10
17716.500000
 20
-57870.954567
 30
0.0
 10
17716.500000
 20
-58461.204567
 30
0.0
  0
LWPOLYLINE
  5
111
100
AcDbEntity
  8
0
 62
7
100
AcDbPolyline
 90
2
 70
0
 10
32480.250000
 20
-57870.954567
 30
0.0
 10
32480.250000
 20
-58461.204567
 30
0.0
  0
LWPOLYLINE
  5
112
100
AcDbEntity
  8
0
 62
7
100
AcDbPolyline
 90
2
 70
0
 10
47244.000000
 20
-57870.954567
 30
0.0
 10
47244.000000
 20
-58461.204567
 30
0.0
  0
LWPOLYLINE
  5
113
100
AcDbEntity
  8
0
 62
7
100
AcDbPolyline
 90
2
 70
0
 10
62007.750000
 20
-57870.954567
 30
0.0
 10
62007.750000
 20
-58461.204567
 30
0.0
  0
LWPOLYLINE
  5
114
100
AcDbEntity
  8
0
 62
7
100
AcDbPolyline
 90
2
 70
0
 10
76771.500000
 20
-57870.954567
 30
0.0
 10
76771.500000
 20
-58461.204567
 30
0.0
  0
LWPOLYLINE
  5
115
100
AcDbEntity
  8
0
 62
7
100
AcDbPolyline
 90
2
 70
0
 10
10626.750000
 20
-58339.704567
 30
0.0
 10
10407.750000
 20
-58339.704567
 30
0.0
  0
LWPOLYLINE
  5
116
100
AcDbEntity
  8
0
 62
7
100
AcDbPolyline
 90
5
 70
0
 10
10517.250000
 20
-58339.704567
 30
0.0
 10
10517.250000
 20
-57956.454567
 30
0.0
 10
10480.500000
 20
-58011.204567
 30
0.0
 10
10443.750000
 20
-58047.204567
 30
0.0
 10
10407.750000
 20
-58065.954567
 30
0.0
  0
LWPOLYLINE
  5
117
100
AcDbEntity
  8
0
 62
7
100
AcDbPolyline
 90
11
 70
0
 10
25171.500000
 20
-57992.454567
 30
0.0
 10
25189.500000
 20
-57974.454567
 30
0.0
 10
25226.250000
 20
-57956.454567
 30
0.0
 10
25317.750000
 20
-57956.454567
 30
0.0
 10
25353.750000
 20
-57974.454567
 30
0.0
 10
25372.500000
 20
-57992.454567
 30
0.0
 10
25390.500000
 20
-58029.204567
 30
0.0
 10
25390.500000
 20
-58065.954567
 30
0.0
 10
25372.500000
 20
-58120.704567
 30
0.0
 10
25152.750000
 20
-58339.704567
 30
0.0
 10
25390.500000
 20
-58339.704567
 30
0.0
  0
LWPOLYLINE
  5
118
100
AcDbEntity
  8
0
 62
7
100
AcDbPolyline
 90
14
 70
0
 10
39916.500000
 20
-57956.454567
 30
0.0
 10
40154.250000
 20
-57956.454567
 30
0.0
 10
40026.000000
 20
-58101.954567
 30
0.0
 10
40081.500000
 20
-58101.954567
 30
0.0
 10
40117.500000
 20
-58120.704567
 30
0.0
 10
40136.250000
 20
-58138.704567
 30
0.0
 10
40154.250000
 20
-58175.454567
 30
0.0
 10
40154.250000
 20
-58266.954567
 30
0.0
 10
40136.250000
 20
-58303.704567
 30
0.0
 10
40117.500000
 20
-58321.704567
 30
0.0
 10
40081.500000
 20
-58339.704567
 30
0.0
 10
39971.250000
 20
-58339.704567
 30
0.0
 10
39935.250000
 20
-58321.704567
 30
0.0
 10
39916.500000
 20
-58303.704567
 30
0.0
  0
LWPOLYLINE
  5
119
100
AcDbEntity
  8
0
 62
7
100
AcDbPolyline
 90
2
 70
0
 10
54881.250000
 20
-58083.954567
 30
0.0
 10
54881.250000
 20
-58339.704567
 30
0.0
  0
LWPOLYLINE
  5
11a
100
AcDbEntity
  8
0
 62
7
100
AcDbPolyline
 90
3
 70
0
 10
54789.750000
 20
-57937.704567
 30
0.0
 10
54699.000000
 20
-58212.204567
 30
0.0
 10
54936.000000
 20
-58212.204567
 30
0.0
  0
LWPOLYLINE
  5
11b
100
AcDbEntity
  8
0
 62
7
100
AcDbPolyline
 90
16
 70
0
 10
69663.750000
 20
-57956.454567
 30
0.0
 10
69480.750000
 20
-57956.454567
 30
0.0
 10
69462.750000
 20
-58138.704567
 30
0.0
 10
69480.750000
 20
-58120.704567
 30
0.0
 10
69517.500000
 20
-58101.954567
 30
0.0
 10
69609.000000
 20
-58101.954567
 30
0.0
 10
69645.000000
 20
-58120.704567
 30
0.0
 10
69663.750000
 20
-58138.704567
 30
0.0
 10
69681.750000
 20
-58175.454567
 30
0.0
 10
69681.750000
 20
-58266.954567
 30
0.0
 10
69663.750000
 20
-58303.704567
 30
0.0
 10
69645.000000
 20
-58321.704567
 30
0.0
 10
69609.000000
 20
-58339.704567
 30
0.0
 10
69517.500000
 20
-58339.704567
 30
0.0
 10
69480.750000
 20
-58321.704567
 30
0.0
 10
69462.750000
 20
-58303.704567
 30
0.0
  0
LWPOLYLINE
  5
11c
100
AcDbEntity
  8
0
 62
7
100
AcDbPolyline
 90
22
 70
0
 10
84408.750000
 20
-57956.454567
 30
0.0
 10
84336.000000
 20
-57956.454567
 30
0.0
 10
84299.250000
 20
-57974.454567
 30
0.0
 10
84281.250000
 20
-57992.454567
 30
0.0
 10
84244.500000
 20
-58047.204567
 30
0.0
 10
84226.500000
 20
-58120.704567
 30
0.0
 10
84226.500000
 20
-58266.954567
 30
0.0
 10
84244.500000
 20
-58303.704567
 30
0.0
 10
84262.500000
 20
-58321.704567
 30
0.0
 10
84299.250000
 20
-58339.704567
 30
0.0
 10
84372.750000
 20
-58339.704567
 30
0.0
 10
84408.750000
 20
-58321.704567
 30
0.0
 10
84427.500000
 20
-58303.704567
 30
0.0
 10
84445.500000
 20
-58266.954567
 30
0.0
 10
84445.500000
 20
-58175.454567
 30
0.0
 10
84427.500000
 20
-58138.704567
 30
0.0
 10
84408.750000
 20
-58120.704567
 30
0.0
 10
84372.750000
 20
-58101.954567
 30
0.0
 10
84299.250000
 20
-58101.954567
 30
0.0
 10
84262.500000
 20
-58120.704567
 30
0.0
 10
84244.500000
 20
-58138.704567
 30
0.0
 10
84226.500000
 20
-58175.454567
 30
0.0
  0
LWPOLYLINE
  5
11d
100
AcDbEntity
  8
0
 62
7
100
AcDbPolyline
 90
2
 70
0
 10
2952.750000
 20
-17121.204567
 30
0.0
 10
3543.000000
 20
-17121.204567
 30
0.0
  0
LWPOLYLINE
  5
11e
100
AcDbEntity
  8
0
 62
7
100
AcDbPolyline
 90
2
 70
0
 10
2952.750000
 20
-31884.954567
 30
0.0
 10
3543.000000
 20
-31884.954567
 30
0.0
  0
LWPOLYLINE
  5
11f
100
AcDbEntity
  8
0
 62
7
100
AcDbPolyline
 90
2
 70
0
 10
2952.750000
 20
-46648.704567
 30
0.0
 10
3543.000000
 20
-46648.704567
 30
0.0
  0
LWPOLYLINE
  5
120
100
AcDbEntity
  8
0
 62
7
100
AcDbPolyline
 90
2
 70
0
 10
3156.000000
 20
-9802.704567
 30
0.0
 10
3339.000000
 20
-9802.704567
 30
0.0
  0
LWPOLYLINE
  5
121
100
AcDbEntity
  8
0
 62
7
100
AcDbPolyline
 90
3
 70
0
 10
3120.000000
 20
-9912.954567
 30
0.0
 10
3247.500000
 20
-9528.954567
 30
0.0
 10
3375.750000
 20
-9912.954567
 30
0.0
  0
LWPOLYLINE
  5
122
100
AcDbEntity
  8
0
 62
7
100
AcDbPolyline
 90
19
 70
0
 10
3275.250000
 20
-24475.704567
 30
0.0
 10
3330.000000
 20
-24493.704567
 30
0.0
 10
3348.000000
 20
-24511.704567
 30
0.0
 10
3366.750000
 20
-24548.454567
 30
0.0
 10
3366.750000
 20
-24603.204567
 30
0.0
 10
3348.000000
 20
-24639.954567
 30
0.0
 10
3330.000000
 20
-24657.954567
 30
0.0
 10
3293.250000
 20
-24676.704567
 30
0.0
 10
3147.000000
 20
-24676.704567
 30
0.0
 10
3147.000000
 20
-24292.704567
 30
0.0
 10
3275.250000
 20
-24292.704567
 30
0.0
 10
3312.000000
 20
-24310.704567
 30
0.0
 10
3330.000000
 20
-24329.454567
 30
0.0
 10
3348.000000
 20
-24365.454567
 30
0.0
 10
3348.000000
 20
-24402.204567
 30
0.0
 10
3330.000000
 20
-24438.954567
 30
0.0
 10
3312.000000
 20
-24456.954567
 30
0.0
 10
3275.250000
 20
-24475.704567
 30
0.0
 10
3147.000000
 20
-24475.704567
 30
0.0
  0
LWPOLYLINE
  5
123
100
AcDbEntity
  8
0
 62
7
100
AcDbPolyline
 90
16
 70
0
 10
3366.750000
 20
-39403.704567
 30
0.0
 10
3348.000000
 20
-39421.704567
 30
0.0
 10
3293.250000
 20
-39440.454567
 30
0.0
 10
3256.500000
 20
-39440.454567
 30
0.0
 10
3201.750000
 20
-39421.704567
 30
0.0
 10
3165.750000
 20
-39385.704567
 30
0.0
 10
3147.000000
 20
-39348.954567
 30
0.0
 10
3129.000000
 20
-39275.454567
 30
0.0
 10
3129.000000
 20
-39220.704567
 30
0.0
 10
3147.000000
 20
-39147.954567
 30
0.0
 10
3165.750000
 20
-39111.204567
 30
0.0
 10
3201.750000
 20
-39074.454567
 30
0.0
 10
3256.500000
 20
-39056.454567
 30
0.0
 10
3293.250000
 20
-39056.454567
 30
0.0
 10
3348.000000
 20
-39074.454567
 30
0.0
 10
3366.750000
 20
-39093.204567
 30
0.0
  0
LWPOLYLINE
  5
124
100
AcDbEntity
  8
0
 62
7
100
AcDbPolyline
 90
12
 70
1
 10
3147.000000
 20
-54204.204567
 30
0.0
 10
3147.000000
 20
-53820.204567
 30
0.0
 10
3238.500000
 20
-53820.204567
 30
0.0
 10
3293.250000
 20
-53838.204567
 30
0.0
 10
3330.000000
 20
-53874.954567
 30
0.0
 10
3348.000000
 20
-53911.704567
 30
0.0
 10
3366.750000
 20
-53984.454567
 30
0.0
 10
3366.750000
 20
-54039.204567
 30
0.0
 10
3348.000000
 20
-54112.704567
 30
0.0
 10
3330.000000
 20
-54149.454567
 30
0.0
 10
3293.250000
 20
-54185.454567
 30
0.0
 10
3238.500000
 20
-54204.204567
 30
0.0
  0
LWPOLYLINE
  5
125
100
AcDbEntity
  8
0
 62
7
100
AcDbPolyline
 90
2
 70
0
 10
84744.000000
 20
-17121.204567
 30
0.0
 10
84153.750000
 20
-17121.204567
 30
0.0
  0
LWPOLYLINE
  5
126
100
AcDbEntity
  8
0
 62
7
100
AcDbPolyline
 90
2
 70
0
 10
84744.000000
 20
-31884.954567
 30
0.0
 10
84153.750000
 20
-31884.954567
 30
0.0
  0
LWPOLYLINE
  5
127
100
AcDbEntity
  8
0
 62
7
100
AcDbPolyline
 90
2
 70
0
 10
84744.000000
 20
-46648.704567
 30
0.0
 10
84153.750000
 20
-46648.704567
 30
0.0
  0
LWPOLYLINE
  5
128
100
AcDbEntity
  8
0
 62
7
100
AcDbPolyline
 90
2
 70
0
 10
84357.750000
 20
-9802.704567
 30
0.0
 10
84540.750000
 20
-9802.704567
 30
0.0
  0
LWPOLYLINE
  5
129
100
AcDbEntity
  8
0
 62
7
100
AcDbPolyline
 90
3
 70
0
 10
84321.000000
 20
-9912.954567
 30
0.0
 10
84449.250000
 20
-9528.954567
 30
0.0
 10
84576.750000
 20
-9912.954567
 30
0.0
  0
LWPOLYLINE
  5
12a
100
AcDbEntity
  8
0
 62
7
100
AcDbPolyline
 90
19
 70
0
 10
84476.250000
 20
-24475.704567
 30
0.0
 10
84531.000000
 20
-24493.704567
 30
0.0
 10
84549.750000
 20
-24511.704567
 30
0.0
 10
84567.750000
 20
-24548.454567
 30
0.0
 10
84567.750000
 20
-24603.204567
 30
0.0
 10
84549.750000
 20
-24639.954567
 30
0.0
 10
84531.000000
 20
-24657.954567
 30
0.0
 10
84495.000000
 20
-24676.704567
 30
0.0
 10
84348.750000
 20
-24676.704567
 30
0.0
 10
84348.750000
 20
-24292.704567
 30
0.0
 10
84476.250000
 20
-24292.704567
 30
0.0
 10
84513.000000
 20
-24310.704567
 30
0.0
 10
84531.000000
 20
-24329.454567
 30
0.0
 10
84549.750000
 20
-24365.454567
 30
0.0
 10
84549.750000
 20
-24402.204567
 30
0.0
 10
84531.000000
 20
-24438.954567
 30
0.0
 10
84513.000000
 20
-24456.954567
 30
0.0
 10
84476.250000
 20
-24475.704567
 30
0.0
 10
84348.750000
 20
-24475.704567
 30
0.0
  0
LWPOLYLINE
  5
12b
100
AcDbEntity
  8
0
 62
7
100
AcDbPolyline
 90
16
 70
0
 10
84567.750000
 20
-39403.704567
 30
0.0
 10
84549.750000
 20
-39421.704567
 30
0.0
 10
84495.000000
 20
-39440.454567
 30
0.0
 10
84458.250000
 20
-39440.454567
 30
0.0
 10
84403.500000
 20
-39421.704567
 30
0.0
 10
84366.750000
 20
-39385.704567
 30
0.0
 10
84348.750000
 20
-39348.954567
 30
0.0
 10
84330.000000
 20
-39275.454567
 30
0.0
 10
84330.000000
 20
-39220.704567
 30
0.0
 10
84348.750000
 20
-39147.954567
 30
0.0
 10
84366.750000
 20
-39111.204567
 30
0.0
 10
84403.500000
 20
-39074.454567
 30
0.0
 10
84458.250000
 20
-39056.454567
 30
0.0
 10
84495.000000
 20
-39056.454567
 30
0.0
 10
84549.750000
 20
-39074.454567
 30
0.0
 10
84567.750000
 20
-39093.204567
 30
0.0
  0
LWPOLYLINE
  5
12c
100
AcDbEntity
  8
0
 62
7
100
AcDbPolyline
 90
12
 70
1
 10
84348.750000
 20
-54204.204567
 30
0.0
 10
84348.750000
 20
-53820.204567
 30
0.0
 10
84440.250000
 20
-53820.204567
 30
0.0
 10
84495.000000
 20
-53838.204567
 30
0.0
 10
84531.000000
 20
-53874.954567
 30
0.0
 10
84549.750000
 20
-53911.704567
 30
0.0
 10
84567.750000
 20
-53984.454567
 30
0.0
 10
84567.750000
 20
-54039.204567
 30
0.0
 10
84549.750000
 20
-54112.704567
 30
0.0
 10
84531.000000
 20
-54149.454567
 30
0.0
 10
84495.000000
 20
-54185.454567
 30
0.0
 10
84440.250000
 20
-54204.204567
 30
0.0
  0
LWPOLYLINE
  5
12d
100
AcDbEntity
  8
0
 62
7
100
AcDbPolyline
 90
12
 70
1
 10
59160.750000
 20
-56624.454567
 30
0.0
 10
59160.750000
 20
-56181.954567
 30
0.0
 10
59266.500000
 20
-56181.954567
 30
0.0
 10
59329.500000
 20
-56202.954567
 30
0.0
 10
59371.500000
 20
-56244.954567
 30
0.0
 10
59392.500000
 20
-56286.954567
 30
0.0
 10
59414.250000
 20
-56371.704567
 30
0.0
 10
59414.250000
 20
-56434.704567
 30
0.0
 10
59392.500000
 20
-56519.454567
 30
0.0
 10
59371.500000
 20
-56561.454567
 30
0.0
 10
59329.500000
 20
-56603.454567
 30
0.0
 10
59266.500000
 20
-56624.454567
 30
0.0
  0
LWPOLYLINE
  5
12e
100
AcDbEntity
  8
0
 62
7
100
AcDbPolyline
 90
6
 70
0
 10
59793.750000
 20
-56624.454567
 30
0.0
 10
59793.750000
 20
-56392.704567
 30
0.0
 10
59772.750000
 20
-56350.704567
 30
0.0
 10
59730.000000
 20
-56328.954567
 30
0.0
 10
59646.000000
 20
-56328.954567
 30
0.0
 10
59604.000000
 20
-56350.704567
 30
0.0
  0
LWPOLYLINE
  5
12f
100
AcDbEntity
  8
0
 62
7
100
AcDbPolyline
 90
10
 70
0
 10
59793.750000
 20
-56603.454567
 30
0.0
 10
59751.750000
 20
-56624.454567
 30
0.0
 10
59646.000000
 20
-56624.454567
 30
0.0
 10
59604.000000
 20
-56603.454567
 30
0.0
 10
59583.000000
 20
-56561.454567
 30
0.0
 10
59583.000000
 20
-56519.454567
 30
0.0
 10
59604.000000
 20
-56476.704567
 30
0.0
 10
59646.000000
 20
-56455.704567
 30
0.0
 10
59751.750000
 20
-56455.704567
 30
0.0
 10
59793.750000
 20
-56434.704567
 30
0.0
  0
LWPOLYLINE
  5
130
100
AcDbEntity
  8
0
 62
7
100
AcDbPolyline
 90
2
 70
0
 10
59941.500000
 20
-56328.954567
 30
0.0
 10
60110.250000
 20
-56328.954567
 30
0.0
  0
LWPOLYLINE
  5
131
100
AcDbEntity
  8
0
 62
7
100
AcDbPolyline
 90
5
 70
0
 10
60004.500000
 20
-56181.954567
 30
0.0
 10
60004.500000
 20
-56561.454567
 30
0.0
 10
60025.500000
 20
-56603.454567
 30
0.0
 10
60067.500000
 20
-56624.454567
 30
0.0
 10
60110.250000
 20
-56624.454567
 30
0.0
  0
LWPOLYLINE
  5
132
100
AcDbEntity
  8
0
 62
7
100
AcDbPolyline
 90
13
 70
0
 10
60426.000000
 20
-56603.454567
 30
0.0
 10
60384.000000
 20
-56624.454567
 30
0.0
 10
60300.000000
 20
-56624.454567
 30
0.0
 10
60257.250000
 20
-56603.454567
 30
0.0
 10
60236.250000
 20
-56561.454567
 30
0.0
 10
60236.250000
 20
-56392.704567
 30
0.0
 10
60257.250000
 20
-56350.704567
 30
0.0
 10
60300.000000
 20
-56328.954567
 30
0.0
 10
60384.000000
 20
-56328.954567
 30
0.0
 10
60426.000000
 20
-56350.704567
 30
0.0
 10
60447.750000
 20
-56392.704567
 30
0.0
 10
60447.750000
 20
-56434.704567
 30
0.0
 10
60236.250000
 20
-56476.704567
 30
0.0
  0
LWPOLYLINE
  5
133
100
AcDbEntity
  8
0
 62
7
100
AcDbPolyline
 90
6
 70
0
 10
60637.500000
 20
-56582.454567
 30
0.0
 10
60658.500000
 20
-56603.454567
 30
0.0
 10
60637.500000
 20
-56624.454567
 30
0.0
 10
60616.500000
 20
-56603.454567
 30
0.0
 10
60637.500000
 20
-56582.454567
 30
0.0
 10
60637.500000
 20
-56624.454567
 30
0.0
  0
LWPOLYLINE
  5
134
100
AcDbEntity
  8
0
 62
7
100
AcDbPolyline
 90
6
 70
0
 10
60637.500000
 20
-56350.704567
 30
0.0
 10
60658.500000
 20
-56371.704567
 30
0.0
 10
60637.500000
 20
-56392.704567
 30
0.0
 10
60616.500000
 20
-56371.704567
 30
0.0
 10
60637.500000
 20
-56350.704567
 30
0.0
 10
60637.500000
 20
-56392.704567
 30
0.0
  0
LWPOLYLINE
  5
135
100
AcDbEntity
  8
0
 62
7
100
AcDbPolyline
 90
2
 70
0
 10
52263.750000
 20
-56837.454567
 30
0.0
 10
84153.750000
 20
-56837.454567
 30
0.0
  0
LWPOLYLINE
  5
136
100
AcDbEntity
  8
0
 62
7
100
AcDbPolyline
 90
2
 70
0
 10
52665.000000
 20
-57450.954567
 30
0.0
 10
52665.000000
 20
-57008.454567
 30
0.0
  0
LWPOLYLINE
  5
137
100
AcDbEntity
  8
0
 62
7
100
AcDbPolyline
 90
2
 70
0
 10
52917.750000
 20
-57450.954567
 30
0.0
 10
52728.000000
 20
-57198.204567
 30
0.0
  0
LWPOLYLINE
  5
138
100
AcDbEntity
  8
0
 62
7
100
AcDbPolyline
 90
2
 70
0
 10
52917.750000
 20
-57008.454567
 30
0.0
 10
52665.000000
 20
-57261.204567
 30
0.0
  0
LWPOLYLINE
  5
139
100
AcDbEntity
  8
0
 62
7
100
AcDbPolyline
 90
2
 70
0
 10
53107.500000
 20
-57450.954567
 30
0.0
 10
53107.500000
 20
-57156.204567
 30
0.0
  0
LWPOLYLINE
  5
13a
100
AcDbEntity
  8
0
 62
7
100
AcDbPolyline
 90
6
 70
0
 10
53107.500000
 20
-57008.454567
 30
0.0
 10
53086.500000
 20
-57029.454567
 30
0.0
 10
53107.500000
 20
-57050.454567
 30
0.0
 10
53128.500000
 20
-57029.454567
 30
0.0
 10
53107.500000
 20
-57008.454567
 30
0.0
 10
53107.500000
 20
-57050.454567
 30
0.0
  0
LWPOLYLINE
  5
13b
100
AcDbEntity
  8
0
 62
7
100
AcDbPolyline
 90
16
 70
0
 10
53571.750000
 20
-57408.954567
 30
0.0
 10
53550.750000
 20
-57429.954567
 30
0.0
 10
53487.000000
 20
-57450.954567
 30
0.0
 10
53445.000000
 20
-57450.954567
 30
0.0
 10
53382.000000
 20
-57429.954567
 30
0.0
 10
53340.000000
 20
-57387.954567
 30
0.0
 10
53318.250000
 20
-57345.954567
 30
0.0
 10
53297.250000
 20
-57261.204567
 30
0.0
 10
53297.250000
 20
-57198.204567
 30
0.0
 10
53318.250000
 20
-57114.204567
 30
0.0
 10
53340.000000
 20
-57071.454567
 30
0.0
 10
53382.000000
 20
-57029.454567
 30
0.0
 10
53445.000000
 20
-57008.454567
 30
0.0
 10
53487.000000
 20
-57008.454567
 30
0.0
 10
53550.750000
 20
-57029.454567
 30
0.0
 10
53571.750000
 20
-57050.454567
 30
0.0
  0
LWPOLYLINE
  5
13c
100
AcDbEntity
  8
0
 62
7
100
AcDbPolyline
 90
6
 70
0
 10
53951.250000
 20
-57450.954567
 30
0.0
 10
53951.250000
 20
-57219.204567
 30
0.0
 10
53930.250000
 20
-57177.204567
 30
0.0
 10
53888.250000
 20
-57156.204567
 30
0.0
 10
53803.500000
 20
-57156.204567
 30
0.0
 10
53761.500000
 20
-57177.204567
 30
0.0
  0
LWPOLYLINE
  5
13d
100
AcDbEntity
  8
0
 62
7
100
AcDbPolyline
 90
10
 70
0
 10
53951.250000
 20
-57429.954567
 30
0.0
 10
53909.250000
 20
-57450.954567
 30
0.0
 10
53803.500000
 20
-57450.954567
 30
0.0
 10
53761.500000
 20
-57429.954567
 30
0.0
 10
53740.500000
 20
-57387.954567
 30
0.0
 10
53740.500000
 20
-57345.954567
 30
0.0
 10
53761.500000
 20
-57303.954567
 30
0.0
 10
53803.500000
 20
-57282.954567
 30
0.0
 10
53909.250000
 20
-57282.954567
 30
0.0
 10
53951.250000
 20
-57261.204567
 30
0.0
  0
LWPOLYLINE
  5
13e
100
AcDbEntity
  8
0
 62
7
100
AcDbPolyline
 90
2
 70
0
 10
54351.750000
 20
-57450.954567
 30
0.0
 10
54351.750000
 20
-57008.454567
 30
0.0
  0
LWPOLYLINE
  5
13f
100
AcDbEntity
  8
0
 62
7
100
AcDbPolyline
 90
12
 70
0
 10
54351.750000
 20
-57429.954567
 30
0.0
 10
54309.750000
 20
-57450.954567
 30
0.0
 10
54225.750000
 20
-57450.954567
 30
0.0
 10
54183.000000
 20
-57429.954567
 30
0.0
 10
54162.000000
 20
-57408.954567
 30
0.0
 10
54141.000000
 20
-57366.954567
 30
0.0
 10
54141.000000
 20
-57240.204567
 30
0.0
 10
54162.000000
 20
-57198.204567
 30
0.0
 10
54183.000000
 20
-57177.204567
 30
0.0
 10
54225.750000
 20
-57156.204567
 30
0.0
 10
54309.750000
 20
-57156.204567
 30
0.0
 10
54351.750000
 20
-57177.204567
 30
0.0
  0
LWPOLYLINE
  5
140
100
AcDbEntity
  8
0
 62
7
100
AcDbPolyline
 90
2
 70
0
 10
54900.750000
 20
-57219.204567
 30
0.0
 10
55047.750000
 20
-57219.204567
 30
0.0
  0
LWPOLYLINE
  5
141
100
AcDbEntity
  8
0
 62
7
100
AcDbPolyline
 90
4
 70
0
 10
55111.500000
 20
-57450.954567
 30
0.0
 10
54900.750000
 20
-57450.954567
 30
0.0
 10
54900.750000
 20
-57008.454567
 30
0.0
 10
55111.500000
 20
-57008.454567
 30
0.0
  0
LWPOLYLINE
  5
142
100
AcDbEntity
  8
0
 62
7
100
AcDbPolyline
 90
6
 70
0
 10
55301.250000
 20
-57408.954567
 30
0.0
 10
55322.250000
 20
-57429.954567
 30
0.0
 10
55301.250000
 20
-57450.954567
 30
0.0
 10
55280.250000
 20
-57429.954567
 30
0.0
 10
55301.250000
 20
-57408.954567
 30
0.0
 10
55301.250000
 20
-57450.954567
 30
0.0
  0
LWPOLYLINE
  5
143
100
AcDbEntity
  8
0
 62
7
100
AcDbPolyline
 90
12
 70
1
 10
55512.000000
 20
-57450.954567
 30
0.0
 10
55512.000000
 20
-57008.454567
 30
0.0
 10
55617.750000
 20
-57008.454567
 30
0.0
 10
55680.750000
 20
-57029.454567
 30
0.0
 10
55722.750000
 20
-57071.454567
 30
0.0
 10
55743.750000
 20
-57114.204567
 30
0.0
 10
55765.500000
 20
-57198.204567
 30
0.0
 10
55765.500000
 20
-57261.204567
 30
0.0
 10
55743.750000
 20
-57345.954567
 30
0.0
 10
55722.750000
 20
-57387.954567
 30
0.0
 10
55680.750000
 20
-57429.954567
 30
0.0
 10
55617.750000
 20
-57450.954567
 30
0.0
  0
LWPOLYLINE
  5
144
100
AcDbEntity
  8
0
 62
7
100
AcDbPolyline
 90
6
 70
0
 10
55955.250000
 20
-57408.954567
 30
0.0
 10
55976.250000
 20
-57429.954567
 30
0.0
 10
55955.250000
 20
-57450.954567
 30
0.0
 10
55934.250000
 20
-57429.954567
 30
0.0
 10
55955.250000
 20
-57408.954567
 30
0.0
 10
55955.250000
 20
-57450.954567
 30
0.0
  0
LWPOLYLINE
  5
145
100
AcDbEntity
  8
0
 62
7
100
AcDbPolyline
 90
2
 70
0
 10
56145.000000
 20
-57324.954567
 30
0.0
 10
56355.750000
 20
-57324.954567
 30
0.0
  0
LWPOLYLINE
  5
146
100
AcDbEntity
  8
0
 62
7
100
AcDbPolyline
 90
3
 70
0
 10
56103.000000
 20
-57450.954567
 30
0.0
 10
56250.000000
 20
-57008.454567
 30
0.0
 10
56397.750000
 20
-57450.954567
 30
0.0
  0
LWPOLYLINE
  5
147
100
AcDbEntity
  8
0
 62
7
100
AcDbPolyline
 90
6
 70
0
 10
56545.500000
 20
-57408.954567
 30
0.0
 10
56566.500000
 20
-57429.954567
 30
0.0
 10
56545.500000
 20
-57450.954567
 30
0.0
 10
56524.500000
 20
-57429.954567
 30
0.0
 10
56545.500000
 20
-57408.954567
 30
0.0
 10
56545.500000
 20
-57450.954567
 30
0.0
  0
LWPOLYLINE
  5
148
100
AcDbEntity
  8
0
 62
7
100
AcDbPolyline
 90
2
 70
0
 10
57431.250000
 20
-57450.954567
 30
0.0
 10
57431.250000
 20
-57008.454567
 30
0.0
  0
LWPOLYLINE
  5
149
100
AcDbEntity
  8
0
 62
7
100
AcDbPolyline
 90
2
 70
0
 10
57473.250000
 20
-57282.954567
 30
0.0
 10
57600.000000
 20
-57450.954567
 30
0.0
  0
LWPOLYLINE
  5
14a
100
AcDbEntity
  8
0
 62
7
100
AcDbPolyline
 90
2
 70
0
 10
57600.000000
 20
-57156.204567
 30
0.0
 10
57431.250000
 20
-57324.954567
 30
0.0
  0
LWPOLYLINE
  5
14b
100
AcDbEntity
  8
0
 62
7
100
AcDbPolyline
 90
2
 70
0
 10
57789.750000
 20
-57450.954567
 30
0.0
 10
57789.750000
 20
-57156.204567
 30
0.0
  0
LWPOLYLINE
  5
14c
100
AcDbEntity
  8
0
 62
7
100
AcDbPolyline
 90
6
 70
0
 10
57789.750000
 20
-57008.454567
 30
0.0
 10
57768.750000
 20
-57029.454567
 30
0.0
 10
57789.750000
 20
-57050.454567
 30
0.0
 10
57810.750000
 20
-57029.454567
 30
0.0
 10
57789.750000
 20
-57008.454567
 30
0.0
 10
57789.750000
 20
-57050.454567
 30
0.0
  0
LWPOLYLINE
  5
14d
100
AcDbEntity
  8
0
 62
7
100
AcDbPolyline
 90
12
 70
0
 10
58191.000000
 20
-57429.954567
 30
0.0
 10
58148.250000
 20
-57450.954567
 30
0.0
 10
58064.250000
 20
-57450.954567
 30
0.0
 10
58022.250000
 20
-57429.954567
 30
0.0
 10
58000.500000
 20
-57408.954567
 30
0.0
 10
57979.500000
 20
-57366.954567
 30
0.0
 10
57979.500000
 20
-57240.204567
 30
0.0
 10
58000.500000
 20
-57198.204567
 30
0.0
 10
58022.250000
 20
-57177.204567
 30
0.0
 10
58064.250000
 20
-57156.204567
 30
0.0
 10
58148.250000
 20
-57156.204567
 30
0.0
 10
58191.000000
 20
-57177.204567
 30
0.0
  0
LWPOLYLINE
  5
14e
100
AcDbEntity
  8
0
 62
7
100
AcDbPolyline
 90
6
 70
0
 10
58570.500000
 20
-57450.954567
 30
0.0
 10
58570.500000
 20
-57219.204567
 30
0.0
 10
58549.500000
 20
-57177.204567
 30
0.0
 10
58506.750000
 20
-57156.204567
 30
0.0
 10
58422.750000
 20
-57156.204567
 30
0.0
 10
58380.750000
 20
-57177.204567
 30
0.0
  0
LWPOLYLINE
  5
14f
100
AcDbEntity
  8
0
 62
7
100
AcDbPolyline
 90
10
 70
0
 10
58570.500000
 20
-57429.954567
 30
0.0
 10
58527.750000
 20
-57450.954567
 30
0.0
 10
58422.750000
 20
-57450.954567
 30
0.0
 10
58380.750000
 20
-57429.954567
 30
0.0
 10
58359.750000
 20
-57387.954567
 30
0.0
 10
58359.750000
 20
-57345.954567
 30
0.0
 10
58380.750000
 20
-57303.954567
 30
0.0
 10
58422.750000
 20
-57282.954567
 30
0.0
 10
58527.750000
 20
-57282.954567
 30
0.0
 10
58570.500000
 20
-57261.204567
 30
0.0
  0
LWPOLYLINE
  5
150
100
AcDbEntity
  8
0
 62
7
100
AcDbPolyline
 90
2
 70
0
 10
58971.000000
 20
-57450.954567
 30
0.0
 10
58971.000000
 20
-57008.454567
 30
0.0
  0
LWPOLYLINE
  5
151
100
AcDbEntity
  8
0
 62
7
100
AcDbPolyline
 90
12
 70
0
 10
58971.000000
 20
-57429.954567
 30
0.0
 10
58929.000000
 20
-57450.954567
 30
0.0
 10
58844.250000
 20
-57450.954567
 30
0.0
 10
58802.250000
 20
-57429.954567
 30
0.0
 10
58781.250000
 20
-57408.954567
 30
0.0
 10
58760.250000
 20
-57366.954567
 30
0.0
 10
58760.250000
 20
-57240.204567
 30
0.0
 10
58781.250000
 20
-57198.204567
 30
0.0
 10
58802.250000
 20
-57177.204567
 30
0.0
 10
58844.250000
 20
-57156.204567
 30
0.0
 10
58929.000000
 20
-57156.204567
 30
0.0
 10
58971.000000
 20
-57177.204567
 30
0.0
  0
LWPOLYLINE
  5
152
100
AcDbEntity
  8
0
 62
7
100
AcDbPolyline
 90
2
 70
0
 10
59709.000000
 20
-57156.204567
 30
0.0
 10
59709.000000
 20
-57450.954567
 30
0.0
  0
LWPOLYLINE
  5
153
100
AcDbEntity
  8
0
 62
7
100
AcDbPolyline
 90
3
 70
0
 10
59604.000000
 20
-56987.454567
 30
0.0
 10
59498.250000
 20
-57303.954567
 30
0.0
 10
59772.750000
 20
-57303.954567
 30
0.0
  0
LWPOLYLINE
  5
154
100
AcDbEntity
  8
0
 62
7
100
AcDbPolyline
 90
6
 70
0
 10
59941.500000
 20
-57408.954567
 30
0.0
 10
59962.500000
 20
-57429.954567
 30
0.0
 10
59941.500000
 20
-57450.954567
 30
0.0
 10
59920.500000
 20
-57429.954567
 30
0.0
 10
59941.500000
 20
-57408.954567
 30
0.0
 10
59941.500000
 20
-57450.954567
 30
0.0
  0
LWPOLYLINE
  5
155
100
AcDbEntity
  8
0
 62
7
100
AcDbPolyline
 90
20
 70
1
 10
60236.250000
 20
-57008.454567
 30
0.0
 10
60279.000000
 20
-57008.454567
 30
0.0
 10
60321.000000
 20
-57029.454567
 30
0.0
 10
60342.000000
 20
-57050.454567
 30
0.0
 10
60363.000000
 20
-57092.454567
 30
0.0
 10
60384.000000
 20
-57177.204567
 30
0.0
 10
60384.000000
 20
-57282.954567
 30
0.0
 10
60363.000000
 20
-57366.954567
 30
0.0
 10
60342.000000
 20
-57408.954567
 30
0.0
 10
60321.000000
 20
-57429.954567
 30
0.0
 10
60279.000000
 20
-57450.954567
 30
0.0
 10
60236.250000
 20
-57450.954567
 30
0.0
 10
60194.250000
 20
-57429.954567
 30
0.0
 10
60173.250000
 20
-57408.954567
 30
0.0
 10
60152.250000
 20
-57366.954567
 30
0.0
 10
60131.250000
 20
-57282.954567
 30
0.0
 10
60131.250000
 20
-57177.204567
 30
0.0
 10
60152.250000
 20
-57092.454567
 30
0.0
 10
60173.250000
 20
-57050.454567
 30
0.0
 10
60194.250000
 20
-57029.454567
 30
0.0
  0
LWPOLYLINE
  5
156
100
AcDbEntity
  8
0
 62
7
100
AcDbPolyline
 90
6
 70
0
 10
60573.750000
 20
-57408.954567
 30
0.0
 10
60594.750000
 20
-57429.954567
 30
0.0
 10
60573.750000
 20
-57450.954567
 30
0.0
 10
60552.750000
 20
-57429.954567
 30
0.0
 10
60573.750000
 20
-57408.954567
 30
0.0
 10
60573.750000
 20
-57450.954567
 30
0.0
  0
LWPOLYLINE
  5
157
100
AcDbEntity
  8
0
 62
7
100
AcDbPolyline
 90
3
 70
0
 10
60742.500000
 20
-57008.454567
 30
0.0
 10
61038.000000
 20
-57008.454567
 30
0.0
 10
60848.250000
 20
-57450.954567
 30
0.0
  0
LWPOLYLINE
  5
158
100
AcDbEntity
  8
0
 62
7
100
AcDbPolyline
 90
2
 70
0
 10
61206.750000
 20
-57282.954567
 30
0.0
 10
61544.250000
 20
-57282.954567
 30
0.0
  0
LWPOLYLINE
  5
159
100
AcDbEntity
  8
0
 62
7
100
AcDbPolyline
 90
2
 70
0
 10
61375.500000
 20
-57450.954567
 30
0.0
 10
61375.500000
 20
-57114.204567
 30
0.0
  0
LWPOLYLINE
  5
15a
100
AcDbEntity
  8
0
 62
7
100
AcDbPolyline
 90
2
 70
0
 10
61944.750000
 20
-57450.954567
 30
0.0
 10
61944.750000
 20
-57008.454567
 30
0.0
  0
LWPOLYLINE
  5
15b
100
AcDbEntity
  8
0
 62
7
100
AcDbPolyline
 90
12
 70
0
 10
61944.750000
 20
-57429.954567
 30
0.0
 10
61902.750000
 20
-57450.954567
 30
0.0
 10
61818.000000
 20
-57450.954567
 30
0.0
 10
61776.000000
 20
-57429.954567
 30
0.0
 10
61755.000000
 20
-57408.954567
 30
0.0
 10
61734.000000
 20
-57366.954567
 30
0.0
 10
61734.000000
 20
-57240.204567
 30
0.0
 10
61755.000000
 20
-57198.204567
 30
0.0
 10
61776.000000
 20
-57177.204567
 30
0.0
 10
61818.000000
 20
-57156.204567
 30
0.0
 10
61902.750000
 20
-57156.204567
 30
0.0
 10
61944.750000
 20
-57177.204567
 30
0.0
  0
LWPOLYLINE
  5
15c
100
AcDbEntity
  8
0
 62
7
100
AcDbPolyline
 90
2
 70
0
 10
62092.500000
 20
-57156.204567
 30
0.0
 10
62261.250000
 20
-57156.204567
 30
0.0
  0
LWPOLYLINE
  5
15d
100
AcDbEntity
  8
0
 62
7
100
AcDbPolyline
 90
5
 70
0
 10
62155.500000
 20
-57450.954567
 30
0.0
 10
62155.500000
 20
-57071.454567
 30
0.0
 10
62177.250000
 20
-57029.454567
 30
0.0
 10
62219.250000
 20
-57008.454567
 30
0.0
 10
62261.250000
 20
-57008.454567
 30
0.0
  0
LWPOLYLINE
  5
15e
100
AcDbEntity
  8
0
 62
7
100
AcDbPolyline
 90
16
 70
0
 10
62388.000000
 20
-57429.954567
 30
0.0
 10
62430.000000
 20
-57450.954567
 30
0.0
 10
62514.000000
 20
-57450.954567
 30
0.0
 10
62556.750000
 20
-57429.954567
 30
0.0
 10
62577.750000
 20
-57387.954567
 30
0.0
 10
62577.750000
 20
-57366.954567
 30
0.0
 10
62556.750000
 20
-57324.954567
 30
0.0
 10
62514.000000
 20
-57303.954567
 30
0.0
 10
62451.000000
 20
-57303.954567
 30
0.0
 10
62409.000000
 20
-57282.954567
 30
0.0
 10
62388.000000
 20
-57240.204567
 30
0.0
 10
62388.000000
 20
-57219.204567
 30
0.0
 10
62409.000000
 20
-57177.204567
 30
0.0
 10
62451.000000
 20
-57156.204567
 30
0.0
 10
62514.000000
 20
-57156.204567
 30
0.0
 10
62556.750000
 20
-57177.204567
 30
0.0
  0
LWPOLYLINE
  5
15f
100
AcDbEntity
  8
0
 62
7
100
AcDbPolyline
 90
7
 70
0
 10
62957.250000
 20
-57156.204567
 30
0.0
 10
62957.250000
 20
-57514.704567
 30
0.0
 10
62936.250000
 20
-57556.704567
 30
0.0
 10
62915.250000
 20
-57577.704567
 30
0.0
 10
62873.250000
 20
-57598.704567
 30
0.0
 10
62809.500000
 20
-57598.704567
 30
0.0
 10
62767.500000
 20
-57577.704567
 30
0.0
  0
LWPOLYLINE
  5
160
100
AcDbEntity
  8
0
 62
7
100
AcDbPolyline
 90
12
 70
0
 10
62957.250000
 20
-57429.954567
 30
0.0
 10
62915.250000
 20
-57450.954567
 30
0.0
 10
62830.500000
 20
-57450.954567
 30
0.0
 10
62788.500000
 20
-57429.954567
 30
0.0
 10
62767.500000
 20
-57408.954567
 30
0.0
 10
62746.500000
 20
-57366.954567
 30
0.0
 10
62746.500000
 20
-57240.204567
 30
0.0
 10
62767.500000
 20
-57198.204567
 30
0.0
 10
62788.500000
 20
-57177.204567
 30
0.0
 10
62830.500000
 20
-57156.204567
 30
0.0
 10
62915.250000
 20
-57156.204567
 30
0.0
 10
62957.250000
 20
-57177.204567
 30
0.0
  0
LWPOLYLINE
  5
161
100
AcDbEntity
  8
0
 62
7
100
AcDbPolyline
 90
2
 70
0
 10
63400.500000
 20
-57450.954567
 30
0.0
 10
63147.000000
 20
-57450.954567
 30
0.0
  0
LWPOLYLINE
  5
162
100
AcDbEntity
  8
0
 62
7
100
AcDbPolyline
 90
5
 70
0
 10
63273.750000
 20
-57450.954567
 30
0.0
 10
63273.750000
 20
-57008.454567
 30
0.0
 10
63231.750000
 20
-57071.454567
 30
0.0
 10
63189.000000
 20
-57114.204567
 30
0.0
 10
63147.000000
 20
-57135.204567
 30
0.0
  0
LWPOLYLINE
  5
163
100
AcDbEntity
  8
0
 62
7
100
AcDbPolyline
 90
2
 70
0
 10
63590.250000
 20
-57282.954567
 30
0.0
 10
63927.750000
 20
-57282.954567
 30
0.0
  0
LWPOLYLINE
  5
164
100
AcDbEntity
  8
0
 62
7
100
AcDbPolyline
 90
2
 70
0
 10
64370.250000
 20
-57450.954567
 30
0.0
 10
64117.500000
 20
-57450.954567
 30
0.0
  0
LWPOLYLINE
  5
165
100
AcDbEntity
  8
0
 62
7
100
AcDbPolyline
 90
5
 70
0
 10
64243.500000
 20
-57450.954567
 30
0.0
 10
64243.500000
 20
-57008.454567
 30
0.0
 10
64201.500000
 20
-57071.454567
 30
0.0
 10
64159.500000
 20
-57114.204567
 30
0.0
 10
64117.500000
 20
-57135.204567
 30
0.0
  0
LWPOLYLINE
  5
166
100
AcDbEntity
  8
0
 62
7
100
AcDbPolyline
 90
2
 70
0
 10
64560.000000
 20
-57450.954567
 30
0.0
 10
64560.000000
 20
-57008.454567
 30
0.0
  0
LWPOLYLINE
  5
167
100
AcDbEntity
  8
0
 62
7
100
AcDbPolyline
 90
12
 70
0
 10
64560.000000
 20
-57177.204567
 30
0.0
 10
64602.000000
 20
-57156.204567
 30
0.0
 10
64686.750000
 20
-57156.204567
 30
0.0
 10
64728.750000
 20
-57177.204567
 30
0.0
 10
64749.750000
 20
-57198.204567
 30
0.0
 10
64770.750000
 20
-57240.204567
 30
0.0
 10
64770.750000
 20
-57366.954567
 30
0.0
 10
64749.750000
 20
-57408.954567
 30
0.0
 10
64728.750000
 20
-57429.954567
 30
0.0
 10
64686.750000
 20
-57450.954567
 30
0.0
 10
64602.000000
 20
-57450.954567
 30
0.0
 10
64560.000000
 20
-57429.954567
 30
0.0
  0
LWPOLYLINE
  5
168
100
AcDbEntity
  8
0
 62
7
100
AcDbPolyline
 90
2
 70
0
 10
64961.250000
 20
-57156.204567
 30
0.0
 10
64961.250000
 20
-57598.704567
 30
0.0
  0
LWPOLYLINE
  5
169
100
AcDbEntity
  8
0
 62
7
100
AcDbPolyline
 90
12
 70
0
 10
64961.250000
 20
-57177.204567
 30
0.0
 10
65003.250000
 20
-57156.204567
 30
0.0
 10
65087.250000
 20
-57156.204567
 30
0.0
 10
65130.000000
 20
-57177.204567
 30
0.0
 10
65151.000000
 20
-57198.204567
 30
0.0
 10
65172.000000
 20
-57240.204567
 30
0.0
 10
65172.000000
 20
-57366.954567
 30
0.0
 10
65151.000000
 20
-57408.954567
 30
0.0
 10
65130.000000
 20
-57429.954567
 30
0.0
 10
65087.250000
 20
-57450.954567
 30
0.0
 10
65003.250000
 20
-57450.954567
 30
0.0
 10
64961.250000
 20
-57429.954567
 30
0.0
  0
LWPOLYLINE
  5
16a
100
AcDbEntity
  8
0
 62
7
100
AcDbPolyline
 90
16
 70
1
 10
65424.750000
 20
-57450.954567
 30
0.0
 10
65382.750000
 20
-57429.954567
 30
0.0
 10
65361.750000
 20
-57408.954567
 30
0.0
 10
65340.750000
 20
-57366.954567
 30
0.0
 10
65340.750000
 20
-57240.204567
 30
0.0
 10
65361.750000
 20
-57198.204567
 30
0.0
 10
65382.750000
 20
-57177.204567
 30
0.0
 10
65424.750000
 20
-57156.204567
 30
0.0
 10
65488.500000
 20
-57156.204567
 30
0.0
 10
65530.500000
 20
-57177.204567
 30
0.0
 10
65551.500000
 20
-57198.204567
 30
0.0
 10
65572.500000
 20
-57240.204567
 30
0.0
 10
65572.500000
 20
-57366.954567
 30
0.0
 10
65551.500000
 20
-57408.954567
 30
0.0
 10
65530.500000
 20
-57429.954567
 30
0.0
 10
65488.500000
 20
-57450.954567
 30
0.0
  0
LWPOLYLINE
  5
16b
100
AcDbEntity
  8
0
 62
7
100
AcDbPolyline
 90
22
 70
0
 10
65783.250000
 20
-57450.954567
 30
0.0
 10
65868.000000
 20
-57450.954567
 30
0.0
 10
65910.000000
 20
-57429.954567
 30
0.0
 10
65931.000000
 20
-57408.954567
 30
0.0
 10
65973.000000
 20
-57345.954567
 30
0.0
 10
65994.000000
 20
-57261.204567
 30
0.0
 10
65994.000000
 20
-57092.454567
 30
0.0
 10
65973.000000
 20
-57050.454567
 30
0.0
 10
65952.000000
 20
-57029.454567
 30
0.0
 10
65910.000000
 20
-57008.454567
 30
0.0
 10
65826.000000
 20
-57008.454567
 30
0.0
 10
65783.250000
 20
-57029.454567
 30
0.0
 10
65762.250000
 20
-57050.454567
 30
0.0
 10
65741.250000
 20
-57092.454567
 30
0.0
 10
65741.250000
 20
-57198.204567
 30
0.0
 10
65762.250000
 20
-57240.204567
 30
0.0
 10
65783.250000
 20
-57261.204567
 30
0.0
 10
65826.000000
 20
-57282.954567
 30
0.0
 10
65910.000000
 20
-57282.954567
 30
0.0
 10
65952.000000
 20
-57261.204567
 30
0.0
 10
65973.000000
 20
-57240.204567
 30
0.0
 10
65994.000000
 20
-57198.204567
 30
0.0
  0
LWPOLYLINE
  5
16c
100
AcDbEntity
  8
0
 62
7
100
AcDbPolyline
 90
2
 70
0
 10
66184.500000
 20
-57282.954567
 30
0.0
 10
66522.000000
 20
-57282.954567
 30
0.0
  0
LWPOLYLINE
  5
16d
100
AcDbEntity
  8
0
 62
7
100
AcDbPolyline
 90
2
 70
0
 10
66353.250000
 20
-57450.954567
 30
0.0
 10
66353.250000
 20
-57114.204567
 30
0.0
  0
LWPOLYLINE
  5
16e
100
AcDbEntity
  8
0
 62
7
100
AcDbPolyline
 90
2
 70
0
 10
66964.500000
 20
-57450.954567
 30
0.0
 10
66711.750000
 20
-57450.954567
 30
0.0
  0
LWPOLYLINE
  5
16f
100
AcDbEntity
  8
0
 62
7
100
AcDbPolyline
 90
5
 70
0
 10
66837.750000
 20
-57450.954567
 30
0.0
 10
66837.750000
 20
-57008.454567
 30
0.0
 10
66795.750000
 20
-57071.454567
 30
0.0
 10
66753.750000
 20
-57114.204567
 30
0.0
 10
66711.750000
 20
-57135.204567
 30
0.0
  0
LWPOLYLINE
  5
170
100
AcDbEntity
  8
0
 62
7
100
AcDbPolyline
 90
2
 70
0
 10
64455.000000
 20
-56931.954567
 30
0.0
 10
67049.250000
 20
-56931.954567
 30
0.0
  0
LWPOLYLINE
  5
171
100
AcDbEntity
  8
0
 62
7
100
AcDbPolyline
 90
2
 70
0
 10
52263.750000
 20
-55951.704567
 30
0.0
 10
84153.750000
 20
-55951.704567
 30
0.0
  0
LWPOLYLINE
  5
172
100
AcDbEntity
  8
0
 62
7
100
AcDbPolyline
 90
2
 70
0
 10
78016.500000
 20
-56624.454567
 30
0.0
 10
77868.750000
 20
-56413.704567
 30
0.0
  0
LWPOLYLINE
  5
173
100
AcDbEntity
  8
0
 62
7
100
AcDbPolyline
 90
11
 70
0
 10
77763.000000
 20
-56624.454567
 30
0.0
 10
77763.000000
 20
-56181.954567
 30
0.0
 10
77931.750000
 20
-56181.954567
 30
0.0
 10
77973.750000
 20
-56202.954567
 30
0.0
 10
77995.500000
 20
-56223.954567
 30
0.0
 10
78016.500000
 20
-56265.954567
 30
0.0
 10
78016.500000
 20
-56328.954567
 30
0.0
 10
77995.500000
 20
-56371.704567
 30
0.0
 10
77973.750000
 20
-56392.704567
 30
0.0
 10
77931.750000
 20
-56413.704567
 30
0.0
 10
77763.000000
 20
-56413.704567
 30
0.0
  0
LWPOLYLINE
  5
174
100
AcDbEntity
  8
0
 62
7
100
AcDbPolyline
 90
13
 70
0
 10
78375.000000
 20
-56603.454567
 30
0.0
 10
78333.000000
 20
-56624.454567
 30
0.0
 10
78248.250000
 20
-56624.454567
 30
0.0
 10
78206.250000
 20
-56603.454567
 30
0.0
 10
78185.250000
 20
-56561.454567
 30
0.0
 10
78185.250000
 20
-56392.704567
 30
0.0
 10
78206.250000
 20
-56350.704567
 30
0.0
 10
78248.250000
 20
-56328.954567
 30
0.0
 10
78333.000000
 20
-56328.954567
 30
0.0
 10
78375.000000
 20
-56350.704567
 30
0.0
 10
78396.000000
 20
-56392.704567
 30
0.0
 10
78396.000000
 20
-56434.704567
 30
0.0
 10
78185.250000
 20
-56476.704567
 30
0.0
  0
LWPOLYLINE
  5
175
100
AcDbEntity
  8
0
 62
7
100
AcDbPolyline
 90
3
 70
0
 10
78543.750000
 20
-56328.954567
 30
0.0
 10
78648.750000
 20
-56624.454567
 30
0.0
 10
78754.500000
 20
-56328.954567
 30
0.0
  0
LWPOLYLINE
  5
176
100
AcDbEntity
  8
0
 62
7
100
AcDbPolyline
 90
6
 70
0
 10
78923.250000
 20
-56582.454567
 30
0.0
 10
78944.250000
 20
-56603.454567
 30
0.0
 10
78923.250000
 20
-56624.454567
 30
0.0
 10
78902.250000
 20
-56603.454567
 30
0.0
 10
78923.250000
 20
-56582.454567
 30
0.0
 10
78923.250000
 20
-56624.454567
 30
0.0
  0
LWPOLYLINE
  5
177
100
AcDbEntity
  8
0
 62
7
100
AcDbPolyline
 90
6
 70
0
 10
78923.250000
 20
-56350.704567
 30
0.0
 10
78944.250000
 20
-56371.704567
 30
0.0
 10
78923.250000
 20
-56392.704567
 30
0.0
 10
78902.250000
 20
-56371.704567
 30
0.0
 10
78923.250000
 20
-56350.704567
 30
0.0
 10
78923.250000
 20
-56392.704567
 30
0.0
  0
LWPOLYLINE
  5
178
100
AcDbEntity
  8
0
 62
7
100
AcDbPolyline
 90
20
 70
0
 10
52644.000000
 20
-56603.454567
 30
0.0
 10
52707.000000
 20
-56624.454567
 30
0.0
 10
52812.750000
 20
-56624.454567
 30
0.0
 10
52854.750000
 20
-56603.454567
 30
0.0
 10
52875.750000
 20
-56582.454567
 30
0.0
 10
52896.750000
 20
-56540.454567
 30
0.0
 10
52896.750000
 20
-56497.704567
 30
0.0
 10
52875.750000
 20
-56455.704567
 30
0.0
 10
52854.750000
 20
-56434.704567
 30
0.0
 10
52812.750000
 20
-56413.704567
 30
0.0
 10
52728.000000
 20
-56392.704567
 30
0.0
 10
52686.000000
 20
-56371.704567
 30
0.0
 10
52665.000000
 20
-56350.704567
 30
0.0
 10
52644.000000
 20
-56307.954567
 30
0.0
 10
52644.000000
 20
-56265.954567
 30
0.0
 10
52665.000000
 20
-56223.954567
 30
0.0
 10
52686.000000
 20
-56202.954567
 30
0.0
 10
52728.000000
 20
-56181.954567
 30
0.0
 10
52833.750000
 20
-56181.954567
 30
0.0
 10
52896.750000
 20
-56202.954567
 30
0.0
  0
LWPOLYLINE
  5
179
100
AcDbEntity
  8
0
 62
7
100
AcDbPolyline
 90
2
 70
0
 10
53086.500000
 20
-56624.454567
 30
0.0
 10
53086.500000
 20
-56328.954567
 30
0.0
  0
LWPOLYLINE
  5
17a
100
AcDbEntity
  8
0
 62
7
100
AcDbPolyline
 90
6
 70
0
 10
53086.500000
 20
-56181.954567
 30
0.0
 10
53065.500000
 20
-56202.954567
 30
0.0
 10
53086.500000
 20
-56223.954567
 30
0.0
 10
53107.500000
 20
-56202.954567
 30
0.0
 10
53086.500000
 20
-56181.954567
 30
0.0
 10
53086.500000
 20
-56223.954567
 30
0.0
  0
LWPOLYLINE
  5
17b
100
AcDbEntity
  8
0
 62
7
100
AcDbPolyline
 90
4
 70
0
 10
53255.250000
 20
-56328.954567
 30
0.0
 10
53487.000000
 20
-56328.954567
 30
0.0
 10
53255.250000
 20
-56624.454567
 30
0.0
 10
53487.000000
 20
-56624.454567
 30
0.0
  0
LWPOLYLINE
  5
17c
100
AcDbEntity
  8
0
 62
7
100
AcDbPolyline
 90
13
 70
0
 10
53824.500000
 20
-56603.454567
 30
0.0
 10
53782.500000
 20
-56624.454567
 30
0.0
 10
53698.500000
 20
-56624.454567
 30
0.0
 10
53655.750000
 20
-56603.454567
 30
0.0
 10
53634.750000
 20
-56561.454567
 30
0.0
 10
53634.750000
 20
-56392.704567
 30
0.0
 10
53655.750000
 20
-56350.704567
 30
0.0
 10
53698.500000
 20
-56328.954567
 30
0.0
 10
53782.500000
 20
-56328.954567
 30
0.0
 10
53824.500000
 20
-56350.704567
 30
0.0
 10
53846.250000
 20
-56392.704567
 30
0.0
 10
53846.250000
 20
-56434.704567
 30
0.0
 10
53634.750000
 20
-56476.704567
 30
0.0
  0
LWPOLYLINE
  5
17d
100
AcDbEntity
  8
0
 62
7
100
AcDbPolyline
 90
6
 70
0
 10
54036.000000
 20
-56582.454567
 30
0.0
 10
54057.000000
 20
-56603.454567
 30
0.0
 10
54036.000000
 20
-56624.454567
 30
0.0
 10
54014.250000
 20
-56603.454567
 30
0.0
 10
54036.000000
 20
-56582.454567
 30
0.0
 10
54036.000000
 20
-56624.454567
 30
0.0
  0
LWPOLYLINE
  5
17e
100
AcDbEntity
  8
0
 62
7
100
AcDbPolyline
 90
6
 70
0
 10
54036.000000
 20
-56350.704567
 30
0.0
 10
54057.000000
 20
-56371.704567
 30
0.0
 10
54036.000000
 20
-56392.704567
 30
0.0
 10
54014.250000
 20
-56371.704567
 30
0.0
 10
54036.000000
 20
-56350.704567
 30
0.0
 10
54036.000000
 20
-56392.704567
 30
0.0
  0
LWPOLYLINE
  5
17f
100
AcDbEntity
  8
0
 62
7
100
AcDbPolyline
 90
2
 70
0
 10
54563.250000
 20
-56497.704567
 30
0.0
 10
54774.000000
 20
-56497.704567
 30
0.0
  0
LWPOLYLINE
  5
180
100
AcDbEntity
  8
0
 62
7
100
AcDbPolyline
 90
3
 70
0
 10
54520.500000
 20
-56624.454567
 30
0.0
 10
54668.250000
 20
-56181.954567
 30
0.0
 10
54816.000000
 20
-56624.454567
 30
0.0
  0
LWPOLYLINE
  5
181
100
AcDbEntity
  8
0
 62
7
100
AcDbPolyline
 90
2
 70
0
 10
55153.500000
 20
-56328.954567
 30
0.0
 10
55153.500000
 20
-56624.454567
 30
0.0
  0
LWPOLYLINE
  5
182
100
AcDbEntity
  8
0
 62
7
100
AcDbPolyline
 90
3
 70
0
 10
55047.750000
 20
-56160.204567
 30
0.0
 10
54942.750000
 20
-56476.704567
 30
0.0
 10
55216.500000
 20
-56476.704567
 30
0.0
  0
LWPOLYLINE
  5
183
100
AcDbEntity
  8
0
 62
7
100
AcDbPolyline
 90
2
 70
0
 10
77763.000000
 20
-57450.954567
 30
0.0
 10
77763.000000
 20
-57008.454567
 30
0.0
  0
LWPOLYLINE
  5
184
100
AcDbEntity
  8
0
 62
7
100
AcDbPolyline
 90
2
 70
0
 10
78164.250000
 20
-57450.954567
 30
0.0
 10
78164.250000
 20
-57008.454567
 30
0.0
  0
LWPOLYLINE
  5
185
100
AcDbEntity
  8
0
 62
7
100
AcDbPolyline
 90
12
 70
0
 10
78164.250000
 20
-57429.954567
 30
0.0
 10
78121.500000
 20
-57450.954567
 30
0.0
 10
78037.500000
 20
-57450.954567
 30
0.0
 10
77995.500000
 20
-57429.954567
 30
0.0
 10
77973.750000
 20
-57408.954567
 30
0.0
 10
77952.750000
 20
-57366.954567
 30
0.0
 10
77952.750000
 20
-57240.204567
 30
0.0
 10
77973.750000
 20
-57198.204567
 30
0.0
 10
77995.500000
 20
-57177.204567
 30
0.0
 10
78037.500000
 20
-57156.204567
 30
0.0
 10
78121.500000
 20
-57156.204567
 30
0.0
 10
78164.250000
 20
-57177.204567
 30
0.0
  0
LWPOLYLINE
  5
186
100
AcDbEntity
  8
0
 62
7
100
AcDbPolyline
 90
6
 70
0
 10
78375.000000
 20
-57408.954567
 30
0.0
 10
78396.000000
 20
-57429.954567
 30
0.0
 10
78375.000000
 20
-57450.954567
 30
0.0
 10
78354.000000
 20
-57429.954567
 30
0.0
 10
78375.000000
 20
-57408.954567
 30
0.0
 10
78375.000000
 20
-57450.954567
 30
0.0
  0
LWPOLYLINE
  5
187
100
AcDbEntity
  8
0
 62
7
100
AcDbPolyline
 90
6
 70
0
 10
78375.000000
 20
-57177.204567
 30
0.0
 10
78396.000000
 20
-57198.204567
 30
0.0
 10
78375.000000
 20
-57219.204567
 30
0.0
 10
78354.000000
 20
-57198.204567
 30
0.0
 10
78375.000000
 20
-57177.204567
 30
0.0
 10
78375.000000
 20
-57219.204567
 30
0.0
  0
LWPOLYLINE
  5
188
100
AcDbEntity
  8
0
 62
7
100
AcDbPolyline
 90
2
 70
0
 10
79155.000000
 20
-57450.954567
 30
0.0
 10
78902.250000
 20
-57450.954567
 30
0.0
  0
LWPOLYLINE
  5
189
100
AcDbEntity
  8
0
 62
7
100
AcDbPolyline
 90
5
 70
0
 10
79029.000000
 20
-57450.954567
 30
0.0
 10
79029.000000
 20
-57008.454567
 30
0.0
 10
78986.250000
 20
-57071.454567
 30
0.0
 10
78944.250000
 20
-57114.204567
 30
0.0
 10
78902.250000
 20
-57135.204567
 30
0.0
  0
LWPOLYLINE
  5
18a
100
AcDbEntity
  8
0
 62
7
100
AcDbPolyline
 90
2
 70
0
 10
79661.250000
 20
-56987.454567
 30
0.0
 10
79281.750000
 20
-57556.704567
 30
0.0
  0
LWPOLYLINE
  5
18b
100
AcDbEntity
  8
0
 62
7
100
AcDbPolyline
 90
2
 70
0
 10
80040.750000
 20
-57450.954567
 30
0.0
 10
79788.000000
 20
-57450.954567
 30
0.0
  0
LWPOLYLINE
  5
18c
100
AcDbEntity
  8
0
 62
7
100
AcDbPolyline
 90
5
 70
0
 10
79914.750000
 20
-57450.954567
 30
0.0
 10
79914.750000
 20
-57008.454567
 30
0.0
 10
79872.000000
 20
-57071.454567
 30
0.0
 10
79830.000000
 20
-57114.204567
 30
0.0
 10
79788.000000
 20
-57135.204567
 30
0.0
  0
LWPOLYLINE
  5
18d
100
AcDbEntity
  8
0
 62
7
100
AcDbPolyline
 90
2
 70
0
 10
52263.750000
 20
-54770.454567
 30
0.0
 10
84153.750000
 20
-54770.454567
 30
0.0
  0
LWPOLYLINE
  5
18e
100
AcDbEntity
  8
0
 62
7
100
AcDbPolyline
 90
2
 70
0
 10
52692.750000
 20
-54978.954567
 30
0.0
 10
53030.250000
 20
-54978.954567
 30
0.0
  0
LWPOLYLINE
  5
18f
100
AcDbEntity
  8
0
 62
7
100
AcDbPolyline
 90
2
 70
0
 10
52788.000000
 20
-55569.204567
 30
0.0
 10
52861.500000
 20
-54978.954567
 30
0.0
  0
LWPOLYLINE
  5
190
100
AcDbEntity
  8
0
 62
7
100
AcDbPolyline
 90
2
 70
0
 10
53153.250000
 20
-55569.204567
 30
0.0
 10
53202.750000
 20
-55175.454567
 30
0.0
  0
LWPOLYLINE
  5
191
100
AcDbEntity
  8
0
 62
7
100
AcDbPolyline
 90
6
 70
0
 10
53227.500000
 20
-54978.954567
 30
0.0
 10
53195.250000
 20
-55006.704567
 30
0.0
 10
53220.000000
 20
-55035.204567
 30
0.0
 10
53251.500000
 20
-55006.704567
 30
0.0
 10
53227.500000
 20
-54978.954567
 30
0.0
 10
53220.000000
 20
-55035.204567
 30
0.0
  0
LWPOLYLINE
  5
192
100
AcDbEntity
  8
0
 62
7
100
AcDbPolyline
 90
2
 70
0
 10
53399.250000
 20
-55175.454567
 30
0.0
 10
53624.250000
 20
-55175.454567
 30
0.0
  0
LWPOLYLINE
  5
193
100
AcDbEntity
  8
0
 62
7
100
AcDbPolyline
 90
5
 70
0
 10
53508.750000
 20
-54978.954567
 30
0.0
 10
53445.000000
 20
-55485.204567
 30
0.0
 10
53466.000000
 20
-55541.454567
 30
0.0
 10
53519.250000
 20
-55569.204567
 30
0.0
 10
53575.500000
 20
-55569.204567
 30
0.0
  0
LWPOLYLINE
  5
194
100
AcDbEntity
  8
0
 62
7
100
AcDbPolyline
 90
4
 70
0
 10
53856.750000
 20
-55569.204567
 30
0.0
 10
53803.500000
 20
-55541.454567
 30
0.0
 10
53782.500000
 20
-55485.204567
 30
0.0
 10
53846.250000
 20
-54978.954567
 30
0.0
  0
LWPOLYLINE
  5
195
100
AcDbEntity
  8
0
 62
7
100
AcDbPolyline
 90
13
 70
0
 10
54309.750000
 20
-55541.454567
 30
0.0
 10
54250.500000
 20
-55569.204567
 30
0.0
 10
54138.000000
 20
-55569.204567
 30
0.0
 10
54084.750000
 20
-55541.454567
 30
0.0
 10
54063.750000
 20
-55485.204567
 30
0.0
 10
54092.250000
 20
-55260.204567
 30
0.0
 10
54126.750000
 20
-55203.954567
 30
0.0
 10
54186.750000
 20
-55175.454567
 30
0.0
 10
54299.250000
 20
-55175.454567
 30
0.0
 10
54351.750000
 20
-55203.954567
 30
0.0
 10
54373.500000
 20
-55260.204567
 30
0.0
 10
54366.000000
 20
-55316.454567
 30
0.0
 10
54078.000000
 20
-55372.704567
 30
0.0
  0
LWPOLYLINE
  5
196
100
AcDbEntity
  8
0
 62
7
100
AcDbPolyline
 90
6
 70
0
 10
54594.750000
 20
-55512.954567
 30
0.0
 10
54619.500000
 20
-55541.454567
 30
0.0
 10
54587.250000
 20
-55569.204567
 30
0.0
 10
54563.250000
 20
-55541.454567
 30
0.0
 10
54594.750000
 20
-55512.954567
 30
0.0
 10
54587.250000
 20
-55569.204567
 30
0.0
  0
LWPOLYLINE
  5
197
100
AcDbEntity
  8
0
 62
7
100
AcDbPolyline
 90
6
 70
0
 10
54633.000000
 20
-55203.954567
 30
0.0
 10
54657.750000
 20
-55231.704567
 30
0.0
 10
54626.250000
 20
-55260.204567
 30
0.0
 10
54601.500000
 20
-55231.704567
 30
0.0
 10
54633.000000
 20
-55203.954567
 30
0.0
 10
54626.250000
 20
-55260.204567
 30
0.0
  0
LWPOLYLINE
  5
198
100
AcDbEntity
  8
0
 62
7
100
AcDbPolyline
 90
2
 70
0
 10
52812.750000
 20
-54207.204567
 30
0.0
 10
52665.000000
 20
-54207.204567
 30
0.0
  0
LWPOLYLINE
  5
199
100
AcDbEntity
  8
0
 62
7
100
AcDbPolyline
 90
3
 70
0
 10
52665.000000
 20
-54439.704567
 30
0.0
 10
52665.000000
 20
-53996.454567
 30
0.0
 10
52875.750000
 20
-53996.454567
 30
0.0
  0
LWPOLYLINE
  5
19a
100
AcDbEntity
  8
0
 62
7
100
AcDbPolyline
 90
2
 70
0
 10
53044.500000
 20
-54439.704567
 30
0.0
 10
53044.500000
 20
-54144.204567
 30
0.0
  0
LWPOLYLINE
  5
19b
100
AcDbEntity
  8
0
 62
7
100
AcDbPolyline
 90
6
 70
0
 10
53044.500000
 20
-53996.454567
 30
0.0
 10
53023.500000
 20
-54017.454567
 30
0.0
 10
53044.500000
 20
-54038.454567
 30
0.0
 10
53065.500000
 20
-54017.454567
 30
0.0
 10
53044.500000
 20
-53996.454567
 30
0.0
 10
53044.500000
 20
-54038.454567
 30
0.0
  0
LWPOLYLINE
  5
19c
100
AcDbEntity
  8
0
 62
7
100
AcDbPolyline
 90
4
 70
0
 10
53318.250000
 20
-54439.704567
 30
0.0
 10
53276.250000
 20
-54418.704567
 30
0.0
 10
53255.250000
 20
-54375.954567
 30
0.0
 10
53255.250000
 20
-53996.454567
 30
0.0
  0
LWPOLYLINE
  5
19d
100
AcDbEntity
  8
0
 62
7
100
AcDbPolyline
 90
13
 70
0
 10
53655.750000
 20
-54418.704567
 30
0.0
 10
53613.750000
 20
-54439.704567
 30
0.0
 10
53529.750000
 20
-54439.704567
 30
0.0
 10
53487.000000
 20
-54418.704567
 30
0.0
 10
53466.000000
 20
-54375.954567
 30
0.0
 10
53466.000000
 20
-54207.204567
 30
0.0
 10
53487.000000
 20
-54165.204567
 30
0.0
 10
53529.750000
 20
-54144.204567
 30
0.0
 10
53613.750000
 20
-54144.204567
 30
0.0
 10
53655.750000
 20
-54165.204567
 30
0.0
 10
53677.500000
 20
-54207.204567
 30
0.0
 10
53677.500000
 20
-54249.954567
 30
0.0
 10
53466.000000
 20
-54291.954567
 30
0.0
  0
LWPOLYLINE
  5
19e
100
AcDbEntity
  8
0
 62
7
100
AcDbPolyline
 90
6
 70
0
 10
53867.250000
 20
-54396.954567
 30
0.0
 10
53888.250000
 20
-54418.704567
 30
0.0
 10
53867.250000
 20
-54439.704567
 30
0.0
 10
53846.250000
 20
-54418.704567
 30
0.0
 10
53867.250000
 20
-54396.954567
 30
0.0
 10
53867.250000
 20
-54439.704567
 30
0.0
  0
LWPOLYLINE
  5
19f
100
AcDbEntity
  8
0
 62
7
100
AcDbPolyline
 90
6
 70
0
 10
53867.250000
 20
-54165.204567
 30
0.0
 10
53888.250000
 20
-54186.204567
 30
0.0
 10
53867.250000
 20
-54207.204567
 30
0.0
 10
53846.250000
 20
-54186.204567
 30
0.0
 10
53867.250000
 20
-54165.204567
 30
0.0
 10
53867.250000
 20
-54207.204567
 30
0.0
  0
LWPOLYLINE
  5
1a0
100
AcDbEntity
  8
0
 62
7
100
AcDbPolyline
 90
2
 70
0
 10
54415.500000
 20
-54439.704567
 30
0.0
 10
54415.500000
 20
-54144.204567
 30
0.0
  0
LWPOLYLINE
  5
1a1
100
AcDbEntity
  8
0
 62
7
100
AcDbPolyline
 90
5
 70
0
 10
54415.500000
 20
-54228.954567
 30
0.0
 10
54436.500000
 20
-54186.204567
 30
0.0
 10
54457.500000
 20
-54165.204567
 30
0.0
 10
54499.500000
 20
-54144.204567
 30
0.0
 10
54542.250000
 20
-54144.204567
 30
0.0
  0
LWPOLYLINE
  5
1a2
100
AcDbEntity
  8
0
 62
7
100
AcDbPolyline
 90
2
 70
0
 10
54626.250000
 20
-54144.204567
 30
0.0
 10
54795.000000
 20
-54144.204567
 30
0.0
  0
LWPOLYLINE
  5
1a3
100
AcDbEntity
  8
0
 62
7
100
AcDbPolyline
 90
5
 70
0
 10
54689.250000
 20
-54439.704567
 30
0.0
 10
54689.250000
 20
-54060.204567
 30
0.0
 10
54710.250000
 20
-54017.454567
 30
0.0
 10
54753.000000
 20
-53996.454567
 30
0.0
 10
54795.000000
 20
-53996.454567
 30
0.0
  0
LWPOLYLINE
  5
1a4
100
AcDbEntity
  8
0
 62
7
100
AcDbPolyline
 90
16
 70
0
 10
54921.750000
 20
-54418.704567
 30
0.0
 10
54963.750000
 20
-54439.704567
 30
0.0
 10
55047.750000
 20
-54439.704567
 30
0.0
 10
55090.500000
 20
-54418.704567
 30
0.0
 10
55111.500000
 20
-54375.954567
 30
0.0
 10
55111.500000
 20
-54354.954567
 30
0.0
 10
55090.500000
 20
-54312.954567
 30
0.0
 10
55047.750000
 20
-54291.954567
 30
0.0
 10
54984.750000
 20
-54291.954567
 30
0.0
 10
54942.750000
 20
-54270.954567
 30
0.0
 10
54921.750000
 20
-54228.954567
 30
0.0
 10
54921.750000
 20
-54207.204567
 30
0.0
 10
54942.750000
 20
-54165.204567
 30
0.0
 10
54984.750000
 20
-54144.204567
 30
0.0
 10
55047.750000
 20
-54144.204567
 30
0.0
 10
55090.500000
 20
-54165.204567
 30
0.0
  0
LWPOLYLINE
  5
1a5
100
AcDbEntity
  8
0
 62
7
100
AcDbPolyline
 90
13
 70
0
 10
55470.000000
 20
-54418.704567
 30
0.0
 10
55428.000000
 20
-54439.704567
 30
0.0
 10
55343.250000
 20
-54439.704567
 30
0.0
 10
55301.250000
 20
-54418.704567
 30
0.0
 10
55280.250000
 20
-54375.954567
 30
0.0
 10
55280.250000
 20
-54207.204567
 30
0.0
 10
55301.250000
 20
-54165.204567
 30
0.0
 10
55343.250000
 20
-54144.204567
 30
0.0
 10
55428.000000
 20
-54144.204567
 30
0.0
 10
55470.000000
 20
-54165.204567
 30
0.0
 10
55491.000000
 20
-54207.204567
 30
0.0
 10
55491.000000
 20
-54249.954567
 30
0.0
 10
55280.250000
 20
-54291.954567
 30
0.0
  0
LWPOLYLINE
  5
1a6
100
AcDbEntity
  8
0
 62
7
100
AcDbPolyline
 90
2
 70
0
 10
55680.750000
 20
-54144.204567
 30
0.0
 10
55680.750000
 20
-54439.704567
 30
0.0
  0
LWPOLYLINE
  5
1a7
100
AcDbEntity
  8
0
 62
7
100
AcDbPolyline
 90
7
 70
0
 10
55680.750000
 20
-54186.204567
 30
0.0
 10
55701.750000
 20
-54165.204567
 30
0.0
 10
55743.750000
 20
-54144.204567
 30
0.0
 10
55807.500000
 20
-54144.204567
 30
0.0
 10
55849.500000
 20
-54165.204567
 30
0.0
 10
55870.500000
 20
-54207.204567
 30
0.0
 10
55870.500000
 20
-54439.704567
 30
0.0
  0
LWPOLYLINE
  5
1a8
100
AcDbEntity
  8
0
 62
7
100
AcDbPolyline
 90
16
 70
0
 10
56060.250000
 20
-54418.704567
 30
0.0
 10
56103.000000
 20
-54439.704567
 30
0.0
 10
56187.000000
 20
-54439.704567
 30
0.0
 10
56229.000000
 20
-54418.704567
 30
0.0
 10
56250.000000
 20
-54375.954567
 30
0.0
 10
56250.000000
 20
-54354.954567
 30
0.0
 10
56229.000000
 20
-54312.954567
 30
0.0
 10
56187.000000
 20
-54291.954567
 30
0.0
 10
56124.000000
 20
-54291.954567
 30
0.0
 10
56081.250000
 20
-54270.954567
 30
0.0
 10
56060.250000
 20
-54228.954567
 30
0.0
 10
56060.250000
 20
-54207.204567
 30
0.0
 10
56081.250000
 20
-54165.204567
 30
0.0
 10
56124.000000
 20
-54144.204567
 30
0.0
 10
56187.000000
 20
-54144.204567
 30
0.0
 10
56229.000000
 20
-54165.204567
 30
0.0
  0
LWPOLYLINE
  5
1a9
100
AcDbEntity
  8
0
 62
7
100
AcDbPolyline
 90
16
 70
1
 10
56503.500000
 20
-54439.704567
 30
0.0
 10
56461.500000
 20
-54418.704567
 30
0.0
 10
56439.750000
 20
-54396.954567
 30
0.0
 10
56418.750000
 20
-54354.954567
 30
0.0
 10
56418.750000
 20
-54228.954567
 30
0.0
 10
56439.750000
 20
-54186.204567
 30
0.0
 10
56461.500000
 20
-54165.204567
 30
0.0
 10
56503.500000
 20
-54144.204567
 30
0.0
 10
56566.500000
 20
-54144.204567
 30
0.0
 10
56608.500000
 20
-54165.204567
 30
0.0
 10
56630.250000
 20
-54186.204567
 30
0.0
 10
56651.250000
 20
-54228.954567
 30
0.0
 10
56651.250000
 20
-54354.954567
 30
0.0
 10
56630.250000
 20
-54396.954567
 30
0.0
 10
56608.500000
 20
-54418.704567
 30
0.0
 10
56566.500000
 20
-54439.704567
 30
0.0
  0
LWPOLYLINE
  5
1aa
100
AcDbEntity
  8
0
 62
7
100
AcDbPolyline
 90
2
 70
0
 10
56841.000000
 20
-54439.704567
 30
0.0
 10
56841.000000
 20
-54144.204567
 30
0.0
  0
LWPOLYLINE
  5
1ab
100
AcDbEntity
  8
0
 62
7
100
AcDbPolyline
 90
5
 70
0
 10
56841.000000
 20
-54228.954567
 30
0.0
 10
56862.000000
 20
-54186.204567
 30
0.0
 10
56883.000000
 20
-54165.204567
 30
0.0
 10
56925.000000
 20
-54144.204567
 30
0.0
 10
56967.000000
 20
-54144.204567
 30
0.0
  0
LWPOLYLINE
  5
1ac
100
AcDbEntity
  8
0
 62
7
100
AcDbPolyline
 90
6
 70
0
 10
57114.750000
 20
-54396.954567
 30
0.0
 10
57135.750000
 20
-54418.704567
 30
0.0
 10
57114.750000
 20
-54439.704567
 30
0.0
 10
57093.750000
 20
-54418.704567
 30
0.0
 10
57114.750000
 20
-54396.954567
 30
0.0
 10
57114.750000
 20
-54439.704567
 30
0.0
  0
LWPOLYLINE
  5
1ad
100
AcDbEntity
  8
0
 62
7
100
AcDbPolyline
 90
2
 70
0
 10
57326.250000
 20
-54439.704567
 30
0.0
 10
57326.250000
 20
-53996.454567
 30
0.0
  0
LWPOLYLINE
  5
1ae
100
AcDbEntity
  8
0
 62
7
100
AcDbPolyline
 90
2
 70
0
 10
57368.250000
 20
-54270.954567
 30
0.0
 10
57495.000000
 20
-54439.704567
 30
0.0
  0
LWPOLYLINE
  5
1af
100
AcDbEntity
  8
0
 62
7
100
AcDbPolyline
 90
2
 70
0
 10
57495.000000
 20
-54144.204567
 30
0.0
 10
57326.250000
 20
-54312.954567
 30
0.0
  0
LWPOLYLINE
  5
1b0
100
AcDbEntity
  8
0
 62
7
100
AcDbPolyline
 90
2
 70
0
 10
57684.750000
 20
-54439.704567
 30
0.0
 10
57684.750000
 20
-54144.204567
 30
0.0
  0
LWPOLYLINE
  5
1b1
100
AcDbEntity
  8
0
 62
7
100
AcDbPolyline
 90
6
 70
0
 10
57684.750000
 20
-53996.454567
 30
0.0
 10
57663.750000
 20
-54017.454567
 30
0.0
 10
57684.750000
 20
-54038.454567
 30
0.0
 10
57705.750000
 20
-54017.454567
 30
0.0
 10
57684.750000
 20
-53996.454567
 30
0.0
 10
57684.750000
 20
-54038.454567
 30
0.0
  0
LWPOLYLINE
  5
1b2
100
AcDbEntity
  8
0
 62
7
100
AcDbPolyline
 90
12
 70
0
 10
58085.250000
 20
-54418.704567
 30
0.0
 10
58043.250000
 20
-54439.704567
 30
0.0
 10
57958.500000
 20
-54439.704567
 30
0.0
 10
57916.500000
 20
-54418.704567
 30
0.0
 10
57895.500000
 20
-54396.954567
 30
0.0
 10
57874.500000
 20
-54354.954567
 30
0.0
 10
57874.500000
 20
-54228.954567
 30
0.0
 10
57895.500000
 20
-54186.204567
 30
0.0
 10
57916.500000
 20
-54165.204567
 30
0.0
 10
57958.500000
 20
-54144.204567
 30
0.0
 10
58043.250000
 20
-54144.204567
 30
0.0
 10
58085.250000
 20
-54165.204567
 30
0.0
  0
LWPOLYLINE
  5
1b3
100
AcDbEntity
  8
0
 62
7
100
AcDbPolyline
 90
6
 70
0
 10
58464.750000
 20
-54439.704567
 30
0.0
 10
58464.750000
 20
-54207.204567
 30
0.0
 10
58443.750000
 20
-54165.204567
 30
0.0
 10
58401.750000
 20
-54144.204567
 30
0.0
 10
58317.000000
 20
-54144.204567
 30
0.0
 10
58275.000000
 20
-54165.204567
 30
0.0
  0
LWPOLYLINE
  5
1b4
100
AcDbEntity
  8
0
 62
7
100
AcDbPolyline
 90
10
 70
0
 10
58464.750000
 20
-54418.704567
 30
0.0
 10
58422.750000
 20
-54439.704567
 30
0.0
 10
58317.000000
 20
-54439.704567
 30
0.0
 10
58275.000000
 20
-54418.704567
 30
0.0
 10
58254.000000
 20
-54375.954567
 30
0.0
 10
58254.000000
 20
-54333.954567
 30
0.0
 10
58275.000000
 20
-54291.954567
 30
0.0
 10
58317.000000
 20
-54270.954567
 30
0.0
 10
58422.750000
 20
-54270.954567
 30
0.0
 10
58464.750000
 20
-54249.954567
 30
0.0
  0
LWPOLYLINE
  5
1b5
100
AcDbEntity
  8
0
 62
7
100
AcDbPolyline
 90
2
 70
0
 10
58865.250000
 20
-54439.704567
 30
0.0
 10
58865.250000
 20
-53996.454567
 30
0.0
  0
LWPOLYLINE
  5
1b6
100
AcDbEntity
  8
0
 62
7
100
AcDbPolyline
 90
12
 70
0
 10
58865.250000
 20
-54418.704567
 30
0.0
 10
58823.250000
 20
-54439.704567
 30
0.0
 10
58739.250000
 20
-54439.704567
 30
0.0
 10
58696.500000
 20
-54418.704567
 30
0.0
 10
58675.500000
 20
-54396.954567
 30
0.0
 10
58654.500000
 20
-54354.954567
 30
0.0
 10
58654.500000
 20
-54228.954567
 30
0.0
 10
58675.500000
 20
-54186.204567
 30
0.0
 10
58696.500000
 20
-54165.204567
 30
0.0
 10
58739.250000
 20
-54144.204567
 30
0.0
 10
58823.250000
 20
-54144.204567
 30
0.0
 10
58865.250000
 20
-54165.204567
 30
0.0
  0
LWPOLYLINE
  5
1b7
100
AcDbEntity
  8
0
 62
7
100
AcDbPolyline
 90
2
 70
0
 10
58971.000000
 20
-54481.704567
 30
0.0
 10
59308.500000
 20
-54481.704567
 30
0.0
  0
LWPOLYLINE
  5
1b8
100
AcDbEntity
  8
0
 62
7
100
AcDbPolyline
 90
2
 70
0
 10
59414.250000
 20
-54144.204567
 30
0.0
 10
59414.250000
 20
-54587.454567
 30
0.0
  0
LWPOLYLINE
  5
1b9
100
AcDbEntity
  8
0
 62
7
100
AcDbPolyline
 90
12
 70
0
 10
59414.250000
 20
-54165.204567
 30
0.0
 10
59456.250000
 20
-54144.204567
 30
0.0
 10
59540.250000
 20
-54144.204567
 30
0.0
 10
59583.000000
 20
-54165.204567
 30
0.0
 10
59604.000000
 20
-54186.204567
 30
0.0
 10
59625.000000
 20
-54228.954567
 30
0.0
 10
59625.000000
 20
-54354.954567
 30
0.0
 10
59604.000000
 20
-54396.954567
 30
0.0
 10
59583.000000
 20
-54418.704567
 30
0.0
 10
59540.250000
 20
-54439.704567
 30
0.0
 10
59456.250000
 20
-54439.704567
 30
0.0
 10
59414.250000
 20
-54418.704567
 30
0.0
  0
LWPOLYLINE
  5
1ba
100
AcDbEntity
  8
0
 62
7
100
AcDbPolyline
 90
12
 70
0
 10
60004.500000
 20
-54418.704567
 30
0.0
 10
59962.500000
 20
-54439.704567
 30
0.0
 10
59877.750000
 20
-54439.704567
 30
0.0
 10
59835.750000
 20
-54418.704567
 30
0.0
 10
59814.750000
 20
-54396.954567
 30
0.0
 10
59793.750000
 20
-54354.954567
 30
0.0
 10
59793.750000
 20
-54228.954567
 30
0.0
 10
59814.750000
 20
-54186.204567
 30
0.0
 10
59835.750000
 20
-54165.204567
 30
0.0
 10
59877.750000
 20
-54144.204567
 30
0.0
 10
59962.500000
 20
-54144.204567
 30
0.0
 10
60004.500000
 20
-54165.204567
 30
0.0
  0
LWPOLYLINE
  5
1bb
100
AcDbEntity
  8
0
 62
7
100
AcDbPolyline
 90
2
 70
0
 10
60194.250000
 20
-54439.704567
 30
0.0
 10
60194.250000
 20
-53996.454567
 30
0.0
  0
LWPOLYLINE
  5
1bc
100
AcDbEntity
  8
0
 62
7
100
AcDbPolyline
 90
12
 70
0
 10
60194.250000
 20
-54165.204567
 30
0.0
 10
60236.250000
 20
-54144.204567
 30
0.0
 10
60321.000000
 20
-54144.204567
 30
0.0
 10
60363.000000
 20
-54165.204567
 30
0.0
 10
60384.000000
 20
-54186.204567
 30
0.0
 10
60405.000000
 20
-54228.954567
 30
0.0
 10
60405.000000
 20
-54354.954567
 30
0.0
 10
60384.000000
 20
-54396.954567
 30
0.0
 10
60363.000000
 20
-54418.704567
 30
0.0
 10
60321.000000
 20
-54439.704567
 30
0.0
 10
60236.250000
 20
-54439.704567
 30
0.0
 10
60194.250000
 20
-54418.704567
 30
0.0
  0
LWPOLYLINE
  5
1bd
100
AcDbEntity
  8
0
 62
7
100
AcDbPolyline
 90
2
 70
0
 10
52263.750000
 20
-52998.954567
 30
0.0
 10
84153.750000
 20
-52998.954567
 30
0.0
  0
LWPOLYLINE
  5
1be
100
AcDbEntity
  8
0
 62
7
100
AcDbPolyline
 90
20
 70
0
 10
52644.000000
 20
-53621.454567
 30
0.0
 10
52707.000000
 20
-53642.454567
 30
0.0
 10
52812.750000
 20
-53642.454567
 30
0.0
 10
52854.750000
 20
-53621.454567
 30
0.0
 10
52875.750000
 20
-53599.704567
 30
0.0
 10
52896.750000
 20
-53557.704567
 30
0.0
 10
52896.750000
 20
-53515.704567
 30
0.0
 10
52875.750000
 20
-53473.704567
 30
0.0
 10
52854.750000
 20
-53452.704567
 30
0.0
 10
52812.750000
 20
-53431.704567
 30
0.0
 10
52728.000000
 20
-53409.954567
 30
0.0
 10
52686.000000
 20
-53388.954567
 30
0.0
 10
52665.000000
 20
-53367.954567
 30
0.0
 10
52644.000000
 20
-53325.954567
 30
0.0
 10
52644.000000
 20
-53283.954567
 30
0.0
 10
52665.000000
 20
-53241.204567
 30
0.0
 10
52686.000000
 20
-53220.204567
 30
0.0
 10
52728.000000
 20
-53199.204567
 30
0.0
 10
52833.750000
 20
-53199.204567
 30
0.0
 10
52896.750000
 20
-53220.204567
 30
0.0
  0
LWPOLYLINE
  5
1bf
100
AcDbEntity
  8
0
 62
7
100
AcDbPolyline
 90
2
 70
0
 10
53086.500000
 20
-53642.454567
 30
0.0
 10
53086.500000
 20
-53199.204567
 30
0.0
  0
LWPOLYLINE
  5
1c0
100
AcDbEntity
  8
0
 62
7
100
AcDbPolyline
 90
7
 70
0
 10
53276.250000
 20
-53642.454567
 30
0.0
 10
53276.250000
 20
-53409.954567
 30
0.0
 10
53255.250000
 20
-53367.954567
 30
0.0
 10
53213.250000
 20
-53346.954567
 30
0.0
 10
53150.250000
 20
-53346.954567
 30
0.0
 10
53107.500000
 20
-53367.954567
 30
0.0
 10
53086.500000
 20
-53388.954567
 30
0.0
  0
LWPOLYLINE
  5
1c1
100
AcDbEntity
  8
0
 62
7
100
AcDbPolyline
 90
13
 70
0
 10
53655.750000
 20
-53621.454567
 30
0.0
 10
53613.750000
 20
-53642.454567
 30
0.0
 10
53529.750000
 20
-53642.454567
 30
0.0
 10
53487.000000
 20
-53621.454567
 30
0.0
 10
53466.000000
 20
-53578.704567
 30
0.0
 10
53466.000000
 20
-53409.954567
 30
0.0
 10
53487.000000
 20
-53367.954567
 30
0.0
 10
53529.750000
 20
-53346.954567
 30
0.0
 10
53613.750000
 20
-53346.954567
 30
0.0
 10
53655.750000
 20
-53367.954567
 30
0.0
 10
53677.500000
 20
-53409.954567
 30
0.0
 10
53677.500000
 20
-53452.704567
 30
0.0
 10
53466.000000
 20
-53494.704567
 30
0.0
  0
LWPOLYLINE
  5
1c2
100
AcDbEntity
  8
0
 62
7
100
AcDbPolyline
 90
13
 70
0
 10
54036.000000
 20
-53621.454567
 30
0.0
 10
53993.250000
 20
-53642.454567
 30
0.0
 10
53909.250000
 20
-53642.454567
 30
0.0
 10
53867.250000
 20
-53621.454567
 30
0.0
 10
53846.250000
 20
-53578.704567
 30
0.0
 10
53846.250000
 20
-53409.954567
 30
0.0
 10
53867.250000
 20
-53367.954567
 30
0.0
 10
53909.250000
 20
-53346.954567
 30
0.0
 10
53993.250000
 20
-53346.954567
 30
0.0
 10
54036.000000
 20
-53367.954567
 30
0.0
 10
54057.000000
 20
-53409.954567
 30
0.0
 10
54057.000000
 20
-53452.704567
 30
0.0
 10
53846.250000
 20
-53494.704567
 30
0.0
  0
LWPOLYLINE
  5
1c3
100
AcDbEntity
  8
0
 62
7
100
AcDbPolyline
 90
2
 70
0
 10
54183.000000
 20
-53346.954567
 30
0.0
 10
54351.750000
 20
-53346.954567
 30
0.0
  0
LWPOLYLINE
  5
1c4
100
AcDbEntity
  8
0
 62
7
100
AcDbPolyline
 90
5
 70
0
 10
54246.750000
 20
-53199.204567
 30
0.0
 10
54246.750000
 20
-53578.704567
 30
0.0
 10
54267.750000
 20
-53621.454567
 30
0.0
 10
54309.750000
 20
-53642.454567
 30
0.0
 10
54351.750000
 20
-53642.454567
 30
0.0
  0
LWPOLYLINE
  5
1c5
100
AcDbEntity
  8
0
 62
7
100
AcDbPolyline
 90
6
 70
0
 10
54499.500000
 20
-53599.704567
 30
0.0
 10
54520.500000
 20
-53621.454567
 30
0.0
 10
54499.500000
 20
-53642.454567
 30
0.0
 10
54478.500000
 20
-53621.454567
 30
0.0
 10
54499.500000
 20
-53599.704567
 30
0.0
 10
54499.500000
 20
-53642.454567
 30
0.0
  0
LWPOLYLINE
  5
1c6
100
AcDbEntity
  8
0
 62
7
100
AcDbPolyline
 90
6
 70
0
 10
54499.500000
 20
-53367.954567
 30
0.0
 10
54520.500000
 20
-53388.954567
 30
0.0
 10
54499.500000
 20
-53409.954567
 30
0.0
 10
54478.500000
 20
-53388.954567
 30
0.0
 10
54499.500000
 20
-53367.954567
 30
0.0
 10
54499.500000
 20
-53409.954567
 30
0.0
  0
LWPOLYLINE
  5
1c7
100
AcDbEntity
  8
0
 62
7
100
AcDbPolyline
 90
2
 70
0
 10
58169.250000
 20
-55951.704567
 30
0.0
 10
58169.250000
 20
-56837.454567
 30
0.0
  0
LWPOLYLINE
  5
1c8
100
AcDbEntity
  8
0
 62
7
100
AcDbPolyline
 90
2
 70
0
 10
77067.000000
 20
-55951.704567
 30
0.0
 10
77067.000000
 20
-57870.954567
 30
0.0
  0
ENDSEC
  0
SECTION
  2
OBJECTS
  0
DICTIONARY
  5
C
330
0
100
AcDbDictionary
  3
ACAD_GROUP
350
D
  3
ACAD_MLINESTYLE
350
17
  0
DICTIONARY
  5
D
330
C
100
AcDbDictionary
  0
DICTIONARY
  5
1A
330
C
100
AcDbDictionary
  0
DICTIONARY
  5
17
330
C
100
AcDbDictionary
  3
STANDARD
350
18
  0
DICTIONARY
  5
19
330
C
100
AcDbDictionary
  0
ENDSEC
  0
EOF
