G04 #@! TF.FileFunction,Copper,L2,Bot,Signal*
%FSLAX46Y46*%
G04 Gerber Fmt 4.6, Leading zero omitted, Abs format (unit mm)*
G04 Created by KiCad (PCBNEW 4.0.7+dfsg1-1~bpo9+1) date Fri Jan  5 13:44:09 2018*
%MOMM*%
%LPD*%
G01*
G04 APERTURE LIST*
%ADD10C,0.100000*%
%ADD11C,0.150000*%
%ADD12C,0.300000*%
%ADD13C,0.400000*%
%ADD14R,1.700000X1.700000*%
%ADD15O,1.700000X1.700000*%
%ADD16C,1.700000*%
%ADD17C,0.600000*%
%ADD18C,0.250000*%
G04 APERTURE END LIST*
D10*
D11*
X177002200Y-166007200D02*
X177002200Y-198007200D01*
X285002200Y-198007200D01*
X285002200Y-166007200D01*
X177002200Y-166007200D01*
D10*
D11*
X10000000Y-10000000D02*
X10000000Y-200007200D01*
X287002200Y-200007200D01*
X287002200Y-10000000D01*
X10000000Y-10000000D01*
D10*
D11*
X12000000Y-12000000D02*
X12000000Y-198007200D01*
X285002200Y-198007200D01*
X285002200Y-12000000D01*
X12000000Y-12000000D01*
D10*
D11*
X60000000Y-12000000D02*
X60000000Y-10000000D01*
D10*
D11*
X110000000Y-12000000D02*
X110000000Y-10000000D01*
D10*
D11*
X160000000Y-12000000D02*
X160000000Y-10000000D01*
D10*
D11*
X210000000Y-12000000D02*
X210000000Y-10000000D01*
D10*
D11*
X260000000Y-12000000D02*
X260000000Y-10000000D01*
D10*
D11*
X35990476Y-11588095D02*
X35247619Y-11588095D01*
X35619048Y-11588095D02*
X35619048Y-10288095D01*
X35495238Y-10473810D01*
X35371429Y-10597619D01*
X35247619Y-10659524D01*
D10*
D11*
X85247619Y-10411905D02*
X85309524Y-10350000D01*
X85433333Y-10288095D01*
X85742857Y-10288095D01*
X85866667Y-10350000D01*
X85928571Y-10411905D01*
X85990476Y-10535714D01*
X85990476Y-10659524D01*
X85928571Y-10845238D01*
X85185714Y-11588095D01*
X85990476Y-11588095D01*
D10*
D11*
X135185714Y-10288095D02*
X135990476Y-10288095D01*
X135557143Y-10783333D01*
X135742857Y-10783333D01*
X135866667Y-10845238D01*
X135928571Y-10907143D01*
X135990476Y-11030952D01*
X135990476Y-11340476D01*
X135928571Y-11464286D01*
X135866667Y-11526190D01*
X135742857Y-11588095D01*
X135371429Y-11588095D01*
X135247619Y-11526190D01*
X135185714Y-11464286D01*
D10*
D11*
X185866667Y-10721429D02*
X185866667Y-11588095D01*
X185557143Y-10226190D02*
X185247619Y-11154762D01*
X186052381Y-11154762D01*
D10*
D11*
X235928571Y-10288095D02*
X235309524Y-10288095D01*
X235247619Y-10907143D01*
X235309524Y-10845238D01*
X235433333Y-10783333D01*
X235742857Y-10783333D01*
X235866667Y-10845238D01*
X235928571Y-10907143D01*
X235990476Y-11030952D01*
X235990476Y-11340476D01*
X235928571Y-11464286D01*
X235866667Y-11526190D01*
X235742857Y-11588095D01*
X235433333Y-11588095D01*
X235309524Y-11526190D01*
X235247619Y-11464286D01*
D10*
D11*
X285866667Y-10288095D02*
X285619048Y-10288095D01*
X285495238Y-10350000D01*
X285433333Y-10411905D01*
X285309524Y-10597619D01*
X285247619Y-10845238D01*
X285247619Y-11340476D01*
X285309524Y-11464286D01*
X285371429Y-11526190D01*
X285495238Y-11588095D01*
X285742857Y-11588095D01*
X285866667Y-11526190D01*
X285928571Y-11464286D01*
X285990476Y-11340476D01*
X285990476Y-11030952D01*
X285928571Y-10907143D01*
X285866667Y-10845238D01*
X285742857Y-10783333D01*
X285495238Y-10783333D01*
X285371429Y-10845238D01*
X285309524Y-10907143D01*
X285247619Y-11030952D01*
D10*
D11*
X60000000Y-198007200D02*
X60000000Y-200007200D01*
D10*
D11*
X110000000Y-198007200D02*
X110000000Y-200007200D01*
D10*
D11*
X160000000Y-198007200D02*
X160000000Y-200007200D01*
D10*
D11*
X210000000Y-198007200D02*
X210000000Y-200007200D01*
D10*
D11*
X260000000Y-198007200D02*
X260000000Y-200007200D01*
D10*
D11*
X35990476Y-199595295D02*
X35247619Y-199595295D01*
X35619048Y-199595295D02*
X35619048Y-198295295D01*
X35495238Y-198481010D01*
X35371429Y-198604819D01*
X35247619Y-198666724D01*
D10*
D11*
X85247619Y-198419105D02*
X85309524Y-198357200D01*
X85433333Y-198295295D01*
X85742857Y-198295295D01*
X85866667Y-198357200D01*
X85928571Y-198419105D01*
X85990476Y-198542914D01*
X85990476Y-198666724D01*
X85928571Y-198852438D01*
X85185714Y-199595295D01*
X85990476Y-199595295D01*
D10*
D11*
X135185714Y-198295295D02*
X135990476Y-198295295D01*
X135557143Y-198790533D01*
X135742857Y-198790533D01*
X135866667Y-198852438D01*
X135928571Y-198914343D01*
X135990476Y-199038152D01*
X135990476Y-199347676D01*
X135928571Y-199471486D01*
X135866667Y-199533390D01*
X135742857Y-199595295D01*
X135371429Y-199595295D01*
X135247619Y-199533390D01*
X135185714Y-199471486D01*
D10*
D11*
X185866667Y-198728629D02*
X185866667Y-199595295D01*
X185557143Y-198233390D02*
X185247619Y-199161962D01*
X186052381Y-199161962D01*
D10*
D11*
X235928571Y-198295295D02*
X235309524Y-198295295D01*
X235247619Y-198914343D01*
X235309524Y-198852438D01*
X235433333Y-198790533D01*
X235742857Y-198790533D01*
X235866667Y-198852438D01*
X235928571Y-198914343D01*
X235990476Y-199038152D01*
X235990476Y-199347676D01*
X235928571Y-199471486D01*
X235866667Y-199533390D01*
X235742857Y-199595295D01*
X235433333Y-199595295D01*
X235309524Y-199533390D01*
X235247619Y-199471486D01*
D10*
D11*
X285866667Y-198295295D02*
X285619048Y-198295295D01*
X285495238Y-198357200D01*
X285433333Y-198419105D01*
X285309524Y-198604819D01*
X285247619Y-198852438D01*
X285247619Y-199347676D01*
X285309524Y-199471486D01*
X285371429Y-199533390D01*
X285495238Y-199595295D01*
X285742857Y-199595295D01*
X285866667Y-199533390D01*
X285928571Y-199471486D01*
X285990476Y-199347676D01*
X285990476Y-199038152D01*
X285928571Y-198914343D01*
X285866667Y-198852438D01*
X285742857Y-198790533D01*
X285495238Y-198790533D01*
X285371429Y-198852438D01*
X285309524Y-198914343D01*
X285247619Y-199038152D01*
D10*
D11*
X10000000Y-60000000D02*
X12000000Y-60000000D01*
D10*
D11*
X10000000Y-110000000D02*
X12000000Y-110000000D01*
D10*
D11*
X10000000Y-160000000D02*
X12000000Y-160000000D01*
D10*
D11*
X10690476Y-35216667D02*
X11309524Y-35216667D01*
X10566667Y-35588095D02*
X11000000Y-34288095D01*
X11433333Y-35588095D01*
D10*
D11*
X11092857Y-84907143D02*
X11278571Y-84969048D01*
X11340476Y-85030952D01*
X11402381Y-85154762D01*
X11402381Y-85340476D01*
X11340476Y-85464286D01*
X11278571Y-85526190D01*
X11154762Y-85588095D01*
X10659524Y-85588095D01*
X10659524Y-84288095D01*
X11092857Y-84288095D01*
X11216667Y-84350000D01*
X11278571Y-84411905D01*
X11340476Y-84535714D01*
X11340476Y-84659524D01*
X11278571Y-84783333D01*
X11216667Y-84845238D01*
X11092857Y-84907143D01*
X10659524Y-84907143D01*
D10*
D11*
X11402381Y-135464286D02*
X11340476Y-135526190D01*
X11154762Y-135588095D01*
X11030952Y-135588095D01*
X10845238Y-135526190D01*
X10721429Y-135402381D01*
X10659524Y-135278571D01*
X10597619Y-135030952D01*
X10597619Y-134845238D01*
X10659524Y-134597619D01*
X10721429Y-134473810D01*
X10845238Y-134350000D01*
X11030952Y-134288095D01*
X11154762Y-134288095D01*
X11340476Y-134350000D01*
X11402381Y-134411905D01*
D10*
D11*
X10659524Y-185588095D02*
X10659524Y-184288095D01*
X10969048Y-184288095D01*
X11154762Y-184350000D01*
X11278571Y-184473810D01*
X11340476Y-184597619D01*
X11402381Y-184845238D01*
X11402381Y-185030952D01*
X11340476Y-185278571D01*
X11278571Y-185402381D01*
X11154762Y-185526190D01*
X10969048Y-185588095D01*
X10659524Y-185588095D01*
D10*
D11*
X287002200Y-60000000D02*
X285002200Y-60000000D01*
D10*
D11*
X287002200Y-110000000D02*
X285002200Y-110000000D01*
D10*
D11*
X287002200Y-160000000D02*
X285002200Y-160000000D01*
D10*
D11*
X285692676Y-35216667D02*
X286311724Y-35216667D01*
X285568867Y-35588095D02*
X286002200Y-34288095D01*
X286435533Y-35588095D01*
D10*
D11*
X286095057Y-84907143D02*
X286280771Y-84969048D01*
X286342676Y-85030952D01*
X286404581Y-85154762D01*
X286404581Y-85340476D01*
X286342676Y-85464286D01*
X286280771Y-85526190D01*
X286156962Y-85588095D01*
X285661724Y-85588095D01*
X285661724Y-84288095D01*
X286095057Y-84288095D01*
X286218867Y-84350000D01*
X286280771Y-84411905D01*
X286342676Y-84535714D01*
X286342676Y-84659524D01*
X286280771Y-84783333D01*
X286218867Y-84845238D01*
X286095057Y-84907143D01*
X285661724Y-84907143D01*
D10*
D11*
X286404581Y-135464286D02*
X286342676Y-135526190D01*
X286156962Y-135588095D01*
X286033152Y-135588095D01*
X285847438Y-135526190D01*
X285723629Y-135402381D01*
X285661724Y-135278571D01*
X285599819Y-135030952D01*
X285599819Y-134845238D01*
X285661724Y-134597619D01*
X285723629Y-134473810D01*
X285847438Y-134350000D01*
X286033152Y-134288095D01*
X286156962Y-134288095D01*
X286342676Y-134350000D01*
X286404581Y-134411905D01*
D10*
D11*
X285661724Y-185588095D02*
X285661724Y-184288095D01*
X285971248Y-184288095D01*
X286156962Y-184350000D01*
X286280771Y-184473810D01*
X286342676Y-184597619D01*
X286404581Y-184845238D01*
X286404581Y-185030952D01*
X286342676Y-185278571D01*
X286280771Y-185402381D01*
X286156962Y-185526190D01*
X285971248Y-185588095D01*
X285661724Y-185588095D01*
D10*
D11*
X200359343Y-193785771D02*
X200359343Y-192285771D01*
X200716486Y-192285771D01*
X200930771Y-192357200D01*
X201073629Y-192500057D01*
X201145057Y-192642914D01*
X201216486Y-192928629D01*
X201216486Y-193142914D01*
X201145057Y-193428629D01*
X201073629Y-193571486D01*
X200930771Y-193714343D01*
X200716486Y-193785771D01*
X200359343Y-193785771D01*
X202502200Y-193785771D02*
X202502200Y-193000057D01*
X202430771Y-192857200D01*
X202287914Y-192785771D01*
X202002200Y-192785771D01*
X201859343Y-192857200D01*
X202502200Y-193714343D02*
X202359343Y-193785771D01*
X202002200Y-193785771D01*
X201859343Y-193714343D01*
X201787914Y-193571486D01*
X201787914Y-193428629D01*
X201859343Y-193285771D01*
X202002200Y-193214343D01*
X202359343Y-193214343D01*
X202502200Y-193142914D01*
X203002200Y-192785771D02*
X203573629Y-192785771D01*
X203216486Y-192285771D02*
X203216486Y-193571486D01*
X203287914Y-193714343D01*
X203430772Y-193785771D01*
X203573629Y-193785771D01*
X204645057Y-193714343D02*
X204502200Y-193785771D01*
X204216486Y-193785771D01*
X204073629Y-193714343D01*
X204002200Y-193571486D01*
X204002200Y-193000057D01*
X204073629Y-192857200D01*
X204216486Y-192785771D01*
X204502200Y-192785771D01*
X204645057Y-192857200D01*
X204716486Y-193000057D01*
X204716486Y-193142914D01*
X204002200Y-193285771D01*
X205359343Y-193642914D02*
X205430771Y-193714343D01*
X205359343Y-193785771D01*
X205287914Y-193714343D01*
X205359343Y-193642914D01*
X205359343Y-193785771D01*
X205359343Y-192857200D02*
X205430771Y-192928629D01*
X205359343Y-193000057D01*
X205287914Y-192928629D01*
X205359343Y-192857200D01*
X205359343Y-193000057D01*
D10*
D11*
X177002200Y-194507200D02*
X285002200Y-194507200D01*
D10*
D11*
X178359343Y-196585771D02*
X178359343Y-195085771D01*
X179216486Y-196585771D02*
X178573629Y-195728629D01*
X179216486Y-195085771D02*
X178359343Y-195942914D01*
X179859343Y-196585771D02*
X179859343Y-195585771D01*
X179859343Y-195085771D02*
X179787914Y-195157200D01*
X179859343Y-195228629D01*
X179930771Y-195157200D01*
X179859343Y-195085771D01*
X179859343Y-195228629D01*
X181430772Y-196442914D02*
X181359343Y-196514343D01*
X181145057Y-196585771D01*
X181002200Y-196585771D01*
X180787915Y-196514343D01*
X180645057Y-196371486D01*
X180573629Y-196228629D01*
X180502200Y-195942914D01*
X180502200Y-195728629D01*
X180573629Y-195442914D01*
X180645057Y-195300057D01*
X180787915Y-195157200D01*
X181002200Y-195085771D01*
X181145057Y-195085771D01*
X181359343Y-195157200D01*
X181430772Y-195228629D01*
X182716486Y-196585771D02*
X182716486Y-195800057D01*
X182645057Y-195657200D01*
X182502200Y-195585771D01*
X182216486Y-195585771D01*
X182073629Y-195657200D01*
X182716486Y-196514343D02*
X182573629Y-196585771D01*
X182216486Y-196585771D01*
X182073629Y-196514343D01*
X182002200Y-196371486D01*
X182002200Y-196228629D01*
X182073629Y-196085771D01*
X182216486Y-196014343D01*
X182573629Y-196014343D01*
X182716486Y-195942914D01*
X184073629Y-196585771D02*
X184073629Y-195085771D01*
X184073629Y-196514343D02*
X183930772Y-196585771D01*
X183645058Y-196585771D01*
X183502200Y-196514343D01*
X183430772Y-196442914D01*
X183359343Y-196300057D01*
X183359343Y-195871486D01*
X183430772Y-195728629D01*
X183502200Y-195657200D01*
X183645058Y-195585771D01*
X183930772Y-195585771D01*
X184073629Y-195657200D01*
X185930772Y-195800057D02*
X186430772Y-195800057D01*
X186645058Y-196585771D02*
X185930772Y-196585771D01*
X185930772Y-195085771D01*
X186645058Y-195085771D01*
X187287915Y-196442914D02*
X187359343Y-196514343D01*
X187287915Y-196585771D01*
X187216486Y-196514343D01*
X187287915Y-196442914D01*
X187287915Y-196585771D01*
X188002201Y-196585771D02*
X188002201Y-195085771D01*
X188359344Y-195085771D01*
X188573629Y-195157200D01*
X188716487Y-195300057D01*
X188787915Y-195442914D01*
X188859344Y-195728629D01*
X188859344Y-195942914D01*
X188787915Y-196228629D01*
X188716487Y-196371486D01*
X188573629Y-196514343D01*
X188359344Y-196585771D01*
X188002201Y-196585771D01*
X189502201Y-196442914D02*
X189573629Y-196514343D01*
X189502201Y-196585771D01*
X189430772Y-196514343D01*
X189502201Y-196442914D01*
X189502201Y-196585771D01*
X190145058Y-196157200D02*
X190859344Y-196157200D01*
X190002201Y-196585771D02*
X190502201Y-195085771D01*
X191002201Y-196585771D01*
X191502201Y-196442914D02*
X191573629Y-196514343D01*
X191502201Y-196585771D01*
X191430772Y-196514343D01*
X191502201Y-196442914D01*
X191502201Y-196585771D01*
X194502201Y-196585771D02*
X194502201Y-195085771D01*
X194645058Y-196014343D02*
X195073629Y-196585771D01*
X195073629Y-195585771D02*
X194502201Y-196157200D01*
X195716487Y-196585771D02*
X195716487Y-195585771D01*
X195716487Y-195085771D02*
X195645058Y-195157200D01*
X195716487Y-195228629D01*
X195787915Y-195157200D01*
X195716487Y-195085771D01*
X195716487Y-195228629D01*
X197073630Y-196514343D02*
X196930773Y-196585771D01*
X196645059Y-196585771D01*
X196502201Y-196514343D01*
X196430773Y-196442914D01*
X196359344Y-196300057D01*
X196359344Y-195871486D01*
X196430773Y-195728629D01*
X196502201Y-195657200D01*
X196645059Y-195585771D01*
X196930773Y-195585771D01*
X197073630Y-195657200D01*
X198359344Y-196585771D02*
X198359344Y-195800057D01*
X198287915Y-195657200D01*
X198145058Y-195585771D01*
X197859344Y-195585771D01*
X197716487Y-195657200D01*
X198359344Y-196514343D02*
X198216487Y-196585771D01*
X197859344Y-196585771D01*
X197716487Y-196514343D01*
X197645058Y-196371486D01*
X197645058Y-196228629D01*
X197716487Y-196085771D01*
X197859344Y-196014343D01*
X198216487Y-196014343D01*
X198359344Y-195942914D01*
X199716487Y-196585771D02*
X199716487Y-195085771D01*
X199716487Y-196514343D02*
X199573630Y-196585771D01*
X199287916Y-196585771D01*
X199145058Y-196514343D01*
X199073630Y-196442914D01*
X199002201Y-196300057D01*
X199002201Y-195871486D01*
X199073630Y-195728629D01*
X199145058Y-195657200D01*
X199287916Y-195585771D01*
X199573630Y-195585771D01*
X199716487Y-195657200D01*
X202216487Y-195585771D02*
X202216487Y-196585771D01*
X201859344Y-195014343D02*
X201502201Y-196085771D01*
X202430773Y-196085771D01*
X203002201Y-196442914D02*
X203073629Y-196514343D01*
X203002201Y-196585771D01*
X202930772Y-196514343D01*
X203002201Y-196442914D01*
X203002201Y-196585771D01*
X204002201Y-195085771D02*
X204145058Y-195085771D01*
X204287915Y-195157200D01*
X204359344Y-195228629D01*
X204430773Y-195371486D01*
X204502201Y-195657200D01*
X204502201Y-196014343D01*
X204430773Y-196300057D01*
X204359344Y-196442914D01*
X204287915Y-196514343D01*
X204145058Y-196585771D01*
X204002201Y-196585771D01*
X203859344Y-196514343D01*
X203787915Y-196442914D01*
X203716487Y-196300057D01*
X203645058Y-196014343D01*
X203645058Y-195657200D01*
X203716487Y-195371486D01*
X203787915Y-195228629D01*
X203859344Y-195157200D01*
X204002201Y-195085771D01*
X205145058Y-196442914D02*
X205216486Y-196514343D01*
X205145058Y-196585771D01*
X205073629Y-196514343D01*
X205145058Y-196442914D01*
X205145058Y-196585771D01*
X205716487Y-195085771D02*
X206716487Y-195085771D01*
X206073630Y-196585771D01*
X207287915Y-196014343D02*
X208430772Y-196014343D01*
X207859343Y-196585771D02*
X207859343Y-195442914D01*
X209787915Y-196585771D02*
X209787915Y-195085771D01*
X209787915Y-196514343D02*
X209645058Y-196585771D01*
X209359344Y-196585771D01*
X209216486Y-196514343D01*
X209145058Y-196442914D01*
X209073629Y-196300057D01*
X209073629Y-195871486D01*
X209145058Y-195728629D01*
X209216486Y-195657200D01*
X209359344Y-195585771D01*
X209645058Y-195585771D01*
X209787915Y-195657200D01*
X210287915Y-195585771D02*
X210859344Y-195585771D01*
X210502201Y-196585771D02*
X210502201Y-195300057D01*
X210573629Y-195157200D01*
X210716487Y-195085771D01*
X210859344Y-195085771D01*
X211287915Y-196514343D02*
X211430772Y-196585771D01*
X211716487Y-196585771D01*
X211859344Y-196514343D01*
X211930772Y-196371486D01*
X211930772Y-196300057D01*
X211859344Y-196157200D01*
X211716487Y-196085771D01*
X211502201Y-196085771D01*
X211359344Y-196014343D01*
X211287915Y-195871486D01*
X211287915Y-195800057D01*
X211359344Y-195657200D01*
X211502201Y-195585771D01*
X211716487Y-195585771D01*
X211859344Y-195657200D01*
X213216487Y-195585771D02*
X213216487Y-196800057D01*
X213145058Y-196942914D01*
X213073630Y-197014343D01*
X212930773Y-197085771D01*
X212716487Y-197085771D01*
X212573630Y-197014343D01*
X213216487Y-196514343D02*
X213073630Y-196585771D01*
X212787916Y-196585771D01*
X212645058Y-196514343D01*
X212573630Y-196442914D01*
X212502201Y-196300057D01*
X212502201Y-195871486D01*
X212573630Y-195728629D01*
X212645058Y-195657200D01*
X212787916Y-195585771D01*
X213073630Y-195585771D01*
X213216487Y-195657200D01*
X214716487Y-196585771D02*
X213859344Y-196585771D01*
X214287916Y-196585771D02*
X214287916Y-195085771D01*
X214145059Y-195300057D01*
X214002201Y-195442914D01*
X213859344Y-195514343D01*
X215359344Y-196014343D02*
X216502201Y-196014343D01*
X218002201Y-196585771D02*
X217145058Y-196585771D01*
X217573630Y-196585771D02*
X217573630Y-195085771D01*
X217430773Y-195300057D01*
X217287915Y-195442914D01*
X217145058Y-195514343D01*
X218645058Y-196585771D02*
X218645058Y-195085771D01*
X218645058Y-195657200D02*
X218787915Y-195585771D01*
X219073629Y-195585771D01*
X219216486Y-195657200D01*
X219287915Y-195728629D01*
X219359344Y-195871486D01*
X219359344Y-196300057D01*
X219287915Y-196442914D01*
X219216486Y-196514343D01*
X219073629Y-196585771D01*
X218787915Y-196585771D01*
X218645058Y-196514343D01*
X220002201Y-195585771D02*
X220002201Y-197085771D01*
X220002201Y-195657200D02*
X220145058Y-195585771D01*
X220430772Y-195585771D01*
X220573629Y-195657200D01*
X220645058Y-195728629D01*
X220716487Y-195871486D01*
X220716487Y-196300057D01*
X220645058Y-196442914D01*
X220573629Y-196514343D01*
X220430772Y-196585771D01*
X220145058Y-196585771D01*
X220002201Y-196514343D01*
X221573630Y-196585771D02*
X221430772Y-196514343D01*
X221359344Y-196442914D01*
X221287915Y-196300057D01*
X221287915Y-195871486D01*
X221359344Y-195728629D01*
X221430772Y-195657200D01*
X221573630Y-195585771D01*
X221787915Y-195585771D01*
X221930772Y-195657200D01*
X222002201Y-195728629D01*
X222073630Y-195871486D01*
X222073630Y-196300057D01*
X222002201Y-196442914D01*
X221930772Y-196514343D01*
X221787915Y-196585771D01*
X221573630Y-196585771D01*
X222787915Y-196585771D02*
X223073630Y-196585771D01*
X223216487Y-196514343D01*
X223287915Y-196442914D01*
X223430773Y-196228629D01*
X223502201Y-195942914D01*
X223502201Y-195371486D01*
X223430773Y-195228629D01*
X223359344Y-195157200D01*
X223216487Y-195085771D01*
X222930773Y-195085771D01*
X222787915Y-195157200D01*
X222716487Y-195228629D01*
X222645058Y-195371486D01*
X222645058Y-195728629D01*
X222716487Y-195871486D01*
X222787915Y-195942914D01*
X222930773Y-196014343D01*
X223216487Y-196014343D01*
X223359344Y-195942914D01*
X223430773Y-195871486D01*
X223502201Y-195728629D01*
X224145058Y-196014343D02*
X225287915Y-196014343D01*
X224716486Y-196585771D02*
X224716486Y-195442914D01*
X226787915Y-196585771D02*
X225930772Y-196585771D01*
X226359344Y-196585771D02*
X226359344Y-195085771D01*
X226216487Y-195300057D01*
X226073629Y-195442914D01*
X225930772Y-195514343D01*
X218287915Y-194827200D02*
X227073629Y-194827200D01*
D10*
D11*
X177002200Y-191507200D02*
X285002200Y-191507200D01*
D10*
D12*
X264216486Y-193785771D02*
X263716486Y-193071486D01*
X263359343Y-193785771D02*
X263359343Y-192285771D01*
X263930771Y-192285771D01*
X264073629Y-192357200D01*
X264145057Y-192428629D01*
X264216486Y-192571486D01*
X264216486Y-192785771D01*
X264145057Y-192928629D01*
X264073629Y-193000057D01*
X263930771Y-193071486D01*
X263359343Y-193071486D01*
X265430771Y-193714343D02*
X265287914Y-193785771D01*
X265002200Y-193785771D01*
X264859343Y-193714343D01*
X264787914Y-193571486D01*
X264787914Y-193000057D01*
X264859343Y-192857200D01*
X265002200Y-192785771D01*
X265287914Y-192785771D01*
X265430771Y-192857200D01*
X265502200Y-193000057D01*
X265502200Y-193142914D01*
X264787914Y-193285771D01*
X266002200Y-192785771D02*
X266359343Y-193785771D01*
X266716485Y-192785771D01*
X267287914Y-193642914D02*
X267359342Y-193714343D01*
X267287914Y-193785771D01*
X267216485Y-193714343D01*
X267287914Y-193642914D01*
X267287914Y-193785771D01*
X267287914Y-192857200D02*
X267359342Y-192928629D01*
X267287914Y-193000057D01*
X267216485Y-192928629D01*
X267287914Y-192857200D01*
X267287914Y-193000057D01*
D10*
D11*
X178287914Y-193714343D02*
X178502200Y-193785771D01*
X178859343Y-193785771D01*
X179002200Y-193714343D01*
X179073629Y-193642914D01*
X179145057Y-193500057D01*
X179145057Y-193357200D01*
X179073629Y-193214343D01*
X179002200Y-193142914D01*
X178859343Y-193071486D01*
X178573629Y-193000057D01*
X178430771Y-192928629D01*
X178359343Y-192857200D01*
X178287914Y-192714343D01*
X178287914Y-192571486D01*
X178359343Y-192428629D01*
X178430771Y-192357200D01*
X178573629Y-192285771D01*
X178930771Y-192285771D01*
X179145057Y-192357200D01*
X179787914Y-193785771D02*
X179787914Y-192785771D01*
X179787914Y-192285771D02*
X179716485Y-192357200D01*
X179787914Y-192428629D01*
X179859342Y-192357200D01*
X179787914Y-192285771D01*
X179787914Y-192428629D01*
X180359343Y-192785771D02*
X181145057Y-192785771D01*
X180359343Y-193785771D01*
X181145057Y-193785771D01*
X182287914Y-193714343D02*
X182145057Y-193785771D01*
X181859343Y-193785771D01*
X181716486Y-193714343D01*
X181645057Y-193571486D01*
X181645057Y-193000057D01*
X181716486Y-192857200D01*
X181859343Y-192785771D01*
X182145057Y-192785771D01*
X182287914Y-192857200D01*
X182359343Y-193000057D01*
X182359343Y-193142914D01*
X181645057Y-193285771D01*
X183002200Y-193642914D02*
X183073628Y-193714343D01*
X183002200Y-193785771D01*
X182930771Y-193714343D01*
X183002200Y-193642914D01*
X183002200Y-193785771D01*
X183002200Y-192857200D02*
X183073628Y-192928629D01*
X183002200Y-193000057D01*
X182930771Y-192928629D01*
X183002200Y-192857200D01*
X183002200Y-193000057D01*
X184787914Y-193357200D02*
X185502200Y-193357200D01*
X184645057Y-193785771D02*
X185145057Y-192285771D01*
X185645057Y-193785771D01*
X186787914Y-192785771D02*
X186787914Y-193785771D01*
X186430771Y-192214343D02*
X186073628Y-193285771D01*
X187002200Y-193285771D01*
D10*
D11*
X263359343Y-196585771D02*
X263359343Y-195085771D01*
X264716486Y-196585771D02*
X264716486Y-195085771D01*
X264716486Y-196514343D02*
X264573629Y-196585771D01*
X264287915Y-196585771D01*
X264145057Y-196514343D01*
X264073629Y-196442914D01*
X264002200Y-196300057D01*
X264002200Y-195871486D01*
X264073629Y-195728629D01*
X264145057Y-195657200D01*
X264287915Y-195585771D01*
X264573629Y-195585771D01*
X264716486Y-195657200D01*
X265430772Y-196442914D02*
X265502200Y-196514343D01*
X265430772Y-196585771D01*
X265359343Y-196514343D01*
X265430772Y-196442914D01*
X265430772Y-196585771D01*
X265430772Y-195657200D02*
X265502200Y-195728629D01*
X265430772Y-195800057D01*
X265359343Y-195728629D01*
X265430772Y-195657200D01*
X265430772Y-195800057D01*
X268073629Y-196585771D02*
X267216486Y-196585771D01*
X267645058Y-196585771D02*
X267645058Y-195085771D01*
X267502201Y-195300057D01*
X267359343Y-195442914D01*
X267216486Y-195514343D01*
X269787914Y-195014343D02*
X268502200Y-196942914D01*
X271073629Y-196585771D02*
X270216486Y-196585771D01*
X270645058Y-196585771D02*
X270645058Y-195085771D01*
X270502201Y-195300057D01*
X270359343Y-195442914D01*
X270216486Y-195514343D01*
D10*
D11*
X177002200Y-187507200D02*
X285002200Y-187507200D01*
D10*
D13*
X178454581Y-188211962D02*
X179597438Y-188211962D01*
X178776010Y-190211962D02*
X179026010Y-188211962D01*
X180014105Y-190211962D02*
X180180771Y-188878629D01*
X180264105Y-188211962D02*
X180156962Y-188307200D01*
X180240295Y-188402438D01*
X180347439Y-188307200D01*
X180264105Y-188211962D01*
X180240295Y-188402438D01*
X180847438Y-188878629D02*
X181609343Y-188878629D01*
X181216486Y-188211962D02*
X181002200Y-189926248D01*
X181073630Y-190116724D01*
X181252201Y-190211962D01*
X181442677Y-190211962D01*
X182395058Y-190211962D02*
X182216487Y-190116724D01*
X182145057Y-189926248D01*
X182359343Y-188211962D01*
X183930772Y-190116724D02*
X183728391Y-190211962D01*
X183347439Y-190211962D01*
X183168867Y-190116724D01*
X183097438Y-189926248D01*
X183192676Y-189164343D01*
X183311724Y-188973867D01*
X183514105Y-188878629D01*
X183895057Y-188878629D01*
X184073629Y-188973867D01*
X184145057Y-189164343D01*
X184121248Y-189354819D01*
X183145057Y-189545295D01*
X184895057Y-190021486D02*
X184978392Y-190116724D01*
X184871248Y-190211962D01*
X184787915Y-190116724D01*
X184895057Y-190021486D01*
X184871248Y-190211962D01*
X185026010Y-188973867D02*
X185109344Y-189069105D01*
X185002200Y-189164343D01*
X184918867Y-189069105D01*
X185026010Y-188973867D01*
X185002200Y-189164343D01*
D10*
D11*
X178859343Y-185600057D02*
X178359343Y-185600057D01*
X178359343Y-186385771D02*
X178359343Y-184885771D01*
X179073629Y-184885771D01*
X179645057Y-186385771D02*
X179645057Y-185385771D01*
X179645057Y-184885771D02*
X179573628Y-184957200D01*
X179645057Y-185028629D01*
X179716485Y-184957200D01*
X179645057Y-184885771D01*
X179645057Y-185028629D01*
X180573629Y-186385771D02*
X180430771Y-186314343D01*
X180359343Y-186171486D01*
X180359343Y-184885771D01*
X181716485Y-186314343D02*
X181573628Y-186385771D01*
X181287914Y-186385771D01*
X181145057Y-186314343D01*
X181073628Y-186171486D01*
X181073628Y-185600057D01*
X181145057Y-185457200D01*
X181287914Y-185385771D01*
X181573628Y-185385771D01*
X181716485Y-185457200D01*
X181787914Y-185600057D01*
X181787914Y-185742914D01*
X181073628Y-185885771D01*
X182430771Y-186242914D02*
X182502199Y-186314343D01*
X182430771Y-186385771D01*
X182359342Y-186314343D01*
X182430771Y-186242914D01*
X182430771Y-186385771D01*
X182430771Y-185457200D02*
X182502199Y-185528629D01*
X182430771Y-185600057D01*
X182359342Y-185528629D01*
X182430771Y-185457200D01*
X182430771Y-185600057D01*
X184287914Y-186385771D02*
X184287914Y-185385771D01*
X184287914Y-185671486D02*
X184359342Y-185528629D01*
X184430771Y-185457200D01*
X184573628Y-185385771D01*
X184716485Y-185385771D01*
X185002199Y-185385771D02*
X185573628Y-185385771D01*
X185216485Y-186385771D02*
X185216485Y-185100057D01*
X185287913Y-184957200D01*
X185430771Y-184885771D01*
X185573628Y-184885771D01*
X186002199Y-186314343D02*
X186145056Y-186385771D01*
X186430771Y-186385771D01*
X186573628Y-186314343D01*
X186645056Y-186171486D01*
X186645056Y-186100057D01*
X186573628Y-185957200D01*
X186430771Y-185885771D01*
X186216485Y-185885771D01*
X186073628Y-185814343D01*
X186002199Y-185671486D01*
X186002199Y-185600057D01*
X186073628Y-185457200D01*
X186216485Y-185385771D01*
X186430771Y-185385771D01*
X186573628Y-185457200D01*
X187859342Y-186314343D02*
X187716485Y-186385771D01*
X187430771Y-186385771D01*
X187287914Y-186314343D01*
X187216485Y-186171486D01*
X187216485Y-185600057D01*
X187287914Y-185457200D01*
X187430771Y-185385771D01*
X187716485Y-185385771D01*
X187859342Y-185457200D01*
X187930771Y-185600057D01*
X187930771Y-185742914D01*
X187216485Y-185885771D01*
X188573628Y-185385771D02*
X188573628Y-186385771D01*
X188573628Y-185528629D02*
X188645056Y-185457200D01*
X188787914Y-185385771D01*
X189002199Y-185385771D01*
X189145056Y-185457200D01*
X189216485Y-185600057D01*
X189216485Y-186385771D01*
X189859342Y-186314343D02*
X190002199Y-186385771D01*
X190287914Y-186385771D01*
X190430771Y-186314343D01*
X190502199Y-186171486D01*
X190502199Y-186100057D01*
X190430771Y-185957200D01*
X190287914Y-185885771D01*
X190073628Y-185885771D01*
X189930771Y-185814343D01*
X189859342Y-185671486D01*
X189859342Y-185600057D01*
X189930771Y-185457200D01*
X190073628Y-185385771D01*
X190287914Y-185385771D01*
X190430771Y-185457200D01*
X191359343Y-186385771D02*
X191216485Y-186314343D01*
X191145057Y-186242914D01*
X191073628Y-186100057D01*
X191073628Y-185671486D01*
X191145057Y-185528629D01*
X191216485Y-185457200D01*
X191359343Y-185385771D01*
X191573628Y-185385771D01*
X191716485Y-185457200D01*
X191787914Y-185528629D01*
X191859343Y-185671486D01*
X191859343Y-186100057D01*
X191787914Y-186242914D01*
X191716485Y-186314343D01*
X191573628Y-186385771D01*
X191359343Y-186385771D01*
X192502200Y-186385771D02*
X192502200Y-185385771D01*
X192502200Y-185671486D02*
X192573628Y-185528629D01*
X192645057Y-185457200D01*
X192787914Y-185385771D01*
X192930771Y-185385771D01*
X193430771Y-186242914D02*
X193502199Y-186314343D01*
X193430771Y-186385771D01*
X193359342Y-186314343D01*
X193430771Y-186242914D01*
X193430771Y-186385771D01*
X194145057Y-186385771D02*
X194145057Y-184885771D01*
X194287914Y-185814343D02*
X194716485Y-186385771D01*
X194716485Y-185385771D02*
X194145057Y-185957200D01*
X195359343Y-186385771D02*
X195359343Y-185385771D01*
X195359343Y-184885771D02*
X195287914Y-184957200D01*
X195359343Y-185028629D01*
X195430771Y-184957200D01*
X195359343Y-184885771D01*
X195359343Y-185028629D01*
X196716486Y-186314343D02*
X196573629Y-186385771D01*
X196287915Y-186385771D01*
X196145057Y-186314343D01*
X196073629Y-186242914D01*
X196002200Y-186100057D01*
X196002200Y-185671486D01*
X196073629Y-185528629D01*
X196145057Y-185457200D01*
X196287915Y-185385771D01*
X196573629Y-185385771D01*
X196716486Y-185457200D01*
X198002200Y-186385771D02*
X198002200Y-185600057D01*
X197930771Y-185457200D01*
X197787914Y-185385771D01*
X197502200Y-185385771D01*
X197359343Y-185457200D01*
X198002200Y-186314343D02*
X197859343Y-186385771D01*
X197502200Y-186385771D01*
X197359343Y-186314343D01*
X197287914Y-186171486D01*
X197287914Y-186028629D01*
X197359343Y-185885771D01*
X197502200Y-185814343D01*
X197859343Y-185814343D01*
X198002200Y-185742914D01*
X199359343Y-186385771D02*
X199359343Y-184885771D01*
X199359343Y-186314343D02*
X199216486Y-186385771D01*
X198930772Y-186385771D01*
X198787914Y-186314343D01*
X198716486Y-186242914D01*
X198645057Y-186100057D01*
X198645057Y-185671486D01*
X198716486Y-185528629D01*
X198787914Y-185457200D01*
X198930772Y-185385771D01*
X199216486Y-185385771D01*
X199359343Y-185457200D01*
X199716486Y-186528629D02*
X200859343Y-186528629D01*
X201216486Y-185385771D02*
X201216486Y-186885771D01*
X201216486Y-185457200D02*
X201359343Y-185385771D01*
X201645057Y-185385771D01*
X201787914Y-185457200D01*
X201859343Y-185528629D01*
X201930772Y-185671486D01*
X201930772Y-186100057D01*
X201859343Y-186242914D01*
X201787914Y-186314343D01*
X201645057Y-186385771D01*
X201359343Y-186385771D01*
X201216486Y-186314343D01*
X203216486Y-186314343D02*
X203073629Y-186385771D01*
X202787915Y-186385771D01*
X202645057Y-186314343D01*
X202573629Y-186242914D01*
X202502200Y-186100057D01*
X202502200Y-185671486D01*
X202573629Y-185528629D01*
X202645057Y-185457200D01*
X202787915Y-185385771D01*
X203073629Y-185385771D01*
X203216486Y-185457200D01*
X203859343Y-186385771D02*
X203859343Y-184885771D01*
X203859343Y-185457200D02*
X204002200Y-185385771D01*
X204287914Y-185385771D01*
X204430771Y-185457200D01*
X204502200Y-185528629D01*
X204573629Y-185671486D01*
X204573629Y-186100057D01*
X204502200Y-186242914D01*
X204430771Y-186314343D01*
X204287914Y-186385771D01*
X204002200Y-186385771D01*
X203859343Y-186314343D01*
D10*
D11*
X177002200Y-181507200D02*
X285002200Y-181507200D01*
D10*
D11*
X178287914Y-183614343D02*
X178502200Y-183685771D01*
X178859343Y-183685771D01*
X179002200Y-183614343D01*
X179073629Y-183542914D01*
X179145057Y-183400057D01*
X179145057Y-183257200D01*
X179073629Y-183114343D01*
X179002200Y-183042914D01*
X178859343Y-182971486D01*
X178573629Y-182900057D01*
X178430771Y-182828629D01*
X178359343Y-182757200D01*
X178287914Y-182614343D01*
X178287914Y-182471486D01*
X178359343Y-182328629D01*
X178430771Y-182257200D01*
X178573629Y-182185771D01*
X178930771Y-182185771D01*
X179145057Y-182257200D01*
X179787914Y-183685771D02*
X179787914Y-182185771D01*
X180430771Y-183685771D02*
X180430771Y-182900057D01*
X180359342Y-182757200D01*
X180216485Y-182685771D01*
X180002200Y-182685771D01*
X179859342Y-182757200D01*
X179787914Y-182828629D01*
X181716485Y-183614343D02*
X181573628Y-183685771D01*
X181287914Y-183685771D01*
X181145057Y-183614343D01*
X181073628Y-183471486D01*
X181073628Y-182900057D01*
X181145057Y-182757200D01*
X181287914Y-182685771D01*
X181573628Y-182685771D01*
X181716485Y-182757200D01*
X181787914Y-182900057D01*
X181787914Y-183042914D01*
X181073628Y-183185771D01*
X183002199Y-183614343D02*
X182859342Y-183685771D01*
X182573628Y-183685771D01*
X182430771Y-183614343D01*
X182359342Y-183471486D01*
X182359342Y-182900057D01*
X182430771Y-182757200D01*
X182573628Y-182685771D01*
X182859342Y-182685771D01*
X183002199Y-182757200D01*
X183073628Y-182900057D01*
X183073628Y-183042914D01*
X182359342Y-183185771D01*
X183502199Y-182685771D02*
X184073628Y-182685771D01*
X183716485Y-182185771D02*
X183716485Y-183471486D01*
X183787913Y-183614343D01*
X183930771Y-183685771D01*
X184073628Y-183685771D01*
X184573628Y-183542914D02*
X184645056Y-183614343D01*
X184573628Y-183685771D01*
X184502199Y-183614343D01*
X184573628Y-183542914D01*
X184573628Y-183685771D01*
X184573628Y-182757200D02*
X184645056Y-182828629D01*
X184573628Y-182900057D01*
X184502199Y-182828629D01*
X184573628Y-182757200D01*
X184573628Y-182900057D01*
D10*
D11*
X197002200Y-191507200D02*
X197002200Y-194507200D01*
D10*
D11*
X261002200Y-191507200D02*
X261002200Y-198007200D01*
D14*
X107950000Y-78613000D03*
D15*
X107950000Y-81153000D03*
X105410000Y-78613000D03*
X105410000Y-81153000D03*
X102870000Y-78613000D03*
X102870000Y-81153000D03*
X100330000Y-78613000D03*
X100330000Y-81153000D03*
D16*
X101600000Y-59690000D03*
X96520000Y-59690000D03*
X95250000Y-85090000D03*
X100330000Y-62230000D03*
D15*
X97790000Y-62230000D03*
X95250000Y-62230000D03*
D16*
X96520000Y-57150000D03*
D15*
X99060000Y-57150000D03*
X101600000Y-57150000D03*
X104140000Y-57150000D03*
X106680000Y-57150000D03*
X109220000Y-57150000D03*
D16*
X95250000Y-82550000D03*
X95250000Y-64770000D03*
X99060000Y-59690000D03*
D17*
X97901760Y-76504800D03*
X111236760Y-57820560D03*
X96967040Y-86400640D03*
X109748320Y-85933280D03*
X108092240Y-77053440D03*
X108183680Y-68158360D03*
X110266480Y-63972440D03*
X100436680Y-73106280D03*
X99801680Y-68803520D03*
X101310440Y-63606680D03*
X103972360Y-67566540D03*
X109626400Y-83185000D03*
X108483400Y-76174600D03*
X107492800Y-69240400D03*
X105308400Y-75996800D03*
X105201720Y-66781680D03*
X104317800Y-82829400D03*
X103530400Y-82423000D03*
X109347000Y-72618600D03*
X100965000Y-82423000D03*
X108127800Y-74676000D03*
X104236520Y-66761360D03*
X103505000Y-66040000D03*
X105831640Y-65846960D03*
X108000800Y-62529720D03*
X101140260Y-65112900D03*
D18*
X107579160Y-67553840D02*
X108183680Y-68158360D01*
X107579160Y-66659760D02*
X107579160Y-67553840D01*
X110266480Y-63972440D02*
X107579160Y-66659760D01*
X100228400Y-68102480D02*
X99801680Y-68102480D01*
X100523040Y-68397120D02*
X100228400Y-68102480D01*
X100523040Y-73019920D02*
X100523040Y-68397120D01*
X100436680Y-73106280D02*
X100523040Y-73019920D01*
X99801680Y-68803520D02*
X99801680Y-68102480D01*
X96469200Y-64770000D02*
X95250000Y-64770000D01*
X99801680Y-68102480D02*
X96469200Y-64770000D01*
X95250000Y-82550000D02*
X97088960Y-82550000D01*
X103601520Y-67937380D02*
X103972360Y-67566540D01*
X103601520Y-71749920D02*
X103601520Y-67937380D01*
X98005900Y-77345540D02*
X103601520Y-71749920D01*
X98005900Y-81633060D02*
X98005900Y-77345540D01*
X97088960Y-82550000D02*
X98005900Y-81633060D01*
X109626400Y-77317600D02*
X109626400Y-83185000D01*
X108483400Y-76174600D02*
X109626400Y-77317600D01*
X107086400Y-69240400D02*
X107492800Y-69240400D01*
X105410000Y-70916800D02*
X107086400Y-69240400D01*
X105410000Y-75895200D02*
X105410000Y-70916800D01*
X105308400Y-75996800D02*
X105410000Y-75895200D01*
X95250000Y-85090000D02*
X95453200Y-85090000D01*
X95453200Y-85090000D02*
X98673920Y-81869280D01*
X98673920Y-81869280D02*
X98673920Y-77431900D01*
X98673920Y-77431900D02*
X104104440Y-72001380D01*
X104104440Y-72001380D02*
X104104440Y-69095620D01*
X104104440Y-69095620D02*
X105201720Y-67998340D01*
X105201720Y-67998340D02*
X105201720Y-66781680D01*
X105410000Y-78613000D02*
X105410000Y-78943200D01*
X105410000Y-78943200D02*
X106629200Y-80162400D01*
X106146600Y-82829400D02*
X104317800Y-82829400D01*
X106629200Y-82346800D02*
X106146600Y-82829400D01*
X106629200Y-80162400D02*
X106629200Y-82346800D01*
X105410000Y-78613000D02*
X105410000Y-78892400D01*
X105410000Y-81153000D02*
X104800400Y-81153000D01*
X104800400Y-81153000D02*
X103530400Y-82423000D01*
X105410000Y-81153000D02*
X105410000Y-81203800D01*
X104216200Y-77266800D02*
X102870000Y-78613000D01*
X106197400Y-77266800D02*
X104216200Y-77266800D01*
X107696000Y-75768200D02*
X106197400Y-77266800D01*
X107975400Y-75768200D02*
X107696000Y-75768200D01*
X108940600Y-74803000D02*
X107975400Y-75768200D01*
X108940600Y-73025000D02*
X108940600Y-74803000D01*
X109347000Y-72618600D02*
X108940600Y-73025000D01*
X102870000Y-81153000D02*
X102235000Y-81153000D01*
X102235000Y-81153000D02*
X100965000Y-82423000D01*
X100330000Y-77647800D02*
X100330000Y-78613000D01*
X101168200Y-76809600D02*
X100330000Y-77647800D01*
X105994200Y-76809600D02*
X101168200Y-76809600D01*
X108127800Y-74676000D02*
X105994200Y-76809600D01*
X104140000Y-64455040D02*
X104140000Y-57150000D01*
X102854760Y-65740280D02*
X104140000Y-64455040D01*
X102854760Y-66339720D02*
X102854760Y-65740280D01*
X103276400Y-66761360D02*
X102854760Y-66339720D01*
X104236520Y-66761360D02*
X103276400Y-66761360D01*
X103505000Y-66040000D02*
X104648000Y-66040000D01*
X106680000Y-64008000D02*
X106680000Y-57150000D01*
X104648000Y-66040000D02*
X106680000Y-64008000D01*
X107177840Y-64500760D02*
X105831640Y-65846960D01*
X107177840Y-63352680D02*
X107177840Y-64500760D01*
X108000800Y-62529720D02*
X107177840Y-63352680D01*
X99060000Y-63032640D02*
X99060000Y-59690000D01*
X101140260Y-65112900D02*
X99060000Y-63032640D01*
D10*
G36*
X111700000Y-87500000D02*
X94100000Y-87500000D01*
X94100000Y-82767844D01*
X94149810Y-82767844D01*
X94316922Y-83172286D01*
X94626087Y-83481991D01*
X95030237Y-83649808D01*
X95467844Y-83650190D01*
X95872286Y-83483078D01*
X96181991Y-83173913D01*
X96285348Y-82925000D01*
X97087870Y-82925000D01*
X95860451Y-84152419D01*
X95469763Y-83990192D01*
X95032156Y-83989810D01*
X94627714Y-84156922D01*
X94318009Y-84466087D01*
X94150192Y-84870237D01*
X94149810Y-85307844D01*
X94316922Y-85712286D01*
X94626087Y-86021991D01*
X95030237Y-86189808D01*
X95467844Y-86190190D01*
X95872286Y-86023078D01*
X96181991Y-85713913D01*
X96349808Y-85309763D01*
X96350190Y-84872156D01*
X96306679Y-84766851D01*
X98939085Y-82134445D01*
X99020375Y-82012787D01*
X99048920Y-81869280D01*
X99048920Y-78591450D01*
X99230000Y-78591450D01*
X99230000Y-78634550D01*
X99313733Y-79055502D01*
X99552183Y-79412367D01*
X99909048Y-79650817D01*
X100330000Y-79734550D01*
X100750952Y-79650817D01*
X101107817Y-79412367D01*
X101346267Y-79055502D01*
X101430000Y-78634550D01*
X101430000Y-78591450D01*
X101346267Y-78170498D01*
X101107817Y-77813633D01*
X100860050Y-77648080D01*
X101323530Y-77184600D01*
X103768070Y-77184600D01*
X103342826Y-77609844D01*
X103290952Y-77575183D01*
X102870000Y-77491450D01*
X102449048Y-77575183D01*
X102092183Y-77813633D01*
X101853733Y-78170498D01*
X101770000Y-78591450D01*
X101770000Y-78634550D01*
X101853733Y-79055502D01*
X102092183Y-79412367D01*
X102449048Y-79650817D01*
X102870000Y-79734550D01*
X103290952Y-79650817D01*
X103647817Y-79412367D01*
X103886267Y-79055502D01*
X103970000Y-78634550D01*
X103970000Y-78591450D01*
X103886267Y-78170498D01*
X103868869Y-78144461D01*
X104371530Y-77641800D01*
X104889349Y-77641800D01*
X104632183Y-77813633D01*
X104393733Y-78170498D01*
X104310000Y-78591450D01*
X104310000Y-78634550D01*
X104393733Y-79055502D01*
X104632183Y-79412367D01*
X104989048Y-79650817D01*
X105410000Y-79734550D01*
X105627714Y-79691244D01*
X106254200Y-80317730D01*
X106254200Y-80452982D01*
X106187817Y-80353633D01*
X105830952Y-80115183D01*
X105410000Y-80031450D01*
X104989048Y-80115183D01*
X104632183Y-80353633D01*
X104393733Y-80710498D01*
X104314564Y-81108506D01*
X103900842Y-81522228D01*
X103970000Y-81174550D01*
X103970000Y-81131450D01*
X103886267Y-80710498D01*
X103647817Y-80353633D01*
X103290952Y-80115183D01*
X102870000Y-80031450D01*
X102449048Y-80115183D01*
X102092183Y-80353633D01*
X101853733Y-80710498D01*
X101780871Y-81076799D01*
X101367149Y-81490521D01*
X101430000Y-81174550D01*
X101430000Y-81131450D01*
X101346267Y-80710498D01*
X101107817Y-80353633D01*
X100750952Y-80115183D01*
X100330000Y-80031450D01*
X99909048Y-80115183D01*
X99552183Y-80353633D01*
X99313733Y-80710498D01*
X99230000Y-81131450D01*
X99230000Y-81174550D01*
X99313733Y-81595502D01*
X99552183Y-81952367D01*
X99909048Y-82190817D01*
X100330000Y-82274550D01*
X100440214Y-82252627D01*
X100415096Y-82313118D01*
X100414905Y-82531922D01*
X100498461Y-82734143D01*
X100653043Y-82888995D01*
X100855118Y-82972904D01*
X101073922Y-82973095D01*
X101276143Y-82889539D01*
X101430995Y-82734957D01*
X101514904Y-82532882D01*
X101515017Y-82403313D01*
X102041626Y-81876704D01*
X102092183Y-81952367D01*
X102449048Y-82190817D01*
X102870000Y-82274550D01*
X103007901Y-82247120D01*
X102980496Y-82313118D01*
X102980305Y-82531922D01*
X103063861Y-82734143D01*
X103218443Y-82888995D01*
X103420518Y-82972904D01*
X103639322Y-82973095D01*
X103767721Y-82920042D01*
X103767705Y-82938322D01*
X103851261Y-83140543D01*
X104005843Y-83295395D01*
X104207918Y-83379304D01*
X104426722Y-83379495D01*
X104628943Y-83295939D01*
X104720642Y-83204400D01*
X106146600Y-83204400D01*
X106290107Y-83175855D01*
X106411765Y-83094565D01*
X106894365Y-82611965D01*
X106935769Y-82550000D01*
X106975655Y-82490306D01*
X107004200Y-82346800D01*
X107004200Y-81700963D01*
X107172183Y-81952367D01*
X107529048Y-82190817D01*
X107950000Y-82274550D01*
X108370952Y-82190817D01*
X108727817Y-81952367D01*
X108966267Y-81595502D01*
X109050000Y-81174550D01*
X109050000Y-81131450D01*
X108966267Y-80710498D01*
X108727817Y-80353633D01*
X108370952Y-80115183D01*
X107950000Y-80031450D01*
X107529048Y-80115183D01*
X107172183Y-80353633D01*
X107004200Y-80605037D01*
X107004200Y-80162400D01*
X106975655Y-80018894D01*
X106975655Y-80018893D01*
X106894365Y-79897235D01*
X106276610Y-79279480D01*
X106426267Y-79055502D01*
X106486438Y-78753000D01*
X106850000Y-78753000D01*
X106850000Y-79512728D01*
X106888060Y-79604614D01*
X106958386Y-79674940D01*
X107050272Y-79713000D01*
X107810000Y-79713000D01*
X107872500Y-79650500D01*
X107872500Y-78690500D01*
X108027500Y-78690500D01*
X108027500Y-79650500D01*
X108090000Y-79713000D01*
X108849728Y-79713000D01*
X108941614Y-79674940D01*
X109011940Y-79604614D01*
X109050000Y-79512728D01*
X109050000Y-78753000D01*
X108987500Y-78690500D01*
X108027500Y-78690500D01*
X107872500Y-78690500D01*
X106912500Y-78690500D01*
X106850000Y-78753000D01*
X106486438Y-78753000D01*
X106510000Y-78634550D01*
X106510000Y-78591450D01*
X106426267Y-78170498D01*
X106187817Y-77813633D01*
X106037617Y-77713272D01*
X106850000Y-77713272D01*
X106850000Y-78473000D01*
X106912500Y-78535500D01*
X107872500Y-78535500D01*
X107872500Y-77575500D01*
X108027500Y-77575500D01*
X108027500Y-78535500D01*
X108987500Y-78535500D01*
X109050000Y-78473000D01*
X109050000Y-77713272D01*
X109011940Y-77621386D01*
X108941614Y-77551060D01*
X108849728Y-77513000D01*
X108090000Y-77513000D01*
X108027500Y-77575500D01*
X107872500Y-77575500D01*
X107810000Y-77513000D01*
X107050272Y-77513000D01*
X106958386Y-77551060D01*
X106888060Y-77621386D01*
X106850000Y-77713272D01*
X106037617Y-77713272D01*
X105930651Y-77641800D01*
X106197400Y-77641800D01*
X106340907Y-77613255D01*
X106462565Y-77531965D01*
X107851330Y-76143200D01*
X107933427Y-76143200D01*
X107933305Y-76283522D01*
X108016861Y-76485743D01*
X108171443Y-76640595D01*
X108373518Y-76724504D01*
X108503087Y-76724617D01*
X109251400Y-77472930D01*
X109251400Y-82782207D01*
X109160405Y-82873043D01*
X109076496Y-83075118D01*
X109076305Y-83293922D01*
X109159861Y-83496143D01*
X109314443Y-83650995D01*
X109516518Y-83734904D01*
X109735322Y-83735095D01*
X109937543Y-83651539D01*
X110092395Y-83496957D01*
X110176304Y-83294882D01*
X110176495Y-83076078D01*
X110092939Y-82873857D01*
X110001400Y-82782158D01*
X110001400Y-77317600D01*
X109978413Y-77202034D01*
X109972855Y-77174093D01*
X109891565Y-77052435D01*
X109033383Y-76194253D01*
X109033495Y-76065678D01*
X108949939Y-75863457D01*
X108795357Y-75708605D01*
X108632817Y-75641113D01*
X109205765Y-75068165D01*
X109287055Y-74946507D01*
X109315600Y-74803000D01*
X109315600Y-73180330D01*
X109327347Y-73168583D01*
X109455922Y-73168695D01*
X109658143Y-73085139D01*
X109812995Y-72930557D01*
X109896904Y-72728482D01*
X109897095Y-72509678D01*
X109813539Y-72307457D01*
X109658957Y-72152605D01*
X109456882Y-72068696D01*
X109238078Y-72068505D01*
X109035857Y-72152061D01*
X108881005Y-72306643D01*
X108797096Y-72508718D01*
X108796983Y-72638287D01*
X108675435Y-72759835D01*
X108594145Y-72881493D01*
X108594145Y-72881494D01*
X108565600Y-73025000D01*
X108565600Y-74336068D01*
X108439757Y-74210005D01*
X108237682Y-74126096D01*
X108018878Y-74125905D01*
X107816657Y-74209461D01*
X107661805Y-74364043D01*
X107577896Y-74566118D01*
X107577783Y-74695687D01*
X105838870Y-76434600D01*
X105648332Y-76434600D01*
X105774395Y-76308757D01*
X105858304Y-76106682D01*
X105858495Y-75887878D01*
X105785000Y-75710006D01*
X105785000Y-71072130D01*
X107165802Y-69691328D01*
X107180843Y-69706395D01*
X107382918Y-69790304D01*
X107601722Y-69790495D01*
X107803943Y-69706939D01*
X107958795Y-69552357D01*
X108042704Y-69350282D01*
X108042895Y-69131478D01*
X107959339Y-68929257D01*
X107804757Y-68774405D01*
X107602682Y-68690496D01*
X107383878Y-68690305D01*
X107181657Y-68773861D01*
X107089958Y-68865400D01*
X107086400Y-68865400D01*
X106942894Y-68893945D01*
X106821235Y-68975235D01*
X105144835Y-70651635D01*
X105063545Y-70773293D01*
X105063545Y-70773294D01*
X105035000Y-70916800D01*
X105035000Y-75514666D01*
X104997257Y-75530261D01*
X104842405Y-75684843D01*
X104758496Y-75886918D01*
X104758305Y-76105722D01*
X104841861Y-76307943D01*
X104968297Y-76434600D01*
X101168200Y-76434600D01*
X101024694Y-76463145D01*
X100903035Y-76544435D01*
X100064835Y-77382635D01*
X99983545Y-77504293D01*
X99983545Y-77504294D01*
X99971932Y-77562674D01*
X99909048Y-77575183D01*
X99552183Y-77813633D01*
X99313733Y-78170498D01*
X99230000Y-78591450D01*
X99048920Y-78591450D01*
X99048920Y-77587230D01*
X104369605Y-72266545D01*
X104450895Y-72144887D01*
X104479440Y-72001380D01*
X104479440Y-69250950D01*
X105466885Y-68263505D01*
X105548175Y-68141847D01*
X105576720Y-67998340D01*
X105576720Y-67184473D01*
X105667715Y-67093637D01*
X105751624Y-66891562D01*
X105751815Y-66672758D01*
X105668259Y-66470537D01*
X105513677Y-66315685D01*
X105311602Y-66231776D01*
X105092798Y-66231585D01*
X104910644Y-66306849D01*
X104913165Y-66305165D01*
X105281562Y-65936768D01*
X105281545Y-65955882D01*
X105365101Y-66158103D01*
X105519683Y-66312955D01*
X105721758Y-66396864D01*
X105940562Y-66397055D01*
X106142783Y-66313499D01*
X106297635Y-66158917D01*
X106381544Y-65956842D01*
X106381657Y-65827273D01*
X107443005Y-64765925D01*
X107524295Y-64644267D01*
X107552840Y-64500760D01*
X107552840Y-63508010D01*
X107981147Y-63079703D01*
X108109722Y-63079815D01*
X108311943Y-62996259D01*
X108466795Y-62841677D01*
X108550704Y-62639602D01*
X108550895Y-62420798D01*
X108467339Y-62218577D01*
X108312757Y-62063725D01*
X108110682Y-61979816D01*
X107891878Y-61979625D01*
X107689657Y-62063181D01*
X107534805Y-62217763D01*
X107450896Y-62419838D01*
X107450783Y-62549407D01*
X107055000Y-62945190D01*
X107055000Y-58196957D01*
X107100952Y-58187817D01*
X107457817Y-57949367D01*
X107696267Y-57592502D01*
X107780000Y-57171550D01*
X107780000Y-57128450D01*
X108120000Y-57128450D01*
X108120000Y-57171550D01*
X108203733Y-57592502D01*
X108442183Y-57949367D01*
X108799048Y-58187817D01*
X109220000Y-58271550D01*
X109640952Y-58187817D01*
X109997817Y-57949367D01*
X110236267Y-57592502D01*
X110320000Y-57171550D01*
X110320000Y-57128450D01*
X110236267Y-56707498D01*
X109997817Y-56350633D01*
X109640952Y-56112183D01*
X109220000Y-56028450D01*
X108799048Y-56112183D01*
X108442183Y-56350633D01*
X108203733Y-56707498D01*
X108120000Y-57128450D01*
X107780000Y-57128450D01*
X107696267Y-56707498D01*
X107457817Y-56350633D01*
X107100952Y-56112183D01*
X106680000Y-56028450D01*
X106259048Y-56112183D01*
X105902183Y-56350633D01*
X105663733Y-56707498D01*
X105580000Y-57128450D01*
X105580000Y-57171550D01*
X105663733Y-57592502D01*
X105902183Y-57949367D01*
X106259048Y-58187817D01*
X106305000Y-58196957D01*
X106305000Y-63852670D01*
X104492670Y-65665000D01*
X103907793Y-65665000D01*
X103816957Y-65574005D01*
X103629291Y-65496079D01*
X104405165Y-64720205D01*
X104486455Y-64598547D01*
X104515000Y-64455040D01*
X104515000Y-58196957D01*
X104560952Y-58187817D01*
X104917817Y-57949367D01*
X105156267Y-57592502D01*
X105240000Y-57171550D01*
X105240000Y-57128450D01*
X105156267Y-56707498D01*
X104917817Y-56350633D01*
X104560952Y-56112183D01*
X104140000Y-56028450D01*
X103719048Y-56112183D01*
X103362183Y-56350633D01*
X103123733Y-56707498D01*
X103040000Y-57128450D01*
X103040000Y-57171550D01*
X103123733Y-57592502D01*
X103362183Y-57949367D01*
X103719048Y-58187817D01*
X103765000Y-58196957D01*
X103765000Y-64299710D01*
X102589595Y-65475115D01*
X102508305Y-65596773D01*
X102508305Y-65596774D01*
X102479760Y-65740280D01*
X102479760Y-66339720D01*
X102508305Y-66483227D01*
X102589595Y-66604885D01*
X103011235Y-67026525D01*
X103132893Y-67107815D01*
X103276400Y-67136360D01*
X103624794Y-67136360D01*
X103506365Y-67254583D01*
X103422456Y-67456658D01*
X103422343Y-67586227D01*
X103336355Y-67672215D01*
X103255065Y-67793873D01*
X103226520Y-67937380D01*
X103226520Y-71594590D01*
X98444071Y-76377039D01*
X98368299Y-76193657D01*
X98213717Y-76038805D01*
X98011642Y-75954896D01*
X97792838Y-75954705D01*
X97590617Y-76038261D01*
X97435765Y-76192843D01*
X97351856Y-76394918D01*
X97351665Y-76613722D01*
X97435221Y-76815943D01*
X97589803Y-76970795D01*
X97773880Y-77047230D01*
X97740735Y-77080375D01*
X97659445Y-77202033D01*
X97659445Y-77202034D01*
X97630900Y-77345540D01*
X97630900Y-81477730D01*
X96933630Y-82175000D01*
X96285254Y-82175000D01*
X96183078Y-81927714D01*
X95873913Y-81618009D01*
X95469763Y-81450192D01*
X95032156Y-81449810D01*
X94627714Y-81616922D01*
X94318009Y-81926087D01*
X94150192Y-82330237D01*
X94149810Y-82767844D01*
X94100000Y-82767844D01*
X94100000Y-81330000D01*
X97155000Y-81330000D01*
X97173173Y-81326581D01*
X97189864Y-81315840D01*
X97201061Y-81299453D01*
X97205000Y-81280000D01*
X97205000Y-66040000D01*
X97201581Y-66021827D01*
X97190840Y-66005136D01*
X97174453Y-65993939D01*
X97155000Y-65990000D01*
X94100000Y-65990000D01*
X94100000Y-65571655D01*
X94557947Y-65571655D01*
X94655045Y-65720738D01*
X95064164Y-65876047D01*
X95501575Y-65862970D01*
X95844955Y-65720738D01*
X95942053Y-65571655D01*
X95250000Y-64879602D01*
X94557947Y-65571655D01*
X94100000Y-65571655D01*
X94100000Y-64584164D01*
X94143953Y-64584164D01*
X94157030Y-65021575D01*
X94299262Y-65364955D01*
X94448345Y-65462053D01*
X95140398Y-64770000D01*
X95359602Y-64770000D01*
X96051655Y-65462053D01*
X96200738Y-65364955D01*
X96356047Y-64955836D01*
X96342970Y-64518425D01*
X96200738Y-64175045D01*
X96051655Y-64077947D01*
X95359602Y-64770000D01*
X95140398Y-64770000D01*
X94448345Y-64077947D01*
X94299262Y-64175045D01*
X94143953Y-64584164D01*
X94100000Y-64584164D01*
X94100000Y-63968345D01*
X94557947Y-63968345D01*
X95250000Y-64660398D01*
X95942053Y-63968345D01*
X95844955Y-63819262D01*
X95435836Y-63663953D01*
X94998425Y-63677030D01*
X94655045Y-63819262D01*
X94557947Y-63968345D01*
X94100000Y-63968345D01*
X94100000Y-62478197D01*
X94178359Y-62478197D01*
X94354914Y-62869403D01*
X94667737Y-63163266D01*
X95001804Y-63301633D01*
X95172500Y-63264601D01*
X95172500Y-62307500D01*
X95327500Y-62307500D01*
X95327500Y-63264601D01*
X95498196Y-63301633D01*
X95832263Y-63163266D01*
X96145086Y-62869403D01*
X96321641Y-62478197D01*
X96284774Y-62307500D01*
X95327500Y-62307500D01*
X95172500Y-62307500D01*
X94215226Y-62307500D01*
X94178359Y-62478197D01*
X94100000Y-62478197D01*
X94100000Y-62208450D01*
X96690000Y-62208450D01*
X96690000Y-62251550D01*
X96773733Y-62672502D01*
X97012183Y-63029367D01*
X97369048Y-63267817D01*
X97790000Y-63351550D01*
X98210952Y-63267817D01*
X98567817Y-63029367D01*
X98685000Y-62853991D01*
X98685000Y-63032640D01*
X98713545Y-63176147D01*
X98794835Y-63297805D01*
X100590277Y-65093247D01*
X100590165Y-65221822D01*
X100673721Y-65424043D01*
X100828303Y-65578895D01*
X101030378Y-65662804D01*
X101249182Y-65662995D01*
X101451403Y-65579439D01*
X101606255Y-65424857D01*
X101690164Y-65222782D01*
X101690355Y-65003978D01*
X101606799Y-64801757D01*
X101452217Y-64646905D01*
X101250142Y-64562996D01*
X101120573Y-64562883D01*
X99729334Y-63171644D01*
X100110237Y-63329808D01*
X100547844Y-63330190D01*
X100952286Y-63163078D01*
X101261991Y-62853913D01*
X101429808Y-62449763D01*
X101430190Y-62012156D01*
X101263078Y-61607714D01*
X100953913Y-61298009D01*
X100549763Y-61130192D01*
X100112156Y-61129810D01*
X99707714Y-61296922D01*
X99435000Y-61569160D01*
X99435000Y-60725254D01*
X99682286Y-60623078D01*
X99991991Y-60313913D01*
X100159808Y-59909763D01*
X100159809Y-59907844D01*
X100499810Y-59907844D01*
X100666922Y-60312286D01*
X100976087Y-60621991D01*
X101380237Y-60789808D01*
X101817844Y-60790190D01*
X102222286Y-60623078D01*
X102531991Y-60313913D01*
X102699808Y-59909763D01*
X102700190Y-59472156D01*
X102533078Y-59067714D01*
X102223913Y-58758009D01*
X101819763Y-58590192D01*
X101382156Y-58589810D01*
X100977714Y-58756922D01*
X100668009Y-59066087D01*
X100500192Y-59470237D01*
X100499810Y-59907844D01*
X100159809Y-59907844D01*
X100160190Y-59472156D01*
X99993078Y-59067714D01*
X99683913Y-58758009D01*
X99279763Y-58590192D01*
X98842156Y-58589810D01*
X98437714Y-58756922D01*
X98128009Y-59066087D01*
X97960192Y-59470237D01*
X97959810Y-59907844D01*
X98126922Y-60312286D01*
X98436087Y-60621991D01*
X98685000Y-60725348D01*
X98685000Y-61606009D01*
X98567817Y-61430633D01*
X98210952Y-61192183D01*
X97790000Y-61108450D01*
X97369048Y-61192183D01*
X97012183Y-61430633D01*
X96773733Y-61787498D01*
X96690000Y-62208450D01*
X94100000Y-62208450D01*
X94100000Y-61981803D01*
X94178359Y-61981803D01*
X94215226Y-62152500D01*
X95172500Y-62152500D01*
X95172500Y-61195399D01*
X95327500Y-61195399D01*
X95327500Y-62152500D01*
X96284774Y-62152500D01*
X96321641Y-61981803D01*
X96145086Y-61590597D01*
X95832263Y-61296734D01*
X95498196Y-61158367D01*
X95327500Y-61195399D01*
X95172500Y-61195399D01*
X95001804Y-61158367D01*
X94667737Y-61296734D01*
X94354914Y-61590597D01*
X94178359Y-61981803D01*
X94100000Y-61981803D01*
X94100000Y-60491655D01*
X95827947Y-60491655D01*
X95925045Y-60640738D01*
X96334164Y-60796047D01*
X96771575Y-60782970D01*
X97114955Y-60640738D01*
X97212053Y-60491655D01*
X96520000Y-59799602D01*
X95827947Y-60491655D01*
X94100000Y-60491655D01*
X94100000Y-59504164D01*
X95413953Y-59504164D01*
X95427030Y-59941575D01*
X95569262Y-60284955D01*
X95718345Y-60382053D01*
X96410398Y-59690000D01*
X96629602Y-59690000D01*
X97321655Y-60382053D01*
X97470738Y-60284955D01*
X97626047Y-59875836D01*
X97612970Y-59438425D01*
X97470738Y-59095045D01*
X97321655Y-58997947D01*
X96629602Y-59690000D01*
X96410398Y-59690000D01*
X95718345Y-58997947D01*
X95569262Y-59095045D01*
X95413953Y-59504164D01*
X94100000Y-59504164D01*
X94100000Y-58888345D01*
X95827947Y-58888345D01*
X96520000Y-59580398D01*
X97212053Y-58888345D01*
X97114955Y-58739262D01*
X96705836Y-58583953D01*
X96268425Y-58597030D01*
X95925045Y-58739262D01*
X95827947Y-58888345D01*
X94100000Y-58888345D01*
X94100000Y-57951655D01*
X95827947Y-57951655D01*
X95925045Y-58100738D01*
X96334164Y-58256047D01*
X96771575Y-58242970D01*
X97114955Y-58100738D01*
X97212053Y-57951655D01*
X96520000Y-57259602D01*
X95827947Y-57951655D01*
X94100000Y-57951655D01*
X94100000Y-56964164D01*
X95413953Y-56964164D01*
X95427030Y-57401575D01*
X95569262Y-57744955D01*
X95718345Y-57842053D01*
X96410398Y-57150000D01*
X96629602Y-57150000D01*
X97321655Y-57842053D01*
X97470738Y-57744955D01*
X97602373Y-57398197D01*
X97988359Y-57398197D01*
X98164914Y-57789403D01*
X98477737Y-58083266D01*
X98811804Y-58221633D01*
X98982500Y-58184601D01*
X98982500Y-57227500D01*
X99137500Y-57227500D01*
X99137500Y-58184601D01*
X99308196Y-58221633D01*
X99642263Y-58083266D01*
X99955086Y-57789403D01*
X100131641Y-57398197D01*
X100094774Y-57227500D01*
X99137500Y-57227500D01*
X98982500Y-57227500D01*
X98025226Y-57227500D01*
X97988359Y-57398197D01*
X97602373Y-57398197D01*
X97626047Y-57335836D01*
X97619847Y-57128450D01*
X100500000Y-57128450D01*
X100500000Y-57171550D01*
X100583733Y-57592502D01*
X100822183Y-57949367D01*
X101179048Y-58187817D01*
X101600000Y-58271550D01*
X102020952Y-58187817D01*
X102377817Y-57949367D01*
X102616267Y-57592502D01*
X102700000Y-57171550D01*
X102700000Y-57128450D01*
X102616267Y-56707498D01*
X102377817Y-56350633D01*
X102020952Y-56112183D01*
X101600000Y-56028450D01*
X101179048Y-56112183D01*
X100822183Y-56350633D01*
X100583733Y-56707498D01*
X100500000Y-57128450D01*
X97619847Y-57128450D01*
X97613071Y-56901803D01*
X97988359Y-56901803D01*
X98025226Y-57072500D01*
X98982500Y-57072500D01*
X98982500Y-56115399D01*
X99137500Y-56115399D01*
X99137500Y-57072500D01*
X100094774Y-57072500D01*
X100131641Y-56901803D01*
X99955086Y-56510597D01*
X99642263Y-56216734D01*
X99308196Y-56078367D01*
X99137500Y-56115399D01*
X98982500Y-56115399D01*
X98811804Y-56078367D01*
X98477737Y-56216734D01*
X98164914Y-56510597D01*
X97988359Y-56901803D01*
X97613071Y-56901803D01*
X97612970Y-56898425D01*
X97470738Y-56555045D01*
X97321655Y-56457947D01*
X96629602Y-57150000D01*
X96410398Y-57150000D01*
X95718345Y-56457947D01*
X95569262Y-56555045D01*
X95413953Y-56964164D01*
X94100000Y-56964164D01*
X94100000Y-56348345D01*
X95827947Y-56348345D01*
X96520000Y-57040398D01*
X97212053Y-56348345D01*
X97114955Y-56199262D01*
X96705836Y-56043953D01*
X96268425Y-56057030D01*
X95925045Y-56199262D01*
X95827947Y-56348345D01*
X94100000Y-56348345D01*
X94100000Y-55900000D01*
X111700000Y-55900000D01*
X111700000Y-87500000D01*
X111700000Y-87500000D01*
G37*
X111700000Y-87500000D02*
X94100000Y-87500000D01*
X94100000Y-82767844D01*
X94149810Y-82767844D01*
X94316922Y-83172286D01*
X94626087Y-83481991D01*
X95030237Y-83649808D01*
X95467844Y-83650190D01*
X95872286Y-83483078D01*
X96181991Y-83173913D01*
X96285348Y-82925000D01*
X97087870Y-82925000D01*
X95860451Y-84152419D01*
X95469763Y-83990192D01*
X95032156Y-83989810D01*
X94627714Y-84156922D01*
X94318009Y-84466087D01*
X94150192Y-84870237D01*
X94149810Y-85307844D01*
X94316922Y-85712286D01*
X94626087Y-86021991D01*
X95030237Y-86189808D01*
X95467844Y-86190190D01*
X95872286Y-86023078D01*
X96181991Y-85713913D01*
X96349808Y-85309763D01*
X96350190Y-84872156D01*
X96306679Y-84766851D01*
X98939085Y-82134445D01*
X99020375Y-82012787D01*
X99048920Y-81869280D01*
X99048920Y-78591450D01*
X99230000Y-78591450D01*
X99230000Y-78634550D01*
X99313733Y-79055502D01*
X99552183Y-79412367D01*
X99909048Y-79650817D01*
X100330000Y-79734550D01*
X100750952Y-79650817D01*
X101107817Y-79412367D01*
X101346267Y-79055502D01*
X101430000Y-78634550D01*
X101430000Y-78591450D01*
X101346267Y-78170498D01*
X101107817Y-77813633D01*
X100860050Y-77648080D01*
X101323530Y-77184600D01*
X103768070Y-77184600D01*
X103342826Y-77609844D01*
X103290952Y-77575183D01*
X102870000Y-77491450D01*
X102449048Y-77575183D01*
X102092183Y-77813633D01*
X101853733Y-78170498D01*
X101770000Y-78591450D01*
X101770000Y-78634550D01*
X101853733Y-79055502D01*
X102092183Y-79412367D01*
X102449048Y-79650817D01*
X102870000Y-79734550D01*
X103290952Y-79650817D01*
X103647817Y-79412367D01*
X103886267Y-79055502D01*
X103970000Y-78634550D01*
X103970000Y-78591450D01*
X103886267Y-78170498D01*
X103868869Y-78144461D01*
X104371530Y-77641800D01*
X104889349Y-77641800D01*
X104632183Y-77813633D01*
X104393733Y-78170498D01*
X104310000Y-78591450D01*
X104310000Y-78634550D01*
X104393733Y-79055502D01*
X104632183Y-79412367D01*
X104989048Y-79650817D01*
X105410000Y-79734550D01*
X105627714Y-79691244D01*
X106254200Y-80317730D01*
X106254200Y-80452982D01*
X106187817Y-80353633D01*
X105830952Y-80115183D01*
X105410000Y-80031450D01*
X104989048Y-80115183D01*
X104632183Y-80353633D01*
X104393733Y-80710498D01*
X104314564Y-81108506D01*
X103900842Y-81522228D01*
X103970000Y-81174550D01*
X103970000Y-81131450D01*
X103886267Y-80710498D01*
X103647817Y-80353633D01*
X103290952Y-80115183D01*
X102870000Y-80031450D01*
X102449048Y-80115183D01*
X102092183Y-80353633D01*
X101853733Y-80710498D01*
X101780871Y-81076799D01*
X101367149Y-81490521D01*
X101430000Y-81174550D01*
X101430000Y-81131450D01*
X101346267Y-80710498D01*
X101107817Y-80353633D01*
X100750952Y-80115183D01*
X100330000Y-80031450D01*
X99909048Y-80115183D01*
X99552183Y-80353633D01*
X99313733Y-80710498D01*
X99230000Y-81131450D01*
X99230000Y-81174550D01*
X99313733Y-81595502D01*
X99552183Y-81952367D01*
X99909048Y-82190817D01*
X100330000Y-82274550D01*
X100440214Y-82252627D01*
X100415096Y-82313118D01*
X100414905Y-82531922D01*
X100498461Y-82734143D01*
X100653043Y-82888995D01*
X100855118Y-82972904D01*
X101073922Y-82973095D01*
X101276143Y-82889539D01*
X101430995Y-82734957D01*
X101514904Y-82532882D01*
X101515017Y-82403313D01*
X102041626Y-81876704D01*
X102092183Y-81952367D01*
X102449048Y-82190817D01*
X102870000Y-82274550D01*
X103007901Y-82247120D01*
X102980496Y-82313118D01*
X102980305Y-82531922D01*
X103063861Y-82734143D01*
X103218443Y-82888995D01*
X103420518Y-82972904D01*
X103639322Y-82973095D01*
X103767721Y-82920042D01*
X103767705Y-82938322D01*
X103851261Y-83140543D01*
X104005843Y-83295395D01*
X104207918Y-83379304D01*
X104426722Y-83379495D01*
X104628943Y-83295939D01*
X104720642Y-83204400D01*
X106146600Y-83204400D01*
X106290107Y-83175855D01*
X106411765Y-83094565D01*
X106894365Y-82611965D01*
X106935769Y-82550000D01*
X106975655Y-82490306D01*
X107004200Y-82346800D01*
X107004200Y-81700963D01*
X107172183Y-81952367D01*
X107529048Y-82190817D01*
X107950000Y-82274550D01*
X108370952Y-82190817D01*
X108727817Y-81952367D01*
X108966267Y-81595502D01*
X109050000Y-81174550D01*
X109050000Y-81131450D01*
X108966267Y-80710498D01*
X108727817Y-80353633D01*
X108370952Y-80115183D01*
X107950000Y-80031450D01*
X107529048Y-80115183D01*
X107172183Y-80353633D01*
X107004200Y-80605037D01*
X107004200Y-80162400D01*
X106975655Y-80018894D01*
X106975655Y-80018893D01*
X106894365Y-79897235D01*
X106276610Y-79279480D01*
X106426267Y-79055502D01*
X106486438Y-78753000D01*
X106850000Y-78753000D01*
X106850000Y-79512728D01*
X106888060Y-79604614D01*
X106958386Y-79674940D01*
X107050272Y-79713000D01*
X107810000Y-79713000D01*
X107872500Y-79650500D01*
X107872500Y-78690500D01*
X108027500Y-78690500D01*
X108027500Y-79650500D01*
X108090000Y-79713000D01*
X108849728Y-79713000D01*
X108941614Y-79674940D01*
X109011940Y-79604614D01*
X109050000Y-79512728D01*
X109050000Y-78753000D01*
X108987500Y-78690500D01*
X108027500Y-78690500D01*
X107872500Y-78690500D01*
X106912500Y-78690500D01*
X106850000Y-78753000D01*
X106486438Y-78753000D01*
X106510000Y-78634550D01*
X106510000Y-78591450D01*
X106426267Y-78170498D01*
X106187817Y-77813633D01*
X106037617Y-77713272D01*
X106850000Y-77713272D01*
X106850000Y-78473000D01*
X106912500Y-78535500D01*
X107872500Y-78535500D01*
X107872500Y-77575500D01*
X108027500Y-77575500D01*
X108027500Y-78535500D01*
X108987500Y-78535500D01*
X109050000Y-78473000D01*
X109050000Y-77713272D01*
X109011940Y-77621386D01*
X108941614Y-77551060D01*
X108849728Y-77513000D01*
X108090000Y-77513000D01*
X108027500Y-77575500D01*
X107872500Y-77575500D01*
X107810000Y-77513000D01*
X107050272Y-77513000D01*
X106958386Y-77551060D01*
X106888060Y-77621386D01*
X106850000Y-77713272D01*
X106037617Y-77713272D01*
X105930651Y-77641800D01*
X106197400Y-77641800D01*
X106340907Y-77613255D01*
X106462565Y-77531965D01*
X107851330Y-76143200D01*
X107933427Y-76143200D01*
X107933305Y-76283522D01*
X108016861Y-76485743D01*
X108171443Y-76640595D01*
X108373518Y-76724504D01*
X108503087Y-76724617D01*
X109251400Y-77472930D01*
X109251400Y-82782207D01*
X109160405Y-82873043D01*
X109076496Y-83075118D01*
X109076305Y-83293922D01*
X109159861Y-83496143D01*
X109314443Y-83650995D01*
X109516518Y-83734904D01*
X109735322Y-83735095D01*
X109937543Y-83651539D01*
X110092395Y-83496957D01*
X110176304Y-83294882D01*
X110176495Y-83076078D01*
X110092939Y-82873857D01*
X110001400Y-82782158D01*
X110001400Y-77317600D01*
X109978413Y-77202034D01*
X109972855Y-77174093D01*
X109891565Y-77052435D01*
X109033383Y-76194253D01*
X109033495Y-76065678D01*
X108949939Y-75863457D01*
X108795357Y-75708605D01*
X108632817Y-75641113D01*
X109205765Y-75068165D01*
X109287055Y-74946507D01*
X109315600Y-74803000D01*
X109315600Y-73180330D01*
X109327347Y-73168583D01*
X109455922Y-73168695D01*
X109658143Y-73085139D01*
X109812995Y-72930557D01*
X109896904Y-72728482D01*
X109897095Y-72509678D01*
X109813539Y-72307457D01*
X109658957Y-72152605D01*
X109456882Y-72068696D01*
X109238078Y-72068505D01*
X109035857Y-72152061D01*
X108881005Y-72306643D01*
X108797096Y-72508718D01*
X108796983Y-72638287D01*
X108675435Y-72759835D01*
X108594145Y-72881493D01*
X108594145Y-72881494D01*
X108565600Y-73025000D01*
X108565600Y-74336068D01*
X108439757Y-74210005D01*
X108237682Y-74126096D01*
X108018878Y-74125905D01*
X107816657Y-74209461D01*
X107661805Y-74364043D01*
X107577896Y-74566118D01*
X107577783Y-74695687D01*
X105838870Y-76434600D01*
X105648332Y-76434600D01*
X105774395Y-76308757D01*
X105858304Y-76106682D01*
X105858495Y-75887878D01*
X105785000Y-75710006D01*
X105785000Y-71072130D01*
X107165802Y-69691328D01*
X107180843Y-69706395D01*
X107382918Y-69790304D01*
X107601722Y-69790495D01*
X107803943Y-69706939D01*
X107958795Y-69552357D01*
X108042704Y-69350282D01*
X108042895Y-69131478D01*
X107959339Y-68929257D01*
X107804757Y-68774405D01*
X107602682Y-68690496D01*
X107383878Y-68690305D01*
X107181657Y-68773861D01*
X107089958Y-68865400D01*
X107086400Y-68865400D01*
X106942894Y-68893945D01*
X106821235Y-68975235D01*
X105144835Y-70651635D01*
X105063545Y-70773293D01*
X105063545Y-70773294D01*
X105035000Y-70916800D01*
X105035000Y-75514666D01*
X104997257Y-75530261D01*
X104842405Y-75684843D01*
X104758496Y-75886918D01*
X104758305Y-76105722D01*
X104841861Y-76307943D01*
X104968297Y-76434600D01*
X101168200Y-76434600D01*
X101024694Y-76463145D01*
X100903035Y-76544435D01*
X100064835Y-77382635D01*
X99983545Y-77504293D01*
X99983545Y-77504294D01*
X99971932Y-77562674D01*
X99909048Y-77575183D01*
X99552183Y-77813633D01*
X99313733Y-78170498D01*
X99230000Y-78591450D01*
X99048920Y-78591450D01*
X99048920Y-77587230D01*
X104369605Y-72266545D01*
X104450895Y-72144887D01*
X104479440Y-72001380D01*
X104479440Y-69250950D01*
X105466885Y-68263505D01*
X105548175Y-68141847D01*
X105576720Y-67998340D01*
X105576720Y-67184473D01*
X105667715Y-67093637D01*
X105751624Y-66891562D01*
X105751815Y-66672758D01*
X105668259Y-66470537D01*
X105513677Y-66315685D01*
X105311602Y-66231776D01*
X105092798Y-66231585D01*
X104910644Y-66306849D01*
X104913165Y-66305165D01*
X105281562Y-65936768D01*
X105281545Y-65955882D01*
X105365101Y-66158103D01*
X105519683Y-66312955D01*
X105721758Y-66396864D01*
X105940562Y-66397055D01*
X106142783Y-66313499D01*
X106297635Y-66158917D01*
X106381544Y-65956842D01*
X106381657Y-65827273D01*
X107443005Y-64765925D01*
X107524295Y-64644267D01*
X107552840Y-64500760D01*
X107552840Y-63508010D01*
X107981147Y-63079703D01*
X108109722Y-63079815D01*
X108311943Y-62996259D01*
X108466795Y-62841677D01*
X108550704Y-62639602D01*
X108550895Y-62420798D01*
X108467339Y-62218577D01*
X108312757Y-62063725D01*
X108110682Y-61979816D01*
X107891878Y-61979625D01*
X107689657Y-62063181D01*
X107534805Y-62217763D01*
X107450896Y-62419838D01*
X107450783Y-62549407D01*
X107055000Y-62945190D01*
X107055000Y-58196957D01*
X107100952Y-58187817D01*
X107457817Y-57949367D01*
X107696267Y-57592502D01*
X107780000Y-57171550D01*
X107780000Y-57128450D01*
X108120000Y-57128450D01*
X108120000Y-57171550D01*
X108203733Y-57592502D01*
X108442183Y-57949367D01*
X108799048Y-58187817D01*
X109220000Y-58271550D01*
X109640952Y-58187817D01*
X109997817Y-57949367D01*
X110236267Y-57592502D01*
X110320000Y-57171550D01*
X110320000Y-57128450D01*
X110236267Y-56707498D01*
X109997817Y-56350633D01*
X109640952Y-56112183D01*
X109220000Y-56028450D01*
X108799048Y-56112183D01*
X108442183Y-56350633D01*
X108203733Y-56707498D01*
X108120000Y-57128450D01*
X107780000Y-57128450D01*
X107696267Y-56707498D01*
X107457817Y-56350633D01*
X107100952Y-56112183D01*
X106680000Y-56028450D01*
X106259048Y-56112183D01*
X105902183Y-56350633D01*
X105663733Y-56707498D01*
X105580000Y-57128450D01*
X105580000Y-57171550D01*
X105663733Y-57592502D01*
X105902183Y-57949367D01*
X106259048Y-58187817D01*
X106305000Y-58196957D01*
X106305000Y-63852670D01*
X104492670Y-65665000D01*
X103907793Y-65665000D01*
X103816957Y-65574005D01*
X103629291Y-65496079D01*
X104405165Y-64720205D01*
X104486455Y-64598547D01*
X104515000Y-64455040D01*
X104515000Y-58196957D01*
X104560952Y-58187817D01*
X104917817Y-57949367D01*
X105156267Y-57592502D01*
X105240000Y-57171550D01*
X105240000Y-57128450D01*
X105156267Y-56707498D01*
X104917817Y-56350633D01*
X104560952Y-56112183D01*
X104140000Y-56028450D01*
X103719048Y-56112183D01*
X103362183Y-56350633D01*
X103123733Y-56707498D01*
X103040000Y-57128450D01*
X103040000Y-57171550D01*
X103123733Y-57592502D01*
X103362183Y-57949367D01*
X103719048Y-58187817D01*
X103765000Y-58196957D01*
X103765000Y-64299710D01*
X102589595Y-65475115D01*
X102508305Y-65596773D01*
X102508305Y-65596774D01*
X102479760Y-65740280D01*
X102479760Y-66339720D01*
X102508305Y-66483227D01*
X102589595Y-66604885D01*
X103011235Y-67026525D01*
X103132893Y-67107815D01*
X103276400Y-67136360D01*
X103624794Y-67136360D01*
X103506365Y-67254583D01*
X103422456Y-67456658D01*
X103422343Y-67586227D01*
X103336355Y-67672215D01*
X103255065Y-67793873D01*
X103226520Y-67937380D01*
X103226520Y-71594590D01*
X98444071Y-76377039D01*
X98368299Y-76193657D01*
X98213717Y-76038805D01*
X98011642Y-75954896D01*
X97792838Y-75954705D01*
X97590617Y-76038261D01*
X97435765Y-76192843D01*
X97351856Y-76394918D01*
X97351665Y-76613722D01*
X97435221Y-76815943D01*
X97589803Y-76970795D01*
X97773880Y-77047230D01*
X97740735Y-77080375D01*
X97659445Y-77202033D01*
X97659445Y-77202034D01*
X97630900Y-77345540D01*
X97630900Y-81477730D01*
X96933630Y-82175000D01*
X96285254Y-82175000D01*
X96183078Y-81927714D01*
X95873913Y-81618009D01*
X95469763Y-81450192D01*
X95032156Y-81449810D01*
X94627714Y-81616922D01*
X94318009Y-81926087D01*
X94150192Y-82330237D01*
X94149810Y-82767844D01*
X94100000Y-82767844D01*
X94100000Y-81330000D01*
X97155000Y-81330000D01*
X97173173Y-81326581D01*
X97189864Y-81315840D01*
X97201061Y-81299453D01*
X97205000Y-81280000D01*
X97205000Y-66040000D01*
X97201581Y-66021827D01*
X97190840Y-66005136D01*
X97174453Y-65993939D01*
X97155000Y-65990000D01*
X94100000Y-65990000D01*
X94100000Y-65571655D01*
X94557947Y-65571655D01*
X94655045Y-65720738D01*
X95064164Y-65876047D01*
X95501575Y-65862970D01*
X95844955Y-65720738D01*
X95942053Y-65571655D01*
X95250000Y-64879602D01*
X94557947Y-65571655D01*
X94100000Y-65571655D01*
X94100000Y-64584164D01*
X94143953Y-64584164D01*
X94157030Y-65021575D01*
X94299262Y-65364955D01*
X94448345Y-65462053D01*
X95140398Y-64770000D01*
X95359602Y-64770000D01*
X96051655Y-65462053D01*
X96200738Y-65364955D01*
X96356047Y-64955836D01*
X96342970Y-64518425D01*
X96200738Y-64175045D01*
X96051655Y-64077947D01*
X95359602Y-64770000D01*
X95140398Y-64770000D01*
X94448345Y-64077947D01*
X94299262Y-64175045D01*
X94143953Y-64584164D01*
X94100000Y-64584164D01*
X94100000Y-63968345D01*
X94557947Y-63968345D01*
X95250000Y-64660398D01*
X95942053Y-63968345D01*
X95844955Y-63819262D01*
X95435836Y-63663953D01*
X94998425Y-63677030D01*
X94655045Y-63819262D01*
X94557947Y-63968345D01*
X94100000Y-63968345D01*
X94100000Y-62478197D01*
X94178359Y-62478197D01*
X94354914Y-62869403D01*
X94667737Y-63163266D01*
X95001804Y-63301633D01*
X95172500Y-63264601D01*
X95172500Y-62307500D01*
X95327500Y-62307500D01*
X95327500Y-63264601D01*
X95498196Y-63301633D01*
X95832263Y-63163266D01*
X96145086Y-62869403D01*
X96321641Y-62478197D01*
X96284774Y-62307500D01*
X95327500Y-62307500D01*
X95172500Y-62307500D01*
X94215226Y-62307500D01*
X94178359Y-62478197D01*
X94100000Y-62478197D01*
X94100000Y-62208450D01*
X96690000Y-62208450D01*
X96690000Y-62251550D01*
X96773733Y-62672502D01*
X97012183Y-63029367D01*
X97369048Y-63267817D01*
X97790000Y-63351550D01*
X98210952Y-63267817D01*
X98567817Y-63029367D01*
X98685000Y-62853991D01*
X98685000Y-63032640D01*
X98713545Y-63176147D01*
X98794835Y-63297805D01*
X100590277Y-65093247D01*
X100590165Y-65221822D01*
X100673721Y-65424043D01*
X100828303Y-65578895D01*
X101030378Y-65662804D01*
X101249182Y-65662995D01*
X101451403Y-65579439D01*
X101606255Y-65424857D01*
X101690164Y-65222782D01*
X101690355Y-65003978D01*
X101606799Y-64801757D01*
X101452217Y-64646905D01*
X101250142Y-64562996D01*
X101120573Y-64562883D01*
X99729334Y-63171644D01*
X100110237Y-63329808D01*
X100547844Y-63330190D01*
X100952286Y-63163078D01*
X101261991Y-62853913D01*
X101429808Y-62449763D01*
X101430190Y-62012156D01*
X101263078Y-61607714D01*
X100953913Y-61298009D01*
X100549763Y-61130192D01*
X100112156Y-61129810D01*
X99707714Y-61296922D01*
X99435000Y-61569160D01*
X99435000Y-60725254D01*
X99682286Y-60623078D01*
X99991991Y-60313913D01*
X100159808Y-59909763D01*
X100159809Y-59907844D01*
X100499810Y-59907844D01*
X100666922Y-60312286D01*
X100976087Y-60621991D01*
X101380237Y-60789808D01*
X101817844Y-60790190D01*
X102222286Y-60623078D01*
X102531991Y-60313913D01*
X102699808Y-59909763D01*
X102700190Y-59472156D01*
X102533078Y-59067714D01*
X102223913Y-58758009D01*
X101819763Y-58590192D01*
X101382156Y-58589810D01*
X100977714Y-58756922D01*
X100668009Y-59066087D01*
X100500192Y-59470237D01*
X100499810Y-59907844D01*
X100159809Y-59907844D01*
X100160190Y-59472156D01*
X99993078Y-59067714D01*
X99683913Y-58758009D01*
X99279763Y-58590192D01*
X98842156Y-58589810D01*
X98437714Y-58756922D01*
X98128009Y-59066087D01*
X97960192Y-59470237D01*
X97959810Y-59907844D01*
X98126922Y-60312286D01*
X98436087Y-60621991D01*
X98685000Y-60725348D01*
X98685000Y-61606009D01*
X98567817Y-61430633D01*
X98210952Y-61192183D01*
X97790000Y-61108450D01*
X97369048Y-61192183D01*
X97012183Y-61430633D01*
X96773733Y-61787498D01*
X96690000Y-62208450D01*
X94100000Y-62208450D01*
X94100000Y-61981803D01*
X94178359Y-61981803D01*
X94215226Y-62152500D01*
X95172500Y-62152500D01*
X95172500Y-61195399D01*
X95327500Y-61195399D01*
X95327500Y-62152500D01*
X96284774Y-62152500D01*
X96321641Y-61981803D01*
X96145086Y-61590597D01*
X95832263Y-61296734D01*
X95498196Y-61158367D01*
X95327500Y-61195399D01*
X95172500Y-61195399D01*
X95001804Y-61158367D01*
X94667737Y-61296734D01*
X94354914Y-61590597D01*
X94178359Y-61981803D01*
X94100000Y-61981803D01*
X94100000Y-60491655D01*
X95827947Y-60491655D01*
X95925045Y-60640738D01*
X96334164Y-60796047D01*
X96771575Y-60782970D01*
X97114955Y-60640738D01*
X97212053Y-60491655D01*
X96520000Y-59799602D01*
X95827947Y-60491655D01*
X94100000Y-60491655D01*
X94100000Y-59504164D01*
X95413953Y-59504164D01*
X95427030Y-59941575D01*
X95569262Y-60284955D01*
X95718345Y-60382053D01*
X96410398Y-59690000D01*
X96629602Y-59690000D01*
X97321655Y-60382053D01*
X97470738Y-60284955D01*
X97626047Y-59875836D01*
X97612970Y-59438425D01*
X97470738Y-59095045D01*
X97321655Y-58997947D01*
X96629602Y-59690000D01*
X96410398Y-59690000D01*
X95718345Y-58997947D01*
X95569262Y-59095045D01*
X95413953Y-59504164D01*
X94100000Y-59504164D01*
X94100000Y-58888345D01*
X95827947Y-58888345D01*
X96520000Y-59580398D01*
X97212053Y-58888345D01*
X97114955Y-58739262D01*
X96705836Y-58583953D01*
X96268425Y-58597030D01*
X95925045Y-58739262D01*
X95827947Y-58888345D01*
X94100000Y-58888345D01*
X94100000Y-57951655D01*
X95827947Y-57951655D01*
X95925045Y-58100738D01*
X96334164Y-58256047D01*
X96771575Y-58242970D01*
X97114955Y-58100738D01*
X97212053Y-57951655D01*
X96520000Y-57259602D01*
X95827947Y-57951655D01*
X94100000Y-57951655D01*
X94100000Y-56964164D01*
X95413953Y-56964164D01*
X95427030Y-57401575D01*
X95569262Y-57744955D01*
X95718345Y-57842053D01*
X96410398Y-57150000D01*
X96629602Y-57150000D01*
X97321655Y-57842053D01*
X97470738Y-57744955D01*
X97602373Y-57398197D01*
X97988359Y-57398197D01*
X98164914Y-57789403D01*
X98477737Y-58083266D01*
X98811804Y-58221633D01*
X98982500Y-58184601D01*
X98982500Y-57227500D01*
X99137500Y-57227500D01*
X99137500Y-58184601D01*
X99308196Y-58221633D01*
X99642263Y-58083266D01*
X99955086Y-57789403D01*
X100131641Y-57398197D01*
X100094774Y-57227500D01*
X99137500Y-57227500D01*
X98982500Y-57227500D01*
X98025226Y-57227500D01*
X97988359Y-57398197D01*
X97602373Y-57398197D01*
X97626047Y-57335836D01*
X97619847Y-57128450D01*
X100500000Y-57128450D01*
X100500000Y-57171550D01*
X100583733Y-57592502D01*
X100822183Y-57949367D01*
X101179048Y-58187817D01*
X101600000Y-58271550D01*
X102020952Y-58187817D01*
X102377817Y-57949367D01*
X102616267Y-57592502D01*
X102700000Y-57171550D01*
X102700000Y-57128450D01*
X102616267Y-56707498D01*
X102377817Y-56350633D01*
X102020952Y-56112183D01*
X101600000Y-56028450D01*
X101179048Y-56112183D01*
X100822183Y-56350633D01*
X100583733Y-56707498D01*
X100500000Y-57128450D01*
X97619847Y-57128450D01*
X97613071Y-56901803D01*
X97988359Y-56901803D01*
X98025226Y-57072500D01*
X98982500Y-57072500D01*
X98982500Y-56115399D01*
X99137500Y-56115399D01*
X99137500Y-57072500D01*
X100094774Y-57072500D01*
X100131641Y-56901803D01*
X99955086Y-56510597D01*
X99642263Y-56216734D01*
X99308196Y-56078367D01*
X99137500Y-56115399D01*
X98982500Y-56115399D01*
X98811804Y-56078367D01*
X98477737Y-56216734D01*
X98164914Y-56510597D01*
X97988359Y-56901803D01*
X97613071Y-56901803D01*
X97612970Y-56898425D01*
X97470738Y-56555045D01*
X97321655Y-56457947D01*
X96629602Y-57150000D01*
X96410398Y-57150000D01*
X95718345Y-56457947D01*
X95569262Y-56555045D01*
X95413953Y-56964164D01*
X94100000Y-56964164D01*
X94100000Y-56348345D01*
X95827947Y-56348345D01*
X96520000Y-57040398D01*
X97212053Y-56348345D01*
X97114955Y-56199262D01*
X96705836Y-56043953D01*
X96268425Y-56057030D01*
X95925045Y-56199262D01*
X95827947Y-56348345D01*
X94100000Y-56348345D01*
X94100000Y-55900000D01*
X111700000Y-55900000D01*
X111700000Y-87500000D01*
M02*
