M48
;DRILL file {KiCad 4.0.7+dfsg1-1~bpo9+1} date Fri Jan  5 13:44:21 2018
;FORMAT={-:-/ absolute / metric / decimal}
FMAT,2
METRIC,TZ
T1C0.400
T2C1.000
%
G90
G05
M71
T1
X96.967Y-86.401
X97.902Y-76.505
X99.802Y-68.804
X100.437Y-73.106
X100.965Y-82.423
X101.14Y-65.113
X101.31Y-63.607
X103.505Y-66.04
X103.53Y-82.423
X103.972Y-67.567
X104.237Y-66.761
X104.318Y-82.829
X105.202Y-66.782
X105.308Y-75.997
X105.832Y-65.847
X107.493Y-69.24
X108.001Y-62.53
X108.092Y-77.053
X108.128Y-74.676
X108.184Y-68.158
X108.483Y-76.175
X109.347Y-72.619
X109.626Y-83.185
X109.748Y-85.933
X110.266Y-63.972
X111.237Y-57.821
T2
X95.25Y-62.23
X95.25Y-64.77
X95.25Y-82.55
X95.25Y-85.09
X96.52Y-57.15
X96.52Y-59.69
X97.79Y-62.23
X99.06Y-57.15
X99.06Y-59.69
X100.33Y-62.23
X100.33Y-78.613
X100.33Y-81.153
X101.6Y-57.15
X101.6Y-59.69
X102.87Y-78.613
X102.87Y-81.153
X104.14Y-57.15
X105.41Y-78.613
X105.41Y-81.153
X106.68Y-57.15
X107.95Y-78.613
X107.95Y-81.153
X109.22Y-57.15
T0
M30
